G04 #@! TF.GenerationSoftware,KiCad,Pcbnew,(5.1.2)-1*
G04 #@! TF.CreationDate,2019-08-14T03:07:58+02:00*
G04 #@! TF.ProjectId,SmokESP8266,536d6f6b-4553-4503-9832-36362e6b6963,rev?*
G04 #@! TF.SameCoordinates,Original*
G04 #@! TF.FileFunction,Legend,Bot*
G04 #@! TF.FilePolarity,Positive*
%FSLAX46Y46*%
G04 Gerber Fmt 4.6, Leading zero omitted, Abs format (unit mm)*
G04 Created by KiCad (PCBNEW (5.1.2)-1) date 2019-08-14 03:07:58*
%MOMM*%
%LPD*%
G04 APERTURE LIST*
%ADD10C,0.100000*%
%ADD11C,0.010000*%
%ADD12C,0.120000*%
%ADD13C,0.150000*%
G04 APERTURE END LIST*
D10*
X126602857Y-94701285D02*
X126436190Y-94701285D01*
X126364761Y-94963190D02*
X126602857Y-94963190D01*
X126602857Y-94463190D01*
X126364761Y-94463190D01*
X126174285Y-94939380D02*
X126102857Y-94963190D01*
X125983809Y-94963190D01*
X125936190Y-94939380D01*
X125912380Y-94915571D01*
X125888571Y-94867952D01*
X125888571Y-94820333D01*
X125912380Y-94772714D01*
X125936190Y-94748904D01*
X125983809Y-94725095D01*
X126079047Y-94701285D01*
X126126666Y-94677476D01*
X126150476Y-94653666D01*
X126174285Y-94606047D01*
X126174285Y-94558428D01*
X126150476Y-94510809D01*
X126126666Y-94487000D01*
X126079047Y-94463190D01*
X125960000Y-94463190D01*
X125888571Y-94487000D01*
X125674285Y-94963190D02*
X125674285Y-94463190D01*
X125483809Y-94463190D01*
X125436190Y-94487000D01*
X125412380Y-94510809D01*
X125388571Y-94558428D01*
X125388571Y-94629857D01*
X125412380Y-94677476D01*
X125436190Y-94701285D01*
X125483809Y-94725095D01*
X125674285Y-94725095D01*
X125221904Y-94463190D02*
X124912380Y-94463190D01*
X125079047Y-94653666D01*
X125007619Y-94653666D01*
X124960000Y-94677476D01*
X124936190Y-94701285D01*
X124912380Y-94748904D01*
X124912380Y-94867952D01*
X124936190Y-94915571D01*
X124960000Y-94939380D01*
X125007619Y-94963190D01*
X125150476Y-94963190D01*
X125198095Y-94939380D01*
X125221904Y-94915571D01*
X124721904Y-94510809D02*
X124698095Y-94487000D01*
X124650476Y-94463190D01*
X124531428Y-94463190D01*
X124483809Y-94487000D01*
X124460000Y-94510809D01*
X124436190Y-94558428D01*
X124436190Y-94606047D01*
X124460000Y-94677476D01*
X124745714Y-94963190D01*
X124436190Y-94963190D01*
X123864761Y-94439380D02*
X124293333Y-95082238D01*
X123745714Y-94463190D02*
X123436190Y-94463190D01*
X123602857Y-94653666D01*
X123531428Y-94653666D01*
X123483809Y-94677476D01*
X123460000Y-94701285D01*
X123436190Y-94748904D01*
X123436190Y-94867952D01*
X123460000Y-94915571D01*
X123483809Y-94939380D01*
X123531428Y-94963190D01*
X123674285Y-94963190D01*
X123721904Y-94939380D01*
X123745714Y-94915571D01*
X123221904Y-94915571D02*
X123198095Y-94939380D01*
X123221904Y-94963190D01*
X123245714Y-94939380D01*
X123221904Y-94915571D01*
X123221904Y-94963190D01*
X123031428Y-94463190D02*
X122721904Y-94463190D01*
X122888571Y-94653666D01*
X122817142Y-94653666D01*
X122769523Y-94677476D01*
X122745714Y-94701285D01*
X122721904Y-94748904D01*
X122721904Y-94867952D01*
X122745714Y-94915571D01*
X122769523Y-94939380D01*
X122817142Y-94963190D01*
X122960000Y-94963190D01*
X123007619Y-94939380D01*
X123031428Y-94915571D01*
X122579047Y-94463190D02*
X122412380Y-94963190D01*
X122245714Y-94463190D01*
X127602857Y-95789380D02*
X127531428Y-95813190D01*
X127412380Y-95813190D01*
X127364761Y-95789380D01*
X127340952Y-95765571D01*
X127317142Y-95717952D01*
X127317142Y-95670333D01*
X127340952Y-95622714D01*
X127364761Y-95598904D01*
X127412380Y-95575095D01*
X127507619Y-95551285D01*
X127555238Y-95527476D01*
X127579047Y-95503666D01*
X127602857Y-95456047D01*
X127602857Y-95408428D01*
X127579047Y-95360809D01*
X127555238Y-95337000D01*
X127507619Y-95313190D01*
X127388571Y-95313190D01*
X127317142Y-95337000D01*
X127102857Y-95813190D02*
X127102857Y-95479857D01*
X127102857Y-95527476D02*
X127079047Y-95503666D01*
X127031428Y-95479857D01*
X126960000Y-95479857D01*
X126912380Y-95503666D01*
X126888571Y-95551285D01*
X126888571Y-95813190D01*
X126888571Y-95551285D02*
X126864761Y-95503666D01*
X126817142Y-95479857D01*
X126745714Y-95479857D01*
X126698095Y-95503666D01*
X126674285Y-95551285D01*
X126674285Y-95813190D01*
X126364761Y-95813190D02*
X126412380Y-95789380D01*
X126436190Y-95765571D01*
X126460000Y-95717952D01*
X126460000Y-95575095D01*
X126436190Y-95527476D01*
X126412380Y-95503666D01*
X126364761Y-95479857D01*
X126293333Y-95479857D01*
X126245714Y-95503666D01*
X126221904Y-95527476D01*
X126198095Y-95575095D01*
X126198095Y-95717952D01*
X126221904Y-95765571D01*
X126245714Y-95789380D01*
X126293333Y-95813190D01*
X126364761Y-95813190D01*
X125983809Y-95813190D02*
X125983809Y-95313190D01*
X125936190Y-95622714D02*
X125793333Y-95813190D01*
X125793333Y-95479857D02*
X125983809Y-95670333D01*
X125388571Y-95789380D02*
X125436190Y-95813190D01*
X125531428Y-95813190D01*
X125579047Y-95789380D01*
X125602857Y-95741761D01*
X125602857Y-95551285D01*
X125579047Y-95503666D01*
X125531428Y-95479857D01*
X125436190Y-95479857D01*
X125388571Y-95503666D01*
X125364761Y-95551285D01*
X125364761Y-95598904D01*
X125602857Y-95646523D01*
X124769523Y-95551285D02*
X124602857Y-95551285D01*
X124531428Y-95813190D02*
X124769523Y-95813190D01*
X124769523Y-95313190D01*
X124531428Y-95313190D01*
X124364761Y-95479857D02*
X124245714Y-95813190D01*
X124126666Y-95479857D01*
X123721904Y-95813190D02*
X123721904Y-95551285D01*
X123745714Y-95503666D01*
X123793333Y-95479857D01*
X123888571Y-95479857D01*
X123936190Y-95503666D01*
X123721904Y-95789380D02*
X123769523Y-95813190D01*
X123888571Y-95813190D01*
X123936190Y-95789380D01*
X123960000Y-95741761D01*
X123960000Y-95694142D01*
X123936190Y-95646523D01*
X123888571Y-95622714D01*
X123769523Y-95622714D01*
X123721904Y-95598904D01*
X123269523Y-95789380D02*
X123317142Y-95813190D01*
X123412380Y-95813190D01*
X123460000Y-95789380D01*
X123483809Y-95765571D01*
X123507619Y-95717952D01*
X123507619Y-95575095D01*
X123483809Y-95527476D01*
X123460000Y-95503666D01*
X123412380Y-95479857D01*
X123317142Y-95479857D01*
X123269523Y-95503666D01*
X122840952Y-95479857D02*
X122840952Y-95813190D01*
X123055238Y-95479857D02*
X123055238Y-95741761D01*
X123031428Y-95789380D01*
X122983809Y-95813190D01*
X122912380Y-95813190D01*
X122864761Y-95789380D01*
X122840952Y-95765571D01*
X122388571Y-95813190D02*
X122388571Y-95551285D01*
X122412380Y-95503666D01*
X122460000Y-95479857D01*
X122555238Y-95479857D01*
X122602857Y-95503666D01*
X122388571Y-95789380D02*
X122436190Y-95813190D01*
X122555238Y-95813190D01*
X122602857Y-95789380D01*
X122626666Y-95741761D01*
X122626666Y-95694142D01*
X122602857Y-95646523D01*
X122555238Y-95622714D01*
X122436190Y-95622714D01*
X122388571Y-95598904D01*
X122221904Y-95479857D02*
X122031428Y-95479857D01*
X122150476Y-95313190D02*
X122150476Y-95741761D01*
X122126666Y-95789380D01*
X122079047Y-95813190D01*
X122031428Y-95813190D01*
X121793333Y-95813190D02*
X121840952Y-95789380D01*
X121864761Y-95765571D01*
X121888571Y-95717952D01*
X121888571Y-95575095D01*
X121864761Y-95527476D01*
X121840952Y-95503666D01*
X121793333Y-95479857D01*
X121721904Y-95479857D01*
X121674285Y-95503666D01*
X121650476Y-95527476D01*
X121626666Y-95575095D01*
X121626666Y-95717952D01*
X121650476Y-95765571D01*
X121674285Y-95789380D01*
X121721904Y-95813190D01*
X121793333Y-95813190D01*
X121412380Y-95813190D02*
X121412380Y-95479857D01*
X121412380Y-95575095D02*
X121388571Y-95527476D01*
X121364761Y-95503666D01*
X121317142Y-95479857D01*
X121269523Y-95479857D01*
X127721904Y-96663190D02*
X127721904Y-96163190D01*
X127602857Y-96163190D01*
X127531428Y-96187000D01*
X127483809Y-96234619D01*
X127460000Y-96282238D01*
X127436190Y-96377476D01*
X127436190Y-96448904D01*
X127460000Y-96544142D01*
X127483809Y-96591761D01*
X127531428Y-96639380D01*
X127602857Y-96663190D01*
X127721904Y-96663190D01*
X127221904Y-96663190D02*
X127221904Y-96329857D01*
X127221904Y-96425095D02*
X127198095Y-96377476D01*
X127174285Y-96353666D01*
X127126666Y-96329857D01*
X127079047Y-96329857D01*
X126245714Y-96615571D02*
X126269523Y-96639380D01*
X126340952Y-96663190D01*
X126388571Y-96663190D01*
X126460000Y-96639380D01*
X126507619Y-96591761D01*
X126531428Y-96544142D01*
X126555238Y-96448904D01*
X126555238Y-96377476D01*
X126531428Y-96282238D01*
X126507619Y-96234619D01*
X126460000Y-96187000D01*
X126388571Y-96163190D01*
X126340952Y-96163190D01*
X126269523Y-96187000D01*
X126245714Y-96210809D01*
X126055238Y-96520333D02*
X125817142Y-96520333D01*
X126102857Y-96663190D02*
X125936190Y-96163190D01*
X125769523Y-96663190D01*
X125602857Y-96663190D02*
X125602857Y-96163190D01*
X125483809Y-96163190D01*
X125412380Y-96187000D01*
X125364761Y-96234619D01*
X125340952Y-96282238D01*
X125317142Y-96377476D01*
X125317142Y-96448904D01*
X125340952Y-96544142D01*
X125364761Y-96591761D01*
X125412380Y-96639380D01*
X125483809Y-96663190D01*
X125602857Y-96663190D01*
X125102857Y-96663190D02*
X125102857Y-96163190D01*
X124579047Y-96615571D02*
X124602857Y-96639380D01*
X124674285Y-96663190D01*
X124721904Y-96663190D01*
X124793333Y-96639380D01*
X124840952Y-96591761D01*
X124864761Y-96544142D01*
X124888571Y-96448904D01*
X124888571Y-96377476D01*
X124864761Y-96282238D01*
X124840952Y-96234619D01*
X124793333Y-96187000D01*
X124721904Y-96163190D01*
X124674285Y-96163190D01*
X124602857Y-96187000D01*
X124579047Y-96210809D01*
X123983809Y-96663190D02*
X123983809Y-96163190D01*
X123793333Y-96163190D01*
X123745714Y-96187000D01*
X123721904Y-96210809D01*
X123698095Y-96258428D01*
X123698095Y-96329857D01*
X123721904Y-96377476D01*
X123745714Y-96401285D01*
X123793333Y-96425095D01*
X123983809Y-96425095D01*
X123483809Y-96663190D02*
X123483809Y-96163190D01*
X123269523Y-96663190D02*
X123269523Y-96401285D01*
X123293333Y-96353666D01*
X123340952Y-96329857D01*
X123412380Y-96329857D01*
X123460000Y-96353666D01*
X123483809Y-96377476D01*
X123031428Y-96663190D02*
X123031428Y-96329857D01*
X123031428Y-96163190D02*
X123055238Y-96187000D01*
X123031428Y-96210809D01*
X123007619Y-96187000D01*
X123031428Y-96163190D01*
X123031428Y-96210809D01*
X122721904Y-96663190D02*
X122769523Y-96639380D01*
X122793333Y-96591761D01*
X122793333Y-96163190D01*
X122531428Y-96663190D02*
X122531428Y-96329857D01*
X122531428Y-96163190D02*
X122555238Y-96187000D01*
X122531428Y-96210809D01*
X122507619Y-96187000D01*
X122531428Y-96163190D01*
X122531428Y-96210809D01*
X122293333Y-96329857D02*
X122293333Y-96829857D01*
X122293333Y-96353666D02*
X122245714Y-96329857D01*
X122150476Y-96329857D01*
X122102857Y-96353666D01*
X122079047Y-96377476D01*
X122055238Y-96425095D01*
X122055238Y-96567952D01*
X122079047Y-96615571D01*
X122102857Y-96639380D01*
X122150476Y-96663190D01*
X122245714Y-96663190D01*
X122293333Y-96639380D01*
X121840952Y-96329857D02*
X121840952Y-96829857D01*
X121840952Y-96353666D02*
X121793333Y-96329857D01*
X121698095Y-96329857D01*
X121650476Y-96353666D01*
X121626666Y-96377476D01*
X121602857Y-96425095D01*
X121602857Y-96567952D01*
X121626666Y-96615571D01*
X121650476Y-96639380D01*
X121698095Y-96663190D01*
X121793333Y-96663190D01*
X121840952Y-96639380D01*
X121198095Y-96639380D02*
X121245714Y-96663190D01*
X121340952Y-96663190D01*
X121388571Y-96639380D01*
X121412380Y-96591761D01*
X121412380Y-96401285D01*
X121388571Y-96353666D01*
X121340952Y-96329857D01*
X121245714Y-96329857D01*
X121198095Y-96353666D01*
X121174285Y-96401285D01*
X121174285Y-96448904D01*
X121412380Y-96496523D01*
X126233809Y-97275095D02*
X126257619Y-97251285D01*
X126305238Y-97227476D01*
X126352857Y-97227476D01*
X126400476Y-97251285D01*
X126424285Y-97275095D01*
X126448095Y-97322714D01*
X126448095Y-97370333D01*
X126424285Y-97417952D01*
X126400476Y-97441761D01*
X126352857Y-97465571D01*
X126305238Y-97465571D01*
X126257619Y-97441761D01*
X126233809Y-97417952D01*
X126233809Y-97227476D02*
X126233809Y-97417952D01*
X126210000Y-97441761D01*
X126186190Y-97441761D01*
X126138571Y-97417952D01*
X126114761Y-97370333D01*
X126114761Y-97251285D01*
X126162380Y-97179857D01*
X126233809Y-97132238D01*
X126329047Y-97108428D01*
X126424285Y-97132238D01*
X126495714Y-97179857D01*
X126543333Y-97251285D01*
X126567142Y-97346523D01*
X126543333Y-97441761D01*
X126495714Y-97513190D01*
X126424285Y-97560809D01*
X126329047Y-97584619D01*
X126233809Y-97560809D01*
X126162380Y-97513190D01*
X125900476Y-97179857D02*
X125900476Y-97679857D01*
X125900476Y-97203666D02*
X125852857Y-97179857D01*
X125757619Y-97179857D01*
X125710000Y-97203666D01*
X125686190Y-97227476D01*
X125662380Y-97275095D01*
X125662380Y-97417952D01*
X125686190Y-97465571D01*
X125710000Y-97489380D01*
X125757619Y-97513190D01*
X125852857Y-97513190D01*
X125900476Y-97489380D01*
X125495714Y-97179857D02*
X125400476Y-97513190D01*
X125305238Y-97275095D01*
X125210000Y-97513190D01*
X125114761Y-97179857D01*
X124710000Y-97513190D02*
X124710000Y-97251285D01*
X124733809Y-97203666D01*
X124781428Y-97179857D01*
X124876666Y-97179857D01*
X124924285Y-97203666D01*
X124710000Y-97489380D02*
X124757619Y-97513190D01*
X124876666Y-97513190D01*
X124924285Y-97489380D01*
X124948095Y-97441761D01*
X124948095Y-97394142D01*
X124924285Y-97346523D01*
X124876666Y-97322714D01*
X124757619Y-97322714D01*
X124710000Y-97298904D01*
X124519523Y-97179857D02*
X124400476Y-97513190D01*
X124281428Y-97179857D01*
X124090952Y-97513190D02*
X124090952Y-97179857D01*
X124090952Y-97275095D02*
X124067142Y-97227476D01*
X124043333Y-97203666D01*
X123995714Y-97179857D01*
X123948095Y-97179857D01*
X123710000Y-97513190D02*
X123757619Y-97489380D01*
X123781428Y-97465571D01*
X123805238Y-97417952D01*
X123805238Y-97275095D01*
X123781428Y-97227476D01*
X123757619Y-97203666D01*
X123710000Y-97179857D01*
X123638571Y-97179857D01*
X123590952Y-97203666D01*
X123567142Y-97227476D01*
X123543333Y-97275095D01*
X123543333Y-97417952D01*
X123567142Y-97465571D01*
X123590952Y-97489380D01*
X123638571Y-97513190D01*
X123710000Y-97513190D01*
X123329047Y-97513190D02*
X123329047Y-97013190D01*
X123329047Y-97203666D02*
X123281428Y-97179857D01*
X123186190Y-97179857D01*
X123138571Y-97203666D01*
X123114761Y-97227476D01*
X123090952Y-97275095D01*
X123090952Y-97417952D01*
X123114761Y-97465571D01*
X123138571Y-97489380D01*
X123186190Y-97513190D01*
X123281428Y-97513190D01*
X123329047Y-97489380D01*
X122805238Y-97513190D02*
X122852857Y-97489380D01*
X122876666Y-97465571D01*
X122900476Y-97417952D01*
X122900476Y-97275095D01*
X122876666Y-97227476D01*
X122852857Y-97203666D01*
X122805238Y-97179857D01*
X122733809Y-97179857D01*
X122686190Y-97203666D01*
X122662380Y-97227476D01*
X122638571Y-97275095D01*
X122638571Y-97417952D01*
X122662380Y-97465571D01*
X122686190Y-97489380D01*
X122733809Y-97513190D01*
X122805238Y-97513190D01*
X122495714Y-97179857D02*
X122305238Y-97179857D01*
X122424285Y-97013190D02*
X122424285Y-97441761D01*
X122400476Y-97489380D01*
X122352857Y-97513190D01*
X122305238Y-97513190D01*
D11*
G36*
X116955157Y-112604410D02*
G01*
X116727041Y-112795781D01*
X116606589Y-112984386D01*
X116600145Y-113056375D01*
X116693745Y-113006018D01*
X116854854Y-112848202D01*
X117002633Y-112703409D01*
X117143462Y-112636802D01*
X117343423Y-112628513D01*
X117532188Y-112644562D01*
X117776591Y-112667004D01*
X117866241Y-112666288D01*
X117814572Y-112638928D01*
X117699012Y-112601276D01*
X117287252Y-112532435D01*
X116955157Y-112604410D01*
X116955157Y-112604410D01*
G37*
X116955157Y-112604410D02*
X116727041Y-112795781D01*
X116606589Y-112984386D01*
X116600145Y-113056375D01*
X116693745Y-113006018D01*
X116854854Y-112848202D01*
X117002633Y-112703409D01*
X117143462Y-112636802D01*
X117343423Y-112628513D01*
X117532188Y-112644562D01*
X117776591Y-112667004D01*
X117866241Y-112666288D01*
X117814572Y-112638928D01*
X117699012Y-112601276D01*
X117287252Y-112532435D01*
X116955157Y-112604410D01*
G36*
X122012455Y-113374185D02*
G01*
X122004666Y-113387596D01*
X122076577Y-113439419D01*
X122195166Y-113454581D01*
X122515835Y-113527298D01*
X122790283Y-113713420D01*
X122911916Y-113878335D01*
X122988045Y-114018958D01*
X123015349Y-114013054D01*
X123019418Y-113901131D01*
X122942985Y-113667812D01*
X122735371Y-113479933D01*
X122434025Y-113367512D01*
X122336182Y-113353473D01*
X122127453Y-113348330D01*
X122012455Y-113374185D01*
X122012455Y-113374185D01*
G37*
X122012455Y-113374185D02*
X122004666Y-113387596D01*
X122076577Y-113439419D01*
X122195166Y-113454581D01*
X122515835Y-113527298D01*
X122790283Y-113713420D01*
X122911916Y-113878335D01*
X122988045Y-114018958D01*
X123015349Y-114013054D01*
X123019418Y-113901131D01*
X122942985Y-113667812D01*
X122735371Y-113479933D01*
X122434025Y-113367512D01*
X122336182Y-113353473D01*
X122127453Y-113348330D01*
X122012455Y-113374185D01*
G36*
X117150622Y-112909506D02*
G01*
X117059474Y-113054976D01*
X116998946Y-113304966D01*
X116981442Y-113625778D01*
X117064977Y-114330436D01*
X117273183Y-114986201D01*
X117591939Y-115558101D01*
X117909903Y-115925046D01*
X118360973Y-116245506D01*
X118915278Y-116479056D01*
X119525910Y-116617084D01*
X120145957Y-116650975D01*
X120728511Y-116572116D01*
X120985745Y-116489831D01*
X121461513Y-116223477D01*
X121914066Y-115829245D01*
X122196187Y-115486989D01*
X122004666Y-115486989D01*
X121941386Y-115588146D01*
X121779758Y-115747806D01*
X121562102Y-115930204D01*
X121330740Y-116099573D01*
X121150388Y-116208936D01*
X120622809Y-116393014D01*
X120017252Y-116452506D01*
X119370703Y-116387154D01*
X118795220Y-116225432D01*
X118526062Y-116096317D01*
X118248610Y-115915850D01*
X117993181Y-115711140D01*
X117790090Y-115509296D01*
X117669657Y-115337429D01*
X117662197Y-115222649D01*
X117667293Y-115216840D01*
X117820044Y-115149700D01*
X118091275Y-115103857D01*
X118431160Y-115081972D01*
X118789874Y-115086701D01*
X119117594Y-115120703D01*
X119194738Y-115135341D01*
X119522550Y-115183973D01*
X119824233Y-115167184D01*
X120118186Y-115103067D01*
X120463227Y-115037578D01*
X120779537Y-115018754D01*
X120901736Y-115029673D01*
X121148308Y-115090812D01*
X121428215Y-115185353D01*
X121694816Y-115293958D01*
X121901473Y-115397289D01*
X122001546Y-115476008D01*
X122004666Y-115486989D01*
X122196187Y-115486989D01*
X122310500Y-115348311D01*
X122617911Y-114821853D01*
X122803395Y-114291049D01*
X122815659Y-114226789D01*
X122592328Y-114226789D01*
X122539601Y-114481946D01*
X122495658Y-114611489D01*
X122423107Y-114770031D01*
X122323021Y-114859865D01*
X122159796Y-114888462D01*
X121897826Y-114863294D01*
X121571723Y-114805362D01*
X121247338Y-114746867D01*
X120938174Y-114696837D01*
X120816853Y-114679714D01*
X120556477Y-114639827D01*
X120227758Y-114581158D01*
X120054853Y-114547368D01*
X119730529Y-114486308D01*
X119422281Y-114435876D01*
X119295333Y-114418685D01*
X119023553Y-114377718D01*
X118787333Y-114328114D01*
X118610864Y-114288823D01*
X118528254Y-114280749D01*
X118427599Y-114271765D01*
X118204930Y-114240216D01*
X117905066Y-114192537D01*
X117850921Y-114183506D01*
X117221000Y-114077736D01*
X117195409Y-113638535D01*
X117169817Y-113199333D01*
X117456464Y-113199333D01*
X117667059Y-113214457D01*
X117794307Y-113251270D01*
X117799077Y-113255300D01*
X117917619Y-113302153D01*
X118088355Y-113327552D01*
X118290537Y-113350213D01*
X118592468Y-113393652D01*
X118914333Y-113446037D01*
X119250179Y-113503269D01*
X119551167Y-113553390D01*
X119744214Y-113584308D01*
X119956546Y-113618431D01*
X120259912Y-113669308D01*
X120506214Y-113711647D01*
X120842261Y-113768458D01*
X121158504Y-113819247D01*
X121327333Y-113844521D01*
X121565630Y-113886553D01*
X121742697Y-113932239D01*
X121750666Y-113935193D01*
X121847203Y-113966362D01*
X121975581Y-113989379D01*
X122186796Y-114011639D01*
X122406833Y-114030370D01*
X122549207Y-114083687D01*
X122592328Y-114226789D01*
X122815659Y-114226789D01*
X122822427Y-114191328D01*
X122841771Y-114104568D01*
X122858028Y-114034553D01*
X122855564Y-113976874D01*
X122818748Y-113927122D01*
X122731945Y-113880887D01*
X122579523Y-113833760D01*
X122345848Y-113781333D01*
X122015287Y-113719194D01*
X121572208Y-113642935D01*
X121000976Y-113548148D01*
X120285960Y-113430421D01*
X119896200Y-113365980D01*
X119255923Y-113258970D01*
X118669740Y-113159314D01*
X118158459Y-113070684D01*
X117742889Y-112996751D01*
X117443840Y-112941185D01*
X117282120Y-112907657D01*
X117259960Y-112900915D01*
X117150622Y-112909506D01*
X117150622Y-112909506D01*
G37*
X117150622Y-112909506D02*
X117059474Y-113054976D01*
X116998946Y-113304966D01*
X116981442Y-113625778D01*
X117064977Y-114330436D01*
X117273183Y-114986201D01*
X117591939Y-115558101D01*
X117909903Y-115925046D01*
X118360973Y-116245506D01*
X118915278Y-116479056D01*
X119525910Y-116617084D01*
X120145957Y-116650975D01*
X120728511Y-116572116D01*
X120985745Y-116489831D01*
X121461513Y-116223477D01*
X121914066Y-115829245D01*
X122196187Y-115486989D01*
X122004666Y-115486989D01*
X121941386Y-115588146D01*
X121779758Y-115747806D01*
X121562102Y-115930204D01*
X121330740Y-116099573D01*
X121150388Y-116208936D01*
X120622809Y-116393014D01*
X120017252Y-116452506D01*
X119370703Y-116387154D01*
X118795220Y-116225432D01*
X118526062Y-116096317D01*
X118248610Y-115915850D01*
X117993181Y-115711140D01*
X117790090Y-115509296D01*
X117669657Y-115337429D01*
X117662197Y-115222649D01*
X117667293Y-115216840D01*
X117820044Y-115149700D01*
X118091275Y-115103857D01*
X118431160Y-115081972D01*
X118789874Y-115086701D01*
X119117594Y-115120703D01*
X119194738Y-115135341D01*
X119522550Y-115183973D01*
X119824233Y-115167184D01*
X120118186Y-115103067D01*
X120463227Y-115037578D01*
X120779537Y-115018754D01*
X120901736Y-115029673D01*
X121148308Y-115090812D01*
X121428215Y-115185353D01*
X121694816Y-115293958D01*
X121901473Y-115397289D01*
X122001546Y-115476008D01*
X122004666Y-115486989D01*
X122196187Y-115486989D01*
X122310500Y-115348311D01*
X122617911Y-114821853D01*
X122803395Y-114291049D01*
X122815659Y-114226789D01*
X122592328Y-114226789D01*
X122539601Y-114481946D01*
X122495658Y-114611489D01*
X122423107Y-114770031D01*
X122323021Y-114859865D01*
X122159796Y-114888462D01*
X121897826Y-114863294D01*
X121571723Y-114805362D01*
X121247338Y-114746867D01*
X120938174Y-114696837D01*
X120816853Y-114679714D01*
X120556477Y-114639827D01*
X120227758Y-114581158D01*
X120054853Y-114547368D01*
X119730529Y-114486308D01*
X119422281Y-114435876D01*
X119295333Y-114418685D01*
X119023553Y-114377718D01*
X118787333Y-114328114D01*
X118610864Y-114288823D01*
X118528254Y-114280749D01*
X118427599Y-114271765D01*
X118204930Y-114240216D01*
X117905066Y-114192537D01*
X117850921Y-114183506D01*
X117221000Y-114077736D01*
X117195409Y-113638535D01*
X117169817Y-113199333D01*
X117456464Y-113199333D01*
X117667059Y-113214457D01*
X117794307Y-113251270D01*
X117799077Y-113255300D01*
X117917619Y-113302153D01*
X118088355Y-113327552D01*
X118290537Y-113350213D01*
X118592468Y-113393652D01*
X118914333Y-113446037D01*
X119250179Y-113503269D01*
X119551167Y-113553390D01*
X119744214Y-113584308D01*
X119956546Y-113618431D01*
X120259912Y-113669308D01*
X120506214Y-113711647D01*
X120842261Y-113768458D01*
X121158504Y-113819247D01*
X121327333Y-113844521D01*
X121565630Y-113886553D01*
X121742697Y-113932239D01*
X121750666Y-113935193D01*
X121847203Y-113966362D01*
X121975581Y-113989379D01*
X122186796Y-114011639D01*
X122406833Y-114030370D01*
X122549207Y-114083687D01*
X122592328Y-114226789D01*
X122815659Y-114226789D01*
X122822427Y-114191328D01*
X122841771Y-114104568D01*
X122858028Y-114034553D01*
X122855564Y-113976874D01*
X122818748Y-113927122D01*
X122731945Y-113880887D01*
X122579523Y-113833760D01*
X122345848Y-113781333D01*
X122015287Y-113719194D01*
X121572208Y-113642935D01*
X121000976Y-113548148D01*
X120285960Y-113430421D01*
X119896200Y-113365980D01*
X119255923Y-113258970D01*
X118669740Y-113159314D01*
X118158459Y-113070684D01*
X117742889Y-112996751D01*
X117443840Y-112941185D01*
X117282120Y-112907657D01*
X117259960Y-112900915D01*
X117150622Y-112909506D01*
G36*
X118872000Y-116865539D02*
G01*
X119191070Y-116994432D01*
X119519279Y-117044933D01*
X119760615Y-117012731D01*
X119819550Y-116970766D01*
X119734265Y-116934962D01*
X119506615Y-116901378D01*
X119210901Y-116861417D01*
X118952597Y-116816883D01*
X118872000Y-116799075D01*
X118660333Y-116745599D01*
X118872000Y-116865539D01*
X118872000Y-116865539D01*
G37*
X118872000Y-116865539D02*
X119191070Y-116994432D01*
X119519279Y-117044933D01*
X119760615Y-117012731D01*
X119819550Y-116970766D01*
X119734265Y-116934962D01*
X119506615Y-116901378D01*
X119210901Y-116861417D01*
X118952597Y-116816883D01*
X118872000Y-116799075D01*
X118660333Y-116745599D01*
X118872000Y-116865539D01*
G36*
X118535793Y-110554429D02*
G01*
X118533333Y-110574667D01*
X118597762Y-110656873D01*
X118618000Y-110659333D01*
X118700206Y-110594904D01*
X118702666Y-110574667D01*
X118638237Y-110492460D01*
X118618000Y-110490000D01*
X118535793Y-110554429D01*
X118535793Y-110554429D01*
G37*
X118535793Y-110554429D02*
X118533333Y-110574667D01*
X118597762Y-110656873D01*
X118618000Y-110659333D01*
X118700206Y-110594904D01*
X118702666Y-110574667D01*
X118638237Y-110492460D01*
X118618000Y-110490000D01*
X118535793Y-110554429D01*
G36*
X121764995Y-110535717D02*
G01*
X121750666Y-110574667D01*
X121819243Y-110649781D01*
X121877666Y-110659333D01*
X121990338Y-110613616D01*
X122004666Y-110574667D01*
X121936090Y-110499552D01*
X121877666Y-110490000D01*
X121764995Y-110535717D01*
X121764995Y-110535717D01*
G37*
X121764995Y-110535717D02*
X121750666Y-110574667D01*
X121819243Y-110649781D01*
X121877666Y-110659333D01*
X121990338Y-110613616D01*
X122004666Y-110574667D01*
X121936090Y-110499552D01*
X121877666Y-110490000D01*
X121764995Y-110535717D01*
G36*
X117786257Y-110476291D02*
G01*
X117771333Y-110574667D01*
X117816010Y-110718737D01*
X117915419Y-110730070D01*
X117983000Y-110659333D01*
X117993410Y-110519229D01*
X117900718Y-110415533D01*
X117851003Y-110405333D01*
X117786257Y-110476291D01*
X117786257Y-110476291D01*
G37*
X117786257Y-110476291D02*
X117771333Y-110574667D01*
X117816010Y-110718737D01*
X117915419Y-110730070D01*
X117983000Y-110659333D01*
X117993410Y-110519229D01*
X117900718Y-110415533D01*
X117851003Y-110405333D01*
X117786257Y-110476291D01*
G36*
X118887876Y-110476246D02*
G01*
X118872000Y-110574667D01*
X118907456Y-110712247D01*
X118956666Y-110744000D01*
X119025457Y-110673087D01*
X119041333Y-110574667D01*
X119005877Y-110437086D01*
X118956666Y-110405333D01*
X118887876Y-110476246D01*
X118887876Y-110476246D01*
G37*
X118887876Y-110476246D02*
X118872000Y-110574667D01*
X118907456Y-110712247D01*
X118956666Y-110744000D01*
X119025457Y-110673087D01*
X119041333Y-110574667D01*
X119005877Y-110437086D01*
X118956666Y-110405333D01*
X118887876Y-110476246D01*
G36*
X120673572Y-110475919D02*
G01*
X120650000Y-110574667D01*
X120702939Y-110712571D01*
X120777000Y-110744000D01*
X120880428Y-110673414D01*
X120904000Y-110574667D01*
X120851060Y-110436762D01*
X120777000Y-110405333D01*
X120673572Y-110475919D01*
X120673572Y-110475919D01*
G37*
X120673572Y-110475919D02*
X120650000Y-110574667D01*
X120702939Y-110712571D01*
X120777000Y-110744000D01*
X120880428Y-110673414D01*
X120904000Y-110574667D01*
X120851060Y-110436762D01*
X120777000Y-110405333D01*
X120673572Y-110475919D01*
G36*
X121427876Y-110476246D02*
G01*
X121412000Y-110574667D01*
X121447456Y-110712247D01*
X121496666Y-110744000D01*
X121565457Y-110673087D01*
X121581333Y-110574667D01*
X121545877Y-110437086D01*
X121496666Y-110405333D01*
X121427876Y-110476246D01*
X121427876Y-110476246D01*
G37*
X121427876Y-110476246D02*
X121412000Y-110574667D01*
X121447456Y-110712247D01*
X121496666Y-110744000D01*
X121565457Y-110673087D01*
X121581333Y-110574667D01*
X121545877Y-110437086D01*
X121496666Y-110405333D01*
X121427876Y-110476246D01*
G36*
X118175523Y-110443884D02*
G01*
X118152333Y-110574667D01*
X118192245Y-110742239D01*
X118258166Y-110807500D01*
X118338455Y-110763442D01*
X118364000Y-110574667D01*
X118336044Y-110380588D01*
X118258166Y-110341833D01*
X118175523Y-110443884D01*
X118175523Y-110443884D01*
G37*
X118175523Y-110443884D02*
X118152333Y-110574667D01*
X118192245Y-110742239D01*
X118258166Y-110807500D01*
X118338455Y-110763442D01*
X118364000Y-110574667D01*
X118336044Y-110380588D01*
X118258166Y-110341833D01*
X118175523Y-110443884D01*
G36*
X119236840Y-110396395D02*
G01*
X119210666Y-110574667D01*
X119248531Y-110776319D01*
X119337666Y-110828667D01*
X119438493Y-110752938D01*
X119464666Y-110574667D01*
X119426802Y-110373014D01*
X119337666Y-110320667D01*
X119236840Y-110396395D01*
X119236840Y-110396395D01*
G37*
X119236840Y-110396395D02*
X119210666Y-110574667D01*
X119248531Y-110776319D01*
X119337666Y-110828667D01*
X119438493Y-110752938D01*
X119464666Y-110574667D01*
X119426802Y-110373014D01*
X119337666Y-110320667D01*
X119236840Y-110396395D01*
G36*
X121144835Y-110254499D02*
G01*
X121072630Y-110348166D01*
X121040964Y-110520354D01*
X121050831Y-110699990D01*
X121103219Y-110816001D01*
X121136833Y-110828673D01*
X121212535Y-110751242D01*
X121242568Y-110540971D01*
X121242666Y-110525278D01*
X121219002Y-110316145D01*
X121152442Y-110252544D01*
X121144835Y-110254499D01*
X121144835Y-110254499D01*
G37*
X121144835Y-110254499D02*
X121072630Y-110348166D01*
X121040964Y-110520354D01*
X121050831Y-110699990D01*
X121103219Y-110816001D01*
X121136833Y-110828673D01*
X121212535Y-110751242D01*
X121242568Y-110540971D01*
X121242666Y-110525278D01*
X121219002Y-110316145D01*
X121152442Y-110252544D01*
X121144835Y-110254499D01*
G36*
X119596468Y-110196653D02*
G01*
X119557460Y-110353560D01*
X119549333Y-110574667D01*
X119562929Y-110840885D01*
X119610001Y-110970911D01*
X119676333Y-110998000D01*
X119756199Y-110952680D01*
X119795206Y-110795773D01*
X119803333Y-110574667D01*
X119789737Y-110308448D01*
X119742665Y-110178422D01*
X119676333Y-110151333D01*
X119596468Y-110196653D01*
X119596468Y-110196653D01*
G37*
X119596468Y-110196653D02*
X119557460Y-110353560D01*
X119549333Y-110574667D01*
X119562929Y-110840885D01*
X119610001Y-110970911D01*
X119676333Y-110998000D01*
X119756199Y-110952680D01*
X119795206Y-110795773D01*
X119803333Y-110574667D01*
X119789737Y-110308448D01*
X119742665Y-110178422D01*
X119676333Y-110151333D01*
X119596468Y-110196653D01*
G36*
X120347702Y-110227480D02*
G01*
X120317047Y-110422175D01*
X120311333Y-110574667D01*
X120326563Y-110816154D01*
X120365502Y-110969431D01*
X120396000Y-110998000D01*
X120444297Y-110921853D01*
X120474953Y-110727158D01*
X120480666Y-110574667D01*
X120465437Y-110333179D01*
X120426498Y-110179902D01*
X120396000Y-110151333D01*
X120347702Y-110227480D01*
X120347702Y-110227480D01*
G37*
X120347702Y-110227480D02*
X120317047Y-110422175D01*
X120311333Y-110574667D01*
X120326563Y-110816154D01*
X120365502Y-110969431D01*
X120396000Y-110998000D01*
X120444297Y-110921853D01*
X120474953Y-110727158D01*
X120480666Y-110574667D01*
X120465437Y-110333179D01*
X120426498Y-110179902D01*
X120396000Y-110151333D01*
X120347702Y-110227480D01*
G36*
X120015404Y-109976549D02*
G01*
X119985940Y-110192819D01*
X119972949Y-110514074D01*
X119972666Y-110574667D01*
X119982569Y-110910099D01*
X120009602Y-111145813D01*
X120049759Y-111249742D01*
X120057333Y-111252000D01*
X120099262Y-111172784D01*
X120128727Y-110956514D01*
X120141718Y-110635259D01*
X120142000Y-110574667D01*
X120132098Y-110239234D01*
X120105064Y-110003520D01*
X120064907Y-109899591D01*
X120057333Y-109897333D01*
X120015404Y-109976549D01*
X120015404Y-109976549D01*
G37*
X120015404Y-109976549D02*
X119985940Y-110192819D01*
X119972949Y-110514074D01*
X119972666Y-110574667D01*
X119982569Y-110910099D01*
X120009602Y-111145813D01*
X120049759Y-111249742D01*
X120057333Y-111252000D01*
X120099262Y-111172784D01*
X120128727Y-110956514D01*
X120141718Y-110635259D01*
X120142000Y-110574667D01*
X120132098Y-110239234D01*
X120105064Y-110003520D01*
X120064907Y-109899591D01*
X120057333Y-109897333D01*
X120015404Y-109976549D01*
G36*
X124759400Y-111693620D02*
G01*
X124433598Y-111727338D01*
X124164345Y-111778374D01*
X124005280Y-111836274D01*
X123997400Y-111842121D01*
X123929715Y-111944318D01*
X123888840Y-112134468D01*
X123870019Y-112443749D01*
X123867333Y-112694775D01*
X123872774Y-113046308D01*
X123887288Y-113341796D01*
X123908162Y-113533621D01*
X123917166Y-113569345D01*
X124030694Y-113665484D01*
X124259457Y-113740617D01*
X124340499Y-113755217D01*
X124714000Y-113811227D01*
X124714000Y-114808000D01*
X125391333Y-114808000D01*
X125391333Y-112733667D01*
X124714000Y-112733667D01*
X124702037Y-113021249D01*
X124670348Y-113218143D01*
X124629333Y-113284000D01*
X124585090Y-113206242D01*
X124554798Y-113000260D01*
X124544666Y-112733667D01*
X124556629Y-112446084D01*
X124588319Y-112249190D01*
X124629333Y-112183333D01*
X124673577Y-112261091D01*
X124703868Y-112467073D01*
X124714000Y-112733667D01*
X125391333Y-112733667D01*
X125391333Y-111653065D01*
X124759400Y-111693620D01*
X124759400Y-111693620D01*
G37*
X124759400Y-111693620D02*
X124433598Y-111727338D01*
X124164345Y-111778374D01*
X124005280Y-111836274D01*
X123997400Y-111842121D01*
X123929715Y-111944318D01*
X123888840Y-112134468D01*
X123870019Y-112443749D01*
X123867333Y-112694775D01*
X123872774Y-113046308D01*
X123887288Y-113341796D01*
X123908162Y-113533621D01*
X123917166Y-113569345D01*
X124030694Y-113665484D01*
X124259457Y-113740617D01*
X124340499Y-113755217D01*
X124714000Y-113811227D01*
X124714000Y-114808000D01*
X125391333Y-114808000D01*
X125391333Y-112733667D01*
X124714000Y-112733667D01*
X124702037Y-113021249D01*
X124670348Y-113218143D01*
X124629333Y-113284000D01*
X124585090Y-113206242D01*
X124554798Y-113000260D01*
X124544666Y-112733667D01*
X124556629Y-112446084D01*
X124588319Y-112249190D01*
X124629333Y-112183333D01*
X124673577Y-112261091D01*
X124703868Y-112467073D01*
X124714000Y-112733667D01*
X125391333Y-112733667D01*
X125391333Y-111653065D01*
X124759400Y-111693620D01*
G36*
X126091616Y-111687213D02*
G01*
X126068666Y-111695533D01*
X126057779Y-111792821D01*
X126028222Y-112023517D01*
X125984655Y-112353310D01*
X125931736Y-112747890D01*
X125874124Y-113172946D01*
X125816477Y-113594168D01*
X125763455Y-113977244D01*
X125719715Y-114287864D01*
X125689917Y-114491717D01*
X125683421Y-114532833D01*
X125663131Y-114708216D01*
X125709046Y-114786702D01*
X125863194Y-114807262D01*
X125980163Y-114808000D01*
X126198602Y-114799317D01*
X126296296Y-114745263D01*
X126321801Y-114603826D01*
X126322666Y-114511667D01*
X126353951Y-114285544D01*
X126440608Y-114215333D01*
X126572547Y-114291794D01*
X126649495Y-114495896D01*
X126661333Y-114645591D01*
X126696534Y-114757277D01*
X126831052Y-114802762D01*
X126963759Y-114808000D01*
X127266184Y-114808000D01*
X127205700Y-114321167D01*
X127170477Y-114040731D01*
X127120487Y-113646704D01*
X127115173Y-113605061D01*
X126563871Y-113605061D01*
X126520791Y-113694723D01*
X126470833Y-113707449D01*
X126410188Y-113652326D01*
X126389837Y-113471841D01*
X126400503Y-113220615D01*
X126436005Y-112733667D01*
X126501457Y-113072333D01*
X126556994Y-113406552D01*
X126563871Y-113605061D01*
X127115173Y-113605061D01*
X127062646Y-113193436D01*
X127009107Y-112776000D01*
X126873000Y-111717667D01*
X126470833Y-111691861D01*
X126236591Y-111682384D01*
X126091616Y-111687213D01*
X126091616Y-111687213D01*
G37*
X126091616Y-111687213D02*
X126068666Y-111695533D01*
X126057779Y-111792821D01*
X126028222Y-112023517D01*
X125984655Y-112353310D01*
X125931736Y-112747890D01*
X125874124Y-113172946D01*
X125816477Y-113594168D01*
X125763455Y-113977244D01*
X125719715Y-114287864D01*
X125689917Y-114491717D01*
X125683421Y-114532833D01*
X125663131Y-114708216D01*
X125709046Y-114786702D01*
X125863194Y-114807262D01*
X125980163Y-114808000D01*
X126198602Y-114799317D01*
X126296296Y-114745263D01*
X126321801Y-114603826D01*
X126322666Y-114511667D01*
X126353951Y-114285544D01*
X126440608Y-114215333D01*
X126572547Y-114291794D01*
X126649495Y-114495896D01*
X126661333Y-114645591D01*
X126696534Y-114757277D01*
X126831052Y-114802762D01*
X126963759Y-114808000D01*
X127266184Y-114808000D01*
X127205700Y-114321167D01*
X127170477Y-114040731D01*
X127120487Y-113646704D01*
X127115173Y-113605061D01*
X126563871Y-113605061D01*
X126520791Y-113694723D01*
X126470833Y-113707449D01*
X126410188Y-113652326D01*
X126389837Y-113471841D01*
X126400503Y-113220615D01*
X126436005Y-112733667D01*
X126501457Y-113072333D01*
X126556994Y-113406552D01*
X126563871Y-113605061D01*
X127115173Y-113605061D01*
X127062646Y-113193436D01*
X127009107Y-112776000D01*
X126873000Y-111717667D01*
X126470833Y-111691861D01*
X126236591Y-111682384D01*
X126091616Y-111687213D01*
G36*
X127910166Y-111691135D02*
G01*
X127635000Y-111717667D01*
X127611923Y-113262833D01*
X127588847Y-114808000D01*
X128246862Y-114808000D01*
X128355426Y-114278833D01*
X128441629Y-113896665D01*
X128509231Y-113682519D01*
X128558694Y-113636161D01*
X128590480Y-113757358D01*
X128605051Y-114045874D01*
X128606092Y-114151833D01*
X128608666Y-114808000D01*
X129116666Y-114808000D01*
X129116666Y-111675333D01*
X128826336Y-111675333D01*
X128662516Y-111683316D01*
X128565745Y-111733717D01*
X128504416Y-111866219D01*
X128446923Y-112120501D01*
X128438564Y-112162167D01*
X128349939Y-112589331D01*
X128285596Y-112853505D01*
X128241608Y-112958664D01*
X128214048Y-112908786D01*
X128198986Y-112707845D01*
X128192969Y-112410802D01*
X128185333Y-111664604D01*
X127910166Y-111691135D01*
X127910166Y-111691135D01*
G37*
X127910166Y-111691135D02*
X127635000Y-111717667D01*
X127611923Y-113262833D01*
X127588847Y-114808000D01*
X128246862Y-114808000D01*
X128355426Y-114278833D01*
X128441629Y-113896665D01*
X128509231Y-113682519D01*
X128558694Y-113636161D01*
X128590480Y-113757358D01*
X128605051Y-114045874D01*
X128606092Y-114151833D01*
X128608666Y-114808000D01*
X129116666Y-114808000D01*
X129116666Y-111675333D01*
X128826336Y-111675333D01*
X128662516Y-111683316D01*
X128565745Y-111733717D01*
X128504416Y-111866219D01*
X128446923Y-112120501D01*
X128438564Y-112162167D01*
X128349939Y-112589331D01*
X128285596Y-112853505D01*
X128241608Y-112958664D01*
X128214048Y-112908786D01*
X128198986Y-112707845D01*
X128192969Y-112410802D01*
X128185333Y-111664604D01*
X127910166Y-111691135D01*
G36*
X129836124Y-111745983D02*
G01*
X129610039Y-111847777D01*
X129492201Y-112048316D01*
X129455571Y-112372866D01*
X129455333Y-112411182D01*
X129455333Y-112776000D01*
X129794000Y-112776000D01*
X130010836Y-112767029D01*
X130107199Y-112711637D01*
X130131909Y-112567107D01*
X130132666Y-112479667D01*
X130153932Y-112283799D01*
X130206222Y-112185893D01*
X130217333Y-112183333D01*
X130273375Y-112257743D01*
X130301298Y-112440629D01*
X130302000Y-112478604D01*
X130279183Y-112680181D01*
X130183812Y-112826942D01*
X129975505Y-112979970D01*
X129966974Y-112985368D01*
X129700429Y-113181719D01*
X129544290Y-113388950D01*
X129471624Y-113660667D01*
X129455333Y-114003667D01*
X129468702Y-114377541D01*
X129528377Y-114613914D01*
X129663708Y-114743768D01*
X129904045Y-114798083D01*
X130217333Y-114808000D01*
X130539508Y-114800617D01*
X130734394Y-114771723D01*
X130843651Y-114711201D01*
X130891688Y-114644233D01*
X130940869Y-114469716D01*
X130972669Y-114198276D01*
X130979333Y-114004122D01*
X130979333Y-113527778D01*
X130661833Y-113554056D01*
X130461849Y-113581092D01*
X130365788Y-113651939D01*
X130328353Y-113817506D01*
X130318298Y-113940167D01*
X130277916Y-114196598D01*
X130219752Y-114290398D01*
X130164811Y-114223768D01*
X130134099Y-113998908D01*
X130132666Y-113920721D01*
X130144951Y-113678070D01*
X130210101Y-113534845D01*
X130370559Y-113421458D01*
X130468502Y-113370111D01*
X130733822Y-113204426D01*
X130890305Y-113010311D01*
X130963506Y-112739784D01*
X130979333Y-112410933D01*
X130956361Y-112082356D01*
X130867885Y-111875194D01*
X130684560Y-111763429D01*
X130377046Y-111721042D01*
X130197495Y-111717667D01*
X129836124Y-111745983D01*
X129836124Y-111745983D01*
G37*
X129836124Y-111745983D02*
X129610039Y-111847777D01*
X129492201Y-112048316D01*
X129455571Y-112372866D01*
X129455333Y-112411182D01*
X129455333Y-112776000D01*
X129794000Y-112776000D01*
X130010836Y-112767029D01*
X130107199Y-112711637D01*
X130131909Y-112567107D01*
X130132666Y-112479667D01*
X130153932Y-112283799D01*
X130206222Y-112185893D01*
X130217333Y-112183333D01*
X130273375Y-112257743D01*
X130301298Y-112440629D01*
X130302000Y-112478604D01*
X130279183Y-112680181D01*
X130183812Y-112826942D01*
X129975505Y-112979970D01*
X129966974Y-112985368D01*
X129700429Y-113181719D01*
X129544290Y-113388950D01*
X129471624Y-113660667D01*
X129455333Y-114003667D01*
X129468702Y-114377541D01*
X129528377Y-114613914D01*
X129663708Y-114743768D01*
X129904045Y-114798083D01*
X130217333Y-114808000D01*
X130539508Y-114800617D01*
X130734394Y-114771723D01*
X130843651Y-114711201D01*
X130891688Y-114644233D01*
X130940869Y-114469716D01*
X130972669Y-114198276D01*
X130979333Y-114004122D01*
X130979333Y-113527778D01*
X130661833Y-113554056D01*
X130461849Y-113581092D01*
X130365788Y-113651939D01*
X130328353Y-113817506D01*
X130318298Y-113940167D01*
X130277916Y-114196598D01*
X130219752Y-114290398D01*
X130164811Y-114223768D01*
X130134099Y-113998908D01*
X130132666Y-113920721D01*
X130144951Y-113678070D01*
X130210101Y-113534845D01*
X130370559Y-113421458D01*
X130468502Y-113370111D01*
X130733822Y-113204426D01*
X130890305Y-113010311D01*
X130963506Y-112739784D01*
X130979333Y-112410933D01*
X130956361Y-112082356D01*
X130867885Y-111875194D01*
X130684560Y-111763429D01*
X130377046Y-111721042D01*
X130197495Y-111717667D01*
X129836124Y-111745983D01*
G36*
X124402075Y-115161518D02*
G01*
X124158126Y-115201467D01*
X124053600Y-115248267D01*
X123992254Y-115396912D01*
X123960026Y-115648378D01*
X123956915Y-115938676D01*
X123982921Y-116203817D01*
X124038045Y-116379809D01*
X124053600Y-116399733D01*
X124111605Y-116514947D01*
X124053600Y-116602933D01*
X123998187Y-116742507D01*
X123962187Y-117004884D01*
X123952000Y-117280266D01*
X123952000Y-117856000D01*
X124544666Y-117856000D01*
X124544666Y-117305667D01*
X124556629Y-117018084D01*
X124588319Y-116821190D01*
X124629333Y-116755333D01*
X124673577Y-116833091D01*
X124703868Y-117039073D01*
X124714000Y-117305667D01*
X124716954Y-117601272D01*
X124736960Y-117765890D01*
X124790732Y-117837865D01*
X124894985Y-117855543D01*
X124953889Y-117856000D01*
X125147797Y-117837867D01*
X125250222Y-117799555D01*
X125269752Y-117699431D01*
X125286354Y-117460629D01*
X125298750Y-117113796D01*
X125305662Y-116689579D01*
X125306666Y-116444889D01*
X125306666Y-116027612D01*
X124712245Y-116027612D01*
X124689794Y-116205954D01*
X124657555Y-116275555D01*
X124591787Y-116322738D01*
X124557917Y-116274574D01*
X124545772Y-116101822D01*
X124544666Y-115951000D01*
X124561483Y-115723780D01*
X124604030Y-115587482D01*
X124629333Y-115570000D01*
X124679351Y-115643043D01*
X124707876Y-115817777D01*
X124712245Y-116027612D01*
X125306666Y-116027612D01*
X125306666Y-115146667D01*
X124730933Y-115146667D01*
X124402075Y-115161518D01*
X124402075Y-115161518D01*
G37*
X124402075Y-115161518D02*
X124158126Y-115201467D01*
X124053600Y-115248267D01*
X123992254Y-115396912D01*
X123960026Y-115648378D01*
X123956915Y-115938676D01*
X123982921Y-116203817D01*
X124038045Y-116379809D01*
X124053600Y-116399733D01*
X124111605Y-116514947D01*
X124053600Y-116602933D01*
X123998187Y-116742507D01*
X123962187Y-117004884D01*
X123952000Y-117280266D01*
X123952000Y-117856000D01*
X124544666Y-117856000D01*
X124544666Y-117305667D01*
X124556629Y-117018084D01*
X124588319Y-116821190D01*
X124629333Y-116755333D01*
X124673577Y-116833091D01*
X124703868Y-117039073D01*
X124714000Y-117305667D01*
X124716954Y-117601272D01*
X124736960Y-117765890D01*
X124790732Y-117837865D01*
X124894985Y-117855543D01*
X124953889Y-117856000D01*
X125147797Y-117837867D01*
X125250222Y-117799555D01*
X125269752Y-117699431D01*
X125286354Y-117460629D01*
X125298750Y-117113796D01*
X125305662Y-116689579D01*
X125306666Y-116444889D01*
X125306666Y-116027612D01*
X124712245Y-116027612D01*
X124689794Y-116205954D01*
X124657555Y-116275555D01*
X124591787Y-116322738D01*
X124557917Y-116274574D01*
X124545772Y-116101822D01*
X124544666Y-115951000D01*
X124561483Y-115723780D01*
X124604030Y-115587482D01*
X124629333Y-115570000D01*
X124679351Y-115643043D01*
X124707876Y-115817777D01*
X124712245Y-116027612D01*
X125306666Y-116027612D01*
X125306666Y-115146667D01*
X124730933Y-115146667D01*
X124402075Y-115161518D01*
G36*
X125560666Y-117856000D02*
G01*
X126153333Y-117856000D01*
X126153333Y-115146667D01*
X125560666Y-115146667D01*
X125560666Y-117856000D01*
X125560666Y-117856000D01*
G37*
X125560666Y-117856000D02*
X126153333Y-117856000D01*
X126153333Y-115146667D01*
X125560666Y-115146667D01*
X125560666Y-117856000D01*
G36*
X126850230Y-115170782D02*
G01*
X126747480Y-115242688D01*
X126746000Y-115256017D01*
X126735077Y-115393363D01*
X126705810Y-115657710D01*
X126663449Y-116008375D01*
X126613244Y-116404679D01*
X126560446Y-116805940D01*
X126510305Y-117171477D01*
X126468071Y-117460608D01*
X126439719Y-117629130D01*
X126419848Y-117789442D01*
X126479933Y-117847455D01*
X126662925Y-117841895D01*
X126674463Y-117840797D01*
X126871512Y-117801426D01*
X126957406Y-117697078D01*
X126984581Y-117533360D01*
X127035918Y-117336409D01*
X127116495Y-117291149D01*
X127195370Y-117390994D01*
X127238198Y-117587353D01*
X127276549Y-117773661D01*
X127379125Y-117845594D01*
X127538733Y-117856000D01*
X127812737Y-117856000D01*
X127646504Y-116501333D01*
X127638712Y-116437833D01*
X127162649Y-116437833D01*
X127153776Y-116672251D01*
X127123698Y-116817198D01*
X127101668Y-116840000D01*
X127065674Y-116765829D01*
X127060789Y-116581723D01*
X127065471Y-116522500D01*
X127099204Y-116245585D01*
X127128013Y-116131495D01*
X127149659Y-116182181D01*
X127161903Y-116399591D01*
X127162649Y-116437833D01*
X127638712Y-116437833D01*
X127480271Y-115146667D01*
X127113136Y-115146667D01*
X126850230Y-115170782D01*
X126850230Y-115170782D01*
G37*
X126850230Y-115170782D02*
X126747480Y-115242688D01*
X126746000Y-115256017D01*
X126735077Y-115393363D01*
X126705810Y-115657710D01*
X126663449Y-116008375D01*
X126613244Y-116404679D01*
X126560446Y-116805940D01*
X126510305Y-117171477D01*
X126468071Y-117460608D01*
X126439719Y-117629130D01*
X126419848Y-117789442D01*
X126479933Y-117847455D01*
X126662925Y-117841895D01*
X126674463Y-117840797D01*
X126871512Y-117801426D01*
X126957406Y-117697078D01*
X126984581Y-117533360D01*
X127035918Y-117336409D01*
X127116495Y-117291149D01*
X127195370Y-117390994D01*
X127238198Y-117587353D01*
X127276549Y-117773661D01*
X127379125Y-117845594D01*
X127538733Y-117856000D01*
X127812737Y-117856000D01*
X127646504Y-116501333D01*
X127638712Y-116437833D01*
X127162649Y-116437833D01*
X127153776Y-116672251D01*
X127123698Y-116817198D01*
X127101668Y-116840000D01*
X127065674Y-116765829D01*
X127060789Y-116581723D01*
X127065471Y-116522500D01*
X127099204Y-116245585D01*
X127128013Y-116131495D01*
X127149659Y-116182181D01*
X127161903Y-116399591D01*
X127162649Y-116437833D01*
X127638712Y-116437833D01*
X127480271Y-115146667D01*
X127113136Y-115146667D01*
X126850230Y-115170782D01*
G36*
X128981302Y-115158650D02*
G01*
X128894290Y-115221029D01*
X128833366Y-115373445D01*
X128774710Y-115633500D01*
X128703433Y-115972171D01*
X128658429Y-116148200D01*
X128633147Y-116165066D01*
X128621038Y-116026249D01*
X128615552Y-115735229D01*
X128615351Y-115718167D01*
X128608666Y-115146667D01*
X128100666Y-115146667D01*
X128100666Y-117856000D01*
X128345608Y-117856000D01*
X128501646Y-117840688D01*
X128601907Y-117771355D01*
X128668453Y-117612901D01*
X128723348Y-117330228D01*
X128738625Y-117230783D01*
X128797661Y-116938608D01*
X128856327Y-116812771D01*
X128906243Y-116850464D01*
X128939028Y-117048882D01*
X128947333Y-117300670D01*
X128950966Y-117598159D01*
X128971544Y-117764421D01*
X129023584Y-117837544D01*
X129121603Y-117855617D01*
X129159000Y-117856000D01*
X129370666Y-117856000D01*
X129370666Y-115146667D01*
X129122738Y-115146667D01*
X128981302Y-115158650D01*
X128981302Y-115158650D01*
G37*
X128981302Y-115158650D02*
X128894290Y-115221029D01*
X128833366Y-115373445D01*
X128774710Y-115633500D01*
X128703433Y-115972171D01*
X128658429Y-116148200D01*
X128633147Y-116165066D01*
X128621038Y-116026249D01*
X128615552Y-115735229D01*
X128615351Y-115718167D01*
X128608666Y-115146667D01*
X128100666Y-115146667D01*
X128100666Y-117856000D01*
X128345608Y-117856000D01*
X128501646Y-117840688D01*
X128601907Y-117771355D01*
X128668453Y-117612901D01*
X128723348Y-117330228D01*
X128738625Y-117230783D01*
X128797661Y-116938608D01*
X128856327Y-116812771D01*
X128906243Y-116850464D01*
X128939028Y-117048882D01*
X128947333Y-117300670D01*
X128950966Y-117598159D01*
X128971544Y-117764421D01*
X129023584Y-117837544D01*
X129121603Y-117855617D01*
X129159000Y-117856000D01*
X129370666Y-117856000D01*
X129370666Y-115146667D01*
X129122738Y-115146667D01*
X128981302Y-115158650D01*
G36*
X130075636Y-115165527D02*
G01*
X129871660Y-115213593D01*
X129810933Y-115248267D01*
X129763030Y-115377742D01*
X129730558Y-115658803D01*
X129713010Y-116097758D01*
X129709333Y-116515288D01*
X129711188Y-116983922D01*
X129719211Y-117311472D01*
X129737094Y-117526168D01*
X129768524Y-117656241D01*
X129817192Y-117729921D01*
X129873100Y-117768354D01*
X130124881Y-117837015D01*
X130446374Y-117841882D01*
X130750420Y-117782924D01*
X130788833Y-117768695D01*
X130864601Y-117731093D01*
X130917049Y-117671017D01*
X130950460Y-117560416D01*
X130969117Y-117371240D01*
X130977302Y-117075438D01*
X130978197Y-116882424D01*
X130460678Y-116882424D01*
X130446685Y-117198455D01*
X130409573Y-117370576D01*
X130347357Y-117410957D01*
X130295993Y-117375860D01*
X130259695Y-117254936D01*
X130237474Y-117001467D01*
X130231775Y-116651840D01*
X130235269Y-116472271D01*
X130258963Y-116037729D01*
X130295425Y-115762555D01*
X130338664Y-115648450D01*
X130382684Y-115697115D01*
X130421494Y-115910251D01*
X130449099Y-116289560D01*
X130453540Y-116410315D01*
X130460678Y-116882424D01*
X130978197Y-116882424D01*
X130979299Y-116644960D01*
X130979333Y-116520995D01*
X130972287Y-115963427D01*
X130950806Y-115568151D01*
X130914373Y-115328697D01*
X130877733Y-115248267D01*
X130738793Y-115189481D01*
X130497828Y-115152796D01*
X130344333Y-115146667D01*
X130075636Y-115165527D01*
X130075636Y-115165527D01*
G37*
X130075636Y-115165527D02*
X129871660Y-115213593D01*
X129810933Y-115248267D01*
X129763030Y-115377742D01*
X129730558Y-115658803D01*
X129713010Y-116097758D01*
X129709333Y-116515288D01*
X129711188Y-116983922D01*
X129719211Y-117311472D01*
X129737094Y-117526168D01*
X129768524Y-117656241D01*
X129817192Y-117729921D01*
X129873100Y-117768354D01*
X130124881Y-117837015D01*
X130446374Y-117841882D01*
X130750420Y-117782924D01*
X130788833Y-117768695D01*
X130864601Y-117731093D01*
X130917049Y-117671017D01*
X130950460Y-117560416D01*
X130969117Y-117371240D01*
X130977302Y-117075438D01*
X130978197Y-116882424D01*
X130460678Y-116882424D01*
X130446685Y-117198455D01*
X130409573Y-117370576D01*
X130347357Y-117410957D01*
X130295993Y-117375860D01*
X130259695Y-117254936D01*
X130237474Y-117001467D01*
X130231775Y-116651840D01*
X130235269Y-116472271D01*
X130258963Y-116037729D01*
X130295425Y-115762555D01*
X130338664Y-115648450D01*
X130382684Y-115697115D01*
X130421494Y-115910251D01*
X130449099Y-116289560D01*
X130453540Y-116410315D01*
X130460678Y-116882424D01*
X130978197Y-116882424D01*
X130979299Y-116644960D01*
X130979333Y-116520995D01*
X130972287Y-115963427D01*
X130950806Y-115568151D01*
X130914373Y-115328697D01*
X130877733Y-115248267D01*
X130738793Y-115189481D01*
X130497828Y-115152796D01*
X130344333Y-115146667D01*
X130075636Y-115165527D01*
G36*
X123954482Y-118596833D02*
G01*
X123967636Y-118845143D01*
X124004086Y-119006481D01*
X124036666Y-119041333D01*
X124095112Y-118967509D01*
X124121238Y-118788555D01*
X124121333Y-118775915D01*
X124121333Y-118510497D01*
X124306127Y-118745424D01*
X124490921Y-118980352D01*
X124686706Y-118735676D01*
X124882492Y-118491000D01*
X124882913Y-118766167D01*
X124905978Y-118953464D01*
X124961596Y-119040548D01*
X124968000Y-119041333D01*
X125018772Y-118965720D01*
X125048993Y-118774674D01*
X125052666Y-118665330D01*
X125031710Y-118379499D01*
X124965203Y-118255113D01*
X124847689Y-118289098D01*
X124688019Y-118459914D01*
X124479162Y-118726784D01*
X124218063Y-118439559D01*
X123956964Y-118152333D01*
X123954482Y-118596833D01*
X123954482Y-118596833D01*
G37*
X123954482Y-118596833D02*
X123967636Y-118845143D01*
X124004086Y-119006481D01*
X124036666Y-119041333D01*
X124095112Y-118967509D01*
X124121238Y-118788555D01*
X124121333Y-118775915D01*
X124121333Y-118510497D01*
X124306127Y-118745424D01*
X124490921Y-118980352D01*
X124686706Y-118735676D01*
X124882492Y-118491000D01*
X124882913Y-118766167D01*
X124905978Y-118953464D01*
X124961596Y-119040548D01*
X124968000Y-119041333D01*
X125018772Y-118965720D01*
X125048993Y-118774674D01*
X125052666Y-118665330D01*
X125031710Y-118379499D01*
X124965203Y-118255113D01*
X124847689Y-118289098D01*
X124688019Y-118459914D01*
X124479162Y-118726784D01*
X124218063Y-118439559D01*
X123956964Y-118152333D01*
X123954482Y-118596833D01*
G36*
X125407861Y-118639167D02*
G01*
X125382055Y-119041333D01*
X126416611Y-119041333D01*
X126390805Y-118639167D01*
X126389447Y-118618000D01*
X126238000Y-118618000D01*
X126224626Y-118780867D01*
X126152154Y-118853268D01*
X125972055Y-118871599D01*
X125899333Y-118872000D01*
X125682178Y-118861970D01*
X125585643Y-118807615D01*
X125561201Y-118672541D01*
X125560666Y-118618000D01*
X125574040Y-118455133D01*
X125646513Y-118382732D01*
X125826611Y-118364401D01*
X125899333Y-118364000D01*
X126116489Y-118374030D01*
X126213024Y-118428385D01*
X126237466Y-118563458D01*
X126238000Y-118618000D01*
X126389447Y-118618000D01*
X126365000Y-118237000D01*
X125433666Y-118237000D01*
X125407861Y-118639167D01*
X125407861Y-118639167D01*
G37*
X125407861Y-118639167D02*
X125382055Y-119041333D01*
X126416611Y-119041333D01*
X126390805Y-118639167D01*
X126389447Y-118618000D01*
X126238000Y-118618000D01*
X126224626Y-118780867D01*
X126152154Y-118853268D01*
X125972055Y-118871599D01*
X125899333Y-118872000D01*
X125682178Y-118861970D01*
X125585643Y-118807615D01*
X125561201Y-118672541D01*
X125560666Y-118618000D01*
X125574040Y-118455133D01*
X125646513Y-118382732D01*
X125826611Y-118364401D01*
X125899333Y-118364000D01*
X126116489Y-118374030D01*
X126213024Y-118428385D01*
X126237466Y-118563458D01*
X126238000Y-118618000D01*
X126389447Y-118618000D01*
X126365000Y-118237000D01*
X125433666Y-118237000D01*
X125407861Y-118639167D01*
G36*
X126868022Y-118265929D02*
G01*
X126752490Y-118371425D01*
X126746000Y-118407946D01*
X126792228Y-118519579D01*
X126830666Y-118533333D01*
X126912873Y-118468904D01*
X126915333Y-118448667D01*
X126989762Y-118392704D01*
X127172777Y-118364731D01*
X127211666Y-118364000D01*
X127410761Y-118378159D01*
X127492422Y-118449979D01*
X127508000Y-118618000D01*
X127491480Y-118788653D01*
X127407690Y-118858647D01*
X127211666Y-118872000D01*
X127015818Y-118849485D01*
X126917900Y-118794120D01*
X126915333Y-118782336D01*
X126863463Y-118731770D01*
X126830666Y-118745000D01*
X126752762Y-118867502D01*
X126746000Y-118919330D01*
X126792609Y-118993469D01*
X126951826Y-119031588D01*
X127216305Y-119041333D01*
X127686611Y-119041333D01*
X127660805Y-118639167D01*
X127636237Y-118394297D01*
X127583836Y-118270874D01*
X127473667Y-118221023D01*
X127391936Y-118209222D01*
X127095405Y-118207482D01*
X126868022Y-118265929D01*
X126868022Y-118265929D01*
G37*
X126868022Y-118265929D02*
X126752490Y-118371425D01*
X126746000Y-118407946D01*
X126792228Y-118519579D01*
X126830666Y-118533333D01*
X126912873Y-118468904D01*
X126915333Y-118448667D01*
X126989762Y-118392704D01*
X127172777Y-118364731D01*
X127211666Y-118364000D01*
X127410761Y-118378159D01*
X127492422Y-118449979D01*
X127508000Y-118618000D01*
X127491480Y-118788653D01*
X127407690Y-118858647D01*
X127211666Y-118872000D01*
X127015818Y-118849485D01*
X126917900Y-118794120D01*
X126915333Y-118782336D01*
X126863463Y-118731770D01*
X126830666Y-118745000D01*
X126752762Y-118867502D01*
X126746000Y-118919330D01*
X126792609Y-118993469D01*
X126951826Y-119031588D01*
X127216305Y-119041333D01*
X127686611Y-119041333D01*
X127660805Y-118639167D01*
X127636237Y-118394297D01*
X127583836Y-118270874D01*
X127473667Y-118221023D01*
X127391936Y-118209222D01*
X127095405Y-118207482D01*
X126868022Y-118265929D01*
G36*
X128115418Y-118855106D02*
G01*
X128100666Y-118914333D01*
X128168439Y-119026582D01*
X128227666Y-119041333D01*
X128339915Y-118973560D01*
X128354666Y-118914333D01*
X128286894Y-118802085D01*
X128227666Y-118787333D01*
X128115418Y-118855106D01*
X128115418Y-118855106D01*
G37*
X128115418Y-118855106D02*
X128100666Y-118914333D01*
X128168439Y-119026582D01*
X128227666Y-119041333D01*
X128339915Y-118973560D01*
X128354666Y-118914333D01*
X128286894Y-118802085D01*
X128227666Y-118787333D01*
X128115418Y-118855106D01*
G36*
X117104379Y-110315592D02*
G01*
X117086138Y-110324874D01*
X116948806Y-110477277D01*
X116944556Y-110673864D01*
X117051666Y-110828667D01*
X117145605Y-110986738D01*
X117178666Y-111177700D01*
X117166683Y-111327587D01*
X117100151Y-111398584D01*
X116933195Y-111420027D01*
X116797666Y-111421333D01*
X116416666Y-111421333D01*
X116416666Y-118194667D01*
X119132906Y-118194667D01*
X121277442Y-119126000D01*
X121927223Y-119407917D01*
X122438385Y-119628614D01*
X122827516Y-119794574D01*
X123111205Y-119912281D01*
X123306043Y-119988219D01*
X123428617Y-120028874D01*
X123495518Y-120040729D01*
X123523333Y-120030268D01*
X123528666Y-120005942D01*
X123483021Y-119920038D01*
X123425861Y-119830403D01*
X123274666Y-119830403D01*
X123200858Y-119808311D01*
X122993244Y-119725735D01*
X122672540Y-119591447D01*
X122259463Y-119414222D01*
X121774729Y-119202832D01*
X121348500Y-119014675D01*
X119422333Y-118160008D01*
X117983000Y-118113837D01*
X116543666Y-118067667D01*
X116521494Y-114829167D01*
X116499321Y-111590667D01*
X123082317Y-111590667D01*
X123136158Y-111983484D01*
X123149074Y-112161641D01*
X123160878Y-112485930D01*
X123171187Y-112933151D01*
X123179617Y-113480103D01*
X123185786Y-114103586D01*
X123189309Y-114780400D01*
X123190000Y-115243150D01*
X123190000Y-118110000D01*
X122738444Y-118110000D01*
X122475432Y-118119445D01*
X122287371Y-118143679D01*
X122232520Y-118164368D01*
X122256273Y-118250992D01*
X122361867Y-118445118D01*
X122531869Y-118717069D01*
X122726409Y-119005100D01*
X122944566Y-119321236D01*
X123121559Y-119583876D01*
X123237906Y-119763695D01*
X123274666Y-119830403D01*
X123425861Y-119830403D01*
X123359094Y-119725705D01*
X123176398Y-119452756D01*
X122978333Y-119165210D01*
X122759555Y-118847417D01*
X122581993Y-118581877D01*
X122465143Y-118398263D01*
X122428000Y-118327601D01*
X122504195Y-118300059D01*
X122699000Y-118282584D01*
X122851333Y-118279333D01*
X123274666Y-118279333D01*
X123274666Y-111421333D01*
X122936000Y-111421333D01*
X122719164Y-111412362D01*
X122622800Y-111356970D01*
X122598090Y-111212441D01*
X122597333Y-111125000D01*
X122616331Y-110929100D01*
X122663041Y-110831214D01*
X122672941Y-110828666D01*
X122768515Y-110757982D01*
X122816803Y-110599470D01*
X122813900Y-110574667D01*
X122682000Y-110574667D01*
X122639148Y-110713627D01*
X122533833Y-110727882D01*
X122407874Y-110644396D01*
X122385666Y-110574667D01*
X122456051Y-110455118D01*
X122533833Y-110421451D01*
X122653845Y-110450903D01*
X122682000Y-110574667D01*
X122813900Y-110574667D01*
X122799796Y-110454213D01*
X122671487Y-110306539D01*
X122476832Y-110297090D01*
X122296826Y-110393490D01*
X122096027Y-110551438D01*
X122289556Y-110733249D01*
X122434884Y-110941575D01*
X122445933Y-111168197D01*
X122408781Y-111421333D01*
X117263333Y-111421333D01*
X117263333Y-111193957D01*
X117320726Y-110970475D01*
X117453833Y-110763431D01*
X117601696Y-110605749D01*
X117409125Y-110605749D01*
X117391995Y-110656644D01*
X117268277Y-110727022D01*
X117115332Y-110694369D01*
X117030475Y-110595878D01*
X117060360Y-110486242D01*
X117183383Y-110426051D01*
X117324716Y-110443299D01*
X117363247Y-110471380D01*
X117409125Y-110605749D01*
X117601696Y-110605749D01*
X117644333Y-110560282D01*
X117445971Y-110399370D01*
X117263832Y-110293085D01*
X117104379Y-110315592D01*
X117104379Y-110315592D01*
G37*
X117104379Y-110315592D02*
X117086138Y-110324874D01*
X116948806Y-110477277D01*
X116944556Y-110673864D01*
X117051666Y-110828667D01*
X117145605Y-110986738D01*
X117178666Y-111177700D01*
X117166683Y-111327587D01*
X117100151Y-111398584D01*
X116933195Y-111420027D01*
X116797666Y-111421333D01*
X116416666Y-111421333D01*
X116416666Y-118194667D01*
X119132906Y-118194667D01*
X121277442Y-119126000D01*
X121927223Y-119407917D01*
X122438385Y-119628614D01*
X122827516Y-119794574D01*
X123111205Y-119912281D01*
X123306043Y-119988219D01*
X123428617Y-120028874D01*
X123495518Y-120040729D01*
X123523333Y-120030268D01*
X123528666Y-120005942D01*
X123483021Y-119920038D01*
X123425861Y-119830403D01*
X123274666Y-119830403D01*
X123200858Y-119808311D01*
X122993244Y-119725735D01*
X122672540Y-119591447D01*
X122259463Y-119414222D01*
X121774729Y-119202832D01*
X121348500Y-119014675D01*
X119422333Y-118160008D01*
X117983000Y-118113837D01*
X116543666Y-118067667D01*
X116521494Y-114829167D01*
X116499321Y-111590667D01*
X123082317Y-111590667D01*
X123136158Y-111983484D01*
X123149074Y-112161641D01*
X123160878Y-112485930D01*
X123171187Y-112933151D01*
X123179617Y-113480103D01*
X123185786Y-114103586D01*
X123189309Y-114780400D01*
X123190000Y-115243150D01*
X123190000Y-118110000D01*
X122738444Y-118110000D01*
X122475432Y-118119445D01*
X122287371Y-118143679D01*
X122232520Y-118164368D01*
X122256273Y-118250992D01*
X122361867Y-118445118D01*
X122531869Y-118717069D01*
X122726409Y-119005100D01*
X122944566Y-119321236D01*
X123121559Y-119583876D01*
X123237906Y-119763695D01*
X123274666Y-119830403D01*
X123425861Y-119830403D01*
X123359094Y-119725705D01*
X123176398Y-119452756D01*
X122978333Y-119165210D01*
X122759555Y-118847417D01*
X122581993Y-118581877D01*
X122465143Y-118398263D01*
X122428000Y-118327601D01*
X122504195Y-118300059D01*
X122699000Y-118282584D01*
X122851333Y-118279333D01*
X123274666Y-118279333D01*
X123274666Y-111421333D01*
X122936000Y-111421333D01*
X122719164Y-111412362D01*
X122622800Y-111356970D01*
X122598090Y-111212441D01*
X122597333Y-111125000D01*
X122616331Y-110929100D01*
X122663041Y-110831214D01*
X122672941Y-110828666D01*
X122768515Y-110757982D01*
X122816803Y-110599470D01*
X122813900Y-110574667D01*
X122682000Y-110574667D01*
X122639148Y-110713627D01*
X122533833Y-110727882D01*
X122407874Y-110644396D01*
X122385666Y-110574667D01*
X122456051Y-110455118D01*
X122533833Y-110421451D01*
X122653845Y-110450903D01*
X122682000Y-110574667D01*
X122813900Y-110574667D01*
X122799796Y-110454213D01*
X122671487Y-110306539D01*
X122476832Y-110297090D01*
X122296826Y-110393490D01*
X122096027Y-110551438D01*
X122289556Y-110733249D01*
X122434884Y-110941575D01*
X122445933Y-111168197D01*
X122408781Y-111421333D01*
X117263333Y-111421333D01*
X117263333Y-111193957D01*
X117320726Y-110970475D01*
X117453833Y-110763431D01*
X117601696Y-110605749D01*
X117409125Y-110605749D01*
X117391995Y-110656644D01*
X117268277Y-110727022D01*
X117115332Y-110694369D01*
X117030475Y-110595878D01*
X117060360Y-110486242D01*
X117183383Y-110426051D01*
X117324716Y-110443299D01*
X117363247Y-110471380D01*
X117409125Y-110605749D01*
X117601696Y-110605749D01*
X117644333Y-110560282D01*
X117445971Y-110399370D01*
X117263832Y-110293085D01*
X117104379Y-110315592D01*
D12*
X92182000Y-78674000D02*
X96882000Y-78674000D01*
X92182000Y-76774000D02*
X96882000Y-76774000D01*
X92182000Y-78674000D02*
X92182000Y-76774000D01*
D13*
X86090000Y-94980000D02*
X86090000Y-93980000D01*
X108090000Y-94480000D02*
X108090000Y-93980000D01*
X108090000Y-94480000D02*
X108090000Y-96480000D01*
X108090000Y-96480000D02*
X106590000Y-99980000D01*
X106590000Y-99980000D02*
X106590000Y-107980000D01*
X106590000Y-107980000D02*
X95590000Y-107980000D01*
X95590000Y-107980000D02*
X95590000Y-99980000D01*
X95590000Y-99980000D02*
X86090000Y-94980000D01*
X85090000Y-93980000D02*
X85090000Y-123240000D01*
X85090000Y-123240000D02*
X111240000Y-123280000D01*
X111240000Y-123280000D02*
X111240000Y-93980000D01*
X111240000Y-93980000D02*
X85090000Y-93980000D01*
D12*
X101096000Y-74819000D02*
X101096000Y-76819000D01*
X99056000Y-76819000D02*
X99056000Y-74819000D01*
X113010000Y-78602000D02*
X113010000Y-75322000D01*
X118070000Y-76962000D02*
G75*
G03X118070000Y-76962000I-2500000J0D01*
G01*
X118609999Y-76963958D02*
G75*
G03X113010000Y-75322488I-3039999J1958D01*
G01*
X118609999Y-76960042D02*
G75*
G02X113010000Y-78601512I-3039999J-1958D01*
G01*
X116094000Y-72082000D02*
X114094000Y-72082000D01*
X114094000Y-74222000D02*
X116094000Y-74222000D01*
D13*
X96020095Y-80026380D02*
X96020095Y-79026380D01*
X95782000Y-79026380D01*
X95639142Y-79074000D01*
X95543904Y-79169238D01*
X95496285Y-79264476D01*
X95448666Y-79454952D01*
X95448666Y-79597809D01*
X95496285Y-79788285D01*
X95543904Y-79883523D01*
X95639142Y-79978761D01*
X95782000Y-80026380D01*
X96020095Y-80026380D01*
X95067714Y-79121619D02*
X95020095Y-79074000D01*
X94924857Y-79026380D01*
X94686761Y-79026380D01*
X94591523Y-79074000D01*
X94543904Y-79121619D01*
X94496285Y-79216857D01*
X94496285Y-79312095D01*
X94543904Y-79454952D01*
X95115333Y-80026380D01*
X94496285Y-80026380D01*
X98351904Y-94932380D02*
X98351904Y-95741904D01*
X98304285Y-95837142D01*
X98256666Y-95884761D01*
X98161428Y-95932380D01*
X97970952Y-95932380D01*
X97875714Y-95884761D01*
X97828095Y-95837142D01*
X97780476Y-95741904D01*
X97780476Y-94932380D01*
X97351904Y-95027619D02*
X97304285Y-94980000D01*
X97209047Y-94932380D01*
X96970952Y-94932380D01*
X96875714Y-94980000D01*
X96828095Y-95027619D01*
X96780476Y-95122857D01*
X96780476Y-95218095D01*
X96828095Y-95360952D01*
X97399523Y-95932380D01*
X96780476Y-95932380D01*
X98622904Y-112450619D02*
X98575285Y-112403000D01*
X98480047Y-112355380D01*
X98241952Y-112355380D01*
X98146714Y-112403000D01*
X98099095Y-112450619D01*
X98051476Y-112545857D01*
X98051476Y-112641095D01*
X98099095Y-112783952D01*
X98670523Y-113355380D01*
X98051476Y-113355380D01*
X97194333Y-112688714D02*
X97194333Y-113355380D01*
X97432428Y-112307761D02*
X97670523Y-113022047D01*
X97051476Y-113022047D01*
X96480047Y-112355380D02*
X96384809Y-112355380D01*
X96289571Y-112403000D01*
X96241952Y-112450619D01*
X96194333Y-112545857D01*
X96146714Y-112736333D01*
X96146714Y-112974428D01*
X96194333Y-113164904D01*
X96241952Y-113260142D01*
X96289571Y-113307761D01*
X96384809Y-113355380D01*
X96480047Y-113355380D01*
X96575285Y-113307761D01*
X96622904Y-113260142D01*
X96670523Y-113164904D01*
X96718142Y-112974428D01*
X96718142Y-112736333D01*
X96670523Y-112545857D01*
X96622904Y-112450619D01*
X96575285Y-112403000D01*
X96480047Y-112355380D01*
X95813380Y-113355380D02*
X95289571Y-112688714D01*
X95813380Y-112688714D02*
X95289571Y-113355380D01*
X94956238Y-112450619D02*
X94908619Y-112403000D01*
X94813380Y-112355380D01*
X94575285Y-112355380D01*
X94480047Y-112403000D01*
X94432428Y-112450619D01*
X94384809Y-112545857D01*
X94384809Y-112641095D01*
X94432428Y-112783952D01*
X95003857Y-113355380D01*
X94384809Y-113355380D01*
X93527666Y-112688714D02*
X93527666Y-113355380D01*
X93765761Y-112307761D02*
X94003857Y-113022047D01*
X93384809Y-113022047D01*
X92813380Y-112355380D02*
X92718142Y-112355380D01*
X92622904Y-112403000D01*
X92575285Y-112450619D01*
X92527666Y-112545857D01*
X92480047Y-112736333D01*
X92480047Y-112974428D01*
X92527666Y-113164904D01*
X92575285Y-113260142D01*
X92622904Y-113307761D01*
X92718142Y-113355380D01*
X92813380Y-113355380D01*
X92908619Y-113307761D01*
X92956238Y-113260142D01*
X93003857Y-113164904D01*
X93051476Y-112974428D01*
X93051476Y-112736333D01*
X93003857Y-112545857D01*
X92956238Y-112450619D01*
X92908619Y-112403000D01*
X92813380Y-112355380D01*
X92194333Y-112355380D02*
X91622904Y-112355380D01*
X91908619Y-113355380D02*
X91908619Y-112355380D01*
X90956238Y-112831571D02*
X91289571Y-112831571D01*
X91289571Y-113355380D02*
X91289571Y-112355380D01*
X90813380Y-112355380D01*
X90575285Y-112355380D02*
X90003857Y-112355380D01*
X90289571Y-113355380D02*
X90289571Y-112355380D01*
X98683142Y-75652333D02*
X98730761Y-75604714D01*
X98778380Y-75461857D01*
X98778380Y-75366619D01*
X98730761Y-75223761D01*
X98635523Y-75128523D01*
X98540285Y-75080904D01*
X98349809Y-75033285D01*
X98206952Y-75033285D01*
X98016476Y-75080904D01*
X97921238Y-75128523D01*
X97826000Y-75223761D01*
X97778380Y-75366619D01*
X97778380Y-75461857D01*
X97826000Y-75604714D01*
X97873619Y-75652333D01*
X98206952Y-76223761D02*
X98159333Y-76128523D01*
X98111714Y-76080904D01*
X98016476Y-76033285D01*
X97968857Y-76033285D01*
X97873619Y-76080904D01*
X97826000Y-76128523D01*
X97778380Y-76223761D01*
X97778380Y-76414238D01*
X97826000Y-76509476D01*
X97873619Y-76557095D01*
X97968857Y-76604714D01*
X98016476Y-76604714D01*
X98111714Y-76557095D01*
X98159333Y-76509476D01*
X98206952Y-76414238D01*
X98206952Y-76223761D01*
X98254571Y-76128523D01*
X98302190Y-76080904D01*
X98397428Y-76033285D01*
X98587904Y-76033285D01*
X98683142Y-76080904D01*
X98730761Y-76128523D01*
X98778380Y-76223761D01*
X98778380Y-76414238D01*
X98730761Y-76509476D01*
X98683142Y-76557095D01*
X98587904Y-76604714D01*
X98397428Y-76604714D01*
X98302190Y-76557095D01*
X98254571Y-76509476D01*
X98206952Y-76414238D01*
X116308095Y-81424380D02*
X116308095Y-80424380D01*
X116070000Y-80424380D01*
X115927142Y-80472000D01*
X115831904Y-80567238D01*
X115784285Y-80662476D01*
X115736666Y-80852952D01*
X115736666Y-80995809D01*
X115784285Y-81186285D01*
X115831904Y-81281523D01*
X115927142Y-81376761D01*
X116070000Y-81424380D01*
X116308095Y-81424380D01*
X115403333Y-80424380D02*
X114784285Y-80424380D01*
X115117619Y-80805333D01*
X114974761Y-80805333D01*
X114879523Y-80852952D01*
X114831904Y-80900571D01*
X114784285Y-80995809D01*
X114784285Y-81233904D01*
X114831904Y-81329142D01*
X114879523Y-81376761D01*
X114974761Y-81424380D01*
X115260476Y-81424380D01*
X115355714Y-81376761D01*
X115403333Y-81329142D01*
X120530857Y-72842380D02*
X120864190Y-72366190D01*
X121102285Y-72842380D02*
X121102285Y-71842380D01*
X120721333Y-71842380D01*
X120626095Y-71890000D01*
X120578476Y-71937619D01*
X120530857Y-72032857D01*
X120530857Y-72175714D01*
X120578476Y-72270952D01*
X120626095Y-72318571D01*
X120721333Y-72366190D01*
X121102285Y-72366190D01*
X119578476Y-72842380D02*
X120149904Y-72842380D01*
X119864190Y-72842380D02*
X119864190Y-71842380D01*
X119959428Y-71985238D01*
X120054666Y-72080476D01*
X120149904Y-72128095D01*
X119197523Y-71937619D02*
X119149904Y-71890000D01*
X119054666Y-71842380D01*
X118816571Y-71842380D01*
X118721333Y-71890000D01*
X118673714Y-71937619D01*
X118626095Y-72032857D01*
X118626095Y-72128095D01*
X118673714Y-72270952D01*
X119245142Y-72842380D01*
X118626095Y-72842380D01*
D10*
X115819142Y-71499428D02*
X115819142Y-71899428D01*
X115962000Y-71270857D02*
X116104857Y-71699428D01*
X115733428Y-71699428D01*
X115562000Y-71299428D02*
X115162000Y-71299428D01*
X115419142Y-71899428D01*
X114819142Y-71299428D02*
X114762000Y-71299428D01*
X114704857Y-71328000D01*
X114676285Y-71356571D01*
X114647714Y-71413714D01*
X114619142Y-71528000D01*
X114619142Y-71670857D01*
X114647714Y-71785142D01*
X114676285Y-71842285D01*
X114704857Y-71870857D01*
X114762000Y-71899428D01*
X114819142Y-71899428D01*
X114876285Y-71870857D01*
X114904857Y-71842285D01*
X114933428Y-71785142D01*
X114962000Y-71670857D01*
X114962000Y-71528000D01*
X114933428Y-71413714D01*
X114904857Y-71356571D01*
X114876285Y-71328000D01*
X114819142Y-71299428D01*
X114019142Y-71899428D02*
X114219142Y-71613714D01*
X114362000Y-71899428D02*
X114362000Y-71299428D01*
X114133428Y-71299428D01*
X114076285Y-71328000D01*
X114047714Y-71356571D01*
X114019142Y-71413714D01*
X114019142Y-71499428D01*
X114047714Y-71556571D01*
X114076285Y-71585142D01*
X114133428Y-71613714D01*
X114362000Y-71613714D01*
M02*
