G04 #@! TF.GenerationSoftware,KiCad,Pcbnew,(5.1.2)-1*
G04 #@! TF.CreationDate,2019-08-14T03:07:57+02:00*
G04 #@! TF.ProjectId,SmokESP8266,536d6f6b-4553-4503-9832-36362e6b6963,rev?*
G04 #@! TF.SameCoordinates,Original*
G04 #@! TF.FileFunction,Copper,L1,Top*
G04 #@! TF.FilePolarity,Positive*
%FSLAX46Y46*%
G04 Gerber Fmt 4.6, Leading zero omitted, Abs format (unit mm)*
G04 Created by KiCad (PCBNEW (5.1.2)-1) date 2019-08-14 03:07:58*
%MOMM*%
%LPD*%
G04 APERTURE LIST*
%ADD10C,0.120000*%
%ADD11R,1.500000X2.000000*%
%ADD12R,3.800000X2.000000*%
%ADD13C,3.000000*%
%ADD14R,3.000000X3.000000*%
%ADD15R,1.980000X1.980000*%
%ADD16C,1.935000*%
%ADD17C,1.980000*%
%ADD18R,1.700000X2.000000*%
%ADD19O,2.200000X2.200000*%
%ADD20R,2.200000X2.200000*%
%ADD21R,1.520000X1.520000*%
%ADD22C,1.520000*%
%ADD23R,2.000000X1.600000*%
%ADD24R,2.000000X1.700000*%
%ADD25R,0.900000X1.700000*%
%ADD26O,2.500000X0.900000*%
%ADD27O,0.900000X2.500000*%
%ADD28R,6.000000X6.000000*%
%ADD29R,1.900000X1.200000*%
%ADD30O,1.900000X1.200000*%
%ADD31R,1.900000X1.500000*%
%ADD32C,1.450000*%
%ADD33R,1.350000X0.400000*%
%ADD34O,1.000000X1.000000*%
%ADD35R,1.000000X1.000000*%
%ADD36R,0.750000X1.200000*%
%ADD37R,0.800000X0.900000*%
%ADD38R,1.300000X1.500000*%
%ADD39R,1.300000X1.300000*%
%ADD40R,0.300000X0.850000*%
%ADD41R,0.850000X0.300000*%
%ADD42R,0.900000X0.800000*%
%ADD43O,1.727200X2.032000*%
%ADD44R,1.727200X2.032000*%
%ADD45C,1.800000*%
%ADD46R,1.800000X1.800000*%
%ADD47R,1.500000X0.900000*%
%ADD48O,1.500000X0.900000*%
%ADD49C,0.800000*%
%ADD50C,0.250000*%
%ADD51C,1.200000*%
%ADD52C,0.254000*%
G04 APERTURE END LIST*
D10*
X118419619Y-75470380D02*
X119419619Y-75470380D01*
X118943428Y-75470380D02*
X118943428Y-76041809D01*
X118419619Y-76041809D02*
X119419619Y-76041809D01*
X118419619Y-76518000D02*
X119419619Y-76518000D01*
X119372000Y-77518000D02*
X119419619Y-77422761D01*
X119419619Y-77279904D01*
X119372000Y-77137047D01*
X119276761Y-77041809D01*
X119181523Y-76994190D01*
X118991047Y-76946571D01*
X118848190Y-76946571D01*
X118657714Y-76994190D01*
X118562476Y-77041809D01*
X118467238Y-77137047D01*
X118419619Y-77279904D01*
X118419619Y-77375142D01*
X118467238Y-77518000D01*
X118514857Y-77565619D01*
X118848190Y-77565619D01*
X118848190Y-77375142D01*
X118419619Y-77994190D02*
X119419619Y-77994190D01*
X118943428Y-77994190D02*
X118943428Y-78565619D01*
X118419619Y-78565619D02*
X119419619Y-78565619D01*
X119419619Y-79660857D02*
X118419619Y-79994190D01*
X119419619Y-80327523D01*
X119419619Y-80851333D02*
X119419619Y-81041809D01*
X119372000Y-81137047D01*
X119276761Y-81232285D01*
X119086285Y-81279904D01*
X118752952Y-81279904D01*
X118562476Y-81232285D01*
X118467238Y-81137047D01*
X118419619Y-81041809D01*
X118419619Y-80851333D01*
X118467238Y-80756095D01*
X118562476Y-80660857D01*
X118752952Y-80613238D01*
X119086285Y-80613238D01*
X119276761Y-80660857D01*
X119372000Y-80756095D01*
X119419619Y-80851333D01*
X118419619Y-82184666D02*
X118419619Y-81708476D01*
X119419619Y-81708476D01*
X119419619Y-82375142D02*
X119419619Y-82946571D01*
X118419619Y-82660857D02*
X119419619Y-82660857D01*
X118705333Y-83232285D02*
X118705333Y-83708476D01*
X118419619Y-83137047D02*
X119419619Y-83470380D01*
X118419619Y-83803714D01*
X119372000Y-84660857D02*
X119419619Y-84565619D01*
X119419619Y-84422761D01*
X119372000Y-84279904D01*
X119276761Y-84184666D01*
X119181523Y-84137047D01*
X118991047Y-84089428D01*
X118848190Y-84089428D01*
X118657714Y-84137047D01*
X118562476Y-84184666D01*
X118467238Y-84279904D01*
X118419619Y-84422761D01*
X118419619Y-84518000D01*
X118467238Y-84660857D01*
X118514857Y-84708476D01*
X118848190Y-84708476D01*
X118848190Y-84518000D01*
X118943428Y-85137047D02*
X118943428Y-85470380D01*
X118419619Y-85613238D02*
X118419619Y-85137047D01*
X119419619Y-85137047D01*
X119419619Y-85613238D01*
X131539619Y-73207619D02*
X131539619Y-74207619D01*
X131539619Y-73731428D02*
X130968190Y-73731428D01*
X130968190Y-73207619D02*
X130968190Y-74207619D01*
X130492000Y-73207619D02*
X130492000Y-74207619D01*
X129492000Y-74160000D02*
X129587238Y-74207619D01*
X129730095Y-74207619D01*
X129872952Y-74160000D01*
X129968190Y-74064761D01*
X130015809Y-73969523D01*
X130063428Y-73779047D01*
X130063428Y-73636190D01*
X130015809Y-73445714D01*
X129968190Y-73350476D01*
X129872952Y-73255238D01*
X129730095Y-73207619D01*
X129634857Y-73207619D01*
X129492000Y-73255238D01*
X129444380Y-73302857D01*
X129444380Y-73636190D01*
X129634857Y-73636190D01*
X129015809Y-73207619D02*
X129015809Y-74207619D01*
X129015809Y-73731428D02*
X128444380Y-73731428D01*
X128444380Y-73207619D02*
X128444380Y-74207619D01*
X127349142Y-74207619D02*
X127015809Y-73207619D01*
X126682476Y-74207619D01*
X126158666Y-74207619D02*
X125968190Y-74207619D01*
X125872952Y-74160000D01*
X125777714Y-74064761D01*
X125730095Y-73874285D01*
X125730095Y-73540952D01*
X125777714Y-73350476D01*
X125872952Y-73255238D01*
X125968190Y-73207619D01*
X126158666Y-73207619D01*
X126253904Y-73255238D01*
X126349142Y-73350476D01*
X126396761Y-73540952D01*
X126396761Y-73874285D01*
X126349142Y-74064761D01*
X126253904Y-74160000D01*
X126158666Y-74207619D01*
X124825333Y-73207619D02*
X125301523Y-73207619D01*
X125301523Y-74207619D01*
X124634857Y-74207619D02*
X124063428Y-74207619D01*
X124349142Y-73207619D02*
X124349142Y-74207619D01*
X123777714Y-73493333D02*
X123301523Y-73493333D01*
X123872952Y-73207619D02*
X123539619Y-74207619D01*
X123206285Y-73207619D01*
X122349142Y-74160000D02*
X122444380Y-74207619D01*
X122587238Y-74207619D01*
X122730095Y-74160000D01*
X122825333Y-74064761D01*
X122872952Y-73969523D01*
X122920571Y-73779047D01*
X122920571Y-73636190D01*
X122872952Y-73445714D01*
X122825333Y-73350476D01*
X122730095Y-73255238D01*
X122587238Y-73207619D01*
X122492000Y-73207619D01*
X122349142Y-73255238D01*
X122301523Y-73302857D01*
X122301523Y-73636190D01*
X122492000Y-73636190D01*
X121872952Y-73731428D02*
X121539619Y-73731428D01*
X121396761Y-73207619D02*
X121872952Y-73207619D01*
X121872952Y-74207619D01*
X121396761Y-74207619D01*
D11*
X105396000Y-87097000D03*
X109996000Y-87097000D03*
X107696000Y-87097000D03*
D12*
X107696000Y-80797000D03*
D13*
X123190000Y-81280000D03*
X128270000Y-81280000D03*
D14*
X133350000Y-81280000D03*
D15*
X118360000Y-87980000D03*
D16*
X116360000Y-93980000D03*
D17*
X118360000Y-99980000D03*
X130560000Y-99980000D03*
X130560000Y-87980000D03*
D18*
X90474800Y-85934800D03*
X90474800Y-89934800D03*
X93065600Y-89953600D03*
X93065600Y-85953600D03*
D19*
X82550000Y-95250000D03*
D20*
X82550000Y-105410000D03*
D21*
X99060000Y-90170000D03*
D22*
X99060000Y-85090000D03*
X99060000Y-87630000D03*
D23*
X91472000Y-110744000D03*
X95472000Y-110744000D03*
X93980000Y-81280000D03*
X89980000Y-81280000D03*
X109950000Y-103505000D03*
X105950000Y-103505000D03*
X109950000Y-100330000D03*
X105950000Y-100330000D03*
X97600000Y-81280000D03*
X101600000Y-81280000D03*
X82360000Y-81280000D03*
X86360000Y-81280000D03*
D24*
X102584000Y-110744000D03*
X98584000Y-110744000D03*
X101600000Y-100330000D03*
X97600000Y-100330000D03*
D25*
X81485000Y-109220000D03*
X84885000Y-109220000D03*
X100379000Y-105537000D03*
X96979000Y-105537000D03*
D26*
X115460000Y-122090000D03*
X115460000Y-120820000D03*
X115460000Y-119550000D03*
X115460000Y-118280000D03*
X115460000Y-117010000D03*
X115460000Y-115740000D03*
X115460000Y-114470000D03*
X115460000Y-113200000D03*
X115460000Y-111930000D03*
X115460000Y-110660000D03*
X115460000Y-109390000D03*
X115460000Y-108120000D03*
X115460000Y-106850000D03*
X115460000Y-105580000D03*
D27*
X118745000Y-104090000D03*
X120015000Y-104090000D03*
X121285000Y-104090000D03*
X122555000Y-104090000D03*
X123825000Y-104090000D03*
X125095000Y-104090000D03*
X126365000Y-104090000D03*
X127635000Y-104090000D03*
X128905000Y-104090000D03*
X130175000Y-104090000D03*
D26*
X133460000Y-105580000D03*
X133460000Y-106850000D03*
X133460000Y-108120000D03*
X133460000Y-109390000D03*
X133460000Y-110660000D03*
X133460000Y-111930000D03*
X133460000Y-113200000D03*
X133460000Y-114470000D03*
X133460000Y-115740000D03*
X133460000Y-117010000D03*
X133460000Y-118280000D03*
X133460000Y-119550000D03*
X133460000Y-120820000D03*
X133460000Y-122090000D03*
D28*
X124760000Y-114390000D03*
D14*
X102108000Y-127889000D03*
D13*
X107188000Y-127889000D03*
X83312000Y-119634000D03*
D14*
X83312000Y-114554000D03*
D29*
X81565000Y-85746000D03*
X81565000Y-91546000D03*
D30*
X81565000Y-92146000D03*
X81565000Y-85146000D03*
D31*
X81565000Y-87646000D03*
D32*
X84265000Y-91146000D03*
D33*
X84265000Y-88646000D03*
X84265000Y-89296000D03*
X84265000Y-89946000D03*
X84265000Y-87346000D03*
X84265000Y-87996000D03*
D32*
X84265000Y-86146000D03*
D31*
X81565000Y-89646000D03*
D34*
X108966000Y-74041000D03*
X107696000Y-74041000D03*
X106426000Y-74041000D03*
X105156000Y-74041000D03*
D35*
X103886000Y-74041000D03*
D36*
X87249000Y-84521000D03*
X87249000Y-86421000D03*
D37*
X99761000Y-95361000D03*
X101661000Y-95361000D03*
X100711000Y-93361000D03*
X107315000Y-93361000D03*
X108265000Y-95361000D03*
X106365000Y-95361000D03*
D38*
X87503000Y-95965000D03*
X87503000Y-93265000D03*
X94107000Y-95297000D03*
X94107000Y-97997000D03*
D39*
X91201000Y-103774000D03*
X91201000Y-102474000D03*
X89901000Y-103774000D03*
X89901000Y-102474000D03*
D40*
X91801000Y-105074000D03*
X91301000Y-105074000D03*
X90801000Y-105074000D03*
X90301000Y-105074000D03*
X89801000Y-105074000D03*
X89301000Y-105074000D03*
D41*
X88601000Y-104374000D03*
X88601000Y-103874000D03*
X88601000Y-103374000D03*
X88601000Y-102874000D03*
X88601000Y-102374000D03*
X88601000Y-101874000D03*
D40*
X89301000Y-101174000D03*
X89801000Y-101174000D03*
X90301000Y-101174000D03*
X90801000Y-101174000D03*
X91301000Y-101174000D03*
X91801000Y-101174000D03*
D41*
X92501000Y-101874000D03*
X92501000Y-102374000D03*
X92501000Y-102874000D03*
X92501000Y-103374000D03*
X92501000Y-103874000D03*
X92501000Y-104374000D03*
D13*
X94615000Y-127889000D03*
D14*
X89535000Y-127889000D03*
D42*
X94853000Y-118110000D03*
X92853000Y-119060000D03*
X92853000Y-117160000D03*
X97425000Y-117160000D03*
X97425000Y-119060000D03*
X99425000Y-118110000D03*
D24*
X105950000Y-117602000D03*
X109950000Y-117602000D03*
X109916000Y-110736000D03*
X105916000Y-110736000D03*
X105950000Y-120650000D03*
X109950000Y-120650000D03*
X109916000Y-113996000D03*
X105916000Y-113996000D03*
X85820000Y-78105000D03*
X81820000Y-78105000D03*
D43*
X88908000Y-74303000D03*
X91448000Y-74303000D03*
X93988000Y-74303000D03*
D44*
X96528000Y-74303000D03*
D45*
X116840000Y-76962000D03*
D46*
X114300000Y-76962000D03*
D47*
X115316000Y-81534000D03*
D48*
X115316000Y-84074000D03*
X115316000Y-82804000D03*
D49*
X113501000Y-87980000D03*
X93980000Y-81280000D03*
X93121397Y-77563397D03*
X102997000Y-87697400D03*
X101981000Y-90805000D03*
X97600000Y-81280000D03*
X100330000Y-83439000D03*
X89901000Y-102474000D03*
X82042000Y-103505000D03*
X95472000Y-110744000D03*
X96979000Y-105537000D03*
X95064153Y-106611847D03*
X93472000Y-106807000D03*
X110617000Y-106079700D03*
X105950000Y-100330000D03*
X110093710Y-102165915D03*
X125857000Y-110617000D03*
X130175000Y-104090000D03*
X115460000Y-122090000D03*
X122428000Y-118491000D03*
X122809000Y-121666000D03*
X101600000Y-104394000D03*
X101914998Y-106427290D03*
X104394000Y-106426000D03*
X88843100Y-92571200D03*
X97779300Y-98377100D03*
X101245900Y-96786800D03*
X110538600Y-116005400D03*
X111260900Y-108763900D03*
X99297000Y-104948300D03*
X122965000Y-106680000D03*
X120786900Y-105933300D03*
X120034200Y-107906100D03*
X111990600Y-101022600D03*
X110744000Y-75946000D03*
X111506000Y-74168000D03*
X111448700Y-102152400D03*
X110490000Y-93599000D03*
X110998000Y-90805000D03*
X112776000Y-88773000D03*
X116247700Y-103440700D03*
X100290600Y-110489900D03*
X131021900Y-118596800D03*
X88815900Y-96195100D03*
X94283300Y-99868600D03*
X104507700Y-95521200D03*
X95431300Y-98122900D03*
X87242900Y-103302000D03*
X111610300Y-111204000D03*
X113243100Y-115847200D03*
X108221500Y-120983300D03*
D50*
X97425000Y-117160000D02*
X97425000Y-116434700D01*
X97425000Y-116434700D02*
X98068600Y-116434700D01*
X98068600Y-116434700D02*
X102584000Y-111919300D01*
X92853000Y-117160000D02*
X97425000Y-117160000D01*
X105950000Y-117602000D02*
X105950000Y-116426700D01*
X105950000Y-116426700D02*
X102584000Y-113060700D01*
X102584000Y-113060700D02*
X102584000Y-111919300D01*
X105950000Y-120650000D02*
X105950000Y-117602000D01*
X102584000Y-110744000D02*
X102584000Y-111919300D01*
X82550000Y-105410000D02*
X83975300Y-105410000D01*
X111071400Y-80779400D02*
X111071400Y-87980000D01*
X89980000Y-81730100D02*
X95575000Y-76135100D01*
X95575000Y-76135100D02*
X106427100Y-76135100D01*
X106427100Y-76135100D02*
X106427200Y-76135100D01*
X106427200Y-76135100D02*
X107696000Y-74866300D01*
X107696000Y-74041000D02*
X107696000Y-74866300D01*
X111071400Y-87980000D02*
X111071400Y-88311800D01*
X111071400Y-88311800D02*
X110960800Y-88422400D01*
X110960800Y-88422400D02*
X109021400Y-88422400D01*
X109021400Y-88422400D02*
X107696000Y-87097000D01*
X117044700Y-87980000D02*
X111071400Y-87980000D01*
X89980000Y-81730100D02*
X89980000Y-82405300D01*
X89980000Y-81280000D02*
X89980000Y-81730100D01*
X118360000Y-87980000D02*
X117044700Y-87980000D01*
X91566800Y-129367000D02*
X91566800Y-117446000D01*
X91566800Y-117446000D02*
X91852800Y-117160000D01*
X82550000Y-105410000D02*
X82550000Y-111272400D01*
X82550000Y-111272400D02*
X81486600Y-112335800D01*
X81486600Y-112335800D02*
X81486600Y-123340000D01*
X81486600Y-123340000D02*
X87861000Y-129714400D01*
X87861000Y-129714400D02*
X91219400Y-129714400D01*
X91219400Y-129714400D02*
X91566800Y-129367000D01*
X91852800Y-117160000D02*
X91852800Y-112250100D01*
X91852800Y-112250100D02*
X91472000Y-111869300D01*
X91852800Y-117160000D02*
X92077700Y-117160000D01*
X91472000Y-110744000D02*
X91472000Y-111869300D01*
X92853000Y-117160000D02*
X92077700Y-117160000D01*
X83975300Y-105410000D02*
X83975300Y-104786400D01*
X83975300Y-104786400D02*
X88797500Y-99964200D01*
X88797500Y-99964200D02*
X91551900Y-99964200D01*
X91551900Y-99964200D02*
X91801000Y-100213300D01*
X91801000Y-100213300D02*
X91801000Y-101174000D01*
X89980000Y-82405300D02*
X87949300Y-84436000D01*
X87949300Y-84436000D02*
X87949300Y-84521000D01*
X92501000Y-101874000D02*
X91801000Y-101174000D01*
X87249000Y-84521000D02*
X87949300Y-84521000D01*
X82360000Y-82405300D02*
X84475700Y-84521000D01*
X84475700Y-84521000D02*
X87249000Y-84521000D01*
X82360000Y-81280000D02*
X82360000Y-82405300D01*
X92501000Y-102374000D02*
X92501000Y-101874000D01*
X92399800Y-130200000D02*
X91566800Y-129367000D01*
X112012565Y-129601835D02*
X111414400Y-130200000D01*
X119270110Y-120820000D02*
X116265110Y-123825000D01*
X133460000Y-120820000D02*
X119270110Y-120820000D01*
X116265110Y-123825000D02*
X113538000Y-123825000D01*
X112171063Y-129403085D02*
X112012565Y-129601835D01*
X113538000Y-123825000D02*
X113111410Y-124251590D01*
X112462785Y-129345215D02*
X112290696Y-129389606D01*
X113111410Y-124251590D02*
X113111410Y-128696590D01*
X111414400Y-130200000D02*
X92399800Y-130200000D01*
X112290696Y-129389606D02*
X112171063Y-129403085D01*
X113111410Y-128696590D02*
X112462785Y-129345215D01*
X96528000Y-75569000D02*
X96528000Y-74303000D01*
X95961900Y-76135100D02*
X96528000Y-75569000D01*
X95575000Y-76135100D02*
X95961900Y-76135100D01*
X81820000Y-80740000D02*
X82360000Y-81280000D01*
X81820000Y-78105000D02*
X81820000Y-80740000D01*
X110904002Y-80611998D02*
X110904002Y-77309998D01*
X110904002Y-80611998D02*
X111071400Y-80779400D01*
X106427200Y-76135100D02*
X110904002Y-80611998D01*
X110904002Y-77309998D02*
X112776000Y-75438000D01*
X115316000Y-75438000D02*
X116840000Y-76962000D01*
X112776000Y-75438000D02*
X115316000Y-75438000D01*
X99060000Y-85090000D02*
X102392400Y-88422400D01*
X102392400Y-88422400D02*
X106802400Y-88422400D01*
X106802400Y-88422400D02*
X118360000Y-99980000D01*
X90474800Y-89934800D02*
X90474800Y-88609500D01*
X93653300Y-85953600D02*
X90997400Y-88609500D01*
X90997400Y-88609500D02*
X90474800Y-88609500D01*
X93653300Y-85953600D02*
X94240900Y-85953600D01*
X93065600Y-85953600D02*
X93653300Y-85953600D01*
X99060000Y-87630000D02*
X95917300Y-87630000D01*
X95917300Y-87630000D02*
X94240900Y-85953600D01*
X95230000Y-81280000D02*
X97600000Y-81280000D01*
X93980000Y-81280000D02*
X95230000Y-81280000D01*
X86360000Y-80230000D02*
X88104000Y-78486000D01*
X86360000Y-81280000D02*
X86360000Y-80230000D01*
X88104000Y-78486000D02*
X92198794Y-78486000D01*
X92198794Y-78486000D02*
X93121397Y-77563397D01*
X86974000Y-86146000D02*
X87249000Y-86421000D01*
X84265000Y-86146000D02*
X86974000Y-86146000D01*
X83865000Y-85746000D02*
X84265000Y-86146000D01*
X81565000Y-85746000D02*
X83865000Y-85746000D01*
X81565000Y-85746000D02*
X81565000Y-87646000D01*
X81565000Y-87646000D02*
X81565000Y-89646000D01*
X81565000Y-89646000D02*
X81565000Y-91546000D01*
X81565000Y-91546000D02*
X81565000Y-92146000D01*
X93282000Y-90170000D02*
X93065600Y-89953600D01*
X99060000Y-90170000D02*
X93282000Y-90170000D01*
X105396000Y-87097000D02*
X103597400Y-87097000D01*
X103597400Y-87097000D02*
X102997000Y-87697400D01*
X99695000Y-90805000D02*
X99060000Y-90170000D01*
X101981000Y-90805000D02*
X99695000Y-90805000D01*
X100729999Y-84229599D02*
X103597400Y-87097000D01*
X100729999Y-83838999D02*
X100729999Y-84229599D01*
X100330000Y-83439000D02*
X100729999Y-83838999D01*
X89901000Y-102474000D02*
X91201000Y-102474000D01*
X91201000Y-102474000D02*
X91201000Y-103774000D01*
X91201000Y-103774000D02*
X89901000Y-103774000D01*
X91301000Y-103874000D02*
X91201000Y-103774000D01*
X92501000Y-103874000D02*
X91301000Y-103874000D01*
X89901000Y-102474000D02*
X89901000Y-103374000D01*
X81476315Y-103505000D02*
X81095315Y-103886000D01*
X82042000Y-103505000D02*
X81476315Y-103505000D01*
X81485000Y-108120000D02*
X81485000Y-109220000D01*
X81095315Y-107730315D02*
X81485000Y-108120000D01*
X81095315Y-103886000D02*
X81095315Y-107730315D01*
X95064153Y-106611847D02*
X93667153Y-106611847D01*
X93667153Y-106611847D02*
X93472000Y-106807000D01*
X110617000Y-104172000D02*
X109950000Y-103505000D01*
X110617000Y-106079700D02*
X110617000Y-104172000D01*
X110093710Y-103361290D02*
X109950000Y-103505000D01*
X110093710Y-102165915D02*
X110093710Y-103361290D01*
X125283000Y-110617000D02*
X125857000Y-110617000D01*
X124760000Y-114390000D02*
X124760000Y-111140000D01*
X124760000Y-111140000D02*
X125283000Y-110617000D01*
X124760000Y-116159000D02*
X124760000Y-114390000D01*
X122428000Y-118491000D02*
X124760000Y-116159000D01*
X133460000Y-122090000D02*
X123233000Y-122090000D01*
X123233000Y-122090000D02*
X122809000Y-121666000D01*
X96979000Y-104437000D02*
X97784000Y-103632000D01*
X96979000Y-105537000D02*
X96979000Y-104437000D01*
X97784000Y-103632000D02*
X101473000Y-103632000D01*
X101473000Y-103632000D02*
X101473000Y-104140000D01*
X101473000Y-104140000D02*
X101346000Y-104140000D01*
X101346000Y-104140000D02*
X101600000Y-104394000D01*
X101914998Y-106427290D02*
X104392710Y-106427290D01*
X104392710Y-106427290D02*
X104394000Y-106426000D01*
X87410600Y-87698000D02*
X88822000Y-86286600D01*
X88822000Y-86286600D02*
X88822000Y-85214400D01*
X88822000Y-85214400D02*
X91631100Y-82405300D01*
X91631100Y-82405300D02*
X101600000Y-82405300D01*
X85265300Y-87346000D02*
X85617300Y-87698000D01*
X85617300Y-87698000D02*
X87410600Y-87698000D01*
X87410600Y-87698000D02*
X87410600Y-91138700D01*
X87410600Y-91138700D02*
X88843100Y-92571200D01*
X87355400Y-104923000D02*
X91494000Y-109061700D01*
X91494000Y-109061700D02*
X105417000Y-109061700D01*
X105417000Y-109061700D02*
X105916000Y-109560700D01*
X91301000Y-100423700D02*
X89011200Y-100423700D01*
X89011200Y-100423700D02*
X86497400Y-102937500D01*
X86497400Y-102937500D02*
X86497400Y-104065100D01*
X86497400Y-104065100D02*
X87355400Y-104923000D01*
X87355400Y-104923000D02*
X84109600Y-108168800D01*
X84109600Y-108168800D02*
X84109600Y-111931100D01*
X84109600Y-111931100D02*
X83312000Y-112728700D01*
X105916000Y-110736000D02*
X105916000Y-109560700D01*
X109996000Y-87097000D02*
X108920700Y-87097000D01*
X101600000Y-82405300D02*
X105304300Y-82405300D01*
X105304300Y-82405300D02*
X108920700Y-86021700D01*
X108920700Y-86021700D02*
X108920700Y-87097000D01*
X97600000Y-100330000D02*
X97600000Y-99154700D01*
X97779300Y-98377100D02*
X97779300Y-98975400D01*
X97779300Y-98975400D02*
X97600000Y-99154700D01*
X101600000Y-81280000D02*
X101600000Y-82405300D01*
X84265000Y-87346000D02*
X85265300Y-87346000D01*
X105916000Y-113996000D02*
X105916000Y-110736000D01*
X83312000Y-114554000D02*
X83312000Y-112728700D01*
X91301000Y-101174000D02*
X91301000Y-100423700D01*
X83312000Y-114554000D02*
X83312000Y-116379300D01*
X89535000Y-127889000D02*
X89535000Y-122602300D01*
X89535000Y-122602300D02*
X83312000Y-116379300D01*
X101245900Y-96786800D02*
X101600000Y-97140900D01*
X101600000Y-97140900D02*
X101600000Y-100330000D01*
X128270000Y-82070000D02*
X128270000Y-81280000D01*
D51*
X128270000Y-83401320D02*
X128270000Y-81280000D01*
X128270000Y-83438251D02*
X128270000Y-83401320D01*
X117728251Y-93980000D02*
X128270000Y-83438251D01*
X116360000Y-93980000D02*
X117728251Y-93980000D01*
X132176000Y-99980000D02*
X130560000Y-99980000D01*
X133350000Y-81280000D02*
X133350000Y-98806000D01*
X133350000Y-98806000D02*
X132176000Y-99980000D01*
D50*
X115460000Y-120820000D02*
X113884700Y-120820000D01*
X110538600Y-116005400D02*
X110755900Y-116005400D01*
X110755900Y-116005400D02*
X113884700Y-119134200D01*
X113884700Y-119134200D02*
X113884700Y-120820000D01*
X115460000Y-111930000D02*
X113884700Y-111930000D01*
X111260900Y-108763900D02*
X113884700Y-111387700D01*
X113884700Y-111387700D02*
X113884700Y-111930000D01*
X100203000Y-107133900D02*
X99297000Y-106227900D01*
X113884700Y-110660000D02*
X113884700Y-110361900D01*
X115460000Y-110660000D02*
X113884700Y-110660000D01*
X113884700Y-110361900D02*
X110235100Y-106712300D01*
X110235100Y-106712300D02*
X109795110Y-107152290D01*
X99297000Y-106227900D02*
X99297000Y-104948300D01*
X109795110Y-107152290D02*
X100203000Y-107152290D01*
X100203000Y-107152290D02*
X100203000Y-107133900D01*
X90474800Y-85934800D02*
X91650100Y-85934800D01*
X115460000Y-108120000D02*
X117035300Y-108120000D01*
X117035300Y-108120000D02*
X117035300Y-101699600D01*
X117035300Y-101699600D02*
X107429300Y-92093600D01*
X107429300Y-92093600D02*
X105058600Y-92093600D01*
X105058600Y-92093600D02*
X99484300Y-86519300D01*
X99484300Y-86519300D02*
X97998900Y-86519300D01*
X97998900Y-86519300D02*
X96107800Y-84628200D01*
X96107800Y-84628200D02*
X92075200Y-84628200D01*
X92075200Y-84628200D02*
X91650100Y-85053300D01*
X91650100Y-85053300D02*
X91650100Y-85934800D01*
X133460000Y-106850000D02*
X131884700Y-106850000D01*
X122965000Y-106680000D02*
X131714700Y-106680000D01*
X131714700Y-106680000D02*
X131884700Y-106850000D01*
X120786900Y-105933300D02*
X124243600Y-109390000D01*
X124243600Y-109390000D02*
X133460000Y-109390000D01*
X120034200Y-107906100D02*
X121968500Y-109840400D01*
X121968500Y-109840400D02*
X126683000Y-109840400D01*
X126683000Y-109840400D02*
X130042600Y-113200000D01*
X130042600Y-113200000D02*
X133460000Y-113200000D01*
X115460000Y-106850000D02*
X113884700Y-106850000D01*
X111990600Y-101022600D02*
X113884700Y-102916700D01*
X113884700Y-102916700D02*
X113884700Y-106850000D01*
X110744000Y-75946000D02*
X110744000Y-74930000D01*
X110744000Y-74930000D02*
X111506000Y-74168000D01*
X115460000Y-109390000D02*
X113884700Y-109390000D01*
X111448700Y-102152400D02*
X111448700Y-106954000D01*
X111448700Y-106954000D02*
X113884700Y-109390000D01*
X115460000Y-119550000D02*
X117035300Y-119550000D01*
X117715800Y-102504500D02*
X117715800Y-118869500D01*
X117715800Y-118869500D02*
X117035300Y-119550000D01*
X117485310Y-102118310D02*
X117485309Y-101513199D01*
X117715800Y-102504500D02*
X117715800Y-102348800D01*
X117715800Y-102348800D02*
X117485310Y-102118310D01*
X117485309Y-101513199D02*
X110490000Y-94517890D01*
X110490000Y-94517890D02*
X110490000Y-93599000D01*
X110998000Y-90805000D02*
X112776000Y-89027000D01*
X112776000Y-89027000D02*
X112776000Y-88773000D01*
X93988000Y-73037000D02*
X94381000Y-72644000D01*
X93988000Y-74303000D02*
X93988000Y-73037000D01*
X103136000Y-74041000D02*
X103886000Y-74041000D01*
X101739000Y-72644000D02*
X103136000Y-74041000D01*
X94381000Y-72644000D02*
X101739000Y-72644000D01*
X87070000Y-78105000D02*
X88975000Y-76200000D01*
X85820000Y-78105000D02*
X87070000Y-78105000D01*
X93988000Y-74455400D02*
X93988000Y-74303000D01*
X92243400Y-76200000D02*
X93988000Y-74455400D01*
X88975000Y-76200000D02*
X92243400Y-76200000D01*
X108990400Y-97294100D02*
X107731200Y-98553300D01*
X107731200Y-98553300D02*
X107731200Y-100879800D01*
X107731200Y-100879800D02*
X106231300Y-102379700D01*
X106231300Y-102379700D02*
X105950000Y-102379700D01*
X108040300Y-93361000D02*
X108990400Y-94311100D01*
X108990400Y-94311100D02*
X108990400Y-97294100D01*
X108990400Y-97294100D02*
X110101100Y-97294100D01*
X110101100Y-97294100D02*
X116247700Y-103440700D01*
X98584000Y-110744000D02*
X99909300Y-110744000D01*
X100290600Y-110489900D02*
X100163400Y-110489900D01*
X100163400Y-110489900D02*
X99909300Y-110744000D01*
X98584000Y-110744000D02*
X98584000Y-109568700D01*
X133460000Y-119550000D02*
X131884700Y-119550000D01*
X131021900Y-118596800D02*
X131884700Y-119459600D01*
X131884700Y-119459600D02*
X131884700Y-119550000D01*
X107315000Y-93361000D02*
X108040300Y-93361000D01*
X105950000Y-103505000D02*
X105950000Y-102379700D01*
X98584000Y-109568700D02*
X86009000Y-109568700D01*
X86009000Y-109568700D02*
X85660300Y-109220000D01*
X84885000Y-109220000D02*
X85660300Y-109220000D01*
X109950000Y-100330000D02*
X109950000Y-101455300D01*
X102965500Y-104630200D02*
X102965700Y-104630400D01*
X102965700Y-104630400D02*
X107107300Y-104630400D01*
X107107300Y-104630400D02*
X108181600Y-103556100D01*
X108181600Y-103556100D02*
X108181600Y-102942400D01*
X108181600Y-102942400D02*
X109668700Y-101455300D01*
X109668700Y-101455300D02*
X109950000Y-101455300D01*
X102965500Y-104630200D02*
X102058700Y-105537000D01*
X102058700Y-105537000D02*
X101154300Y-105537000D01*
X101436300Y-93361000D02*
X102965500Y-94890200D01*
X102965500Y-94890200D02*
X102965500Y-104630200D01*
X109950000Y-100330000D02*
X111275300Y-100330000D01*
X111275300Y-100330000D02*
X111329100Y-100276200D01*
X111329100Y-100276200D02*
X112306600Y-100276200D01*
X112306600Y-100276200D02*
X115460000Y-103429600D01*
X115460000Y-103429600D02*
X115460000Y-105580000D01*
X100379000Y-105537000D02*
X101154300Y-105537000D01*
X100711000Y-93361000D02*
X101436300Y-93361000D01*
X85265300Y-88646000D02*
X85395300Y-88776000D01*
X85395300Y-88776000D02*
X85395300Y-93018900D01*
X85395300Y-93018900D02*
X86716800Y-94340400D01*
X86716800Y-94340400D02*
X88020700Y-94340400D01*
X88020700Y-94340400D02*
X93558000Y-99877700D01*
X93558000Y-99877700D02*
X93558000Y-100169000D01*
X93558000Y-100169000D02*
X93733100Y-100344100D01*
X93733100Y-100344100D02*
X93733100Y-103042400D01*
X93733100Y-103042400D02*
X93401500Y-103374000D01*
X93401500Y-103374000D02*
X92501000Y-103374000D01*
X84265000Y-88646000D02*
X85265300Y-88646000D01*
X84265000Y-87996000D02*
X83264700Y-87996000D01*
X92501000Y-102874000D02*
X93251300Y-102874000D01*
X93251300Y-102874000D02*
X93251300Y-101026700D01*
X93251300Y-101026700D02*
X89326500Y-97101900D01*
X89326500Y-97101900D02*
X86706200Y-97101900D01*
X86706200Y-97101900D02*
X83170400Y-93566100D01*
X83170400Y-93566100D02*
X83170400Y-88090300D01*
X83170400Y-88090300D02*
X83264700Y-87996000D01*
X94283300Y-99868600D02*
X94767500Y-99868600D01*
X94767500Y-99868600D02*
X99035700Y-95600400D01*
X99035700Y-95600400D02*
X99035700Y-95361000D01*
X91301000Y-105824300D02*
X92156100Y-105824300D01*
X92156100Y-105824300D02*
X94283300Y-103697100D01*
X94283300Y-103697100D02*
X94283300Y-99868600D01*
X99761000Y-95361000D02*
X99035700Y-95361000D01*
X87503000Y-95965000D02*
X88478300Y-95965000D01*
X88815900Y-96195100D02*
X88708400Y-96195100D01*
X88708400Y-96195100D02*
X88478300Y-95965000D01*
X91301000Y-105074000D02*
X91301000Y-105824300D01*
X101661000Y-95361000D02*
X100935700Y-95361000D01*
X94107000Y-95297000D02*
X95082300Y-95297000D01*
X95082300Y-95297000D02*
X95793700Y-94585600D01*
X95793700Y-94585600D02*
X100341600Y-94585600D01*
X100341600Y-94585600D02*
X100935700Y-95179700D01*
X100935700Y-95179700D02*
X100935700Y-95361000D01*
X108265000Y-95361000D02*
X107539700Y-95361000D01*
X87503000Y-93265000D02*
X88478300Y-93265000D01*
X88478300Y-93265000D02*
X88530300Y-93317000D01*
X88530300Y-93317000D02*
X98785300Y-93317000D01*
X98785300Y-93317000D02*
X99558300Y-92544000D01*
X99558300Y-92544000D02*
X104904000Y-92544000D01*
X104904000Y-92544000D02*
X107539700Y-95179700D01*
X107539700Y-95179700D02*
X107539700Y-95361000D01*
X106365000Y-95361000D02*
X105639700Y-95361000D01*
X104507700Y-95521200D02*
X105479500Y-95521200D01*
X105479500Y-95521200D02*
X105639700Y-95361000D01*
X94107000Y-97997000D02*
X95082300Y-97997000D01*
X95431300Y-98122900D02*
X95208200Y-98122900D01*
X95208200Y-98122900D02*
X95082300Y-97997000D01*
X87242900Y-103302000D02*
X87242900Y-104075800D01*
X87242900Y-104075800D02*
X88241100Y-105074000D01*
X88241100Y-105074000D02*
X89301000Y-105074000D01*
X115460000Y-118280000D02*
X113884700Y-118280000D01*
X113884700Y-118280000D02*
X112067400Y-116462700D01*
X112067400Y-116462700D02*
X112067400Y-113836600D01*
X112067400Y-113836600D02*
X111051400Y-112820600D01*
X111051400Y-112820600D02*
X109667100Y-112820600D01*
X109667100Y-112820600D02*
X107470600Y-110624100D01*
X107470600Y-110624100D02*
X107470600Y-109979300D01*
X107470600Y-109979300D02*
X105982600Y-108491300D01*
X105982600Y-108491300D02*
X92266500Y-108491300D01*
X92266500Y-108491300D02*
X89801000Y-106025800D01*
X89801000Y-106025800D02*
X89801000Y-105074000D01*
X90301000Y-105824300D02*
X92079000Y-107602300D01*
X92079000Y-107602300D02*
X109073600Y-107602300D01*
X109073600Y-107602300D02*
X110960500Y-109489200D01*
X110960500Y-109489200D02*
X111034400Y-109489200D01*
X111034400Y-109489200D02*
X112517800Y-110972600D01*
X112517800Y-110972600D02*
X112517800Y-116147600D01*
X112517800Y-116147600D02*
X113380200Y-117010000D01*
X113380200Y-117010000D02*
X113884700Y-117010000D01*
X90301000Y-105074000D02*
X90301000Y-105824300D01*
X115460000Y-117010000D02*
X113884700Y-117010000D01*
X94853000Y-118110000D02*
X94853000Y-118835300D01*
X102108000Y-127889000D02*
X102108000Y-126063700D01*
X94853000Y-118835300D02*
X94879600Y-118835300D01*
X94879600Y-118835300D02*
X102108000Y-126063700D01*
X109916000Y-110736000D02*
X111241300Y-110736000D01*
X111610300Y-111204000D02*
X111241300Y-110835000D01*
X111241300Y-110835000D02*
X111241300Y-110736000D01*
X99425000Y-118334600D02*
X102915800Y-121825400D01*
X102915800Y-121825400D02*
X107097500Y-121825400D01*
X107097500Y-121825400D02*
X107275400Y-121647500D01*
X107275400Y-121647500D02*
X107275400Y-117811900D01*
X107275400Y-117811900D02*
X109916000Y-115171300D01*
X99425000Y-118110000D02*
X99425000Y-118334600D01*
X107188000Y-127889000D02*
X103699600Y-124400600D01*
X103699600Y-124400600D02*
X101366700Y-124400600D01*
X101366700Y-124400600D02*
X96649600Y-119683500D01*
X96649600Y-119683500D02*
X96649600Y-118472300D01*
X96649600Y-118472300D02*
X96787300Y-118334600D01*
X96787300Y-118334600D02*
X99425000Y-118334600D01*
X109916000Y-113996000D02*
X109916000Y-115171300D01*
X120015000Y-105665300D02*
X119308900Y-106371400D01*
X119308900Y-106371400D02*
X119308900Y-120144800D01*
X119308900Y-120144800D02*
X116559600Y-122894100D01*
X116559600Y-122894100D02*
X112661400Y-122894100D01*
X120015000Y-104090000D02*
X120015000Y-105665300D01*
X109950000Y-117602000D02*
X109950000Y-118777300D01*
X112661400Y-122894100D02*
X112661400Y-121048000D01*
X112661400Y-121048000D02*
X110390700Y-118777300D01*
X110390700Y-118777300D02*
X109950000Y-118777300D01*
X92853000Y-119060000D02*
X92853000Y-122146500D01*
X92853000Y-122146500D02*
X100456100Y-129749600D01*
X100456100Y-129749600D02*
X107953000Y-129749600D01*
X107953000Y-129749600D02*
X112661400Y-125041200D01*
X112661400Y-125041200D02*
X112661400Y-122894100D01*
X97425000Y-119060000D02*
X97425000Y-119785300D01*
X97425000Y-119785300D02*
X98150300Y-119785300D01*
X98150300Y-119785300D02*
X100652300Y-122287300D01*
X100652300Y-122287300D02*
X107364800Y-122287300D01*
X107364800Y-122287300D02*
X108287300Y-121364800D01*
X108287300Y-121364800D02*
X108221500Y-121299100D01*
X108221500Y-121299100D02*
X108221500Y-120983300D01*
X109950000Y-121825300D02*
X108747700Y-121825300D01*
X108747700Y-121825300D02*
X108287300Y-121364800D01*
X115460000Y-115740000D02*
X113350300Y-115740000D01*
X113350300Y-115740000D02*
X113243100Y-115847200D01*
X109950000Y-120650000D02*
X109950000Y-121825300D01*
D52*
G36*
X80695518Y-79580812D02*
G01*
X80820000Y-79593072D01*
X81060001Y-79593072D01*
X81060001Y-79920335D01*
X81005506Y-79949463D01*
X80908815Y-80028815D01*
X80829463Y-80125506D01*
X80770498Y-80235820D01*
X80734188Y-80355518D01*
X80721928Y-80480000D01*
X80721928Y-82080000D01*
X80734188Y-82204482D01*
X80770498Y-82324180D01*
X80829463Y-82434494D01*
X80908815Y-82531185D01*
X81005506Y-82610537D01*
X81115820Y-82669502D01*
X81235518Y-82705812D01*
X81360000Y-82718072D01*
X81665425Y-82718072D01*
X81725026Y-82829576D01*
X81796201Y-82916302D01*
X81820000Y-82945301D01*
X81848998Y-82969099D01*
X83761751Y-84881853D01*
X83674900Y-84913391D01*
X83567965Y-84970550D01*
X83505472Y-85206867D01*
X84265000Y-85966395D01*
X84279143Y-85952253D01*
X84458748Y-86131858D01*
X84444605Y-86146000D01*
X84458748Y-86160143D01*
X84279143Y-86339748D01*
X84265000Y-86325605D01*
X84250858Y-86339748D01*
X84071253Y-86160143D01*
X84085395Y-86146000D01*
X83325867Y-85386472D01*
X83150267Y-85432909D01*
X83153072Y-85146000D01*
X83150000Y-85114808D01*
X83150000Y-85018998D01*
X83140048Y-85018998D01*
X83104502Y-84901820D01*
X83084679Y-84864735D01*
X83108462Y-84828391D01*
X83104591Y-84790718D01*
X83012421Y-84565467D01*
X82878078Y-84362526D01*
X82706725Y-84189693D01*
X82504946Y-84053610D01*
X82280496Y-83959507D01*
X82042000Y-83911000D01*
X81692000Y-83911000D01*
X81692000Y-87519000D01*
X81712000Y-87519000D01*
X81712000Y-87773000D01*
X81692000Y-87773000D01*
X81692000Y-89519000D01*
X81712000Y-89519000D01*
X81712000Y-89773000D01*
X81692000Y-89773000D01*
X81692000Y-93381000D01*
X82042000Y-93381000D01*
X82280496Y-93332493D01*
X82410400Y-93278029D01*
X82410400Y-93520355D01*
X82209881Y-93540105D01*
X81882832Y-93639314D01*
X81581422Y-93800421D01*
X81317234Y-94017234D01*
X81100421Y-94281422D01*
X80939314Y-94582832D01*
X80840105Y-94909881D01*
X80806606Y-95250000D01*
X80840105Y-95590119D01*
X80939314Y-95917168D01*
X81100421Y-96218578D01*
X81317234Y-96482766D01*
X81581422Y-96699579D01*
X81882832Y-96860686D01*
X82209881Y-96959895D01*
X82464775Y-96985000D01*
X82635225Y-96985000D01*
X82890119Y-96959895D01*
X83217168Y-96860686D01*
X83518578Y-96699579D01*
X83782766Y-96482766D01*
X83999579Y-96218578D01*
X84160686Y-95917168D01*
X84227246Y-95697748D01*
X86142400Y-97612902D01*
X86166199Y-97641901D01*
X86281924Y-97736874D01*
X86413953Y-97807446D01*
X86557214Y-97850903D01*
X86668867Y-97861900D01*
X86668876Y-97861900D01*
X86706199Y-97865576D01*
X86743522Y-97861900D01*
X89011699Y-97861900D01*
X90353998Y-99204200D01*
X88834825Y-99204200D01*
X88797500Y-99200524D01*
X88760175Y-99204200D01*
X88760167Y-99204200D01*
X88648514Y-99215197D01*
X88505253Y-99258654D01*
X88373224Y-99329226D01*
X88257499Y-99424199D01*
X88233701Y-99453197D01*
X83941244Y-103745655D01*
X83894180Y-103720498D01*
X83774482Y-103684188D01*
X83650000Y-103671928D01*
X81450000Y-103671928D01*
X81325518Y-103684188D01*
X81205820Y-103720498D01*
X81095506Y-103779463D01*
X80998815Y-103858815D01*
X80919463Y-103955506D01*
X80860498Y-104065820D01*
X80824188Y-104185518D01*
X80811928Y-104310000D01*
X80811928Y-106510000D01*
X80824188Y-106634482D01*
X80860498Y-106754180D01*
X80919463Y-106864494D01*
X80998815Y-106961185D01*
X81095506Y-107040537D01*
X81205820Y-107099502D01*
X81325518Y-107135812D01*
X81450000Y-107148072D01*
X81790000Y-107148072D01*
X81790000Y-107734640D01*
X81770750Y-107735000D01*
X81612000Y-107893750D01*
X81612000Y-109093000D01*
X81632000Y-109093000D01*
X81632000Y-109347000D01*
X81612000Y-109347000D01*
X81612000Y-110546250D01*
X81770750Y-110705000D01*
X81790001Y-110705360D01*
X81790001Y-110957597D01*
X80975602Y-111771996D01*
X80946599Y-111795799D01*
X80911167Y-111838974D01*
X80851626Y-111911524D01*
X80815187Y-111979697D01*
X80781054Y-112043554D01*
X80737597Y-112186815D01*
X80726600Y-112298468D01*
X80726600Y-112298478D01*
X80722924Y-112335800D01*
X80726600Y-112373122D01*
X80726601Y-123302668D01*
X80722924Y-123340000D01*
X80737598Y-123488985D01*
X80781054Y-123632246D01*
X80851626Y-123764276D01*
X80922801Y-123851002D01*
X80946600Y-123880001D01*
X80975598Y-123903799D01*
X87297201Y-130225403D01*
X87320999Y-130254401D01*
X87349997Y-130278199D01*
X87436723Y-130349374D01*
X87504796Y-130385760D01*
X87568753Y-130419946D01*
X87712014Y-130463403D01*
X87823667Y-130474400D01*
X87823677Y-130474400D01*
X87861000Y-130478076D01*
X87898323Y-130474400D01*
X91182078Y-130474400D01*
X91219400Y-130478076D01*
X91256722Y-130474400D01*
X91256733Y-130474400D01*
X91368386Y-130463403D01*
X91511647Y-130419946D01*
X91533346Y-130408348D01*
X91836001Y-130711002D01*
X91859799Y-130740001D01*
X91888797Y-130763799D01*
X91975523Y-130834974D01*
X92081015Y-130891361D01*
X92107553Y-130905546D01*
X92250814Y-130949003D01*
X92362467Y-130960000D01*
X92362477Y-130960000D01*
X92399800Y-130963676D01*
X92437123Y-130960000D01*
X111377078Y-130960000D01*
X111414400Y-130963676D01*
X111451722Y-130960000D01*
X111451733Y-130960000D01*
X111563386Y-130949003D01*
X111706647Y-130905546D01*
X111838676Y-130834974D01*
X111954401Y-130740001D01*
X111978203Y-130710998D01*
X112500844Y-130188358D01*
X112505267Y-130185312D01*
X112553672Y-130135530D01*
X112576364Y-130112838D01*
X112579761Y-130108699D01*
X112583479Y-130104875D01*
X112589419Y-130097427D01*
X112595742Y-130095796D01*
X112611770Y-130094217D01*
X112668090Y-130077133D01*
X112688765Y-130071800D01*
X112703799Y-130066301D01*
X112755031Y-130050761D01*
X112773974Y-130040635D01*
X112794132Y-130033263D01*
X112839839Y-130005430D01*
X112887061Y-129980189D01*
X112903000Y-129967108D01*
X112903000Y-131420000D01*
X82582279Y-131420000D01*
X82185455Y-131381091D01*
X81834794Y-131275220D01*
X81511377Y-131103257D01*
X81227518Y-130871748D01*
X80994035Y-130589514D01*
X80819816Y-130267304D01*
X80711498Y-129917385D01*
X80670000Y-129522557D01*
X80670000Y-129369117D01*
X80815000Y-129369117D01*
X80815000Y-129710883D01*
X80881675Y-130046081D01*
X81012463Y-130361831D01*
X81202337Y-130645998D01*
X81444002Y-130887663D01*
X81728169Y-131077537D01*
X82043919Y-131208325D01*
X82379117Y-131275000D01*
X82720883Y-131275000D01*
X83056081Y-131208325D01*
X83371831Y-131077537D01*
X83655998Y-130887663D01*
X83897663Y-130645998D01*
X84087537Y-130361831D01*
X84218325Y-130046081D01*
X84285000Y-129710883D01*
X84285000Y-129369117D01*
X84218325Y-129033919D01*
X84087537Y-128718169D01*
X83897663Y-128434002D01*
X83655998Y-128192337D01*
X83371831Y-128002463D01*
X83056081Y-127871675D01*
X82720883Y-127805000D01*
X82379117Y-127805000D01*
X82043919Y-127871675D01*
X81728169Y-128002463D01*
X81444002Y-128192337D01*
X81202337Y-128434002D01*
X81012463Y-128718169D01*
X80881675Y-129033919D01*
X80815000Y-129369117D01*
X80670000Y-129369117D01*
X80670000Y-110591915D01*
X80680506Y-110600537D01*
X80790820Y-110659502D01*
X80910518Y-110695812D01*
X81035000Y-110708072D01*
X81199250Y-110705000D01*
X81358000Y-110546250D01*
X81358000Y-109347000D01*
X81338000Y-109347000D01*
X81338000Y-109093000D01*
X81358000Y-109093000D01*
X81358000Y-107893750D01*
X81199250Y-107735000D01*
X81035000Y-107731928D01*
X80910518Y-107744188D01*
X80790820Y-107780498D01*
X80680506Y-107839463D01*
X80670000Y-107848085D01*
X80670000Y-93257234D01*
X80849504Y-93332493D01*
X81088000Y-93381000D01*
X81438000Y-93381000D01*
X81438000Y-89773000D01*
X81418000Y-89773000D01*
X81418000Y-89519000D01*
X81438000Y-89519000D01*
X81438000Y-87773000D01*
X81418000Y-87773000D01*
X81418000Y-87519000D01*
X81438000Y-87519000D01*
X81438000Y-83911000D01*
X81088000Y-83911000D01*
X80849504Y-83959507D01*
X80670000Y-84034766D01*
X80670000Y-79573071D01*
X80695518Y-79580812D01*
X80695518Y-79580812D01*
G37*
X80695518Y-79580812D02*
X80820000Y-79593072D01*
X81060001Y-79593072D01*
X81060001Y-79920335D01*
X81005506Y-79949463D01*
X80908815Y-80028815D01*
X80829463Y-80125506D01*
X80770498Y-80235820D01*
X80734188Y-80355518D01*
X80721928Y-80480000D01*
X80721928Y-82080000D01*
X80734188Y-82204482D01*
X80770498Y-82324180D01*
X80829463Y-82434494D01*
X80908815Y-82531185D01*
X81005506Y-82610537D01*
X81115820Y-82669502D01*
X81235518Y-82705812D01*
X81360000Y-82718072D01*
X81665425Y-82718072D01*
X81725026Y-82829576D01*
X81796201Y-82916302D01*
X81820000Y-82945301D01*
X81848998Y-82969099D01*
X83761751Y-84881853D01*
X83674900Y-84913391D01*
X83567965Y-84970550D01*
X83505472Y-85206867D01*
X84265000Y-85966395D01*
X84279143Y-85952253D01*
X84458748Y-86131858D01*
X84444605Y-86146000D01*
X84458748Y-86160143D01*
X84279143Y-86339748D01*
X84265000Y-86325605D01*
X84250858Y-86339748D01*
X84071253Y-86160143D01*
X84085395Y-86146000D01*
X83325867Y-85386472D01*
X83150267Y-85432909D01*
X83153072Y-85146000D01*
X83150000Y-85114808D01*
X83150000Y-85018998D01*
X83140048Y-85018998D01*
X83104502Y-84901820D01*
X83084679Y-84864735D01*
X83108462Y-84828391D01*
X83104591Y-84790718D01*
X83012421Y-84565467D01*
X82878078Y-84362526D01*
X82706725Y-84189693D01*
X82504946Y-84053610D01*
X82280496Y-83959507D01*
X82042000Y-83911000D01*
X81692000Y-83911000D01*
X81692000Y-87519000D01*
X81712000Y-87519000D01*
X81712000Y-87773000D01*
X81692000Y-87773000D01*
X81692000Y-89519000D01*
X81712000Y-89519000D01*
X81712000Y-89773000D01*
X81692000Y-89773000D01*
X81692000Y-93381000D01*
X82042000Y-93381000D01*
X82280496Y-93332493D01*
X82410400Y-93278029D01*
X82410400Y-93520355D01*
X82209881Y-93540105D01*
X81882832Y-93639314D01*
X81581422Y-93800421D01*
X81317234Y-94017234D01*
X81100421Y-94281422D01*
X80939314Y-94582832D01*
X80840105Y-94909881D01*
X80806606Y-95250000D01*
X80840105Y-95590119D01*
X80939314Y-95917168D01*
X81100421Y-96218578D01*
X81317234Y-96482766D01*
X81581422Y-96699579D01*
X81882832Y-96860686D01*
X82209881Y-96959895D01*
X82464775Y-96985000D01*
X82635225Y-96985000D01*
X82890119Y-96959895D01*
X83217168Y-96860686D01*
X83518578Y-96699579D01*
X83782766Y-96482766D01*
X83999579Y-96218578D01*
X84160686Y-95917168D01*
X84227246Y-95697748D01*
X86142400Y-97612902D01*
X86166199Y-97641901D01*
X86281924Y-97736874D01*
X86413953Y-97807446D01*
X86557214Y-97850903D01*
X86668867Y-97861900D01*
X86668876Y-97861900D01*
X86706199Y-97865576D01*
X86743522Y-97861900D01*
X89011699Y-97861900D01*
X90353998Y-99204200D01*
X88834825Y-99204200D01*
X88797500Y-99200524D01*
X88760175Y-99204200D01*
X88760167Y-99204200D01*
X88648514Y-99215197D01*
X88505253Y-99258654D01*
X88373224Y-99329226D01*
X88257499Y-99424199D01*
X88233701Y-99453197D01*
X83941244Y-103745655D01*
X83894180Y-103720498D01*
X83774482Y-103684188D01*
X83650000Y-103671928D01*
X81450000Y-103671928D01*
X81325518Y-103684188D01*
X81205820Y-103720498D01*
X81095506Y-103779463D01*
X80998815Y-103858815D01*
X80919463Y-103955506D01*
X80860498Y-104065820D01*
X80824188Y-104185518D01*
X80811928Y-104310000D01*
X80811928Y-106510000D01*
X80824188Y-106634482D01*
X80860498Y-106754180D01*
X80919463Y-106864494D01*
X80998815Y-106961185D01*
X81095506Y-107040537D01*
X81205820Y-107099502D01*
X81325518Y-107135812D01*
X81450000Y-107148072D01*
X81790000Y-107148072D01*
X81790000Y-107734640D01*
X81770750Y-107735000D01*
X81612000Y-107893750D01*
X81612000Y-109093000D01*
X81632000Y-109093000D01*
X81632000Y-109347000D01*
X81612000Y-109347000D01*
X81612000Y-110546250D01*
X81770750Y-110705000D01*
X81790001Y-110705360D01*
X81790001Y-110957597D01*
X80975602Y-111771996D01*
X80946599Y-111795799D01*
X80911167Y-111838974D01*
X80851626Y-111911524D01*
X80815187Y-111979697D01*
X80781054Y-112043554D01*
X80737597Y-112186815D01*
X80726600Y-112298468D01*
X80726600Y-112298478D01*
X80722924Y-112335800D01*
X80726600Y-112373122D01*
X80726601Y-123302668D01*
X80722924Y-123340000D01*
X80737598Y-123488985D01*
X80781054Y-123632246D01*
X80851626Y-123764276D01*
X80922801Y-123851002D01*
X80946600Y-123880001D01*
X80975598Y-123903799D01*
X87297201Y-130225403D01*
X87320999Y-130254401D01*
X87349997Y-130278199D01*
X87436723Y-130349374D01*
X87504796Y-130385760D01*
X87568753Y-130419946D01*
X87712014Y-130463403D01*
X87823667Y-130474400D01*
X87823677Y-130474400D01*
X87861000Y-130478076D01*
X87898323Y-130474400D01*
X91182078Y-130474400D01*
X91219400Y-130478076D01*
X91256722Y-130474400D01*
X91256733Y-130474400D01*
X91368386Y-130463403D01*
X91511647Y-130419946D01*
X91533346Y-130408348D01*
X91836001Y-130711002D01*
X91859799Y-130740001D01*
X91888797Y-130763799D01*
X91975523Y-130834974D01*
X92081015Y-130891361D01*
X92107553Y-130905546D01*
X92250814Y-130949003D01*
X92362467Y-130960000D01*
X92362477Y-130960000D01*
X92399800Y-130963676D01*
X92437123Y-130960000D01*
X111377078Y-130960000D01*
X111414400Y-130963676D01*
X111451722Y-130960000D01*
X111451733Y-130960000D01*
X111563386Y-130949003D01*
X111706647Y-130905546D01*
X111838676Y-130834974D01*
X111954401Y-130740001D01*
X111978203Y-130710998D01*
X112500844Y-130188358D01*
X112505267Y-130185312D01*
X112553672Y-130135530D01*
X112576364Y-130112838D01*
X112579761Y-130108699D01*
X112583479Y-130104875D01*
X112589419Y-130097427D01*
X112595742Y-130095796D01*
X112611770Y-130094217D01*
X112668090Y-130077133D01*
X112688765Y-130071800D01*
X112703799Y-130066301D01*
X112755031Y-130050761D01*
X112773974Y-130040635D01*
X112794132Y-130033263D01*
X112839839Y-130005430D01*
X112887061Y-129980189D01*
X112903000Y-129967108D01*
X112903000Y-131420000D01*
X82582279Y-131420000D01*
X82185455Y-131381091D01*
X81834794Y-131275220D01*
X81511377Y-131103257D01*
X81227518Y-130871748D01*
X80994035Y-130589514D01*
X80819816Y-130267304D01*
X80711498Y-129917385D01*
X80670000Y-129522557D01*
X80670000Y-129369117D01*
X80815000Y-129369117D01*
X80815000Y-129710883D01*
X80881675Y-130046081D01*
X81012463Y-130361831D01*
X81202337Y-130645998D01*
X81444002Y-130887663D01*
X81728169Y-131077537D01*
X82043919Y-131208325D01*
X82379117Y-131275000D01*
X82720883Y-131275000D01*
X83056081Y-131208325D01*
X83371831Y-131077537D01*
X83655998Y-130887663D01*
X83897663Y-130645998D01*
X84087537Y-130361831D01*
X84218325Y-130046081D01*
X84285000Y-129710883D01*
X84285000Y-129369117D01*
X84218325Y-129033919D01*
X84087537Y-128718169D01*
X83897663Y-128434002D01*
X83655998Y-128192337D01*
X83371831Y-128002463D01*
X83056081Y-127871675D01*
X82720883Y-127805000D01*
X82379117Y-127805000D01*
X82043919Y-127871675D01*
X81728169Y-128002463D01*
X81444002Y-128192337D01*
X81202337Y-128434002D01*
X81012463Y-128718169D01*
X80881675Y-129033919D01*
X80815000Y-129369117D01*
X80670000Y-129369117D01*
X80670000Y-110591915D01*
X80680506Y-110600537D01*
X80790820Y-110659502D01*
X80910518Y-110695812D01*
X81035000Y-110708072D01*
X81199250Y-110705000D01*
X81358000Y-110546250D01*
X81358000Y-109347000D01*
X81338000Y-109347000D01*
X81338000Y-109093000D01*
X81358000Y-109093000D01*
X81358000Y-107893750D01*
X81199250Y-107735000D01*
X81035000Y-107731928D01*
X80910518Y-107744188D01*
X80790820Y-107780498D01*
X80680506Y-107839463D01*
X80670000Y-107848085D01*
X80670000Y-93257234D01*
X80849504Y-93332493D01*
X81088000Y-93381000D01*
X81438000Y-93381000D01*
X81438000Y-89773000D01*
X81418000Y-89773000D01*
X81418000Y-89519000D01*
X81438000Y-89519000D01*
X81438000Y-87773000D01*
X81418000Y-87773000D01*
X81418000Y-87519000D01*
X81438000Y-87519000D01*
X81438000Y-83911000D01*
X81088000Y-83911000D01*
X80849504Y-83959507D01*
X80670000Y-84034766D01*
X80670000Y-79573071D01*
X80695518Y-79580812D01*
G36*
X92341998Y-122710299D02*
G01*
X95653795Y-126022096D01*
X95396255Y-125890980D01*
X94991449Y-125776956D01*
X94572176Y-125744098D01*
X94154549Y-125793666D01*
X93754617Y-125923757D01*
X93458962Y-126081786D01*
X93302952Y-126397347D01*
X94615000Y-127709395D01*
X94629143Y-127695253D01*
X94808748Y-127874858D01*
X94794605Y-127889000D01*
X96106653Y-129201048D01*
X96422214Y-129045038D01*
X96613020Y-128670255D01*
X96727044Y-128265449D01*
X96759902Y-127846176D01*
X96710334Y-127428549D01*
X96580243Y-127028617D01*
X96488300Y-126856601D01*
X99071698Y-129440000D01*
X95897707Y-129440000D01*
X95927048Y-129380653D01*
X94615000Y-128068605D01*
X93302952Y-129380653D01*
X93332293Y-129440000D01*
X92714602Y-129440000D01*
X92326800Y-129052199D01*
X92326800Y-127931824D01*
X92470098Y-127931824D01*
X92519666Y-128349451D01*
X92649757Y-128749383D01*
X92807786Y-129045038D01*
X93123347Y-129201048D01*
X94435395Y-127889000D01*
X93123347Y-126576952D01*
X92807786Y-126732962D01*
X92616980Y-127107745D01*
X92502956Y-127512551D01*
X92470098Y-127931824D01*
X92326800Y-127931824D01*
X92326800Y-122697826D01*
X92341998Y-122710299D01*
X92341998Y-122710299D01*
G37*
X92341998Y-122710299D02*
X95653795Y-126022096D01*
X95396255Y-125890980D01*
X94991449Y-125776956D01*
X94572176Y-125744098D01*
X94154549Y-125793666D01*
X93754617Y-125923757D01*
X93458962Y-126081786D01*
X93302952Y-126397347D01*
X94615000Y-127709395D01*
X94629143Y-127695253D01*
X94808748Y-127874858D01*
X94794605Y-127889000D01*
X96106653Y-129201048D01*
X96422214Y-129045038D01*
X96613020Y-128670255D01*
X96727044Y-128265449D01*
X96759902Y-127846176D01*
X96710334Y-127428549D01*
X96580243Y-127028617D01*
X96488300Y-126856601D01*
X99071698Y-129440000D01*
X95897707Y-129440000D01*
X95927048Y-129380653D01*
X94615000Y-128068605D01*
X93302952Y-129380653D01*
X93332293Y-129440000D01*
X92714602Y-129440000D01*
X92326800Y-129052199D01*
X92326800Y-127931824D01*
X92470098Y-127931824D01*
X92519666Y-128349451D01*
X92649757Y-128749383D01*
X92807786Y-129045038D01*
X93123347Y-129201048D01*
X94435395Y-127889000D01*
X93123347Y-126576952D01*
X92807786Y-126732962D01*
X92616980Y-127107745D01*
X92502956Y-127512551D01*
X92470098Y-127931824D01*
X92326800Y-127931824D01*
X92326800Y-122697826D01*
X92341998Y-122710299D01*
G36*
X83505748Y-119619858D02*
G01*
X83491605Y-119634000D01*
X84803653Y-120946048D01*
X85119214Y-120790038D01*
X85310020Y-120415255D01*
X85424044Y-120010449D01*
X85456333Y-119598435D01*
X88775001Y-122917103D01*
X88775000Y-125750928D01*
X88035000Y-125750928D01*
X87910518Y-125763188D01*
X87790820Y-125799498D01*
X87680506Y-125858463D01*
X87583815Y-125937815D01*
X87504463Y-126034506D01*
X87445498Y-126144820D01*
X87409188Y-126264518D01*
X87396928Y-126389000D01*
X87396928Y-128175526D01*
X82246600Y-123025199D01*
X82246600Y-121487359D01*
X82530745Y-121632020D01*
X82935551Y-121746044D01*
X83354824Y-121778902D01*
X83772451Y-121729334D01*
X84172383Y-121599243D01*
X84468038Y-121441214D01*
X84624048Y-121125653D01*
X83312000Y-119813605D01*
X83297858Y-119827748D01*
X83118253Y-119648143D01*
X83132395Y-119634000D01*
X83118253Y-119619858D01*
X83297858Y-119440253D01*
X83312000Y-119454395D01*
X83326143Y-119440253D01*
X83505748Y-119619858D01*
X83505748Y-119619858D01*
G37*
X83505748Y-119619858D02*
X83491605Y-119634000D01*
X84803653Y-120946048D01*
X85119214Y-120790038D01*
X85310020Y-120415255D01*
X85424044Y-120010449D01*
X85456333Y-119598435D01*
X88775001Y-122917103D01*
X88775000Y-125750928D01*
X88035000Y-125750928D01*
X87910518Y-125763188D01*
X87790820Y-125799498D01*
X87680506Y-125858463D01*
X87583815Y-125937815D01*
X87504463Y-126034506D01*
X87445498Y-126144820D01*
X87409188Y-126264518D01*
X87396928Y-126389000D01*
X87396928Y-128175526D01*
X82246600Y-123025199D01*
X82246600Y-121487359D01*
X82530745Y-121632020D01*
X82935551Y-121746044D01*
X83354824Y-121778902D01*
X83772451Y-121729334D01*
X84172383Y-121599243D01*
X84468038Y-121441214D01*
X84624048Y-121125653D01*
X83312000Y-119813605D01*
X83297858Y-119827748D01*
X83118253Y-119648143D01*
X83132395Y-119634000D01*
X83118253Y-119619858D01*
X83297858Y-119440253D01*
X83312000Y-119454395D01*
X83326143Y-119440253D01*
X83505748Y-119619858D01*
G36*
X134984545Y-71818909D02*
G01*
X135335208Y-71924780D01*
X135658625Y-72096744D01*
X135942484Y-72328254D01*
X136175965Y-72610486D01*
X136350183Y-72932695D01*
X136458502Y-73282614D01*
X136500001Y-73677452D01*
X136500000Y-123063000D01*
X134748516Y-123063000D01*
X134792545Y-123043809D01*
X134968391Y-122921587D01*
X135117014Y-122767408D01*
X135232702Y-122587197D01*
X135304408Y-122384001D01*
X135177502Y-122217000D01*
X133587000Y-122217000D01*
X133587000Y-122237000D01*
X133333000Y-122237000D01*
X133333000Y-122217000D01*
X131742498Y-122217000D01*
X131615592Y-122384001D01*
X131687298Y-122587197D01*
X131802986Y-122767408D01*
X131951609Y-122921587D01*
X132127455Y-123043809D01*
X132171484Y-123063000D01*
X118101911Y-123063000D01*
X119584912Y-121580000D01*
X131695517Y-121580000D01*
X131687298Y-121592803D01*
X131615592Y-121795999D01*
X131742498Y-121963000D01*
X133333000Y-121963000D01*
X133333000Y-121943000D01*
X133587000Y-121943000D01*
X133587000Y-121963000D01*
X135177502Y-121963000D01*
X135304408Y-121795999D01*
X135232702Y-121592803D01*
X135143463Y-121453792D01*
X135166509Y-121425710D01*
X135267259Y-121237220D01*
X135329300Y-121032697D01*
X135350249Y-120820000D01*
X135329300Y-120607303D01*
X135267259Y-120402780D01*
X135166509Y-120214290D01*
X135142471Y-120185000D01*
X135166509Y-120155710D01*
X135267259Y-119967220D01*
X135329300Y-119762697D01*
X135350249Y-119550000D01*
X135329300Y-119337303D01*
X135267259Y-119132780D01*
X135166509Y-118944290D01*
X135142471Y-118915000D01*
X135166509Y-118885710D01*
X135267259Y-118697220D01*
X135329300Y-118492697D01*
X135350249Y-118280000D01*
X135329300Y-118067303D01*
X135267259Y-117862780D01*
X135166509Y-117674290D01*
X135142471Y-117645000D01*
X135166509Y-117615710D01*
X135267259Y-117427220D01*
X135329300Y-117222697D01*
X135350249Y-117010000D01*
X135329300Y-116797303D01*
X135267259Y-116592780D01*
X135166509Y-116404290D01*
X135142471Y-116375000D01*
X135166509Y-116345710D01*
X135267259Y-116157220D01*
X135329300Y-115952697D01*
X135350249Y-115740000D01*
X135329300Y-115527303D01*
X135267259Y-115322780D01*
X135166509Y-115134290D01*
X135142471Y-115105000D01*
X135166509Y-115075710D01*
X135267259Y-114887220D01*
X135329300Y-114682697D01*
X135350249Y-114470000D01*
X135329300Y-114257303D01*
X135267259Y-114052780D01*
X135166509Y-113864290D01*
X135142471Y-113835000D01*
X135166509Y-113805710D01*
X135267259Y-113617220D01*
X135329300Y-113412697D01*
X135350249Y-113200000D01*
X135329300Y-112987303D01*
X135267259Y-112782780D01*
X135166509Y-112594290D01*
X135142471Y-112565000D01*
X135166509Y-112535710D01*
X135267259Y-112347220D01*
X135329300Y-112142697D01*
X135350249Y-111930000D01*
X135329300Y-111717303D01*
X135267259Y-111512780D01*
X135166509Y-111324290D01*
X135142471Y-111295000D01*
X135166509Y-111265710D01*
X135267259Y-111077220D01*
X135329300Y-110872697D01*
X135350249Y-110660000D01*
X135329300Y-110447303D01*
X135267259Y-110242780D01*
X135166509Y-110054290D01*
X135142471Y-110025000D01*
X135166509Y-109995710D01*
X135267259Y-109807220D01*
X135329300Y-109602697D01*
X135350249Y-109390000D01*
X135329300Y-109177303D01*
X135267259Y-108972780D01*
X135166509Y-108784290D01*
X135142471Y-108755000D01*
X135166509Y-108725710D01*
X135267259Y-108537220D01*
X135329300Y-108332697D01*
X135350249Y-108120000D01*
X135329300Y-107907303D01*
X135267259Y-107702780D01*
X135166509Y-107514290D01*
X135142471Y-107485000D01*
X135166509Y-107455710D01*
X135267259Y-107267220D01*
X135329300Y-107062697D01*
X135350249Y-106850000D01*
X135329300Y-106637303D01*
X135267259Y-106432780D01*
X135166509Y-106244290D01*
X135142471Y-106215000D01*
X135166509Y-106185710D01*
X135267259Y-105997220D01*
X135329300Y-105792697D01*
X135350249Y-105580000D01*
X135329300Y-105367303D01*
X135267259Y-105162780D01*
X135166509Y-104974290D01*
X135030922Y-104809078D01*
X134865710Y-104673491D01*
X134677220Y-104572741D01*
X134472697Y-104510700D01*
X134313294Y-104495000D01*
X132606706Y-104495000D01*
X132447303Y-104510700D01*
X132242780Y-104572741D01*
X132054290Y-104673491D01*
X131889078Y-104809078D01*
X131753491Y-104974290D01*
X131652741Y-105162780D01*
X131590700Y-105367303D01*
X131569751Y-105580000D01*
X131590700Y-105792697D01*
X131629317Y-105920000D01*
X130509829Y-105920000D01*
X130672197Y-105862702D01*
X130852408Y-105747014D01*
X131006587Y-105598391D01*
X131128809Y-105422545D01*
X131214376Y-105226233D01*
X131260000Y-105017000D01*
X131260000Y-104217000D01*
X130302000Y-104217000D01*
X130302000Y-104237000D01*
X130048000Y-104237000D01*
X130048000Y-104217000D01*
X130028000Y-104217000D01*
X130028000Y-103963000D01*
X130048000Y-103963000D01*
X130048000Y-102372498D01*
X130302000Y-102372498D01*
X130302000Y-103963000D01*
X131260000Y-103963000D01*
X131260000Y-103163000D01*
X131214376Y-102953767D01*
X131128809Y-102757455D01*
X131006587Y-102581609D01*
X130852408Y-102432986D01*
X130672197Y-102317298D01*
X130469001Y-102245592D01*
X130302000Y-102372498D01*
X130048000Y-102372498D01*
X129880999Y-102245592D01*
X129677803Y-102317298D01*
X129538792Y-102406537D01*
X129510710Y-102383491D01*
X129322219Y-102282741D01*
X129117696Y-102220700D01*
X128905000Y-102199751D01*
X128692303Y-102220700D01*
X128487780Y-102282741D01*
X128299290Y-102383491D01*
X128270000Y-102407529D01*
X128240710Y-102383491D01*
X128052219Y-102282741D01*
X127847696Y-102220700D01*
X127635000Y-102199751D01*
X127422303Y-102220700D01*
X127217780Y-102282741D01*
X127029290Y-102383491D01*
X127000000Y-102407529D01*
X126970710Y-102383491D01*
X126782219Y-102282741D01*
X126577696Y-102220700D01*
X126365000Y-102199751D01*
X126152303Y-102220700D01*
X125947780Y-102282741D01*
X125759290Y-102383491D01*
X125730000Y-102407529D01*
X125700710Y-102383491D01*
X125512219Y-102282741D01*
X125307696Y-102220700D01*
X125095000Y-102199751D01*
X124882303Y-102220700D01*
X124677780Y-102282741D01*
X124489290Y-102383491D01*
X124460000Y-102407529D01*
X124430710Y-102383491D01*
X124242219Y-102282741D01*
X124037696Y-102220700D01*
X123825000Y-102199751D01*
X123612303Y-102220700D01*
X123407780Y-102282741D01*
X123219290Y-102383491D01*
X123190000Y-102407529D01*
X123160710Y-102383491D01*
X122972219Y-102282741D01*
X122767696Y-102220700D01*
X122555000Y-102199751D01*
X122342303Y-102220700D01*
X122137780Y-102282741D01*
X121949290Y-102383491D01*
X121920000Y-102407529D01*
X121890710Y-102383491D01*
X121702219Y-102282741D01*
X121497696Y-102220700D01*
X121285000Y-102199751D01*
X121072303Y-102220700D01*
X120867780Y-102282741D01*
X120679290Y-102383491D01*
X120650000Y-102407529D01*
X120620710Y-102383491D01*
X120432219Y-102282741D01*
X120227696Y-102220700D01*
X120015000Y-102199751D01*
X119802303Y-102220700D01*
X119597780Y-102282741D01*
X119409290Y-102383491D01*
X119380000Y-102407529D01*
X119350710Y-102383491D01*
X119162219Y-102282741D01*
X118957696Y-102220700D01*
X118745000Y-102199751D01*
X118532303Y-102220700D01*
X118468759Y-102239976D01*
X118464803Y-102199815D01*
X118421346Y-102056554D01*
X118350774Y-101924524D01*
X118255801Y-101808799D01*
X118245309Y-101800188D01*
X118245308Y-101605000D01*
X118520049Y-101605000D01*
X118833995Y-101542552D01*
X119129726Y-101420057D01*
X119395877Y-101242220D01*
X119622220Y-101015877D01*
X119800057Y-100749726D01*
X119922552Y-100453995D01*
X119985000Y-100140049D01*
X119985000Y-99819951D01*
X119922552Y-99506005D01*
X119800057Y-99210274D01*
X119622220Y-98944123D01*
X119395877Y-98717780D01*
X119129726Y-98539943D01*
X118833995Y-98417448D01*
X118520049Y-98355000D01*
X118199951Y-98355000D01*
X117886005Y-98417448D01*
X117876279Y-98421477D01*
X115135953Y-95681151D01*
X115367882Y-95836121D01*
X115749057Y-95994009D01*
X116153710Y-96074500D01*
X116566290Y-96074500D01*
X116970943Y-95994009D01*
X117352118Y-95836121D01*
X117545362Y-95707000D01*
X117643413Y-95707000D01*
X117728251Y-95715356D01*
X117813089Y-95707000D01*
X117813092Y-95707000D01*
X118066802Y-95682012D01*
X118392343Y-95583260D01*
X118692363Y-95422896D01*
X118955333Y-95207082D01*
X119009419Y-95141178D01*
X129431184Y-84719414D01*
X129497082Y-84665333D01*
X129584896Y-84558332D01*
X129661165Y-84465397D01*
X129712896Y-84402363D01*
X129873260Y-84102343D01*
X129972012Y-83776802D01*
X129997000Y-83523092D01*
X129997000Y-83523083D01*
X130005355Y-83438252D01*
X129997000Y-83353421D01*
X129997000Y-83268139D01*
X130310524Y-82954615D01*
X130598017Y-82524351D01*
X130717547Y-82235781D01*
X130717547Y-82780000D01*
X130739307Y-83000931D01*
X130803750Y-83213371D01*
X130908400Y-83409157D01*
X131049235Y-83580765D01*
X131220843Y-83721600D01*
X131416629Y-83826250D01*
X131623000Y-83888852D01*
X131623000Y-86144180D01*
X131562775Y-86103939D01*
X131177506Y-85944355D01*
X130768506Y-85863000D01*
X130351494Y-85863000D01*
X129942494Y-85944355D01*
X129557225Y-86103939D01*
X129210491Y-86335619D01*
X128915619Y-86630491D01*
X128683939Y-86977225D01*
X128524355Y-87362494D01*
X128443000Y-87771494D01*
X128443000Y-88188506D01*
X128524355Y-88597506D01*
X128683939Y-88982775D01*
X128915619Y-89329509D01*
X129210491Y-89624381D01*
X129557225Y-89856061D01*
X129942494Y-90015645D01*
X130351494Y-90097000D01*
X130768506Y-90097000D01*
X131177506Y-90015645D01*
X131562775Y-89856061D01*
X131623000Y-89815820D01*
X131623001Y-98090652D01*
X131590913Y-98122740D01*
X131562775Y-98103939D01*
X131177506Y-97944355D01*
X130768506Y-97863000D01*
X130351494Y-97863000D01*
X129942494Y-97944355D01*
X129557225Y-98103939D01*
X129210491Y-98335619D01*
X128915619Y-98630491D01*
X128683939Y-98977225D01*
X128524355Y-99362494D01*
X128443000Y-99771494D01*
X128443000Y-100188506D01*
X128524355Y-100597506D01*
X128683939Y-100982775D01*
X128915619Y-101329509D01*
X129210491Y-101624381D01*
X129557225Y-101856061D01*
X129942494Y-102015645D01*
X130351494Y-102097000D01*
X130768506Y-102097000D01*
X131177506Y-102015645D01*
X131562775Y-101856061D01*
X131785861Y-101707000D01*
X132091162Y-101707000D01*
X132176000Y-101715356D01*
X132260838Y-101707000D01*
X132260841Y-101707000D01*
X132514551Y-101682012D01*
X132840092Y-101583260D01*
X133140112Y-101422896D01*
X133403082Y-101207082D01*
X133457168Y-101141178D01*
X134511183Y-100087164D01*
X134577082Y-100033082D01*
X134670030Y-99919825D01*
X134792896Y-99770113D01*
X134953260Y-99470092D01*
X134961077Y-99444324D01*
X135052012Y-99144551D01*
X135077000Y-98890841D01*
X135077000Y-98890839D01*
X135085356Y-98806000D01*
X135077000Y-98721162D01*
X135077000Y-83888852D01*
X135283371Y-83826250D01*
X135479157Y-83721600D01*
X135650765Y-83580765D01*
X135791600Y-83409157D01*
X135896250Y-83213371D01*
X135960693Y-83000931D01*
X135982453Y-82780000D01*
X135982453Y-79780000D01*
X135960693Y-79559069D01*
X135896250Y-79346629D01*
X135791600Y-79150843D01*
X135650765Y-78979235D01*
X135479157Y-78838400D01*
X135283371Y-78733750D01*
X135070931Y-78669307D01*
X134850000Y-78647547D01*
X131850000Y-78647547D01*
X131629069Y-78669307D01*
X131416629Y-78733750D01*
X131220843Y-78838400D01*
X131049235Y-78979235D01*
X130908400Y-79150843D01*
X130803750Y-79346629D01*
X130739307Y-79559069D01*
X130717547Y-79780000D01*
X130717547Y-80324219D01*
X130598017Y-80035649D01*
X130310524Y-79605385D01*
X129944615Y-79239476D01*
X129514351Y-78951983D01*
X129036268Y-78753954D01*
X128528737Y-78653000D01*
X128011263Y-78653000D01*
X127503732Y-78753954D01*
X127025649Y-78951983D01*
X126595385Y-79239476D01*
X126229476Y-79605385D01*
X125941983Y-80035649D01*
X125743954Y-80513732D01*
X125730000Y-80583884D01*
X125716046Y-80513732D01*
X125518017Y-80035649D01*
X125230524Y-79605385D01*
X124864615Y-79239476D01*
X124434351Y-78951983D01*
X123956268Y-78753954D01*
X123448737Y-78653000D01*
X122931263Y-78653000D01*
X122423732Y-78753954D01*
X121945649Y-78951983D01*
X121515385Y-79239476D01*
X121149476Y-79605385D01*
X120861983Y-80035649D01*
X120663954Y-80513732D01*
X120563000Y-81021263D01*
X120563000Y-81538737D01*
X120663954Y-82046268D01*
X120861983Y-82524351D01*
X121149476Y-82954615D01*
X121515385Y-83320524D01*
X121945649Y-83608017D01*
X122423732Y-83806046D01*
X122931263Y-83907000D01*
X123448737Y-83907000D01*
X123956268Y-83806046D01*
X124434351Y-83608017D01*
X124864615Y-83320524D01*
X125230524Y-82954615D01*
X125518017Y-82524351D01*
X125716046Y-82046268D01*
X125730000Y-81976116D01*
X125743954Y-82046268D01*
X125941983Y-82524351D01*
X126229476Y-82954615D01*
X126270383Y-82995522D01*
X117203561Y-92062344D01*
X116970943Y-91965991D01*
X116566290Y-91885500D01*
X116153710Y-91885500D01*
X115749057Y-91965991D01*
X115367882Y-92123879D01*
X115024834Y-92353096D01*
X114733096Y-92644834D01*
X114503879Y-92987882D01*
X114345991Y-93369057D01*
X114265500Y-93773710D01*
X114265500Y-94186290D01*
X114345991Y-94590943D01*
X114503879Y-94972118D01*
X114658849Y-95204047D01*
X111262472Y-91807670D01*
X111299898Y-91800226D01*
X111488256Y-91722205D01*
X111657774Y-91608937D01*
X111801937Y-91464774D01*
X111915205Y-91295256D01*
X111993226Y-91106898D01*
X112033000Y-90906939D01*
X112033000Y-90844801D01*
X113131976Y-89745826D01*
X113266256Y-89690205D01*
X113435774Y-89576937D01*
X113579937Y-89432774D01*
X113693205Y-89263256D01*
X113771226Y-89074898D01*
X113790564Y-88977679D01*
X113802898Y-88975226D01*
X113991256Y-88897205D01*
X114160774Y-88783937D01*
X114204711Y-88740000D01*
X116731928Y-88740000D01*
X116731928Y-88970000D01*
X116744188Y-89094482D01*
X116780498Y-89214180D01*
X116839463Y-89324494D01*
X116918815Y-89421185D01*
X117015506Y-89500537D01*
X117125820Y-89559502D01*
X117245518Y-89595812D01*
X117370000Y-89608072D01*
X119350000Y-89608072D01*
X119474482Y-89595812D01*
X119594180Y-89559502D01*
X119704494Y-89500537D01*
X119801185Y-89421185D01*
X119880537Y-89324494D01*
X119939502Y-89214180D01*
X119975812Y-89094482D01*
X119988072Y-88970000D01*
X119988072Y-86990000D01*
X119975812Y-86865518D01*
X119939502Y-86745820D01*
X119880537Y-86635506D01*
X119801185Y-86538815D01*
X119752323Y-86498715D01*
X120257000Y-86498715D01*
X120257000Y-74537286D01*
X117367000Y-74537286D01*
X117367000Y-75518818D01*
X117287743Y-75485989D01*
X116991184Y-75427000D01*
X116688816Y-75427000D01*
X116431070Y-75478269D01*
X115879803Y-74927002D01*
X115856001Y-74897999D01*
X115740276Y-74803026D01*
X115608247Y-74732454D01*
X115464986Y-74688997D01*
X115353333Y-74678000D01*
X115353322Y-74678000D01*
X115316000Y-74674324D01*
X115278678Y-74678000D01*
X112813323Y-74678000D01*
X112776000Y-74674324D01*
X112738677Y-74678000D01*
X112738667Y-74678000D01*
X112627014Y-74688997D01*
X112500823Y-74727276D01*
X112483753Y-74732454D01*
X112351723Y-74803026D01*
X112321568Y-74827774D01*
X112256705Y-74881006D01*
X112309937Y-74827774D01*
X112423205Y-74658256D01*
X112501226Y-74469898D01*
X112541000Y-74269939D01*
X112541000Y-74066061D01*
X112501226Y-73866102D01*
X112423205Y-73677744D01*
X112309937Y-73508226D01*
X112165774Y-73364063D01*
X111996256Y-73250795D01*
X111807898Y-73172774D01*
X111607939Y-73133000D01*
X111404061Y-73133000D01*
X111204102Y-73172774D01*
X111015744Y-73250795D01*
X110846226Y-73364063D01*
X110702063Y-73508226D01*
X110588795Y-73677744D01*
X110510774Y-73866102D01*
X110471000Y-74066061D01*
X110471000Y-74128199D01*
X110232998Y-74366201D01*
X110204000Y-74389999D01*
X110180202Y-74418997D01*
X110180201Y-74418998D01*
X110109026Y-74505724D01*
X110038454Y-74637754D01*
X110011299Y-74727275D01*
X109994998Y-74781014D01*
X109988893Y-74843001D01*
X109980324Y-74930000D01*
X109984001Y-74967332D01*
X109984001Y-75242288D01*
X109940063Y-75286226D01*
X109826795Y-75455744D01*
X109748774Y-75644102D01*
X109709000Y-75844061D01*
X109709000Y-76047939D01*
X109748774Y-76247898D01*
X109826795Y-76436256D01*
X109940063Y-76605774D01*
X110084226Y-76749937D01*
X110253744Y-76863205D01*
X110278942Y-76873642D01*
X110269028Y-76885722D01*
X110198456Y-77017752D01*
X110155000Y-77161013D01*
X110140326Y-77309998D01*
X110144003Y-77347330D01*
X110144003Y-78777168D01*
X107501996Y-76135106D01*
X108207003Y-75430099D01*
X108236001Y-75406301D01*
X108330974Y-75290576D01*
X108401546Y-75158547D01*
X108436916Y-75041947D01*
X108609136Y-75118446D01*
X108664126Y-75135119D01*
X108839000Y-75008954D01*
X108839000Y-74168000D01*
X109093000Y-74168000D01*
X109093000Y-75008954D01*
X109267874Y-75135119D01*
X109322864Y-75118446D01*
X109526206Y-75028123D01*
X109708020Y-74899865D01*
X109861318Y-74738601D01*
X109980210Y-74550529D01*
X110060126Y-74342876D01*
X109935129Y-74168000D01*
X109093000Y-74168000D01*
X108839000Y-74168000D01*
X108823983Y-74168000D01*
X108836491Y-74041000D01*
X108823983Y-73914000D01*
X108839000Y-73914000D01*
X108839000Y-73073046D01*
X109093000Y-73073046D01*
X109093000Y-73914000D01*
X109935129Y-73914000D01*
X110060126Y-73739124D01*
X109980210Y-73531471D01*
X109861318Y-73343399D01*
X109708020Y-73182135D01*
X109526206Y-73053877D01*
X109322864Y-72963554D01*
X109267874Y-72946881D01*
X109093000Y-73073046D01*
X108839000Y-73073046D01*
X108664126Y-72946881D01*
X108609136Y-72963554D01*
X108405794Y-73053877D01*
X108339383Y-73100726D01*
X108329623Y-73092716D01*
X108132447Y-72987324D01*
X107918499Y-72922423D01*
X107751752Y-72906000D01*
X107640248Y-72906000D01*
X107473501Y-72922423D01*
X107259553Y-72987324D01*
X107062377Y-73092716D01*
X107061000Y-73093846D01*
X107059623Y-73092716D01*
X106862447Y-72987324D01*
X106648499Y-72922423D01*
X106481752Y-72906000D01*
X106370248Y-72906000D01*
X106203501Y-72922423D01*
X105989553Y-72987324D01*
X105792377Y-73092716D01*
X105791000Y-73093846D01*
X105789623Y-73092716D01*
X105592447Y-72987324D01*
X105378499Y-72922423D01*
X105211752Y-72906000D01*
X105100248Y-72906000D01*
X104933501Y-72922423D01*
X104719553Y-72987324D01*
X104708379Y-72993297D01*
X104630180Y-72951498D01*
X104510482Y-72915188D01*
X104386000Y-72902928D01*
X103386000Y-72902928D01*
X103261518Y-72915188D01*
X103141820Y-72951498D01*
X103128447Y-72958646D01*
X102324801Y-72155000D01*
X120511285Y-72155000D01*
X120511285Y-75045000D01*
X132472714Y-75045000D01*
X132472714Y-73489117D01*
X132885000Y-73489117D01*
X132885000Y-73830883D01*
X132951675Y-74166081D01*
X133082463Y-74481831D01*
X133272337Y-74765998D01*
X133514002Y-75007663D01*
X133798169Y-75197537D01*
X134113919Y-75328325D01*
X134449117Y-75395000D01*
X134790883Y-75395000D01*
X135126081Y-75328325D01*
X135441831Y-75197537D01*
X135725998Y-75007663D01*
X135967663Y-74765998D01*
X136157537Y-74481831D01*
X136288325Y-74166081D01*
X136355000Y-73830883D01*
X136355000Y-73489117D01*
X136288325Y-73153919D01*
X136157537Y-72838169D01*
X135967663Y-72554002D01*
X135725998Y-72312337D01*
X135441831Y-72122463D01*
X135126081Y-71991675D01*
X134790883Y-71925000D01*
X134449117Y-71925000D01*
X134113919Y-71991675D01*
X133798169Y-72122463D01*
X133514002Y-72312337D01*
X133272337Y-72554002D01*
X133082463Y-72838169D01*
X132951675Y-73153919D01*
X132885000Y-73489117D01*
X132472714Y-73489117D01*
X132472714Y-72155000D01*
X120511285Y-72155000D01*
X102324801Y-72155000D01*
X102302804Y-72133003D01*
X102279001Y-72103999D01*
X102163276Y-72009026D01*
X102031247Y-71938454D01*
X101887986Y-71894997D01*
X101776333Y-71884000D01*
X101776322Y-71884000D01*
X101739000Y-71880324D01*
X101701678Y-71884000D01*
X94418323Y-71884000D01*
X94381000Y-71880324D01*
X94343677Y-71884000D01*
X94343667Y-71884000D01*
X94232014Y-71894997D01*
X94088753Y-71938454D01*
X93956724Y-72009026D01*
X93840999Y-72103999D01*
X93817196Y-72133003D01*
X93476998Y-72473201D01*
X93448000Y-72496999D01*
X93424202Y-72525997D01*
X93424201Y-72525998D01*
X93353026Y-72612724D01*
X93282454Y-72744754D01*
X93275176Y-72768748D01*
X93252143Y-72844680D01*
X93151395Y-72898531D01*
X92923203Y-73085803D01*
X92735931Y-73313994D01*
X92718000Y-73347541D01*
X92700069Y-73313994D01*
X92512797Y-73085803D01*
X92284606Y-72898531D01*
X92024264Y-72759375D01*
X91741777Y-72673684D01*
X91448000Y-72644749D01*
X91154224Y-72673684D01*
X90871737Y-72759375D01*
X90611395Y-72898531D01*
X90383203Y-73085803D01*
X90195931Y-73313994D01*
X90174576Y-73353947D01*
X90026486Y-73151271D01*
X89810035Y-72952267D01*
X89558919Y-72799314D01*
X89282789Y-72698291D01*
X89267026Y-72695642D01*
X89035000Y-72816783D01*
X89035000Y-74176000D01*
X89055000Y-74176000D01*
X89055000Y-74430000D01*
X89035000Y-74430000D01*
X89035000Y-74450000D01*
X88781000Y-74450000D01*
X88781000Y-74430000D01*
X87567075Y-74430000D01*
X87422815Y-74664914D01*
X87492227Y-74950633D01*
X87616046Y-75217321D01*
X87789514Y-75454729D01*
X88005965Y-75653733D01*
X88257081Y-75806686D01*
X88283754Y-75816444D01*
X87282543Y-76817655D01*
X87271185Y-76803815D01*
X87174494Y-76724463D01*
X87064180Y-76665498D01*
X86944482Y-76629188D01*
X86820000Y-76616928D01*
X84820000Y-76616928D01*
X84695518Y-76629188D01*
X84575820Y-76665498D01*
X84465506Y-76724463D01*
X84368815Y-76803815D01*
X84289463Y-76900506D01*
X84230498Y-77010820D01*
X84194188Y-77130518D01*
X84181928Y-77255000D01*
X84181928Y-78955000D01*
X84194188Y-79079482D01*
X84230498Y-79199180D01*
X84289463Y-79309494D01*
X84368815Y-79406185D01*
X84465506Y-79485537D01*
X84575820Y-79544502D01*
X84695518Y-79580812D01*
X84820000Y-79593072D01*
X86820000Y-79593072D01*
X86944482Y-79580812D01*
X87064180Y-79544502D01*
X87174494Y-79485537D01*
X87271185Y-79406185D01*
X87350537Y-79309494D01*
X87409502Y-79199180D01*
X87445812Y-79079482D01*
X87458072Y-78955000D01*
X87458072Y-78759326D01*
X87494276Y-78739974D01*
X87610001Y-78645001D01*
X87633804Y-78615997D01*
X89289802Y-76960000D01*
X92206078Y-76960000D01*
X92243400Y-76963676D01*
X92280722Y-76960000D01*
X92280733Y-76960000D01*
X92392386Y-76949003D01*
X92535647Y-76905546D01*
X92667676Y-76834974D01*
X92783401Y-76740001D01*
X92807204Y-76710997D01*
X93611100Y-75907101D01*
X93694223Y-75932316D01*
X93988000Y-75961251D01*
X94281776Y-75932316D01*
X94564263Y-75846625D01*
X94824605Y-75707469D01*
X95052797Y-75520197D01*
X95059414Y-75512135D01*
X95074698Y-75562519D01*
X95073892Y-75563180D01*
X95034999Y-75595099D01*
X95011201Y-75624097D01*
X90793371Y-79841928D01*
X88980000Y-79841928D01*
X88855518Y-79854188D01*
X88735820Y-79890498D01*
X88625506Y-79949463D01*
X88528815Y-80028815D01*
X88449463Y-80125506D01*
X88390498Y-80235820D01*
X88354188Y-80355518D01*
X88341928Y-80480000D01*
X88341928Y-82080000D01*
X88354188Y-82204482D01*
X88390498Y-82324180D01*
X88449463Y-82434494D01*
X88528815Y-82531185D01*
X88625506Y-82610537D01*
X88674026Y-82636472D01*
X87940398Y-83370100D01*
X87868180Y-83331498D01*
X87748482Y-83295188D01*
X87624000Y-83282928D01*
X86874000Y-83282928D01*
X86749518Y-83295188D01*
X86629820Y-83331498D01*
X86519506Y-83390463D01*
X86422815Y-83469815D01*
X86343463Y-83566506D01*
X86284498Y-83676820D01*
X86258962Y-83761000D01*
X84790502Y-83761000D01*
X83665974Y-82636472D01*
X83714494Y-82610537D01*
X83811185Y-82531185D01*
X83890537Y-82434494D01*
X83949502Y-82324180D01*
X83985812Y-82204482D01*
X83998072Y-82080000D01*
X84721928Y-82080000D01*
X84734188Y-82204482D01*
X84770498Y-82324180D01*
X84829463Y-82434494D01*
X84908815Y-82531185D01*
X85005506Y-82610537D01*
X85115820Y-82669502D01*
X85235518Y-82705812D01*
X85360000Y-82718072D01*
X86074250Y-82715000D01*
X86233000Y-82556250D01*
X86233000Y-81407000D01*
X86487000Y-81407000D01*
X86487000Y-82556250D01*
X86645750Y-82715000D01*
X87360000Y-82718072D01*
X87484482Y-82705812D01*
X87604180Y-82669502D01*
X87714494Y-82610537D01*
X87811185Y-82531185D01*
X87890537Y-82434494D01*
X87949502Y-82324180D01*
X87985812Y-82204482D01*
X87998072Y-82080000D01*
X87995000Y-81565750D01*
X87836250Y-81407000D01*
X86487000Y-81407000D01*
X86233000Y-81407000D01*
X84883750Y-81407000D01*
X84725000Y-81565750D01*
X84721928Y-82080000D01*
X83998072Y-82080000D01*
X83998072Y-80480000D01*
X84721928Y-80480000D01*
X84725000Y-80994250D01*
X84883750Y-81153000D01*
X86233000Y-81153000D01*
X86233000Y-80003750D01*
X86487000Y-80003750D01*
X86487000Y-81153000D01*
X87836250Y-81153000D01*
X87995000Y-80994250D01*
X87998072Y-80480000D01*
X87985812Y-80355518D01*
X87949502Y-80235820D01*
X87890537Y-80125506D01*
X87811185Y-80028815D01*
X87714494Y-79949463D01*
X87604180Y-79890498D01*
X87484482Y-79854188D01*
X87360000Y-79841928D01*
X86645750Y-79845000D01*
X86487000Y-80003750D01*
X86233000Y-80003750D01*
X86074250Y-79845000D01*
X85360000Y-79841928D01*
X85235518Y-79854188D01*
X85115820Y-79890498D01*
X85005506Y-79949463D01*
X84908815Y-80028815D01*
X84829463Y-80125506D01*
X84770498Y-80235820D01*
X84734188Y-80355518D01*
X84721928Y-80480000D01*
X83998072Y-80480000D01*
X83985812Y-80355518D01*
X83949502Y-80235820D01*
X83890537Y-80125506D01*
X83811185Y-80028815D01*
X83714494Y-79949463D01*
X83604180Y-79890498D01*
X83484482Y-79854188D01*
X83360000Y-79841928D01*
X82580000Y-79841928D01*
X82580000Y-79593072D01*
X82820000Y-79593072D01*
X82944482Y-79580812D01*
X83064180Y-79544502D01*
X83174494Y-79485537D01*
X83271185Y-79406185D01*
X83350537Y-79309494D01*
X83409502Y-79199180D01*
X83445812Y-79079482D01*
X83458072Y-78955000D01*
X83458072Y-77255000D01*
X83445812Y-77130518D01*
X83409502Y-77010820D01*
X83350537Y-76900506D01*
X83271185Y-76803815D01*
X83174494Y-76724463D01*
X83064180Y-76665498D01*
X82944482Y-76629188D01*
X82820000Y-76616928D01*
X80820000Y-76616928D01*
X80695518Y-76629188D01*
X80670000Y-76636929D01*
X80670000Y-73692279D01*
X80689920Y-73489117D01*
X80815000Y-73489117D01*
X80815000Y-73830883D01*
X80881675Y-74166081D01*
X81012463Y-74481831D01*
X81202337Y-74765998D01*
X81444002Y-75007663D01*
X81728169Y-75197537D01*
X82043919Y-75328325D01*
X82379117Y-75395000D01*
X82720883Y-75395000D01*
X83056081Y-75328325D01*
X83371831Y-75197537D01*
X83655998Y-75007663D01*
X83897663Y-74765998D01*
X84087537Y-74481831D01*
X84218325Y-74166081D01*
X84263079Y-73941086D01*
X87422815Y-73941086D01*
X87567075Y-74176000D01*
X88781000Y-74176000D01*
X88781000Y-72816783D01*
X88548974Y-72695642D01*
X88533211Y-72698291D01*
X88257081Y-72799314D01*
X88005965Y-72952267D01*
X87789514Y-73151271D01*
X87616046Y-73388679D01*
X87492227Y-73655367D01*
X87422815Y-73941086D01*
X84263079Y-73941086D01*
X84285000Y-73830883D01*
X84285000Y-73489117D01*
X84218325Y-73153919D01*
X84087537Y-72838169D01*
X83897663Y-72554002D01*
X83655998Y-72312337D01*
X83371831Y-72122463D01*
X83056081Y-71991675D01*
X82720883Y-71925000D01*
X82379117Y-71925000D01*
X82043919Y-71991675D01*
X81728169Y-72122463D01*
X81444002Y-72312337D01*
X81202337Y-72554002D01*
X81012463Y-72838169D01*
X80881675Y-73153919D01*
X80815000Y-73489117D01*
X80689920Y-73489117D01*
X80708909Y-73295455D01*
X80814780Y-72944792D01*
X80986744Y-72621375D01*
X81218254Y-72337516D01*
X81500486Y-72104035D01*
X81822695Y-71929817D01*
X82172614Y-71821498D01*
X82567443Y-71780000D01*
X134587721Y-71780000D01*
X134984545Y-71818909D01*
X134984545Y-71818909D01*
G37*
X134984545Y-71818909D02*
X135335208Y-71924780D01*
X135658625Y-72096744D01*
X135942484Y-72328254D01*
X136175965Y-72610486D01*
X136350183Y-72932695D01*
X136458502Y-73282614D01*
X136500001Y-73677452D01*
X136500000Y-123063000D01*
X134748516Y-123063000D01*
X134792545Y-123043809D01*
X134968391Y-122921587D01*
X135117014Y-122767408D01*
X135232702Y-122587197D01*
X135304408Y-122384001D01*
X135177502Y-122217000D01*
X133587000Y-122217000D01*
X133587000Y-122237000D01*
X133333000Y-122237000D01*
X133333000Y-122217000D01*
X131742498Y-122217000D01*
X131615592Y-122384001D01*
X131687298Y-122587197D01*
X131802986Y-122767408D01*
X131951609Y-122921587D01*
X132127455Y-123043809D01*
X132171484Y-123063000D01*
X118101911Y-123063000D01*
X119584912Y-121580000D01*
X131695517Y-121580000D01*
X131687298Y-121592803D01*
X131615592Y-121795999D01*
X131742498Y-121963000D01*
X133333000Y-121963000D01*
X133333000Y-121943000D01*
X133587000Y-121943000D01*
X133587000Y-121963000D01*
X135177502Y-121963000D01*
X135304408Y-121795999D01*
X135232702Y-121592803D01*
X135143463Y-121453792D01*
X135166509Y-121425710D01*
X135267259Y-121237220D01*
X135329300Y-121032697D01*
X135350249Y-120820000D01*
X135329300Y-120607303D01*
X135267259Y-120402780D01*
X135166509Y-120214290D01*
X135142471Y-120185000D01*
X135166509Y-120155710D01*
X135267259Y-119967220D01*
X135329300Y-119762697D01*
X135350249Y-119550000D01*
X135329300Y-119337303D01*
X135267259Y-119132780D01*
X135166509Y-118944290D01*
X135142471Y-118915000D01*
X135166509Y-118885710D01*
X135267259Y-118697220D01*
X135329300Y-118492697D01*
X135350249Y-118280000D01*
X135329300Y-118067303D01*
X135267259Y-117862780D01*
X135166509Y-117674290D01*
X135142471Y-117645000D01*
X135166509Y-117615710D01*
X135267259Y-117427220D01*
X135329300Y-117222697D01*
X135350249Y-117010000D01*
X135329300Y-116797303D01*
X135267259Y-116592780D01*
X135166509Y-116404290D01*
X135142471Y-116375000D01*
X135166509Y-116345710D01*
X135267259Y-116157220D01*
X135329300Y-115952697D01*
X135350249Y-115740000D01*
X135329300Y-115527303D01*
X135267259Y-115322780D01*
X135166509Y-115134290D01*
X135142471Y-115105000D01*
X135166509Y-115075710D01*
X135267259Y-114887220D01*
X135329300Y-114682697D01*
X135350249Y-114470000D01*
X135329300Y-114257303D01*
X135267259Y-114052780D01*
X135166509Y-113864290D01*
X135142471Y-113835000D01*
X135166509Y-113805710D01*
X135267259Y-113617220D01*
X135329300Y-113412697D01*
X135350249Y-113200000D01*
X135329300Y-112987303D01*
X135267259Y-112782780D01*
X135166509Y-112594290D01*
X135142471Y-112565000D01*
X135166509Y-112535710D01*
X135267259Y-112347220D01*
X135329300Y-112142697D01*
X135350249Y-111930000D01*
X135329300Y-111717303D01*
X135267259Y-111512780D01*
X135166509Y-111324290D01*
X135142471Y-111295000D01*
X135166509Y-111265710D01*
X135267259Y-111077220D01*
X135329300Y-110872697D01*
X135350249Y-110660000D01*
X135329300Y-110447303D01*
X135267259Y-110242780D01*
X135166509Y-110054290D01*
X135142471Y-110025000D01*
X135166509Y-109995710D01*
X135267259Y-109807220D01*
X135329300Y-109602697D01*
X135350249Y-109390000D01*
X135329300Y-109177303D01*
X135267259Y-108972780D01*
X135166509Y-108784290D01*
X135142471Y-108755000D01*
X135166509Y-108725710D01*
X135267259Y-108537220D01*
X135329300Y-108332697D01*
X135350249Y-108120000D01*
X135329300Y-107907303D01*
X135267259Y-107702780D01*
X135166509Y-107514290D01*
X135142471Y-107485000D01*
X135166509Y-107455710D01*
X135267259Y-107267220D01*
X135329300Y-107062697D01*
X135350249Y-106850000D01*
X135329300Y-106637303D01*
X135267259Y-106432780D01*
X135166509Y-106244290D01*
X135142471Y-106215000D01*
X135166509Y-106185710D01*
X135267259Y-105997220D01*
X135329300Y-105792697D01*
X135350249Y-105580000D01*
X135329300Y-105367303D01*
X135267259Y-105162780D01*
X135166509Y-104974290D01*
X135030922Y-104809078D01*
X134865710Y-104673491D01*
X134677220Y-104572741D01*
X134472697Y-104510700D01*
X134313294Y-104495000D01*
X132606706Y-104495000D01*
X132447303Y-104510700D01*
X132242780Y-104572741D01*
X132054290Y-104673491D01*
X131889078Y-104809078D01*
X131753491Y-104974290D01*
X131652741Y-105162780D01*
X131590700Y-105367303D01*
X131569751Y-105580000D01*
X131590700Y-105792697D01*
X131629317Y-105920000D01*
X130509829Y-105920000D01*
X130672197Y-105862702D01*
X130852408Y-105747014D01*
X131006587Y-105598391D01*
X131128809Y-105422545D01*
X131214376Y-105226233D01*
X131260000Y-105017000D01*
X131260000Y-104217000D01*
X130302000Y-104217000D01*
X130302000Y-104237000D01*
X130048000Y-104237000D01*
X130048000Y-104217000D01*
X130028000Y-104217000D01*
X130028000Y-103963000D01*
X130048000Y-103963000D01*
X130048000Y-102372498D01*
X130302000Y-102372498D01*
X130302000Y-103963000D01*
X131260000Y-103963000D01*
X131260000Y-103163000D01*
X131214376Y-102953767D01*
X131128809Y-102757455D01*
X131006587Y-102581609D01*
X130852408Y-102432986D01*
X130672197Y-102317298D01*
X130469001Y-102245592D01*
X130302000Y-102372498D01*
X130048000Y-102372498D01*
X129880999Y-102245592D01*
X129677803Y-102317298D01*
X129538792Y-102406537D01*
X129510710Y-102383491D01*
X129322219Y-102282741D01*
X129117696Y-102220700D01*
X128905000Y-102199751D01*
X128692303Y-102220700D01*
X128487780Y-102282741D01*
X128299290Y-102383491D01*
X128270000Y-102407529D01*
X128240710Y-102383491D01*
X128052219Y-102282741D01*
X127847696Y-102220700D01*
X127635000Y-102199751D01*
X127422303Y-102220700D01*
X127217780Y-102282741D01*
X127029290Y-102383491D01*
X127000000Y-102407529D01*
X126970710Y-102383491D01*
X126782219Y-102282741D01*
X126577696Y-102220700D01*
X126365000Y-102199751D01*
X126152303Y-102220700D01*
X125947780Y-102282741D01*
X125759290Y-102383491D01*
X125730000Y-102407529D01*
X125700710Y-102383491D01*
X125512219Y-102282741D01*
X125307696Y-102220700D01*
X125095000Y-102199751D01*
X124882303Y-102220700D01*
X124677780Y-102282741D01*
X124489290Y-102383491D01*
X124460000Y-102407529D01*
X124430710Y-102383491D01*
X124242219Y-102282741D01*
X124037696Y-102220700D01*
X123825000Y-102199751D01*
X123612303Y-102220700D01*
X123407780Y-102282741D01*
X123219290Y-102383491D01*
X123190000Y-102407529D01*
X123160710Y-102383491D01*
X122972219Y-102282741D01*
X122767696Y-102220700D01*
X122555000Y-102199751D01*
X122342303Y-102220700D01*
X122137780Y-102282741D01*
X121949290Y-102383491D01*
X121920000Y-102407529D01*
X121890710Y-102383491D01*
X121702219Y-102282741D01*
X121497696Y-102220700D01*
X121285000Y-102199751D01*
X121072303Y-102220700D01*
X120867780Y-102282741D01*
X120679290Y-102383491D01*
X120650000Y-102407529D01*
X120620710Y-102383491D01*
X120432219Y-102282741D01*
X120227696Y-102220700D01*
X120015000Y-102199751D01*
X119802303Y-102220700D01*
X119597780Y-102282741D01*
X119409290Y-102383491D01*
X119380000Y-102407529D01*
X119350710Y-102383491D01*
X119162219Y-102282741D01*
X118957696Y-102220700D01*
X118745000Y-102199751D01*
X118532303Y-102220700D01*
X118468759Y-102239976D01*
X118464803Y-102199815D01*
X118421346Y-102056554D01*
X118350774Y-101924524D01*
X118255801Y-101808799D01*
X118245309Y-101800188D01*
X118245308Y-101605000D01*
X118520049Y-101605000D01*
X118833995Y-101542552D01*
X119129726Y-101420057D01*
X119395877Y-101242220D01*
X119622220Y-101015877D01*
X119800057Y-100749726D01*
X119922552Y-100453995D01*
X119985000Y-100140049D01*
X119985000Y-99819951D01*
X119922552Y-99506005D01*
X119800057Y-99210274D01*
X119622220Y-98944123D01*
X119395877Y-98717780D01*
X119129726Y-98539943D01*
X118833995Y-98417448D01*
X118520049Y-98355000D01*
X118199951Y-98355000D01*
X117886005Y-98417448D01*
X117876279Y-98421477D01*
X115135953Y-95681151D01*
X115367882Y-95836121D01*
X115749057Y-95994009D01*
X116153710Y-96074500D01*
X116566290Y-96074500D01*
X116970943Y-95994009D01*
X117352118Y-95836121D01*
X117545362Y-95707000D01*
X117643413Y-95707000D01*
X117728251Y-95715356D01*
X117813089Y-95707000D01*
X117813092Y-95707000D01*
X118066802Y-95682012D01*
X118392343Y-95583260D01*
X118692363Y-95422896D01*
X118955333Y-95207082D01*
X119009419Y-95141178D01*
X129431184Y-84719414D01*
X129497082Y-84665333D01*
X129584896Y-84558332D01*
X129661165Y-84465397D01*
X129712896Y-84402363D01*
X129873260Y-84102343D01*
X129972012Y-83776802D01*
X129997000Y-83523092D01*
X129997000Y-83523083D01*
X130005355Y-83438252D01*
X129997000Y-83353421D01*
X129997000Y-83268139D01*
X130310524Y-82954615D01*
X130598017Y-82524351D01*
X130717547Y-82235781D01*
X130717547Y-82780000D01*
X130739307Y-83000931D01*
X130803750Y-83213371D01*
X130908400Y-83409157D01*
X131049235Y-83580765D01*
X131220843Y-83721600D01*
X131416629Y-83826250D01*
X131623000Y-83888852D01*
X131623000Y-86144180D01*
X131562775Y-86103939D01*
X131177506Y-85944355D01*
X130768506Y-85863000D01*
X130351494Y-85863000D01*
X129942494Y-85944355D01*
X129557225Y-86103939D01*
X129210491Y-86335619D01*
X128915619Y-86630491D01*
X128683939Y-86977225D01*
X128524355Y-87362494D01*
X128443000Y-87771494D01*
X128443000Y-88188506D01*
X128524355Y-88597506D01*
X128683939Y-88982775D01*
X128915619Y-89329509D01*
X129210491Y-89624381D01*
X129557225Y-89856061D01*
X129942494Y-90015645D01*
X130351494Y-90097000D01*
X130768506Y-90097000D01*
X131177506Y-90015645D01*
X131562775Y-89856061D01*
X131623000Y-89815820D01*
X131623001Y-98090652D01*
X131590913Y-98122740D01*
X131562775Y-98103939D01*
X131177506Y-97944355D01*
X130768506Y-97863000D01*
X130351494Y-97863000D01*
X129942494Y-97944355D01*
X129557225Y-98103939D01*
X129210491Y-98335619D01*
X128915619Y-98630491D01*
X128683939Y-98977225D01*
X128524355Y-99362494D01*
X128443000Y-99771494D01*
X128443000Y-100188506D01*
X128524355Y-100597506D01*
X128683939Y-100982775D01*
X128915619Y-101329509D01*
X129210491Y-101624381D01*
X129557225Y-101856061D01*
X129942494Y-102015645D01*
X130351494Y-102097000D01*
X130768506Y-102097000D01*
X131177506Y-102015645D01*
X131562775Y-101856061D01*
X131785861Y-101707000D01*
X132091162Y-101707000D01*
X132176000Y-101715356D01*
X132260838Y-101707000D01*
X132260841Y-101707000D01*
X132514551Y-101682012D01*
X132840092Y-101583260D01*
X133140112Y-101422896D01*
X133403082Y-101207082D01*
X133457168Y-101141178D01*
X134511183Y-100087164D01*
X134577082Y-100033082D01*
X134670030Y-99919825D01*
X134792896Y-99770113D01*
X134953260Y-99470092D01*
X134961077Y-99444324D01*
X135052012Y-99144551D01*
X135077000Y-98890841D01*
X135077000Y-98890839D01*
X135085356Y-98806000D01*
X135077000Y-98721162D01*
X135077000Y-83888852D01*
X135283371Y-83826250D01*
X135479157Y-83721600D01*
X135650765Y-83580765D01*
X135791600Y-83409157D01*
X135896250Y-83213371D01*
X135960693Y-83000931D01*
X135982453Y-82780000D01*
X135982453Y-79780000D01*
X135960693Y-79559069D01*
X135896250Y-79346629D01*
X135791600Y-79150843D01*
X135650765Y-78979235D01*
X135479157Y-78838400D01*
X135283371Y-78733750D01*
X135070931Y-78669307D01*
X134850000Y-78647547D01*
X131850000Y-78647547D01*
X131629069Y-78669307D01*
X131416629Y-78733750D01*
X131220843Y-78838400D01*
X131049235Y-78979235D01*
X130908400Y-79150843D01*
X130803750Y-79346629D01*
X130739307Y-79559069D01*
X130717547Y-79780000D01*
X130717547Y-80324219D01*
X130598017Y-80035649D01*
X130310524Y-79605385D01*
X129944615Y-79239476D01*
X129514351Y-78951983D01*
X129036268Y-78753954D01*
X128528737Y-78653000D01*
X128011263Y-78653000D01*
X127503732Y-78753954D01*
X127025649Y-78951983D01*
X126595385Y-79239476D01*
X126229476Y-79605385D01*
X125941983Y-80035649D01*
X125743954Y-80513732D01*
X125730000Y-80583884D01*
X125716046Y-80513732D01*
X125518017Y-80035649D01*
X125230524Y-79605385D01*
X124864615Y-79239476D01*
X124434351Y-78951983D01*
X123956268Y-78753954D01*
X123448737Y-78653000D01*
X122931263Y-78653000D01*
X122423732Y-78753954D01*
X121945649Y-78951983D01*
X121515385Y-79239476D01*
X121149476Y-79605385D01*
X120861983Y-80035649D01*
X120663954Y-80513732D01*
X120563000Y-81021263D01*
X120563000Y-81538737D01*
X120663954Y-82046268D01*
X120861983Y-82524351D01*
X121149476Y-82954615D01*
X121515385Y-83320524D01*
X121945649Y-83608017D01*
X122423732Y-83806046D01*
X122931263Y-83907000D01*
X123448737Y-83907000D01*
X123956268Y-83806046D01*
X124434351Y-83608017D01*
X124864615Y-83320524D01*
X125230524Y-82954615D01*
X125518017Y-82524351D01*
X125716046Y-82046268D01*
X125730000Y-81976116D01*
X125743954Y-82046268D01*
X125941983Y-82524351D01*
X126229476Y-82954615D01*
X126270383Y-82995522D01*
X117203561Y-92062344D01*
X116970943Y-91965991D01*
X116566290Y-91885500D01*
X116153710Y-91885500D01*
X115749057Y-91965991D01*
X115367882Y-92123879D01*
X115024834Y-92353096D01*
X114733096Y-92644834D01*
X114503879Y-92987882D01*
X114345991Y-93369057D01*
X114265500Y-93773710D01*
X114265500Y-94186290D01*
X114345991Y-94590943D01*
X114503879Y-94972118D01*
X114658849Y-95204047D01*
X111262472Y-91807670D01*
X111299898Y-91800226D01*
X111488256Y-91722205D01*
X111657774Y-91608937D01*
X111801937Y-91464774D01*
X111915205Y-91295256D01*
X111993226Y-91106898D01*
X112033000Y-90906939D01*
X112033000Y-90844801D01*
X113131976Y-89745826D01*
X113266256Y-89690205D01*
X113435774Y-89576937D01*
X113579937Y-89432774D01*
X113693205Y-89263256D01*
X113771226Y-89074898D01*
X113790564Y-88977679D01*
X113802898Y-88975226D01*
X113991256Y-88897205D01*
X114160774Y-88783937D01*
X114204711Y-88740000D01*
X116731928Y-88740000D01*
X116731928Y-88970000D01*
X116744188Y-89094482D01*
X116780498Y-89214180D01*
X116839463Y-89324494D01*
X116918815Y-89421185D01*
X117015506Y-89500537D01*
X117125820Y-89559502D01*
X117245518Y-89595812D01*
X117370000Y-89608072D01*
X119350000Y-89608072D01*
X119474482Y-89595812D01*
X119594180Y-89559502D01*
X119704494Y-89500537D01*
X119801185Y-89421185D01*
X119880537Y-89324494D01*
X119939502Y-89214180D01*
X119975812Y-89094482D01*
X119988072Y-88970000D01*
X119988072Y-86990000D01*
X119975812Y-86865518D01*
X119939502Y-86745820D01*
X119880537Y-86635506D01*
X119801185Y-86538815D01*
X119752323Y-86498715D01*
X120257000Y-86498715D01*
X120257000Y-74537286D01*
X117367000Y-74537286D01*
X117367000Y-75518818D01*
X117287743Y-75485989D01*
X116991184Y-75427000D01*
X116688816Y-75427000D01*
X116431070Y-75478269D01*
X115879803Y-74927002D01*
X115856001Y-74897999D01*
X115740276Y-74803026D01*
X115608247Y-74732454D01*
X115464986Y-74688997D01*
X115353333Y-74678000D01*
X115353322Y-74678000D01*
X115316000Y-74674324D01*
X115278678Y-74678000D01*
X112813323Y-74678000D01*
X112776000Y-74674324D01*
X112738677Y-74678000D01*
X112738667Y-74678000D01*
X112627014Y-74688997D01*
X112500823Y-74727276D01*
X112483753Y-74732454D01*
X112351723Y-74803026D01*
X112321568Y-74827774D01*
X112256705Y-74881006D01*
X112309937Y-74827774D01*
X112423205Y-74658256D01*
X112501226Y-74469898D01*
X112541000Y-74269939D01*
X112541000Y-74066061D01*
X112501226Y-73866102D01*
X112423205Y-73677744D01*
X112309937Y-73508226D01*
X112165774Y-73364063D01*
X111996256Y-73250795D01*
X111807898Y-73172774D01*
X111607939Y-73133000D01*
X111404061Y-73133000D01*
X111204102Y-73172774D01*
X111015744Y-73250795D01*
X110846226Y-73364063D01*
X110702063Y-73508226D01*
X110588795Y-73677744D01*
X110510774Y-73866102D01*
X110471000Y-74066061D01*
X110471000Y-74128199D01*
X110232998Y-74366201D01*
X110204000Y-74389999D01*
X110180202Y-74418997D01*
X110180201Y-74418998D01*
X110109026Y-74505724D01*
X110038454Y-74637754D01*
X110011299Y-74727275D01*
X109994998Y-74781014D01*
X109988893Y-74843001D01*
X109980324Y-74930000D01*
X109984001Y-74967332D01*
X109984001Y-75242288D01*
X109940063Y-75286226D01*
X109826795Y-75455744D01*
X109748774Y-75644102D01*
X109709000Y-75844061D01*
X109709000Y-76047939D01*
X109748774Y-76247898D01*
X109826795Y-76436256D01*
X109940063Y-76605774D01*
X110084226Y-76749937D01*
X110253744Y-76863205D01*
X110278942Y-76873642D01*
X110269028Y-76885722D01*
X110198456Y-77017752D01*
X110155000Y-77161013D01*
X110140326Y-77309998D01*
X110144003Y-77347330D01*
X110144003Y-78777168D01*
X107501996Y-76135106D01*
X108207003Y-75430099D01*
X108236001Y-75406301D01*
X108330974Y-75290576D01*
X108401546Y-75158547D01*
X108436916Y-75041947D01*
X108609136Y-75118446D01*
X108664126Y-75135119D01*
X108839000Y-75008954D01*
X108839000Y-74168000D01*
X109093000Y-74168000D01*
X109093000Y-75008954D01*
X109267874Y-75135119D01*
X109322864Y-75118446D01*
X109526206Y-75028123D01*
X109708020Y-74899865D01*
X109861318Y-74738601D01*
X109980210Y-74550529D01*
X110060126Y-74342876D01*
X109935129Y-74168000D01*
X109093000Y-74168000D01*
X108839000Y-74168000D01*
X108823983Y-74168000D01*
X108836491Y-74041000D01*
X108823983Y-73914000D01*
X108839000Y-73914000D01*
X108839000Y-73073046D01*
X109093000Y-73073046D01*
X109093000Y-73914000D01*
X109935129Y-73914000D01*
X110060126Y-73739124D01*
X109980210Y-73531471D01*
X109861318Y-73343399D01*
X109708020Y-73182135D01*
X109526206Y-73053877D01*
X109322864Y-72963554D01*
X109267874Y-72946881D01*
X109093000Y-73073046D01*
X108839000Y-73073046D01*
X108664126Y-72946881D01*
X108609136Y-72963554D01*
X108405794Y-73053877D01*
X108339383Y-73100726D01*
X108329623Y-73092716D01*
X108132447Y-72987324D01*
X107918499Y-72922423D01*
X107751752Y-72906000D01*
X107640248Y-72906000D01*
X107473501Y-72922423D01*
X107259553Y-72987324D01*
X107062377Y-73092716D01*
X107061000Y-73093846D01*
X107059623Y-73092716D01*
X106862447Y-72987324D01*
X106648499Y-72922423D01*
X106481752Y-72906000D01*
X106370248Y-72906000D01*
X106203501Y-72922423D01*
X105989553Y-72987324D01*
X105792377Y-73092716D01*
X105791000Y-73093846D01*
X105789623Y-73092716D01*
X105592447Y-72987324D01*
X105378499Y-72922423D01*
X105211752Y-72906000D01*
X105100248Y-72906000D01*
X104933501Y-72922423D01*
X104719553Y-72987324D01*
X104708379Y-72993297D01*
X104630180Y-72951498D01*
X104510482Y-72915188D01*
X104386000Y-72902928D01*
X103386000Y-72902928D01*
X103261518Y-72915188D01*
X103141820Y-72951498D01*
X103128447Y-72958646D01*
X102324801Y-72155000D01*
X120511285Y-72155000D01*
X120511285Y-75045000D01*
X132472714Y-75045000D01*
X132472714Y-73489117D01*
X132885000Y-73489117D01*
X132885000Y-73830883D01*
X132951675Y-74166081D01*
X133082463Y-74481831D01*
X133272337Y-74765998D01*
X133514002Y-75007663D01*
X133798169Y-75197537D01*
X134113919Y-75328325D01*
X134449117Y-75395000D01*
X134790883Y-75395000D01*
X135126081Y-75328325D01*
X135441831Y-75197537D01*
X135725998Y-75007663D01*
X135967663Y-74765998D01*
X136157537Y-74481831D01*
X136288325Y-74166081D01*
X136355000Y-73830883D01*
X136355000Y-73489117D01*
X136288325Y-73153919D01*
X136157537Y-72838169D01*
X135967663Y-72554002D01*
X135725998Y-72312337D01*
X135441831Y-72122463D01*
X135126081Y-71991675D01*
X134790883Y-71925000D01*
X134449117Y-71925000D01*
X134113919Y-71991675D01*
X133798169Y-72122463D01*
X133514002Y-72312337D01*
X133272337Y-72554002D01*
X133082463Y-72838169D01*
X132951675Y-73153919D01*
X132885000Y-73489117D01*
X132472714Y-73489117D01*
X132472714Y-72155000D01*
X120511285Y-72155000D01*
X102324801Y-72155000D01*
X102302804Y-72133003D01*
X102279001Y-72103999D01*
X102163276Y-72009026D01*
X102031247Y-71938454D01*
X101887986Y-71894997D01*
X101776333Y-71884000D01*
X101776322Y-71884000D01*
X101739000Y-71880324D01*
X101701678Y-71884000D01*
X94418323Y-71884000D01*
X94381000Y-71880324D01*
X94343677Y-71884000D01*
X94343667Y-71884000D01*
X94232014Y-71894997D01*
X94088753Y-71938454D01*
X93956724Y-72009026D01*
X93840999Y-72103999D01*
X93817196Y-72133003D01*
X93476998Y-72473201D01*
X93448000Y-72496999D01*
X93424202Y-72525997D01*
X93424201Y-72525998D01*
X93353026Y-72612724D01*
X93282454Y-72744754D01*
X93275176Y-72768748D01*
X93252143Y-72844680D01*
X93151395Y-72898531D01*
X92923203Y-73085803D01*
X92735931Y-73313994D01*
X92718000Y-73347541D01*
X92700069Y-73313994D01*
X92512797Y-73085803D01*
X92284606Y-72898531D01*
X92024264Y-72759375D01*
X91741777Y-72673684D01*
X91448000Y-72644749D01*
X91154224Y-72673684D01*
X90871737Y-72759375D01*
X90611395Y-72898531D01*
X90383203Y-73085803D01*
X90195931Y-73313994D01*
X90174576Y-73353947D01*
X90026486Y-73151271D01*
X89810035Y-72952267D01*
X89558919Y-72799314D01*
X89282789Y-72698291D01*
X89267026Y-72695642D01*
X89035000Y-72816783D01*
X89035000Y-74176000D01*
X89055000Y-74176000D01*
X89055000Y-74430000D01*
X89035000Y-74430000D01*
X89035000Y-74450000D01*
X88781000Y-74450000D01*
X88781000Y-74430000D01*
X87567075Y-74430000D01*
X87422815Y-74664914D01*
X87492227Y-74950633D01*
X87616046Y-75217321D01*
X87789514Y-75454729D01*
X88005965Y-75653733D01*
X88257081Y-75806686D01*
X88283754Y-75816444D01*
X87282543Y-76817655D01*
X87271185Y-76803815D01*
X87174494Y-76724463D01*
X87064180Y-76665498D01*
X86944482Y-76629188D01*
X86820000Y-76616928D01*
X84820000Y-76616928D01*
X84695518Y-76629188D01*
X84575820Y-76665498D01*
X84465506Y-76724463D01*
X84368815Y-76803815D01*
X84289463Y-76900506D01*
X84230498Y-77010820D01*
X84194188Y-77130518D01*
X84181928Y-77255000D01*
X84181928Y-78955000D01*
X84194188Y-79079482D01*
X84230498Y-79199180D01*
X84289463Y-79309494D01*
X84368815Y-79406185D01*
X84465506Y-79485537D01*
X84575820Y-79544502D01*
X84695518Y-79580812D01*
X84820000Y-79593072D01*
X86820000Y-79593072D01*
X86944482Y-79580812D01*
X87064180Y-79544502D01*
X87174494Y-79485537D01*
X87271185Y-79406185D01*
X87350537Y-79309494D01*
X87409502Y-79199180D01*
X87445812Y-79079482D01*
X87458072Y-78955000D01*
X87458072Y-78759326D01*
X87494276Y-78739974D01*
X87610001Y-78645001D01*
X87633804Y-78615997D01*
X89289802Y-76960000D01*
X92206078Y-76960000D01*
X92243400Y-76963676D01*
X92280722Y-76960000D01*
X92280733Y-76960000D01*
X92392386Y-76949003D01*
X92535647Y-76905546D01*
X92667676Y-76834974D01*
X92783401Y-76740001D01*
X92807204Y-76710997D01*
X93611100Y-75907101D01*
X93694223Y-75932316D01*
X93988000Y-75961251D01*
X94281776Y-75932316D01*
X94564263Y-75846625D01*
X94824605Y-75707469D01*
X95052797Y-75520197D01*
X95059414Y-75512135D01*
X95074698Y-75562519D01*
X95073892Y-75563180D01*
X95034999Y-75595099D01*
X95011201Y-75624097D01*
X90793371Y-79841928D01*
X88980000Y-79841928D01*
X88855518Y-79854188D01*
X88735820Y-79890498D01*
X88625506Y-79949463D01*
X88528815Y-80028815D01*
X88449463Y-80125506D01*
X88390498Y-80235820D01*
X88354188Y-80355518D01*
X88341928Y-80480000D01*
X88341928Y-82080000D01*
X88354188Y-82204482D01*
X88390498Y-82324180D01*
X88449463Y-82434494D01*
X88528815Y-82531185D01*
X88625506Y-82610537D01*
X88674026Y-82636472D01*
X87940398Y-83370100D01*
X87868180Y-83331498D01*
X87748482Y-83295188D01*
X87624000Y-83282928D01*
X86874000Y-83282928D01*
X86749518Y-83295188D01*
X86629820Y-83331498D01*
X86519506Y-83390463D01*
X86422815Y-83469815D01*
X86343463Y-83566506D01*
X86284498Y-83676820D01*
X86258962Y-83761000D01*
X84790502Y-83761000D01*
X83665974Y-82636472D01*
X83714494Y-82610537D01*
X83811185Y-82531185D01*
X83890537Y-82434494D01*
X83949502Y-82324180D01*
X83985812Y-82204482D01*
X83998072Y-82080000D01*
X84721928Y-82080000D01*
X84734188Y-82204482D01*
X84770498Y-82324180D01*
X84829463Y-82434494D01*
X84908815Y-82531185D01*
X85005506Y-82610537D01*
X85115820Y-82669502D01*
X85235518Y-82705812D01*
X85360000Y-82718072D01*
X86074250Y-82715000D01*
X86233000Y-82556250D01*
X86233000Y-81407000D01*
X86487000Y-81407000D01*
X86487000Y-82556250D01*
X86645750Y-82715000D01*
X87360000Y-82718072D01*
X87484482Y-82705812D01*
X87604180Y-82669502D01*
X87714494Y-82610537D01*
X87811185Y-82531185D01*
X87890537Y-82434494D01*
X87949502Y-82324180D01*
X87985812Y-82204482D01*
X87998072Y-82080000D01*
X87995000Y-81565750D01*
X87836250Y-81407000D01*
X86487000Y-81407000D01*
X86233000Y-81407000D01*
X84883750Y-81407000D01*
X84725000Y-81565750D01*
X84721928Y-82080000D01*
X83998072Y-82080000D01*
X83998072Y-80480000D01*
X84721928Y-80480000D01*
X84725000Y-80994250D01*
X84883750Y-81153000D01*
X86233000Y-81153000D01*
X86233000Y-80003750D01*
X86487000Y-80003750D01*
X86487000Y-81153000D01*
X87836250Y-81153000D01*
X87995000Y-80994250D01*
X87998072Y-80480000D01*
X87985812Y-80355518D01*
X87949502Y-80235820D01*
X87890537Y-80125506D01*
X87811185Y-80028815D01*
X87714494Y-79949463D01*
X87604180Y-79890498D01*
X87484482Y-79854188D01*
X87360000Y-79841928D01*
X86645750Y-79845000D01*
X86487000Y-80003750D01*
X86233000Y-80003750D01*
X86074250Y-79845000D01*
X85360000Y-79841928D01*
X85235518Y-79854188D01*
X85115820Y-79890498D01*
X85005506Y-79949463D01*
X84908815Y-80028815D01*
X84829463Y-80125506D01*
X84770498Y-80235820D01*
X84734188Y-80355518D01*
X84721928Y-80480000D01*
X83998072Y-80480000D01*
X83985812Y-80355518D01*
X83949502Y-80235820D01*
X83890537Y-80125506D01*
X83811185Y-80028815D01*
X83714494Y-79949463D01*
X83604180Y-79890498D01*
X83484482Y-79854188D01*
X83360000Y-79841928D01*
X82580000Y-79841928D01*
X82580000Y-79593072D01*
X82820000Y-79593072D01*
X82944482Y-79580812D01*
X83064180Y-79544502D01*
X83174494Y-79485537D01*
X83271185Y-79406185D01*
X83350537Y-79309494D01*
X83409502Y-79199180D01*
X83445812Y-79079482D01*
X83458072Y-78955000D01*
X83458072Y-77255000D01*
X83445812Y-77130518D01*
X83409502Y-77010820D01*
X83350537Y-76900506D01*
X83271185Y-76803815D01*
X83174494Y-76724463D01*
X83064180Y-76665498D01*
X82944482Y-76629188D01*
X82820000Y-76616928D01*
X80820000Y-76616928D01*
X80695518Y-76629188D01*
X80670000Y-76636929D01*
X80670000Y-73692279D01*
X80689920Y-73489117D01*
X80815000Y-73489117D01*
X80815000Y-73830883D01*
X80881675Y-74166081D01*
X81012463Y-74481831D01*
X81202337Y-74765998D01*
X81444002Y-75007663D01*
X81728169Y-75197537D01*
X82043919Y-75328325D01*
X82379117Y-75395000D01*
X82720883Y-75395000D01*
X83056081Y-75328325D01*
X83371831Y-75197537D01*
X83655998Y-75007663D01*
X83897663Y-74765998D01*
X84087537Y-74481831D01*
X84218325Y-74166081D01*
X84263079Y-73941086D01*
X87422815Y-73941086D01*
X87567075Y-74176000D01*
X88781000Y-74176000D01*
X88781000Y-72816783D01*
X88548974Y-72695642D01*
X88533211Y-72698291D01*
X88257081Y-72799314D01*
X88005965Y-72952267D01*
X87789514Y-73151271D01*
X87616046Y-73388679D01*
X87492227Y-73655367D01*
X87422815Y-73941086D01*
X84263079Y-73941086D01*
X84285000Y-73830883D01*
X84285000Y-73489117D01*
X84218325Y-73153919D01*
X84087537Y-72838169D01*
X83897663Y-72554002D01*
X83655998Y-72312337D01*
X83371831Y-72122463D01*
X83056081Y-71991675D01*
X82720883Y-71925000D01*
X82379117Y-71925000D01*
X82043919Y-71991675D01*
X81728169Y-72122463D01*
X81444002Y-72312337D01*
X81202337Y-72554002D01*
X81012463Y-72838169D01*
X80881675Y-73153919D01*
X80815000Y-73489117D01*
X80689920Y-73489117D01*
X80708909Y-73295455D01*
X80814780Y-72944792D01*
X80986744Y-72621375D01*
X81218254Y-72337516D01*
X81500486Y-72104035D01*
X81822695Y-71929817D01*
X82172614Y-71821498D01*
X82567443Y-71780000D01*
X134587721Y-71780000D01*
X134984545Y-71818909D01*
G36*
X113460424Y-121454974D02*
G01*
X113592453Y-121525546D01*
X113707978Y-121560589D01*
X113687298Y-121592803D01*
X113615592Y-121795999D01*
X113742498Y-121963000D01*
X115333000Y-121963000D01*
X115333000Y-121943000D01*
X115587000Y-121943000D01*
X115587000Y-121963000D01*
X115607000Y-121963000D01*
X115607000Y-122134100D01*
X113421400Y-122134100D01*
X113421400Y-121422948D01*
X113460424Y-121454974D01*
X113460424Y-121454974D01*
G37*
X113460424Y-121454974D02*
X113592453Y-121525546D01*
X113707978Y-121560589D01*
X113687298Y-121592803D01*
X113615592Y-121795999D01*
X113742498Y-121963000D01*
X115333000Y-121963000D01*
X115333000Y-121943000D01*
X115587000Y-121943000D01*
X115587000Y-121963000D01*
X115607000Y-121963000D01*
X115607000Y-122134100D01*
X113421400Y-122134100D01*
X113421400Y-121422948D01*
X113460424Y-121454974D01*
G36*
X121404700Y-110351402D02*
G01*
X121428499Y-110380401D01*
X121544224Y-110475374D01*
X121676253Y-110545946D01*
X121819514Y-110589403D01*
X121931167Y-110600400D01*
X121931176Y-110600400D01*
X121968499Y-110604076D01*
X122005822Y-110600400D01*
X126368199Y-110600400D01*
X126521129Y-110753330D01*
X125045750Y-110755000D01*
X124887000Y-110913750D01*
X124887000Y-114263000D01*
X128236250Y-114263000D01*
X128395000Y-114104250D01*
X128396670Y-112628872D01*
X129478801Y-113711003D01*
X129502599Y-113740001D01*
X129531597Y-113763799D01*
X129618323Y-113834974D01*
X129750353Y-113905546D01*
X129893614Y-113949003D01*
X130005267Y-113960000D01*
X130005277Y-113960000D01*
X130042600Y-113963676D01*
X130079923Y-113960000D01*
X131702333Y-113960000D01*
X131652741Y-114052780D01*
X131590700Y-114257303D01*
X131569751Y-114470000D01*
X131590700Y-114682697D01*
X131652741Y-114887220D01*
X131753491Y-115075710D01*
X131777529Y-115105000D01*
X131753491Y-115134290D01*
X131652741Y-115322780D01*
X131590700Y-115527303D01*
X131569751Y-115740000D01*
X131590700Y-115952697D01*
X131652741Y-116157220D01*
X131753491Y-116345710D01*
X131777529Y-116375000D01*
X131753491Y-116404290D01*
X131652741Y-116592780D01*
X131590700Y-116797303D01*
X131569751Y-117010000D01*
X131590700Y-117222697D01*
X131652741Y-117427220D01*
X131753491Y-117615710D01*
X131777529Y-117645000D01*
X131753491Y-117674290D01*
X131687173Y-117798362D01*
X131681674Y-117792863D01*
X131512156Y-117679595D01*
X131323798Y-117601574D01*
X131123839Y-117561800D01*
X130919961Y-117561800D01*
X130720002Y-117601574D01*
X130531644Y-117679595D01*
X130362126Y-117792863D01*
X130217963Y-117937026D01*
X130104695Y-118106544D01*
X130026674Y-118294902D01*
X129986900Y-118494861D01*
X129986900Y-118698739D01*
X130026674Y-118898698D01*
X130104695Y-119087056D01*
X130217963Y-119256574D01*
X130362126Y-119400737D01*
X130531644Y-119514005D01*
X130720002Y-119592026D01*
X130919961Y-119631800D01*
X130982098Y-119631800D01*
X131173323Y-119823026D01*
X131179154Y-119842247D01*
X131249726Y-119974276D01*
X131320078Y-120060000D01*
X120068900Y-120060000D01*
X120068900Y-117390000D01*
X121121928Y-117390000D01*
X121134188Y-117514482D01*
X121170498Y-117634180D01*
X121229463Y-117744494D01*
X121308815Y-117841185D01*
X121405506Y-117920537D01*
X121515820Y-117979502D01*
X121635518Y-118015812D01*
X121760000Y-118028072D01*
X124474250Y-118025000D01*
X124633000Y-117866250D01*
X124633000Y-114517000D01*
X124887000Y-114517000D01*
X124887000Y-117866250D01*
X125045750Y-118025000D01*
X127760000Y-118028072D01*
X127884482Y-118015812D01*
X128004180Y-117979502D01*
X128114494Y-117920537D01*
X128211185Y-117841185D01*
X128290537Y-117744494D01*
X128349502Y-117634180D01*
X128385812Y-117514482D01*
X128398072Y-117390000D01*
X128395000Y-114675750D01*
X128236250Y-114517000D01*
X124887000Y-114517000D01*
X124633000Y-114517000D01*
X121283750Y-114517000D01*
X121125000Y-114675750D01*
X121121928Y-117390000D01*
X120068900Y-117390000D01*
X120068900Y-111390000D01*
X121121928Y-111390000D01*
X121125000Y-114104250D01*
X121283750Y-114263000D01*
X124633000Y-114263000D01*
X124633000Y-110913750D01*
X124474250Y-110755000D01*
X121760000Y-110751928D01*
X121635518Y-110764188D01*
X121515820Y-110800498D01*
X121405506Y-110859463D01*
X121308815Y-110938815D01*
X121229463Y-111035506D01*
X121170498Y-111145820D01*
X121134188Y-111265518D01*
X121121928Y-111390000D01*
X120068900Y-111390000D01*
X120068900Y-109015601D01*
X121404700Y-110351402D01*
X121404700Y-110351402D01*
G37*
X121404700Y-110351402D02*
X121428499Y-110380401D01*
X121544224Y-110475374D01*
X121676253Y-110545946D01*
X121819514Y-110589403D01*
X121931167Y-110600400D01*
X121931176Y-110600400D01*
X121968499Y-110604076D01*
X122005822Y-110600400D01*
X126368199Y-110600400D01*
X126521129Y-110753330D01*
X125045750Y-110755000D01*
X124887000Y-110913750D01*
X124887000Y-114263000D01*
X128236250Y-114263000D01*
X128395000Y-114104250D01*
X128396670Y-112628872D01*
X129478801Y-113711003D01*
X129502599Y-113740001D01*
X129531597Y-113763799D01*
X129618323Y-113834974D01*
X129750353Y-113905546D01*
X129893614Y-113949003D01*
X130005267Y-113960000D01*
X130005277Y-113960000D01*
X130042600Y-113963676D01*
X130079923Y-113960000D01*
X131702333Y-113960000D01*
X131652741Y-114052780D01*
X131590700Y-114257303D01*
X131569751Y-114470000D01*
X131590700Y-114682697D01*
X131652741Y-114887220D01*
X131753491Y-115075710D01*
X131777529Y-115105000D01*
X131753491Y-115134290D01*
X131652741Y-115322780D01*
X131590700Y-115527303D01*
X131569751Y-115740000D01*
X131590700Y-115952697D01*
X131652741Y-116157220D01*
X131753491Y-116345710D01*
X131777529Y-116375000D01*
X131753491Y-116404290D01*
X131652741Y-116592780D01*
X131590700Y-116797303D01*
X131569751Y-117010000D01*
X131590700Y-117222697D01*
X131652741Y-117427220D01*
X131753491Y-117615710D01*
X131777529Y-117645000D01*
X131753491Y-117674290D01*
X131687173Y-117798362D01*
X131681674Y-117792863D01*
X131512156Y-117679595D01*
X131323798Y-117601574D01*
X131123839Y-117561800D01*
X130919961Y-117561800D01*
X130720002Y-117601574D01*
X130531644Y-117679595D01*
X130362126Y-117792863D01*
X130217963Y-117937026D01*
X130104695Y-118106544D01*
X130026674Y-118294902D01*
X129986900Y-118494861D01*
X129986900Y-118698739D01*
X130026674Y-118898698D01*
X130104695Y-119087056D01*
X130217963Y-119256574D01*
X130362126Y-119400737D01*
X130531644Y-119514005D01*
X130720002Y-119592026D01*
X130919961Y-119631800D01*
X130982098Y-119631800D01*
X131173323Y-119823026D01*
X131179154Y-119842247D01*
X131249726Y-119974276D01*
X131320078Y-120060000D01*
X120068900Y-120060000D01*
X120068900Y-117390000D01*
X121121928Y-117390000D01*
X121134188Y-117514482D01*
X121170498Y-117634180D01*
X121229463Y-117744494D01*
X121308815Y-117841185D01*
X121405506Y-117920537D01*
X121515820Y-117979502D01*
X121635518Y-118015812D01*
X121760000Y-118028072D01*
X124474250Y-118025000D01*
X124633000Y-117866250D01*
X124633000Y-114517000D01*
X124887000Y-114517000D01*
X124887000Y-117866250D01*
X125045750Y-118025000D01*
X127760000Y-118028072D01*
X127884482Y-118015812D01*
X128004180Y-117979502D01*
X128114494Y-117920537D01*
X128211185Y-117841185D01*
X128290537Y-117744494D01*
X128349502Y-117634180D01*
X128385812Y-117514482D01*
X128398072Y-117390000D01*
X128395000Y-114675750D01*
X128236250Y-114517000D01*
X124887000Y-114517000D01*
X124633000Y-114517000D01*
X121283750Y-114517000D01*
X121125000Y-114675750D01*
X121121928Y-117390000D01*
X120068900Y-117390000D01*
X120068900Y-111390000D01*
X121121928Y-111390000D01*
X121125000Y-114104250D01*
X121283750Y-114263000D01*
X124633000Y-114263000D01*
X124633000Y-110913750D01*
X124474250Y-110755000D01*
X121760000Y-110751928D01*
X121635518Y-110764188D01*
X121515820Y-110800498D01*
X121405506Y-110859463D01*
X121308815Y-110938815D01*
X121229463Y-111035506D01*
X121170498Y-111145820D01*
X121134188Y-111265518D01*
X121121928Y-111390000D01*
X120068900Y-111390000D01*
X120068900Y-109015601D01*
X121404700Y-110351402D01*
G36*
X93837000Y-110458250D02*
G01*
X93995750Y-110617000D01*
X95345000Y-110617000D01*
X95345000Y-110597000D01*
X95599000Y-110597000D01*
X95599000Y-110617000D01*
X95619000Y-110617000D01*
X95619000Y-110871000D01*
X95599000Y-110871000D01*
X95599000Y-112020250D01*
X95757750Y-112179000D01*
X96472000Y-112182072D01*
X96596482Y-112169812D01*
X96716180Y-112133502D01*
X96826494Y-112074537D01*
X96923185Y-111995185D01*
X97002537Y-111898494D01*
X97014637Y-111875857D01*
X97053463Y-111948494D01*
X97132815Y-112045185D01*
X97229506Y-112124537D01*
X97339820Y-112183502D01*
X97459518Y-112219812D01*
X97584000Y-112232072D01*
X99584000Y-112232072D01*
X99708482Y-112219812D01*
X99828180Y-112183502D01*
X99938494Y-112124537D01*
X100035185Y-112045185D01*
X100114537Y-111948494D01*
X100173502Y-111838180D01*
X100209812Y-111718482D01*
X100222072Y-111594000D01*
X100222072Y-111524900D01*
X100392539Y-111524900D01*
X100592498Y-111485126D01*
X100780856Y-111407105D01*
X100945928Y-111296808D01*
X100945928Y-111594000D01*
X100958188Y-111718482D01*
X100994498Y-111838180D01*
X101053463Y-111948494D01*
X101132815Y-112045185D01*
X101229506Y-112124537D01*
X101278026Y-112150472D01*
X97753799Y-115674700D01*
X97462333Y-115674700D01*
X97425000Y-115671023D01*
X97387667Y-115674700D01*
X97276014Y-115685697D01*
X97132753Y-115729154D01*
X97000724Y-115799726D01*
X96884999Y-115894699D01*
X96790026Y-116010424D01*
X96719454Y-116142453D01*
X96707101Y-116183176D01*
X96620506Y-116229463D01*
X96523815Y-116308815D01*
X96448982Y-116400000D01*
X93829018Y-116400000D01*
X93754185Y-116308815D01*
X93657494Y-116229463D01*
X93547180Y-116170498D01*
X93427482Y-116134188D01*
X93303000Y-116121928D01*
X92612800Y-116121928D01*
X92612800Y-112287433D01*
X92616477Y-112250100D01*
X92608219Y-112166252D01*
X92716180Y-112133502D01*
X92826494Y-112074537D01*
X92923185Y-111995185D01*
X93002537Y-111898494D01*
X93061502Y-111788180D01*
X93097812Y-111668482D01*
X93110072Y-111544000D01*
X93833928Y-111544000D01*
X93846188Y-111668482D01*
X93882498Y-111788180D01*
X93941463Y-111898494D01*
X94020815Y-111995185D01*
X94117506Y-112074537D01*
X94227820Y-112133502D01*
X94347518Y-112169812D01*
X94472000Y-112182072D01*
X95186250Y-112179000D01*
X95345000Y-112020250D01*
X95345000Y-110871000D01*
X93995750Y-110871000D01*
X93837000Y-111029750D01*
X93833928Y-111544000D01*
X93110072Y-111544000D01*
X93110072Y-110328700D01*
X93836226Y-110328700D01*
X93837000Y-110458250D01*
X93837000Y-110458250D01*
G37*
X93837000Y-110458250D02*
X93995750Y-110617000D01*
X95345000Y-110617000D01*
X95345000Y-110597000D01*
X95599000Y-110597000D01*
X95599000Y-110617000D01*
X95619000Y-110617000D01*
X95619000Y-110871000D01*
X95599000Y-110871000D01*
X95599000Y-112020250D01*
X95757750Y-112179000D01*
X96472000Y-112182072D01*
X96596482Y-112169812D01*
X96716180Y-112133502D01*
X96826494Y-112074537D01*
X96923185Y-111995185D01*
X97002537Y-111898494D01*
X97014637Y-111875857D01*
X97053463Y-111948494D01*
X97132815Y-112045185D01*
X97229506Y-112124537D01*
X97339820Y-112183502D01*
X97459518Y-112219812D01*
X97584000Y-112232072D01*
X99584000Y-112232072D01*
X99708482Y-112219812D01*
X99828180Y-112183502D01*
X99938494Y-112124537D01*
X100035185Y-112045185D01*
X100114537Y-111948494D01*
X100173502Y-111838180D01*
X100209812Y-111718482D01*
X100222072Y-111594000D01*
X100222072Y-111524900D01*
X100392539Y-111524900D01*
X100592498Y-111485126D01*
X100780856Y-111407105D01*
X100945928Y-111296808D01*
X100945928Y-111594000D01*
X100958188Y-111718482D01*
X100994498Y-111838180D01*
X101053463Y-111948494D01*
X101132815Y-112045185D01*
X101229506Y-112124537D01*
X101278026Y-112150472D01*
X97753799Y-115674700D01*
X97462333Y-115674700D01*
X97425000Y-115671023D01*
X97387667Y-115674700D01*
X97276014Y-115685697D01*
X97132753Y-115729154D01*
X97000724Y-115799726D01*
X96884999Y-115894699D01*
X96790026Y-116010424D01*
X96719454Y-116142453D01*
X96707101Y-116183176D01*
X96620506Y-116229463D01*
X96523815Y-116308815D01*
X96448982Y-116400000D01*
X93829018Y-116400000D01*
X93754185Y-116308815D01*
X93657494Y-116229463D01*
X93547180Y-116170498D01*
X93427482Y-116134188D01*
X93303000Y-116121928D01*
X92612800Y-116121928D01*
X92612800Y-112287433D01*
X92616477Y-112250100D01*
X92608219Y-112166252D01*
X92716180Y-112133502D01*
X92826494Y-112074537D01*
X92923185Y-111995185D01*
X93002537Y-111898494D01*
X93061502Y-111788180D01*
X93097812Y-111668482D01*
X93110072Y-111544000D01*
X93833928Y-111544000D01*
X93846188Y-111668482D01*
X93882498Y-111788180D01*
X93941463Y-111898494D01*
X94020815Y-111995185D01*
X94117506Y-112074537D01*
X94227820Y-112133502D01*
X94347518Y-112169812D01*
X94472000Y-112182072D01*
X95186250Y-112179000D01*
X95345000Y-112020250D01*
X95345000Y-110871000D01*
X93995750Y-110871000D01*
X93837000Y-111029750D01*
X93833928Y-111544000D01*
X93110072Y-111544000D01*
X93110072Y-110328700D01*
X93836226Y-110328700D01*
X93837000Y-110458250D01*
G36*
X100250674Y-96484902D02*
G01*
X100210900Y-96684861D01*
X100210900Y-96888739D01*
X100250674Y-97088698D01*
X100328695Y-97277056D01*
X100441963Y-97446574D01*
X100586126Y-97590737D01*
X100755644Y-97704005D01*
X100840000Y-97738947D01*
X100840001Y-98841928D01*
X100600000Y-98841928D01*
X100475518Y-98854188D01*
X100355820Y-98890498D01*
X100245506Y-98949463D01*
X100148815Y-99028815D01*
X100069463Y-99125506D01*
X100010498Y-99235820D01*
X99974188Y-99355518D01*
X99961928Y-99480000D01*
X99961928Y-101180000D01*
X99974188Y-101304482D01*
X100010498Y-101424180D01*
X100069463Y-101534494D01*
X100148815Y-101631185D01*
X100245506Y-101710537D01*
X100355820Y-101769502D01*
X100475518Y-101805812D01*
X100600000Y-101818072D01*
X102205501Y-101818072D01*
X102205501Y-104315397D01*
X101743899Y-104777000D01*
X101467072Y-104777000D01*
X101467072Y-104687000D01*
X101454812Y-104562518D01*
X101418502Y-104442820D01*
X101359537Y-104332506D01*
X101280185Y-104235815D01*
X101183494Y-104156463D01*
X101073180Y-104097498D01*
X100953482Y-104061188D01*
X100829000Y-104048928D01*
X99929000Y-104048928D01*
X99828725Y-104058804D01*
X99787256Y-104031095D01*
X99598898Y-103953074D01*
X99398939Y-103913300D01*
X99195061Y-103913300D01*
X98995102Y-103953074D01*
X98806744Y-104031095D01*
X98637226Y-104144363D01*
X98493063Y-104288526D01*
X98379795Y-104458044D01*
X98301774Y-104646402D01*
X98262000Y-104846361D01*
X98262000Y-105050239D01*
X98301774Y-105250198D01*
X98379795Y-105438556D01*
X98493063Y-105608074D01*
X98537000Y-105652011D01*
X98537000Y-106190577D01*
X98533324Y-106227900D01*
X98537000Y-106265222D01*
X98537000Y-106265232D01*
X98547997Y-106376885D01*
X98570199Y-106450075D01*
X98591454Y-106520146D01*
X98662026Y-106652176D01*
X98672551Y-106665000D01*
X98756999Y-106767901D01*
X98786002Y-106791703D01*
X98836599Y-106842300D01*
X97875171Y-106842300D01*
X97880185Y-106838185D01*
X97959537Y-106741494D01*
X98018502Y-106631180D01*
X98054812Y-106511482D01*
X98067072Y-106387000D01*
X98064000Y-105822750D01*
X97905250Y-105664000D01*
X97106000Y-105664000D01*
X97106000Y-105684000D01*
X96852000Y-105684000D01*
X96852000Y-105664000D01*
X96052750Y-105664000D01*
X95894000Y-105822750D01*
X95890928Y-106387000D01*
X95903188Y-106511482D01*
X95939498Y-106631180D01*
X95998463Y-106741494D01*
X96077815Y-106838185D01*
X96082829Y-106842300D01*
X92393802Y-106842300D01*
X92137662Y-106586160D01*
X92156100Y-106587976D01*
X92193422Y-106584300D01*
X92193433Y-106584300D01*
X92305086Y-106573303D01*
X92448347Y-106529846D01*
X92580376Y-106459274D01*
X92696101Y-106364301D01*
X92719904Y-106335297D01*
X94368201Y-104687000D01*
X95890928Y-104687000D01*
X95894000Y-105251250D01*
X96052750Y-105410000D01*
X96852000Y-105410000D01*
X96852000Y-104210750D01*
X97106000Y-104210750D01*
X97106000Y-105410000D01*
X97905250Y-105410000D01*
X98064000Y-105251250D01*
X98067072Y-104687000D01*
X98054812Y-104562518D01*
X98018502Y-104442820D01*
X97959537Y-104332506D01*
X97880185Y-104235815D01*
X97783494Y-104156463D01*
X97673180Y-104097498D01*
X97553482Y-104061188D01*
X97429000Y-104048928D01*
X97264750Y-104052000D01*
X97106000Y-104210750D01*
X96852000Y-104210750D01*
X96693250Y-104052000D01*
X96529000Y-104048928D01*
X96404518Y-104061188D01*
X96284820Y-104097498D01*
X96174506Y-104156463D01*
X96077815Y-104235815D01*
X95998463Y-104332506D01*
X95939498Y-104442820D01*
X95903188Y-104562518D01*
X95890928Y-104687000D01*
X94368201Y-104687000D01*
X94794304Y-104260898D01*
X94823301Y-104237101D01*
X94871310Y-104178602D01*
X94918274Y-104121377D01*
X94988846Y-103989347D01*
X95003507Y-103941014D01*
X95032303Y-103846086D01*
X95043300Y-103734433D01*
X95043300Y-103734424D01*
X95046976Y-103697101D01*
X95043300Y-103659778D01*
X95043300Y-100579135D01*
X95059747Y-100574146D01*
X95191776Y-100503574D01*
X95307501Y-100408601D01*
X95331304Y-100379597D01*
X95961928Y-99748973D01*
X95961928Y-101180000D01*
X95974188Y-101304482D01*
X96010498Y-101424180D01*
X96069463Y-101534494D01*
X96148815Y-101631185D01*
X96245506Y-101710537D01*
X96355820Y-101769502D01*
X96475518Y-101805812D01*
X96600000Y-101818072D01*
X98600000Y-101818072D01*
X98724482Y-101805812D01*
X98844180Y-101769502D01*
X98954494Y-101710537D01*
X99051185Y-101631185D01*
X99130537Y-101534494D01*
X99189502Y-101424180D01*
X99225812Y-101304482D01*
X99238072Y-101180000D01*
X99238072Y-99480000D01*
X99225812Y-99355518D01*
X99189502Y-99235820D01*
X99130537Y-99125506D01*
X99051185Y-99028815D01*
X98954494Y-98949463D01*
X98844180Y-98890498D01*
X98724482Y-98854188D01*
X98702842Y-98852057D01*
X98774526Y-98678998D01*
X98814300Y-98479039D01*
X98814300Y-98275161D01*
X98774526Y-98075202D01*
X98696505Y-97886844D01*
X98583237Y-97717326D01*
X98439074Y-97573163D01*
X98269556Y-97459895D01*
X98256440Y-97454462D01*
X99270721Y-96440181D01*
X99361000Y-96449072D01*
X100161000Y-96449072D01*
X100269960Y-96438341D01*
X100250674Y-96484902D01*
X100250674Y-96484902D01*
G37*
X100250674Y-96484902D02*
X100210900Y-96684861D01*
X100210900Y-96888739D01*
X100250674Y-97088698D01*
X100328695Y-97277056D01*
X100441963Y-97446574D01*
X100586126Y-97590737D01*
X100755644Y-97704005D01*
X100840000Y-97738947D01*
X100840001Y-98841928D01*
X100600000Y-98841928D01*
X100475518Y-98854188D01*
X100355820Y-98890498D01*
X100245506Y-98949463D01*
X100148815Y-99028815D01*
X100069463Y-99125506D01*
X100010498Y-99235820D01*
X99974188Y-99355518D01*
X99961928Y-99480000D01*
X99961928Y-101180000D01*
X99974188Y-101304482D01*
X100010498Y-101424180D01*
X100069463Y-101534494D01*
X100148815Y-101631185D01*
X100245506Y-101710537D01*
X100355820Y-101769502D01*
X100475518Y-101805812D01*
X100600000Y-101818072D01*
X102205501Y-101818072D01*
X102205501Y-104315397D01*
X101743899Y-104777000D01*
X101467072Y-104777000D01*
X101467072Y-104687000D01*
X101454812Y-104562518D01*
X101418502Y-104442820D01*
X101359537Y-104332506D01*
X101280185Y-104235815D01*
X101183494Y-104156463D01*
X101073180Y-104097498D01*
X100953482Y-104061188D01*
X100829000Y-104048928D01*
X99929000Y-104048928D01*
X99828725Y-104058804D01*
X99787256Y-104031095D01*
X99598898Y-103953074D01*
X99398939Y-103913300D01*
X99195061Y-103913300D01*
X98995102Y-103953074D01*
X98806744Y-104031095D01*
X98637226Y-104144363D01*
X98493063Y-104288526D01*
X98379795Y-104458044D01*
X98301774Y-104646402D01*
X98262000Y-104846361D01*
X98262000Y-105050239D01*
X98301774Y-105250198D01*
X98379795Y-105438556D01*
X98493063Y-105608074D01*
X98537000Y-105652011D01*
X98537000Y-106190577D01*
X98533324Y-106227900D01*
X98537000Y-106265222D01*
X98537000Y-106265232D01*
X98547997Y-106376885D01*
X98570199Y-106450075D01*
X98591454Y-106520146D01*
X98662026Y-106652176D01*
X98672551Y-106665000D01*
X98756999Y-106767901D01*
X98786002Y-106791703D01*
X98836599Y-106842300D01*
X97875171Y-106842300D01*
X97880185Y-106838185D01*
X97959537Y-106741494D01*
X98018502Y-106631180D01*
X98054812Y-106511482D01*
X98067072Y-106387000D01*
X98064000Y-105822750D01*
X97905250Y-105664000D01*
X97106000Y-105664000D01*
X97106000Y-105684000D01*
X96852000Y-105684000D01*
X96852000Y-105664000D01*
X96052750Y-105664000D01*
X95894000Y-105822750D01*
X95890928Y-106387000D01*
X95903188Y-106511482D01*
X95939498Y-106631180D01*
X95998463Y-106741494D01*
X96077815Y-106838185D01*
X96082829Y-106842300D01*
X92393802Y-106842300D01*
X92137662Y-106586160D01*
X92156100Y-106587976D01*
X92193422Y-106584300D01*
X92193433Y-106584300D01*
X92305086Y-106573303D01*
X92448347Y-106529846D01*
X92580376Y-106459274D01*
X92696101Y-106364301D01*
X92719904Y-106335297D01*
X94368201Y-104687000D01*
X95890928Y-104687000D01*
X95894000Y-105251250D01*
X96052750Y-105410000D01*
X96852000Y-105410000D01*
X96852000Y-104210750D01*
X97106000Y-104210750D01*
X97106000Y-105410000D01*
X97905250Y-105410000D01*
X98064000Y-105251250D01*
X98067072Y-104687000D01*
X98054812Y-104562518D01*
X98018502Y-104442820D01*
X97959537Y-104332506D01*
X97880185Y-104235815D01*
X97783494Y-104156463D01*
X97673180Y-104097498D01*
X97553482Y-104061188D01*
X97429000Y-104048928D01*
X97264750Y-104052000D01*
X97106000Y-104210750D01*
X96852000Y-104210750D01*
X96693250Y-104052000D01*
X96529000Y-104048928D01*
X96404518Y-104061188D01*
X96284820Y-104097498D01*
X96174506Y-104156463D01*
X96077815Y-104235815D01*
X95998463Y-104332506D01*
X95939498Y-104442820D01*
X95903188Y-104562518D01*
X95890928Y-104687000D01*
X94368201Y-104687000D01*
X94794304Y-104260898D01*
X94823301Y-104237101D01*
X94871310Y-104178602D01*
X94918274Y-104121377D01*
X94988846Y-103989347D01*
X95003507Y-103941014D01*
X95032303Y-103846086D01*
X95043300Y-103734433D01*
X95043300Y-103734424D01*
X95046976Y-103697101D01*
X95043300Y-103659778D01*
X95043300Y-100579135D01*
X95059747Y-100574146D01*
X95191776Y-100503574D01*
X95307501Y-100408601D01*
X95331304Y-100379597D01*
X95961928Y-99748973D01*
X95961928Y-101180000D01*
X95974188Y-101304482D01*
X96010498Y-101424180D01*
X96069463Y-101534494D01*
X96148815Y-101631185D01*
X96245506Y-101710537D01*
X96355820Y-101769502D01*
X96475518Y-101805812D01*
X96600000Y-101818072D01*
X98600000Y-101818072D01*
X98724482Y-101805812D01*
X98844180Y-101769502D01*
X98954494Y-101710537D01*
X99051185Y-101631185D01*
X99130537Y-101534494D01*
X99189502Y-101424180D01*
X99225812Y-101304482D01*
X99238072Y-101180000D01*
X99238072Y-99480000D01*
X99225812Y-99355518D01*
X99189502Y-99235820D01*
X99130537Y-99125506D01*
X99051185Y-99028815D01*
X98954494Y-98949463D01*
X98844180Y-98890498D01*
X98724482Y-98854188D01*
X98702842Y-98852057D01*
X98774526Y-98678998D01*
X98814300Y-98479039D01*
X98814300Y-98275161D01*
X98774526Y-98075202D01*
X98696505Y-97886844D01*
X98583237Y-97717326D01*
X98439074Y-97573163D01*
X98269556Y-97459895D01*
X98256440Y-97454462D01*
X99270721Y-96440181D01*
X99361000Y-96449072D01*
X100161000Y-96449072D01*
X100269960Y-96438341D01*
X100250674Y-96484902D01*
G36*
X110077000Y-103378000D02*
G01*
X110097000Y-103378000D01*
X110097000Y-103632000D01*
X110077000Y-103632000D01*
X110077000Y-104781250D01*
X110235750Y-104940000D01*
X110688701Y-104941948D01*
X110688701Y-106101392D01*
X110659376Y-106077326D01*
X110527346Y-106006754D01*
X110384086Y-105963298D01*
X110235100Y-105948624D01*
X110086114Y-105963298D01*
X109942853Y-106006754D01*
X109837379Y-106063132D01*
X109810824Y-106077326D01*
X109695099Y-106172299D01*
X109671296Y-106201303D01*
X109480309Y-106392290D01*
X101466551Y-106392290D01*
X101467072Y-106387000D01*
X101467072Y-106297000D01*
X102021378Y-106297000D01*
X102058700Y-106300676D01*
X102096022Y-106297000D01*
X102096033Y-106297000D01*
X102207686Y-106286003D01*
X102350947Y-106242546D01*
X102482976Y-106171974D01*
X102598701Y-106077001D01*
X102622503Y-106047998D01*
X103280102Y-105390400D01*
X107069978Y-105390400D01*
X107107300Y-105394076D01*
X107144622Y-105390400D01*
X107144633Y-105390400D01*
X107256286Y-105379403D01*
X107399547Y-105335946D01*
X107531576Y-105265374D01*
X107647301Y-105170401D01*
X107671104Y-105141398D01*
X108337881Y-104474621D01*
X108360498Y-104549180D01*
X108419463Y-104659494D01*
X108498815Y-104756185D01*
X108595506Y-104835537D01*
X108705820Y-104894502D01*
X108825518Y-104930812D01*
X108950000Y-104943072D01*
X109664250Y-104940000D01*
X109823000Y-104781250D01*
X109823000Y-103632000D01*
X109803000Y-103632000D01*
X109803000Y-103378000D01*
X109823000Y-103378000D01*
X109823000Y-103358000D01*
X110077000Y-103358000D01*
X110077000Y-103378000D01*
X110077000Y-103378000D01*
G37*
X110077000Y-103378000D02*
X110097000Y-103378000D01*
X110097000Y-103632000D01*
X110077000Y-103632000D01*
X110077000Y-104781250D01*
X110235750Y-104940000D01*
X110688701Y-104941948D01*
X110688701Y-106101392D01*
X110659376Y-106077326D01*
X110527346Y-106006754D01*
X110384086Y-105963298D01*
X110235100Y-105948624D01*
X110086114Y-105963298D01*
X109942853Y-106006754D01*
X109837379Y-106063132D01*
X109810824Y-106077326D01*
X109695099Y-106172299D01*
X109671296Y-106201303D01*
X109480309Y-106392290D01*
X101466551Y-106392290D01*
X101467072Y-106387000D01*
X101467072Y-106297000D01*
X102021378Y-106297000D01*
X102058700Y-106300676D01*
X102096022Y-106297000D01*
X102096033Y-106297000D01*
X102207686Y-106286003D01*
X102350947Y-106242546D01*
X102482976Y-106171974D01*
X102598701Y-106077001D01*
X102622503Y-106047998D01*
X103280102Y-105390400D01*
X107069978Y-105390400D01*
X107107300Y-105394076D01*
X107144622Y-105390400D01*
X107144633Y-105390400D01*
X107256286Y-105379403D01*
X107399547Y-105335946D01*
X107531576Y-105265374D01*
X107647301Y-105170401D01*
X107671104Y-105141398D01*
X108337881Y-104474621D01*
X108360498Y-104549180D01*
X108419463Y-104659494D01*
X108498815Y-104756185D01*
X108595506Y-104835537D01*
X108705820Y-104894502D01*
X108825518Y-104930812D01*
X108950000Y-104943072D01*
X109664250Y-104940000D01*
X109823000Y-104781250D01*
X109823000Y-103632000D01*
X109803000Y-103632000D01*
X109803000Y-103378000D01*
X109823000Y-103378000D01*
X109823000Y-103358000D01*
X110077000Y-103358000D01*
X110077000Y-103378000D01*
G36*
X90028000Y-102347000D02*
G01*
X91074000Y-102347000D01*
X91074000Y-102327000D01*
X91328000Y-102327000D01*
X91328000Y-102347000D01*
X91348000Y-102347000D01*
X91348000Y-102601000D01*
X91328000Y-102601000D01*
X91328000Y-103647000D01*
X91348000Y-103647000D01*
X91348000Y-103901000D01*
X91328000Y-103901000D01*
X91328000Y-103921000D01*
X91074000Y-103921000D01*
X91074000Y-103901000D01*
X90028000Y-103901000D01*
X90028000Y-103921000D01*
X89774000Y-103921000D01*
X89774000Y-103901000D01*
X89754000Y-103901000D01*
X89754000Y-103647000D01*
X89774000Y-103647000D01*
X89774000Y-103124000D01*
X89912928Y-103124000D01*
X89916000Y-103488250D01*
X90028000Y-103600250D01*
X90028000Y-103647000D01*
X90074750Y-103647000D01*
X90186750Y-103759000D01*
X90551000Y-103762072D01*
X90915250Y-103759000D01*
X91027250Y-103647000D01*
X91074000Y-103647000D01*
X91074000Y-103600250D01*
X91186000Y-103488250D01*
X91189072Y-103124000D01*
X91186000Y-102759750D01*
X91074000Y-102647750D01*
X91074000Y-102601000D01*
X91027250Y-102601000D01*
X90915250Y-102489000D01*
X90551000Y-102485928D01*
X90186750Y-102489000D01*
X90074750Y-102601000D01*
X90028000Y-102601000D01*
X90028000Y-102647750D01*
X89916000Y-102759750D01*
X89912928Y-103124000D01*
X89774000Y-103124000D01*
X89774000Y-102601000D01*
X89754000Y-102601000D01*
X89754000Y-102347000D01*
X89774000Y-102347000D01*
X89774000Y-102327000D01*
X90028000Y-102327000D01*
X90028000Y-102347000D01*
X90028000Y-102347000D01*
G37*
X90028000Y-102347000D02*
X91074000Y-102347000D01*
X91074000Y-102327000D01*
X91328000Y-102327000D01*
X91328000Y-102347000D01*
X91348000Y-102347000D01*
X91348000Y-102601000D01*
X91328000Y-102601000D01*
X91328000Y-103647000D01*
X91348000Y-103647000D01*
X91348000Y-103901000D01*
X91328000Y-103901000D01*
X91328000Y-103921000D01*
X91074000Y-103921000D01*
X91074000Y-103901000D01*
X90028000Y-103901000D01*
X90028000Y-103921000D01*
X89774000Y-103921000D01*
X89774000Y-103901000D01*
X89754000Y-103901000D01*
X89754000Y-103647000D01*
X89774000Y-103647000D01*
X89774000Y-103124000D01*
X89912928Y-103124000D01*
X89916000Y-103488250D01*
X90028000Y-103600250D01*
X90028000Y-103647000D01*
X90074750Y-103647000D01*
X90186750Y-103759000D01*
X90551000Y-103762072D01*
X90915250Y-103759000D01*
X91027250Y-103647000D01*
X91074000Y-103647000D01*
X91074000Y-103600250D01*
X91186000Y-103488250D01*
X91189072Y-103124000D01*
X91186000Y-102759750D01*
X91074000Y-102647750D01*
X91074000Y-102601000D01*
X91027250Y-102601000D01*
X90915250Y-102489000D01*
X90551000Y-102485928D01*
X90186750Y-102489000D01*
X90074750Y-102601000D01*
X90028000Y-102601000D01*
X90028000Y-102647750D01*
X89916000Y-102759750D01*
X89912928Y-103124000D01*
X89774000Y-103124000D01*
X89774000Y-102601000D01*
X89754000Y-102601000D01*
X89754000Y-102347000D01*
X89774000Y-102347000D01*
X89774000Y-102327000D01*
X90028000Y-102327000D01*
X90028000Y-102347000D01*
G36*
X107334463Y-96165494D02*
G01*
X107413815Y-96262185D01*
X107510506Y-96341537D01*
X107620820Y-96400502D01*
X107740518Y-96436812D01*
X107865000Y-96449072D01*
X108230401Y-96449072D01*
X108230401Y-96979297D01*
X107220203Y-97989496D01*
X107191199Y-98013299D01*
X107140397Y-98075202D01*
X107096226Y-98129024D01*
X107029959Y-98253000D01*
X107025654Y-98261054D01*
X106982197Y-98404315D01*
X106971200Y-98515968D01*
X106971200Y-98515978D01*
X106967524Y-98553300D01*
X106971200Y-98590623D01*
X106971200Y-98894016D01*
X106950000Y-98891928D01*
X106235750Y-98895000D01*
X106077000Y-99053750D01*
X106077000Y-100203000D01*
X106097000Y-100203000D01*
X106097000Y-100457000D01*
X106077000Y-100457000D01*
X106077000Y-100477000D01*
X105823000Y-100477000D01*
X105823000Y-100457000D01*
X104473750Y-100457000D01*
X104315000Y-100615750D01*
X104311928Y-101130000D01*
X104324188Y-101254482D01*
X104360498Y-101374180D01*
X104419463Y-101484494D01*
X104498815Y-101581185D01*
X104595506Y-101660537D01*
X104705820Y-101719502D01*
X104825518Y-101755812D01*
X104950000Y-101768072D01*
X105500160Y-101765706D01*
X105409999Y-101839699D01*
X105315026Y-101955424D01*
X105255425Y-102066928D01*
X104950000Y-102066928D01*
X104825518Y-102079188D01*
X104705820Y-102115498D01*
X104595506Y-102174463D01*
X104498815Y-102253815D01*
X104419463Y-102350506D01*
X104360498Y-102460820D01*
X104324188Y-102580518D01*
X104311928Y-102705000D01*
X104311928Y-103870400D01*
X103725500Y-103870400D01*
X103725500Y-99530000D01*
X104311928Y-99530000D01*
X104315000Y-100044250D01*
X104473750Y-100203000D01*
X105823000Y-100203000D01*
X105823000Y-99053750D01*
X105664250Y-98895000D01*
X104950000Y-98891928D01*
X104825518Y-98904188D01*
X104705820Y-98940498D01*
X104595506Y-98999463D01*
X104498815Y-99078815D01*
X104419463Y-99175506D01*
X104360498Y-99285820D01*
X104324188Y-99405518D01*
X104311928Y-99530000D01*
X103725500Y-99530000D01*
X103725500Y-96202711D01*
X103847926Y-96325137D01*
X104017444Y-96438405D01*
X104205802Y-96516426D01*
X104405761Y-96556200D01*
X104609639Y-96556200D01*
X104809598Y-96516426D01*
X104997956Y-96438405D01*
X105167474Y-96325137D01*
X105211411Y-96281200D01*
X105442178Y-96281200D01*
X105479500Y-96284876D01*
X105516822Y-96281200D01*
X105516833Y-96281200D01*
X105534826Y-96279428D01*
X105610506Y-96341537D01*
X105720820Y-96400502D01*
X105840518Y-96436812D01*
X105965000Y-96449072D01*
X106765000Y-96449072D01*
X106889482Y-96436812D01*
X107009180Y-96400502D01*
X107119494Y-96341537D01*
X107216185Y-96262185D01*
X107295537Y-96165494D01*
X107315000Y-96129082D01*
X107334463Y-96165494D01*
X107334463Y-96165494D01*
G37*
X107334463Y-96165494D02*
X107413815Y-96262185D01*
X107510506Y-96341537D01*
X107620820Y-96400502D01*
X107740518Y-96436812D01*
X107865000Y-96449072D01*
X108230401Y-96449072D01*
X108230401Y-96979297D01*
X107220203Y-97989496D01*
X107191199Y-98013299D01*
X107140397Y-98075202D01*
X107096226Y-98129024D01*
X107029959Y-98253000D01*
X107025654Y-98261054D01*
X106982197Y-98404315D01*
X106971200Y-98515968D01*
X106971200Y-98515978D01*
X106967524Y-98553300D01*
X106971200Y-98590623D01*
X106971200Y-98894016D01*
X106950000Y-98891928D01*
X106235750Y-98895000D01*
X106077000Y-99053750D01*
X106077000Y-100203000D01*
X106097000Y-100203000D01*
X106097000Y-100457000D01*
X106077000Y-100457000D01*
X106077000Y-100477000D01*
X105823000Y-100477000D01*
X105823000Y-100457000D01*
X104473750Y-100457000D01*
X104315000Y-100615750D01*
X104311928Y-101130000D01*
X104324188Y-101254482D01*
X104360498Y-101374180D01*
X104419463Y-101484494D01*
X104498815Y-101581185D01*
X104595506Y-101660537D01*
X104705820Y-101719502D01*
X104825518Y-101755812D01*
X104950000Y-101768072D01*
X105500160Y-101765706D01*
X105409999Y-101839699D01*
X105315026Y-101955424D01*
X105255425Y-102066928D01*
X104950000Y-102066928D01*
X104825518Y-102079188D01*
X104705820Y-102115498D01*
X104595506Y-102174463D01*
X104498815Y-102253815D01*
X104419463Y-102350506D01*
X104360498Y-102460820D01*
X104324188Y-102580518D01*
X104311928Y-102705000D01*
X104311928Y-103870400D01*
X103725500Y-103870400D01*
X103725500Y-99530000D01*
X104311928Y-99530000D01*
X104315000Y-100044250D01*
X104473750Y-100203000D01*
X105823000Y-100203000D01*
X105823000Y-99053750D01*
X105664250Y-98895000D01*
X104950000Y-98891928D01*
X104825518Y-98904188D01*
X104705820Y-98940498D01*
X104595506Y-98999463D01*
X104498815Y-99078815D01*
X104419463Y-99175506D01*
X104360498Y-99285820D01*
X104324188Y-99405518D01*
X104311928Y-99530000D01*
X103725500Y-99530000D01*
X103725500Y-96202711D01*
X103847926Y-96325137D01*
X104017444Y-96438405D01*
X104205802Y-96516426D01*
X104405761Y-96556200D01*
X104609639Y-96556200D01*
X104809598Y-96516426D01*
X104997956Y-96438405D01*
X105167474Y-96325137D01*
X105211411Y-96281200D01*
X105442178Y-96281200D01*
X105479500Y-96284876D01*
X105516822Y-96281200D01*
X105516833Y-96281200D01*
X105534826Y-96279428D01*
X105610506Y-96341537D01*
X105720820Y-96400502D01*
X105840518Y-96436812D01*
X105965000Y-96449072D01*
X106765000Y-96449072D01*
X106889482Y-96436812D01*
X107009180Y-96400502D01*
X107119494Y-96341537D01*
X107216185Y-96262185D01*
X107295537Y-96165494D01*
X107315000Y-96129082D01*
X107334463Y-96165494D01*
G36*
X110077002Y-102228748D02*
G01*
X110077002Y-102206468D01*
X110098986Y-102204303D01*
X110102519Y-102203231D01*
X110077002Y-102228748D01*
X110077002Y-102228748D01*
G37*
X110077002Y-102228748D02*
X110077002Y-102206468D01*
X110098986Y-102204303D01*
X110102519Y-102203231D01*
X110077002Y-102228748D01*
G36*
X89035298Y-87178980D02*
G01*
X89094263Y-87289294D01*
X89173615Y-87385985D01*
X89270306Y-87465337D01*
X89380620Y-87524302D01*
X89500318Y-87560612D01*
X89624800Y-87572872D01*
X90959227Y-87572872D01*
X90682599Y-87849500D01*
X90512133Y-87849500D01*
X90474800Y-87845823D01*
X90437467Y-87849500D01*
X90325814Y-87860497D01*
X90182553Y-87903954D01*
X90050524Y-87974526D01*
X89934799Y-88069499D01*
X89839826Y-88185224D01*
X89780225Y-88296728D01*
X89624800Y-88296728D01*
X89500318Y-88308988D01*
X89380620Y-88345298D01*
X89270306Y-88404263D01*
X89173615Y-88483615D01*
X89094263Y-88580306D01*
X89035298Y-88690620D01*
X88998988Y-88810318D01*
X88986728Y-88934800D01*
X88986728Y-90934800D01*
X88998988Y-91059282D01*
X89035298Y-91178980D01*
X89094263Y-91289294D01*
X89173615Y-91385985D01*
X89270306Y-91465337D01*
X89380620Y-91524302D01*
X89500318Y-91560612D01*
X89624800Y-91572872D01*
X91324800Y-91572872D01*
X91449282Y-91560612D01*
X91568980Y-91524302D01*
X91679294Y-91465337D01*
X91759852Y-91399225D01*
X91764415Y-91404785D01*
X91861106Y-91484137D01*
X91971420Y-91543102D01*
X92091118Y-91579412D01*
X92215600Y-91591672D01*
X92779850Y-91588600D01*
X92938600Y-91429850D01*
X92938600Y-90080600D01*
X93192600Y-90080600D01*
X93192600Y-91429850D01*
X93351350Y-91588600D01*
X93915600Y-91591672D01*
X94040082Y-91579412D01*
X94159780Y-91543102D01*
X94270094Y-91484137D01*
X94366785Y-91404785D01*
X94446137Y-91308094D01*
X94505102Y-91197780D01*
X94541412Y-91078082D01*
X94553672Y-90953600D01*
X94553571Y-90930000D01*
X97661928Y-90930000D01*
X97674188Y-91054482D01*
X97710498Y-91174180D01*
X97769463Y-91284494D01*
X97848815Y-91381185D01*
X97945506Y-91460537D01*
X98055820Y-91519502D01*
X98175518Y-91555812D01*
X98300000Y-91568072D01*
X98774250Y-91565000D01*
X98933000Y-91406250D01*
X98933000Y-90297000D01*
X99187000Y-90297000D01*
X99187000Y-91406250D01*
X99345750Y-91565000D01*
X99820000Y-91568072D01*
X99944482Y-91555812D01*
X100064180Y-91519502D01*
X100174494Y-91460537D01*
X100271185Y-91381185D01*
X100350537Y-91284494D01*
X100409502Y-91174180D01*
X100445812Y-91054482D01*
X100458072Y-90930000D01*
X100455000Y-90455750D01*
X100296250Y-90297000D01*
X99187000Y-90297000D01*
X98933000Y-90297000D01*
X97823750Y-90297000D01*
X97665000Y-90455750D01*
X97661928Y-90930000D01*
X94553571Y-90930000D01*
X94550600Y-90239350D01*
X94391850Y-90080600D01*
X93192600Y-90080600D01*
X92938600Y-90080600D01*
X92918600Y-90080600D01*
X92918600Y-89826600D01*
X92938600Y-89826600D01*
X92938600Y-88477350D01*
X93192600Y-88477350D01*
X93192600Y-89826600D01*
X94391850Y-89826600D01*
X94550600Y-89667850D01*
X94553672Y-88953600D01*
X94541412Y-88829118D01*
X94505102Y-88709420D01*
X94446137Y-88599106D01*
X94366785Y-88502415D01*
X94270094Y-88423063D01*
X94159780Y-88364098D01*
X94040082Y-88327788D01*
X93915600Y-88315528D01*
X93351350Y-88318600D01*
X93192600Y-88477350D01*
X92938600Y-88477350D01*
X92779850Y-88318600D01*
X92365358Y-88316343D01*
X93090030Y-87591672D01*
X93915600Y-87591672D01*
X94040082Y-87579412D01*
X94159780Y-87543102D01*
X94270094Y-87484137D01*
X94366785Y-87404785D01*
X94446137Y-87308094D01*
X94472072Y-87259574D01*
X95353501Y-88141003D01*
X95377299Y-88170001D01*
X95406297Y-88193799D01*
X95493024Y-88264974D01*
X95625053Y-88335546D01*
X95768314Y-88379003D01*
X95917300Y-88393677D01*
X95954633Y-88390000D01*
X97890064Y-88390000D01*
X97976433Y-88519261D01*
X98170739Y-88713567D01*
X98263467Y-88775526D01*
X98175518Y-88784188D01*
X98055820Y-88820498D01*
X97945506Y-88879463D01*
X97848815Y-88958815D01*
X97769463Y-89055506D01*
X97710498Y-89165820D01*
X97674188Y-89285518D01*
X97661928Y-89410000D01*
X97665000Y-89884250D01*
X97823750Y-90043000D01*
X98933000Y-90043000D01*
X98933000Y-90023000D01*
X99187000Y-90023000D01*
X99187000Y-90043000D01*
X100296250Y-90043000D01*
X100455000Y-89884250D01*
X100458072Y-89410000D01*
X100445812Y-89285518D01*
X100409502Y-89165820D01*
X100350537Y-89055506D01*
X100271185Y-88958815D01*
X100174494Y-88879463D01*
X100064180Y-88820498D01*
X99944482Y-88784188D01*
X99856533Y-88775526D01*
X99949261Y-88713567D01*
X100143567Y-88519261D01*
X100250069Y-88359870D01*
X103674198Y-91784000D01*
X99595622Y-91784000D01*
X99558299Y-91780324D01*
X99520976Y-91784000D01*
X99520967Y-91784000D01*
X99409314Y-91794997D01*
X99299227Y-91828391D01*
X99266053Y-91838454D01*
X99134023Y-91909026D01*
X99064612Y-91965991D01*
X99018299Y-92003999D01*
X98994501Y-92032998D01*
X98470499Y-92557000D01*
X89878100Y-92557000D01*
X89878100Y-92469261D01*
X89838326Y-92269302D01*
X89760305Y-92080944D01*
X89647037Y-91911426D01*
X89502874Y-91767263D01*
X89333356Y-91653995D01*
X89144998Y-91575974D01*
X88945039Y-91536200D01*
X88882902Y-91536200D01*
X88170600Y-90823899D01*
X88170600Y-88012801D01*
X89028112Y-87155290D01*
X89035298Y-87178980D01*
X89035298Y-87178980D01*
G37*
X89035298Y-87178980D02*
X89094263Y-87289294D01*
X89173615Y-87385985D01*
X89270306Y-87465337D01*
X89380620Y-87524302D01*
X89500318Y-87560612D01*
X89624800Y-87572872D01*
X90959227Y-87572872D01*
X90682599Y-87849500D01*
X90512133Y-87849500D01*
X90474800Y-87845823D01*
X90437467Y-87849500D01*
X90325814Y-87860497D01*
X90182553Y-87903954D01*
X90050524Y-87974526D01*
X89934799Y-88069499D01*
X89839826Y-88185224D01*
X89780225Y-88296728D01*
X89624800Y-88296728D01*
X89500318Y-88308988D01*
X89380620Y-88345298D01*
X89270306Y-88404263D01*
X89173615Y-88483615D01*
X89094263Y-88580306D01*
X89035298Y-88690620D01*
X88998988Y-88810318D01*
X88986728Y-88934800D01*
X88986728Y-90934800D01*
X88998988Y-91059282D01*
X89035298Y-91178980D01*
X89094263Y-91289294D01*
X89173615Y-91385985D01*
X89270306Y-91465337D01*
X89380620Y-91524302D01*
X89500318Y-91560612D01*
X89624800Y-91572872D01*
X91324800Y-91572872D01*
X91449282Y-91560612D01*
X91568980Y-91524302D01*
X91679294Y-91465337D01*
X91759852Y-91399225D01*
X91764415Y-91404785D01*
X91861106Y-91484137D01*
X91971420Y-91543102D01*
X92091118Y-91579412D01*
X92215600Y-91591672D01*
X92779850Y-91588600D01*
X92938600Y-91429850D01*
X92938600Y-90080600D01*
X93192600Y-90080600D01*
X93192600Y-91429850D01*
X93351350Y-91588600D01*
X93915600Y-91591672D01*
X94040082Y-91579412D01*
X94159780Y-91543102D01*
X94270094Y-91484137D01*
X94366785Y-91404785D01*
X94446137Y-91308094D01*
X94505102Y-91197780D01*
X94541412Y-91078082D01*
X94553672Y-90953600D01*
X94553571Y-90930000D01*
X97661928Y-90930000D01*
X97674188Y-91054482D01*
X97710498Y-91174180D01*
X97769463Y-91284494D01*
X97848815Y-91381185D01*
X97945506Y-91460537D01*
X98055820Y-91519502D01*
X98175518Y-91555812D01*
X98300000Y-91568072D01*
X98774250Y-91565000D01*
X98933000Y-91406250D01*
X98933000Y-90297000D01*
X99187000Y-90297000D01*
X99187000Y-91406250D01*
X99345750Y-91565000D01*
X99820000Y-91568072D01*
X99944482Y-91555812D01*
X100064180Y-91519502D01*
X100174494Y-91460537D01*
X100271185Y-91381185D01*
X100350537Y-91284494D01*
X100409502Y-91174180D01*
X100445812Y-91054482D01*
X100458072Y-90930000D01*
X100455000Y-90455750D01*
X100296250Y-90297000D01*
X99187000Y-90297000D01*
X98933000Y-90297000D01*
X97823750Y-90297000D01*
X97665000Y-90455750D01*
X97661928Y-90930000D01*
X94553571Y-90930000D01*
X94550600Y-90239350D01*
X94391850Y-90080600D01*
X93192600Y-90080600D01*
X92938600Y-90080600D01*
X92918600Y-90080600D01*
X92918600Y-89826600D01*
X92938600Y-89826600D01*
X92938600Y-88477350D01*
X93192600Y-88477350D01*
X93192600Y-89826600D01*
X94391850Y-89826600D01*
X94550600Y-89667850D01*
X94553672Y-88953600D01*
X94541412Y-88829118D01*
X94505102Y-88709420D01*
X94446137Y-88599106D01*
X94366785Y-88502415D01*
X94270094Y-88423063D01*
X94159780Y-88364098D01*
X94040082Y-88327788D01*
X93915600Y-88315528D01*
X93351350Y-88318600D01*
X93192600Y-88477350D01*
X92938600Y-88477350D01*
X92779850Y-88318600D01*
X92365358Y-88316343D01*
X93090030Y-87591672D01*
X93915600Y-87591672D01*
X94040082Y-87579412D01*
X94159780Y-87543102D01*
X94270094Y-87484137D01*
X94366785Y-87404785D01*
X94446137Y-87308094D01*
X94472072Y-87259574D01*
X95353501Y-88141003D01*
X95377299Y-88170001D01*
X95406297Y-88193799D01*
X95493024Y-88264974D01*
X95625053Y-88335546D01*
X95768314Y-88379003D01*
X95917300Y-88393677D01*
X95954633Y-88390000D01*
X97890064Y-88390000D01*
X97976433Y-88519261D01*
X98170739Y-88713567D01*
X98263467Y-88775526D01*
X98175518Y-88784188D01*
X98055820Y-88820498D01*
X97945506Y-88879463D01*
X97848815Y-88958815D01*
X97769463Y-89055506D01*
X97710498Y-89165820D01*
X97674188Y-89285518D01*
X97661928Y-89410000D01*
X97665000Y-89884250D01*
X97823750Y-90043000D01*
X98933000Y-90043000D01*
X98933000Y-90023000D01*
X99187000Y-90023000D01*
X99187000Y-90043000D01*
X100296250Y-90043000D01*
X100455000Y-89884250D01*
X100458072Y-89410000D01*
X100445812Y-89285518D01*
X100409502Y-89165820D01*
X100350537Y-89055506D01*
X100271185Y-88958815D01*
X100174494Y-88879463D01*
X100064180Y-88820498D01*
X99944482Y-88784188D01*
X99856533Y-88775526D01*
X99949261Y-88713567D01*
X100143567Y-88519261D01*
X100250069Y-88359870D01*
X103674198Y-91784000D01*
X99595622Y-91784000D01*
X99558299Y-91780324D01*
X99520976Y-91784000D01*
X99520967Y-91784000D01*
X99409314Y-91794997D01*
X99299227Y-91828391D01*
X99266053Y-91838454D01*
X99134023Y-91909026D01*
X99064612Y-91965991D01*
X99018299Y-92003999D01*
X98994501Y-92032998D01*
X98470499Y-92557000D01*
X89878100Y-92557000D01*
X89878100Y-92469261D01*
X89838326Y-92269302D01*
X89760305Y-92080944D01*
X89647037Y-91911426D01*
X89502874Y-91767263D01*
X89333356Y-91653995D01*
X89144998Y-91575974D01*
X88945039Y-91536200D01*
X88882902Y-91536200D01*
X88170600Y-90823899D01*
X88170600Y-88012801D01*
X89028112Y-87155290D01*
X89035298Y-87178980D01*
G36*
X84458748Y-91131858D02*
G01*
X84444605Y-91146000D01*
X84458748Y-91160143D01*
X84279143Y-91339748D01*
X84265000Y-91325605D01*
X84250858Y-91339748D01*
X84071253Y-91160143D01*
X84085395Y-91146000D01*
X84071253Y-91131858D01*
X84250858Y-90952253D01*
X84265000Y-90966395D01*
X84279143Y-90952253D01*
X84458748Y-91131858D01*
X84458748Y-91131858D01*
G37*
X84458748Y-91131858D02*
X84444605Y-91146000D01*
X84458748Y-91160143D01*
X84279143Y-91339748D01*
X84265000Y-91325605D01*
X84250858Y-91339748D01*
X84071253Y-91160143D01*
X84085395Y-91146000D01*
X84071253Y-91131858D01*
X84250858Y-90952253D01*
X84265000Y-90966395D01*
X84279143Y-90952253D01*
X84458748Y-91131858D01*
G36*
X101600000Y-83168977D02*
G01*
X101637333Y-83165300D01*
X104989499Y-83165300D01*
X107283126Y-85458928D01*
X106946000Y-85458928D01*
X106821518Y-85471188D01*
X106701820Y-85507498D01*
X106591506Y-85566463D01*
X106546000Y-85603809D01*
X106500494Y-85566463D01*
X106390180Y-85507498D01*
X106270482Y-85471188D01*
X106146000Y-85458928D01*
X105681750Y-85462000D01*
X105523000Y-85620750D01*
X105523000Y-86970000D01*
X105543000Y-86970000D01*
X105543000Y-87224000D01*
X105523000Y-87224000D01*
X105523000Y-87244000D01*
X105269000Y-87244000D01*
X105269000Y-87224000D01*
X104169750Y-87224000D01*
X104011000Y-87382750D01*
X104009797Y-87662400D01*
X102707202Y-87662400D01*
X101141802Y-86097000D01*
X104007928Y-86097000D01*
X104011000Y-86811250D01*
X104169750Y-86970000D01*
X105269000Y-86970000D01*
X105269000Y-85620750D01*
X105110250Y-85462000D01*
X104646000Y-85458928D01*
X104521518Y-85471188D01*
X104401820Y-85507498D01*
X104291506Y-85566463D01*
X104194815Y-85645815D01*
X104115463Y-85742506D01*
X104056498Y-85852820D01*
X104020188Y-85972518D01*
X104007928Y-86097000D01*
X101141802Y-86097000D01*
X100424671Y-85379870D01*
X100455000Y-85227396D01*
X100455000Y-84952604D01*
X100401391Y-84683093D01*
X100296233Y-84429220D01*
X100143567Y-84200739D01*
X99949261Y-84006433D01*
X99720780Y-83853767D01*
X99466907Y-83748609D01*
X99197396Y-83695000D01*
X98922604Y-83695000D01*
X98653093Y-83748609D01*
X98399220Y-83853767D01*
X98170739Y-84006433D01*
X97976433Y-84200739D01*
X97823767Y-84429220D01*
X97718609Y-84683093D01*
X97665000Y-84952604D01*
X97665000Y-85110598D01*
X96671604Y-84117203D01*
X96647801Y-84088199D01*
X96532076Y-83993226D01*
X96400047Y-83922654D01*
X96256786Y-83879197D01*
X96145133Y-83868200D01*
X96145122Y-83868200D01*
X96107800Y-83864524D01*
X96070478Y-83868200D01*
X92112522Y-83868200D01*
X92075199Y-83864524D01*
X92037876Y-83868200D01*
X92037867Y-83868200D01*
X91926214Y-83879197D01*
X91782953Y-83922654D01*
X91650924Y-83993226D01*
X91535199Y-84088199D01*
X91511396Y-84117203D01*
X91331237Y-84297362D01*
X91324800Y-84296728D01*
X90814474Y-84296728D01*
X91945902Y-83165300D01*
X101562667Y-83165300D01*
X101600000Y-83168977D01*
X101600000Y-83168977D01*
G37*
X101600000Y-83168977D02*
X101637333Y-83165300D01*
X104989499Y-83165300D01*
X107283126Y-85458928D01*
X106946000Y-85458928D01*
X106821518Y-85471188D01*
X106701820Y-85507498D01*
X106591506Y-85566463D01*
X106546000Y-85603809D01*
X106500494Y-85566463D01*
X106390180Y-85507498D01*
X106270482Y-85471188D01*
X106146000Y-85458928D01*
X105681750Y-85462000D01*
X105523000Y-85620750D01*
X105523000Y-86970000D01*
X105543000Y-86970000D01*
X105543000Y-87224000D01*
X105523000Y-87224000D01*
X105523000Y-87244000D01*
X105269000Y-87244000D01*
X105269000Y-87224000D01*
X104169750Y-87224000D01*
X104011000Y-87382750D01*
X104009797Y-87662400D01*
X102707202Y-87662400D01*
X101141802Y-86097000D01*
X104007928Y-86097000D01*
X104011000Y-86811250D01*
X104169750Y-86970000D01*
X105269000Y-86970000D01*
X105269000Y-85620750D01*
X105110250Y-85462000D01*
X104646000Y-85458928D01*
X104521518Y-85471188D01*
X104401820Y-85507498D01*
X104291506Y-85566463D01*
X104194815Y-85645815D01*
X104115463Y-85742506D01*
X104056498Y-85852820D01*
X104020188Y-85972518D01*
X104007928Y-86097000D01*
X101141802Y-86097000D01*
X100424671Y-85379870D01*
X100455000Y-85227396D01*
X100455000Y-84952604D01*
X100401391Y-84683093D01*
X100296233Y-84429220D01*
X100143567Y-84200739D01*
X99949261Y-84006433D01*
X99720780Y-83853767D01*
X99466907Y-83748609D01*
X99197396Y-83695000D01*
X98922604Y-83695000D01*
X98653093Y-83748609D01*
X98399220Y-83853767D01*
X98170739Y-84006433D01*
X97976433Y-84200739D01*
X97823767Y-84429220D01*
X97718609Y-84683093D01*
X97665000Y-84952604D01*
X97665000Y-85110598D01*
X96671604Y-84117203D01*
X96647801Y-84088199D01*
X96532076Y-83993226D01*
X96400047Y-83922654D01*
X96256786Y-83879197D01*
X96145133Y-83868200D01*
X96145122Y-83868200D01*
X96107800Y-83864524D01*
X96070478Y-83868200D01*
X92112522Y-83868200D01*
X92075199Y-83864524D01*
X92037876Y-83868200D01*
X92037867Y-83868200D01*
X91926214Y-83879197D01*
X91782953Y-83922654D01*
X91650924Y-83993226D01*
X91535199Y-84088199D01*
X91511396Y-84117203D01*
X91331237Y-84297362D01*
X91324800Y-84296728D01*
X90814474Y-84296728D01*
X91945902Y-83165300D01*
X101562667Y-83165300D01*
X101600000Y-83168977D01*
G36*
X112761928Y-77862000D02*
G01*
X112774188Y-77986482D01*
X112810498Y-78106180D01*
X112869463Y-78216494D01*
X112948815Y-78313185D01*
X113045506Y-78392537D01*
X113155820Y-78451502D01*
X113275518Y-78487812D01*
X113400000Y-78500072D01*
X115200000Y-78500072D01*
X115324482Y-78487812D01*
X115444180Y-78451502D01*
X115554494Y-78392537D01*
X115651185Y-78313185D01*
X115730537Y-78216494D01*
X115789502Y-78106180D01*
X115795056Y-78087873D01*
X115861495Y-78154312D01*
X116112905Y-78322299D01*
X116392257Y-78438011D01*
X116688816Y-78497000D01*
X116991184Y-78497000D01*
X117287743Y-78438011D01*
X117367000Y-78405182D01*
X117367000Y-86352223D01*
X117245518Y-86364188D01*
X117125820Y-86400498D01*
X117015506Y-86459463D01*
X116918815Y-86538815D01*
X116839463Y-86635506D01*
X116780498Y-86745820D01*
X116744188Y-86865518D01*
X116731928Y-86990000D01*
X116731928Y-87220000D01*
X114204711Y-87220000D01*
X114160774Y-87176063D01*
X113991256Y-87062795D01*
X113802898Y-86984774D01*
X113602939Y-86945000D01*
X113399061Y-86945000D01*
X113199102Y-86984774D01*
X113010744Y-87062795D01*
X112841226Y-87176063D01*
X112797289Y-87220000D01*
X111831400Y-87220000D01*
X111831400Y-82804000D01*
X113925751Y-82804000D01*
X113946700Y-83016697D01*
X114008741Y-83221220D01*
X114109491Y-83409710D01*
X114133529Y-83439000D01*
X114109491Y-83468290D01*
X114008741Y-83656780D01*
X113946700Y-83861303D01*
X113925751Y-84074000D01*
X113946700Y-84286697D01*
X114008741Y-84491220D01*
X114109491Y-84679710D01*
X114245078Y-84844922D01*
X114410290Y-84980509D01*
X114598780Y-85081259D01*
X114803303Y-85143300D01*
X114962706Y-85159000D01*
X115669294Y-85159000D01*
X115828697Y-85143300D01*
X116033220Y-85081259D01*
X116221710Y-84980509D01*
X116386922Y-84844922D01*
X116522509Y-84679710D01*
X116623259Y-84491220D01*
X116685300Y-84286697D01*
X116706249Y-84074000D01*
X116685300Y-83861303D01*
X116623259Y-83656780D01*
X116522509Y-83468290D01*
X116498471Y-83439000D01*
X116522509Y-83409710D01*
X116623259Y-83221220D01*
X116685300Y-83016697D01*
X116706249Y-82804000D01*
X116685300Y-82591303D01*
X116623259Y-82386780D01*
X116596993Y-82337640D01*
X116655502Y-82228180D01*
X116691812Y-82108482D01*
X116704072Y-81984000D01*
X116701000Y-81819750D01*
X116542250Y-81661000D01*
X115443000Y-81661000D01*
X115443000Y-81681000D01*
X115189000Y-81681000D01*
X115189000Y-81661000D01*
X114089750Y-81661000D01*
X113931000Y-81819750D01*
X113927928Y-81984000D01*
X113940188Y-82108482D01*
X113976498Y-82228180D01*
X114035007Y-82337640D01*
X114008741Y-82386780D01*
X113946700Y-82591303D01*
X113925751Y-82804000D01*
X111831400Y-82804000D01*
X111831400Y-81084000D01*
X113927928Y-81084000D01*
X113931000Y-81248250D01*
X114089750Y-81407000D01*
X115189000Y-81407000D01*
X115189000Y-80607750D01*
X115443000Y-80607750D01*
X115443000Y-81407000D01*
X116542250Y-81407000D01*
X116701000Y-81248250D01*
X116704072Y-81084000D01*
X116691812Y-80959518D01*
X116655502Y-80839820D01*
X116596537Y-80729506D01*
X116517185Y-80632815D01*
X116420494Y-80553463D01*
X116310180Y-80494498D01*
X116190482Y-80458188D01*
X116066000Y-80445928D01*
X115601750Y-80449000D01*
X115443000Y-80607750D01*
X115189000Y-80607750D01*
X115030250Y-80449000D01*
X114566000Y-80445928D01*
X114441518Y-80458188D01*
X114321820Y-80494498D01*
X114211506Y-80553463D01*
X114114815Y-80632815D01*
X114035463Y-80729506D01*
X113976498Y-80839820D01*
X113940188Y-80959518D01*
X113927928Y-81084000D01*
X111831400Y-81084000D01*
X111831400Y-80816726D01*
X111835076Y-80779408D01*
X111831400Y-80742080D01*
X111831400Y-80742067D01*
X111821842Y-80645026D01*
X111820404Y-80630422D01*
X111820404Y-80630421D01*
X111820403Y-80630414D01*
X111776946Y-80487153D01*
X111706374Y-80355124D01*
X111664002Y-80303494D01*
X111664002Y-77624799D01*
X112761928Y-76526874D01*
X112761928Y-77862000D01*
X112761928Y-77862000D01*
G37*
X112761928Y-77862000D02*
X112774188Y-77986482D01*
X112810498Y-78106180D01*
X112869463Y-78216494D01*
X112948815Y-78313185D01*
X113045506Y-78392537D01*
X113155820Y-78451502D01*
X113275518Y-78487812D01*
X113400000Y-78500072D01*
X115200000Y-78500072D01*
X115324482Y-78487812D01*
X115444180Y-78451502D01*
X115554494Y-78392537D01*
X115651185Y-78313185D01*
X115730537Y-78216494D01*
X115789502Y-78106180D01*
X115795056Y-78087873D01*
X115861495Y-78154312D01*
X116112905Y-78322299D01*
X116392257Y-78438011D01*
X116688816Y-78497000D01*
X116991184Y-78497000D01*
X117287743Y-78438011D01*
X117367000Y-78405182D01*
X117367000Y-86352223D01*
X117245518Y-86364188D01*
X117125820Y-86400498D01*
X117015506Y-86459463D01*
X116918815Y-86538815D01*
X116839463Y-86635506D01*
X116780498Y-86745820D01*
X116744188Y-86865518D01*
X116731928Y-86990000D01*
X116731928Y-87220000D01*
X114204711Y-87220000D01*
X114160774Y-87176063D01*
X113991256Y-87062795D01*
X113802898Y-86984774D01*
X113602939Y-86945000D01*
X113399061Y-86945000D01*
X113199102Y-86984774D01*
X113010744Y-87062795D01*
X112841226Y-87176063D01*
X112797289Y-87220000D01*
X111831400Y-87220000D01*
X111831400Y-82804000D01*
X113925751Y-82804000D01*
X113946700Y-83016697D01*
X114008741Y-83221220D01*
X114109491Y-83409710D01*
X114133529Y-83439000D01*
X114109491Y-83468290D01*
X114008741Y-83656780D01*
X113946700Y-83861303D01*
X113925751Y-84074000D01*
X113946700Y-84286697D01*
X114008741Y-84491220D01*
X114109491Y-84679710D01*
X114245078Y-84844922D01*
X114410290Y-84980509D01*
X114598780Y-85081259D01*
X114803303Y-85143300D01*
X114962706Y-85159000D01*
X115669294Y-85159000D01*
X115828697Y-85143300D01*
X116033220Y-85081259D01*
X116221710Y-84980509D01*
X116386922Y-84844922D01*
X116522509Y-84679710D01*
X116623259Y-84491220D01*
X116685300Y-84286697D01*
X116706249Y-84074000D01*
X116685300Y-83861303D01*
X116623259Y-83656780D01*
X116522509Y-83468290D01*
X116498471Y-83439000D01*
X116522509Y-83409710D01*
X116623259Y-83221220D01*
X116685300Y-83016697D01*
X116706249Y-82804000D01*
X116685300Y-82591303D01*
X116623259Y-82386780D01*
X116596993Y-82337640D01*
X116655502Y-82228180D01*
X116691812Y-82108482D01*
X116704072Y-81984000D01*
X116701000Y-81819750D01*
X116542250Y-81661000D01*
X115443000Y-81661000D01*
X115443000Y-81681000D01*
X115189000Y-81681000D01*
X115189000Y-81661000D01*
X114089750Y-81661000D01*
X113931000Y-81819750D01*
X113927928Y-81984000D01*
X113940188Y-82108482D01*
X113976498Y-82228180D01*
X114035007Y-82337640D01*
X114008741Y-82386780D01*
X113946700Y-82591303D01*
X113925751Y-82804000D01*
X111831400Y-82804000D01*
X111831400Y-81084000D01*
X113927928Y-81084000D01*
X113931000Y-81248250D01*
X114089750Y-81407000D01*
X115189000Y-81407000D01*
X115189000Y-80607750D01*
X115443000Y-80607750D01*
X115443000Y-81407000D01*
X116542250Y-81407000D01*
X116701000Y-81248250D01*
X116704072Y-81084000D01*
X116691812Y-80959518D01*
X116655502Y-80839820D01*
X116596537Y-80729506D01*
X116517185Y-80632815D01*
X116420494Y-80553463D01*
X116310180Y-80494498D01*
X116190482Y-80458188D01*
X116066000Y-80445928D01*
X115601750Y-80449000D01*
X115443000Y-80607750D01*
X115189000Y-80607750D01*
X115030250Y-80449000D01*
X114566000Y-80445928D01*
X114441518Y-80458188D01*
X114321820Y-80494498D01*
X114211506Y-80553463D01*
X114114815Y-80632815D01*
X114035463Y-80729506D01*
X113976498Y-80839820D01*
X113940188Y-80959518D01*
X113927928Y-81084000D01*
X111831400Y-81084000D01*
X111831400Y-80816726D01*
X111835076Y-80779408D01*
X111831400Y-80742080D01*
X111831400Y-80742067D01*
X111821842Y-80645026D01*
X111820404Y-80630422D01*
X111820404Y-80630421D01*
X111820403Y-80630414D01*
X111776946Y-80487153D01*
X111706374Y-80355124D01*
X111664002Y-80303494D01*
X111664002Y-77624799D01*
X112761928Y-76526874D01*
X112761928Y-77862000D01*
G36*
X86284498Y-85365180D02*
G01*
X86341061Y-85471000D01*
X86284498Y-85576820D01*
X86248188Y-85696518D01*
X86235928Y-85821000D01*
X86239000Y-86135250D01*
X86397750Y-86294000D01*
X87122000Y-86294000D01*
X87122000Y-86274000D01*
X87376000Y-86274000D01*
X87376000Y-86294000D01*
X87396000Y-86294000D01*
X87396000Y-86548000D01*
X87376000Y-86548000D01*
X87376000Y-86568000D01*
X87122000Y-86568000D01*
X87122000Y-86548000D01*
X86397750Y-86548000D01*
X86239000Y-86706750D01*
X86236739Y-86938000D01*
X85932101Y-86938000D01*
X85829104Y-86835003D01*
X85805301Y-86805999D01*
X85689576Y-86711026D01*
X85557547Y-86640454D01*
X85537886Y-86634490D01*
X85553850Y-86600322D01*
X85617719Y-86340151D01*
X85629604Y-86072518D01*
X85589048Y-85807709D01*
X85497609Y-85555900D01*
X85440450Y-85448965D01*
X85204135Y-85386473D01*
X85309608Y-85281000D01*
X86258962Y-85281000D01*
X86284498Y-85365180D01*
X86284498Y-85365180D01*
G37*
X86284498Y-85365180D02*
X86341061Y-85471000D01*
X86284498Y-85576820D01*
X86248188Y-85696518D01*
X86235928Y-85821000D01*
X86239000Y-86135250D01*
X86397750Y-86294000D01*
X87122000Y-86294000D01*
X87122000Y-86274000D01*
X87376000Y-86274000D01*
X87376000Y-86294000D01*
X87396000Y-86294000D01*
X87396000Y-86548000D01*
X87376000Y-86548000D01*
X87376000Y-86568000D01*
X87122000Y-86568000D01*
X87122000Y-86548000D01*
X86397750Y-86548000D01*
X86239000Y-86706750D01*
X86236739Y-86938000D01*
X85932101Y-86938000D01*
X85829104Y-86835003D01*
X85805301Y-86805999D01*
X85689576Y-86711026D01*
X85557547Y-86640454D01*
X85537886Y-86634490D01*
X85553850Y-86600322D01*
X85617719Y-86340151D01*
X85629604Y-86072518D01*
X85589048Y-85807709D01*
X85497609Y-85555900D01*
X85440450Y-85448965D01*
X85204135Y-85386473D01*
X85309608Y-85281000D01*
X86258962Y-85281000D01*
X86284498Y-85365180D01*
G36*
X95961900Y-76898776D02*
G01*
X95999222Y-76895100D01*
X106112394Y-76895100D01*
X108376173Y-79158928D01*
X105796000Y-79158928D01*
X105671518Y-79171188D01*
X105551820Y-79207498D01*
X105441506Y-79266463D01*
X105344815Y-79345815D01*
X105265463Y-79442506D01*
X105206498Y-79552820D01*
X105170188Y-79672518D01*
X105157928Y-79797000D01*
X105157928Y-81645300D01*
X103238072Y-81645300D01*
X103238072Y-80480000D01*
X103225812Y-80355518D01*
X103189502Y-80235820D01*
X103130537Y-80125506D01*
X103051185Y-80028815D01*
X102954494Y-79949463D01*
X102844180Y-79890498D01*
X102724482Y-79854188D01*
X102600000Y-79841928D01*
X100600000Y-79841928D01*
X100475518Y-79854188D01*
X100355820Y-79890498D01*
X100245506Y-79949463D01*
X100148815Y-80028815D01*
X100069463Y-80125506D01*
X100010498Y-80235820D01*
X99974188Y-80355518D01*
X99961928Y-80480000D01*
X99961928Y-81645300D01*
X99235475Y-81645300D01*
X99235000Y-81565750D01*
X99076250Y-81407000D01*
X97727000Y-81407000D01*
X97727000Y-81427000D01*
X97473000Y-81427000D01*
X97473000Y-81407000D01*
X96123750Y-81407000D01*
X95965000Y-81565750D01*
X95964525Y-81645300D01*
X95615475Y-81645300D01*
X95615000Y-81565750D01*
X95456250Y-81407000D01*
X94107000Y-81407000D01*
X94107000Y-81427000D01*
X93853000Y-81427000D01*
X93853000Y-81407000D01*
X92503750Y-81407000D01*
X92345000Y-81565750D01*
X92344525Y-81645300D01*
X91668422Y-81645300D01*
X91631099Y-81641624D01*
X91618072Y-81642907D01*
X91618072Y-81166829D01*
X92345973Y-80438928D01*
X92341928Y-80480000D01*
X92345000Y-80994250D01*
X92503750Y-81153000D01*
X93853000Y-81153000D01*
X93853000Y-80003750D01*
X94107000Y-80003750D01*
X94107000Y-81153000D01*
X95456250Y-81153000D01*
X95615000Y-80994250D01*
X95618072Y-80480000D01*
X95961928Y-80480000D01*
X95965000Y-80994250D01*
X96123750Y-81153000D01*
X97473000Y-81153000D01*
X97473000Y-80003750D01*
X97727000Y-80003750D01*
X97727000Y-81153000D01*
X99076250Y-81153000D01*
X99235000Y-80994250D01*
X99238072Y-80480000D01*
X99225812Y-80355518D01*
X99189502Y-80235820D01*
X99130537Y-80125506D01*
X99051185Y-80028815D01*
X98954494Y-79949463D01*
X98844180Y-79890498D01*
X98724482Y-79854188D01*
X98600000Y-79841928D01*
X97885750Y-79845000D01*
X97727000Y-80003750D01*
X97473000Y-80003750D01*
X97314250Y-79845000D01*
X96600000Y-79841928D01*
X96475518Y-79854188D01*
X96355820Y-79890498D01*
X96245506Y-79949463D01*
X96148815Y-80028815D01*
X96069463Y-80125506D01*
X96010498Y-80235820D01*
X95974188Y-80355518D01*
X95961928Y-80480000D01*
X95618072Y-80480000D01*
X95605812Y-80355518D01*
X95569502Y-80235820D01*
X95510537Y-80125506D01*
X95431185Y-80028815D01*
X95334494Y-79949463D01*
X95224180Y-79890498D01*
X95104482Y-79854188D01*
X94980000Y-79841928D01*
X94265750Y-79845000D01*
X94107000Y-80003750D01*
X93853000Y-80003750D01*
X93694250Y-79845000D01*
X92980000Y-79841928D01*
X92938928Y-79845973D01*
X95889802Y-76895100D01*
X95924578Y-76895100D01*
X95961900Y-76898776D01*
X95961900Y-76898776D01*
G37*
X95961900Y-76898776D02*
X95999222Y-76895100D01*
X106112394Y-76895100D01*
X108376173Y-79158928D01*
X105796000Y-79158928D01*
X105671518Y-79171188D01*
X105551820Y-79207498D01*
X105441506Y-79266463D01*
X105344815Y-79345815D01*
X105265463Y-79442506D01*
X105206498Y-79552820D01*
X105170188Y-79672518D01*
X105157928Y-79797000D01*
X105157928Y-81645300D01*
X103238072Y-81645300D01*
X103238072Y-80480000D01*
X103225812Y-80355518D01*
X103189502Y-80235820D01*
X103130537Y-80125506D01*
X103051185Y-80028815D01*
X102954494Y-79949463D01*
X102844180Y-79890498D01*
X102724482Y-79854188D01*
X102600000Y-79841928D01*
X100600000Y-79841928D01*
X100475518Y-79854188D01*
X100355820Y-79890498D01*
X100245506Y-79949463D01*
X100148815Y-80028815D01*
X100069463Y-80125506D01*
X100010498Y-80235820D01*
X99974188Y-80355518D01*
X99961928Y-80480000D01*
X99961928Y-81645300D01*
X99235475Y-81645300D01*
X99235000Y-81565750D01*
X99076250Y-81407000D01*
X97727000Y-81407000D01*
X97727000Y-81427000D01*
X97473000Y-81427000D01*
X97473000Y-81407000D01*
X96123750Y-81407000D01*
X95965000Y-81565750D01*
X95964525Y-81645300D01*
X95615475Y-81645300D01*
X95615000Y-81565750D01*
X95456250Y-81407000D01*
X94107000Y-81407000D01*
X94107000Y-81427000D01*
X93853000Y-81427000D01*
X93853000Y-81407000D01*
X92503750Y-81407000D01*
X92345000Y-81565750D01*
X92344525Y-81645300D01*
X91668422Y-81645300D01*
X91631099Y-81641624D01*
X91618072Y-81642907D01*
X91618072Y-81166829D01*
X92345973Y-80438928D01*
X92341928Y-80480000D01*
X92345000Y-80994250D01*
X92503750Y-81153000D01*
X93853000Y-81153000D01*
X93853000Y-80003750D01*
X94107000Y-80003750D01*
X94107000Y-81153000D01*
X95456250Y-81153000D01*
X95615000Y-80994250D01*
X95618072Y-80480000D01*
X95961928Y-80480000D01*
X95965000Y-80994250D01*
X96123750Y-81153000D01*
X97473000Y-81153000D01*
X97473000Y-80003750D01*
X97727000Y-80003750D01*
X97727000Y-81153000D01*
X99076250Y-81153000D01*
X99235000Y-80994250D01*
X99238072Y-80480000D01*
X99225812Y-80355518D01*
X99189502Y-80235820D01*
X99130537Y-80125506D01*
X99051185Y-80028815D01*
X98954494Y-79949463D01*
X98844180Y-79890498D01*
X98724482Y-79854188D01*
X98600000Y-79841928D01*
X97885750Y-79845000D01*
X97727000Y-80003750D01*
X97473000Y-80003750D01*
X97314250Y-79845000D01*
X96600000Y-79841928D01*
X96475518Y-79854188D01*
X96355820Y-79890498D01*
X96245506Y-79949463D01*
X96148815Y-80028815D01*
X96069463Y-80125506D01*
X96010498Y-80235820D01*
X95974188Y-80355518D01*
X95961928Y-80480000D01*
X95618072Y-80480000D01*
X95605812Y-80355518D01*
X95569502Y-80235820D01*
X95510537Y-80125506D01*
X95431185Y-80028815D01*
X95334494Y-79949463D01*
X95224180Y-79890498D01*
X95104482Y-79854188D01*
X94980000Y-79841928D01*
X94265750Y-79845000D01*
X94107000Y-80003750D01*
X93853000Y-80003750D01*
X93694250Y-79845000D01*
X92980000Y-79841928D01*
X92938928Y-79845973D01*
X95889802Y-76895100D01*
X95924578Y-76895100D01*
X95961900Y-76898776D01*
M02*
