G04 #@! TF.GenerationSoftware,KiCad,Pcbnew,(5.1.2)-1*
G04 #@! TF.CreationDate,2019-08-14T03:07:58+02:00*
G04 #@! TF.ProjectId,SmokESP8266,536d6f6b-4553-4503-9832-36362e6b6963,rev?*
G04 #@! TF.SameCoordinates,Original*
G04 #@! TF.FileFunction,Soldermask,Top*
G04 #@! TF.FilePolarity,Negative*
%FSLAX46Y46*%
G04 Gerber Fmt 4.6, Leading zero omitted, Abs format (unit mm)*
G04 Created by KiCad (PCBNEW (5.1.2)-1) date 2019-08-14 03:07:58*
%MOMM*%
%LPD*%
G04 APERTURE LIST*
%ADD10C,0.100000*%
G04 APERTURE END LIST*
D10*
G36*
X82774549Y-128411116D02*
G01*
X82885734Y-128433232D01*
X83095203Y-128519997D01*
X83283720Y-128645960D01*
X83444040Y-128806280D01*
X83570003Y-128994797D01*
X83656768Y-129204266D01*
X83701000Y-129426636D01*
X83701000Y-129653364D01*
X83656768Y-129875734D01*
X83570003Y-130085203D01*
X83444040Y-130273720D01*
X83283720Y-130434040D01*
X83095203Y-130560003D01*
X82885734Y-130646768D01*
X82774549Y-130668884D01*
X82663365Y-130691000D01*
X82436635Y-130691000D01*
X82325451Y-130668884D01*
X82214266Y-130646768D01*
X82004797Y-130560003D01*
X81816280Y-130434040D01*
X81655960Y-130273720D01*
X81529997Y-130085203D01*
X81443232Y-129875734D01*
X81399000Y-129653364D01*
X81399000Y-129426636D01*
X81443232Y-129204266D01*
X81529997Y-128994797D01*
X81655960Y-128806280D01*
X81816280Y-128645960D01*
X82004797Y-128519997D01*
X82214266Y-128433232D01*
X82325451Y-128411116D01*
X82436635Y-128389000D01*
X82663365Y-128389000D01*
X82774549Y-128411116D01*
X82774549Y-128411116D01*
G37*
G36*
X107490585Y-126367802D02*
G01*
X107640410Y-126397604D01*
X107922674Y-126514521D01*
X108176705Y-126684259D01*
X108392741Y-126900295D01*
X108562479Y-127154326D01*
X108679396Y-127436590D01*
X108739000Y-127736240D01*
X108739000Y-128041760D01*
X108679396Y-128341410D01*
X108562479Y-128623674D01*
X108392741Y-128877705D01*
X108176705Y-129093741D01*
X107922674Y-129263479D01*
X107640410Y-129380396D01*
X107490585Y-129410198D01*
X107340761Y-129440000D01*
X107035239Y-129440000D01*
X106885415Y-129410198D01*
X106735590Y-129380396D01*
X106453326Y-129263479D01*
X106199295Y-129093741D01*
X105983259Y-128877705D01*
X105813521Y-128623674D01*
X105696604Y-128341410D01*
X105637000Y-128041760D01*
X105637000Y-127736240D01*
X105696604Y-127436590D01*
X105813521Y-127154326D01*
X105983259Y-126900295D01*
X106199295Y-126684259D01*
X106453326Y-126514521D01*
X106735590Y-126397604D01*
X106885415Y-126367802D01*
X107035239Y-126338000D01*
X107340761Y-126338000D01*
X107490585Y-126367802D01*
X107490585Y-126367802D01*
G37*
G36*
X91086000Y-129440000D02*
G01*
X87984000Y-129440000D01*
X87984000Y-126338000D01*
X91086000Y-126338000D01*
X91086000Y-129440000D01*
X91086000Y-129440000D01*
G37*
G36*
X103659000Y-129440000D02*
G01*
X100557000Y-129440000D01*
X100557000Y-126338000D01*
X103659000Y-126338000D01*
X103659000Y-129440000D01*
X103659000Y-129440000D01*
G37*
G36*
X94917585Y-126367802D02*
G01*
X95067410Y-126397604D01*
X95349674Y-126514521D01*
X95603705Y-126684259D01*
X95819741Y-126900295D01*
X95989479Y-127154326D01*
X96106396Y-127436590D01*
X96166000Y-127736240D01*
X96166000Y-128041760D01*
X96106396Y-128341410D01*
X95989479Y-128623674D01*
X95819741Y-128877705D01*
X95603705Y-129093741D01*
X95349674Y-129263479D01*
X95067410Y-129380396D01*
X94917585Y-129410198D01*
X94767761Y-129440000D01*
X94462239Y-129440000D01*
X94312415Y-129410198D01*
X94162590Y-129380396D01*
X93880326Y-129263479D01*
X93626295Y-129093741D01*
X93410259Y-128877705D01*
X93240521Y-128623674D01*
X93123604Y-128341410D01*
X93064000Y-128041760D01*
X93064000Y-127736240D01*
X93123604Y-127436590D01*
X93240521Y-127154326D01*
X93410259Y-126900295D01*
X93626295Y-126684259D01*
X93880326Y-126514521D01*
X94162590Y-126397604D01*
X94312415Y-126367802D01*
X94462239Y-126338000D01*
X94767761Y-126338000D01*
X94917585Y-126367802D01*
X94917585Y-126367802D01*
G37*
G36*
X116358213Y-121596249D02*
G01*
X116452652Y-121624897D01*
X116539687Y-121671418D01*
X116615975Y-121734025D01*
X116678582Y-121810313D01*
X116725103Y-121897348D01*
X116753751Y-121991787D01*
X116763424Y-122090000D01*
X116753751Y-122188213D01*
X116725103Y-122282652D01*
X116678582Y-122369687D01*
X116615975Y-122445975D01*
X116539687Y-122508582D01*
X116452652Y-122555103D01*
X116358213Y-122583751D01*
X116284612Y-122591000D01*
X114635388Y-122591000D01*
X114561787Y-122583751D01*
X114467348Y-122555103D01*
X114380313Y-122508582D01*
X114304025Y-122445975D01*
X114241418Y-122369687D01*
X114194897Y-122282652D01*
X114166249Y-122188213D01*
X114156576Y-122090000D01*
X114166249Y-121991787D01*
X114194897Y-121897348D01*
X114241418Y-121810313D01*
X114304025Y-121734025D01*
X114380313Y-121671418D01*
X114467348Y-121624897D01*
X114561787Y-121596249D01*
X114635388Y-121589000D01*
X116284612Y-121589000D01*
X116358213Y-121596249D01*
X116358213Y-121596249D01*
G37*
G36*
X134358213Y-121596249D02*
G01*
X134452652Y-121624897D01*
X134539687Y-121671418D01*
X134615975Y-121734025D01*
X134678582Y-121810313D01*
X134725103Y-121897348D01*
X134753751Y-121991787D01*
X134763424Y-122090000D01*
X134753751Y-122188213D01*
X134725103Y-122282652D01*
X134678582Y-122369687D01*
X134615975Y-122445975D01*
X134539687Y-122508582D01*
X134452652Y-122555103D01*
X134358213Y-122583751D01*
X134284612Y-122591000D01*
X132635388Y-122591000D01*
X132561787Y-122583751D01*
X132467348Y-122555103D01*
X132380313Y-122508582D01*
X132304025Y-122445975D01*
X132241418Y-122369687D01*
X132194897Y-122282652D01*
X132166249Y-122188213D01*
X132156576Y-122090000D01*
X132166249Y-121991787D01*
X132194897Y-121897348D01*
X132241418Y-121810313D01*
X132304025Y-121734025D01*
X132380313Y-121671418D01*
X132467348Y-121624897D01*
X132561787Y-121596249D01*
X132635388Y-121589000D01*
X134284612Y-121589000D01*
X134358213Y-121596249D01*
X134358213Y-121596249D01*
G37*
G36*
X111001000Y-121551000D02*
G01*
X108899000Y-121551000D01*
X108899000Y-119749000D01*
X111001000Y-119749000D01*
X111001000Y-121551000D01*
X111001000Y-121551000D01*
G37*
G36*
X107001000Y-121551000D02*
G01*
X104899000Y-121551000D01*
X104899000Y-119749000D01*
X107001000Y-119749000D01*
X107001000Y-121551000D01*
X107001000Y-121551000D01*
G37*
G36*
X134358213Y-120326249D02*
G01*
X134452652Y-120354897D01*
X134539687Y-120401418D01*
X134615975Y-120464025D01*
X134678582Y-120540313D01*
X134725103Y-120627348D01*
X134753751Y-120721787D01*
X134763424Y-120820000D01*
X134753751Y-120918213D01*
X134725103Y-121012652D01*
X134678582Y-121099687D01*
X134615975Y-121175975D01*
X134539687Y-121238582D01*
X134452652Y-121285103D01*
X134358213Y-121313751D01*
X134284612Y-121321000D01*
X132635388Y-121321000D01*
X132561787Y-121313751D01*
X132467348Y-121285103D01*
X132380313Y-121238582D01*
X132304025Y-121175975D01*
X132241418Y-121099687D01*
X132194897Y-121012652D01*
X132166249Y-120918213D01*
X132156576Y-120820000D01*
X132166249Y-120721787D01*
X132194897Y-120627348D01*
X132241418Y-120540313D01*
X132304025Y-120464025D01*
X132380313Y-120401418D01*
X132467348Y-120354897D01*
X132561787Y-120326249D01*
X132635388Y-120319000D01*
X134284612Y-120319000D01*
X134358213Y-120326249D01*
X134358213Y-120326249D01*
G37*
G36*
X116358213Y-120326249D02*
G01*
X116452652Y-120354897D01*
X116539687Y-120401418D01*
X116615975Y-120464025D01*
X116678582Y-120540313D01*
X116725103Y-120627348D01*
X116753751Y-120721787D01*
X116763424Y-120820000D01*
X116753751Y-120918213D01*
X116725103Y-121012652D01*
X116678582Y-121099687D01*
X116615975Y-121175975D01*
X116539687Y-121238582D01*
X116452652Y-121285103D01*
X116358213Y-121313751D01*
X116284612Y-121321000D01*
X114635388Y-121321000D01*
X114561787Y-121313751D01*
X114467348Y-121285103D01*
X114380313Y-121238582D01*
X114304025Y-121175975D01*
X114241418Y-121099687D01*
X114194897Y-121012652D01*
X114166249Y-120918213D01*
X114156576Y-120820000D01*
X114166249Y-120721787D01*
X114194897Y-120627348D01*
X114241418Y-120540313D01*
X114304025Y-120464025D01*
X114380313Y-120401418D01*
X114467348Y-120354897D01*
X114561787Y-120326249D01*
X114635388Y-120319000D01*
X116284612Y-120319000D01*
X116358213Y-120326249D01*
X116358213Y-120326249D01*
G37*
G36*
X83614585Y-118112802D02*
G01*
X83764410Y-118142604D01*
X84046674Y-118259521D01*
X84300705Y-118429259D01*
X84516741Y-118645295D01*
X84686479Y-118899326D01*
X84803396Y-119181590D01*
X84821043Y-119270310D01*
X84857142Y-119451787D01*
X84863000Y-119481240D01*
X84863000Y-119786760D01*
X84803396Y-120086410D01*
X84686479Y-120368674D01*
X84516741Y-120622705D01*
X84300705Y-120838741D01*
X84046674Y-121008479D01*
X83764410Y-121125396D01*
X83614585Y-121155198D01*
X83464761Y-121185000D01*
X83159239Y-121185000D01*
X83009415Y-121155198D01*
X82859590Y-121125396D01*
X82577326Y-121008479D01*
X82323295Y-120838741D01*
X82107259Y-120622705D01*
X81937521Y-120368674D01*
X81820604Y-120086410D01*
X81761000Y-119786760D01*
X81761000Y-119481240D01*
X81766859Y-119451787D01*
X81802957Y-119270310D01*
X81820604Y-119181590D01*
X81937521Y-118899326D01*
X82107259Y-118645295D01*
X82323295Y-118429259D01*
X82577326Y-118259521D01*
X82859590Y-118142604D01*
X83009415Y-118112802D01*
X83159239Y-118083000D01*
X83464761Y-118083000D01*
X83614585Y-118112802D01*
X83614585Y-118112802D01*
G37*
G36*
X116358213Y-119056249D02*
G01*
X116452652Y-119084897D01*
X116539687Y-119131418D01*
X116615975Y-119194025D01*
X116678582Y-119270313D01*
X116725103Y-119357348D01*
X116753751Y-119451787D01*
X116763424Y-119550000D01*
X116753751Y-119648213D01*
X116725103Y-119742652D01*
X116678582Y-119829687D01*
X116615975Y-119905975D01*
X116539687Y-119968582D01*
X116452652Y-120015103D01*
X116358213Y-120043751D01*
X116284612Y-120051000D01*
X114635388Y-120051000D01*
X114561787Y-120043751D01*
X114467348Y-120015103D01*
X114380313Y-119968582D01*
X114304025Y-119905975D01*
X114241418Y-119829687D01*
X114194897Y-119742652D01*
X114166249Y-119648213D01*
X114156576Y-119550000D01*
X114166249Y-119451787D01*
X114194897Y-119357348D01*
X114241418Y-119270313D01*
X114304025Y-119194025D01*
X114380313Y-119131418D01*
X114467348Y-119084897D01*
X114561787Y-119056249D01*
X114635388Y-119049000D01*
X116284612Y-119049000D01*
X116358213Y-119056249D01*
X116358213Y-119056249D01*
G37*
G36*
X134358213Y-119056249D02*
G01*
X134452652Y-119084897D01*
X134539687Y-119131418D01*
X134615975Y-119194025D01*
X134678582Y-119270313D01*
X134725103Y-119357348D01*
X134753751Y-119451787D01*
X134763424Y-119550000D01*
X134753751Y-119648213D01*
X134725103Y-119742652D01*
X134678582Y-119829687D01*
X134615975Y-119905975D01*
X134539687Y-119968582D01*
X134452652Y-120015103D01*
X134358213Y-120043751D01*
X134284612Y-120051000D01*
X132635388Y-120051000D01*
X132561787Y-120043751D01*
X132467348Y-120015103D01*
X132380313Y-119968582D01*
X132304025Y-119905975D01*
X132241418Y-119829687D01*
X132194897Y-119742652D01*
X132166249Y-119648213D01*
X132156576Y-119550000D01*
X132166249Y-119451787D01*
X132194897Y-119357348D01*
X132241418Y-119270313D01*
X132304025Y-119194025D01*
X132380313Y-119131418D01*
X132467348Y-119084897D01*
X132561787Y-119056249D01*
X132635388Y-119049000D01*
X134284612Y-119049000D01*
X134358213Y-119056249D01*
X134358213Y-119056249D01*
G37*
G36*
X97926000Y-119511000D02*
G01*
X96924000Y-119511000D01*
X96924000Y-118609000D01*
X97926000Y-118609000D01*
X97926000Y-119511000D01*
X97926000Y-119511000D01*
G37*
G36*
X93354000Y-119511000D02*
G01*
X92352000Y-119511000D01*
X92352000Y-118609000D01*
X93354000Y-118609000D01*
X93354000Y-119511000D01*
X93354000Y-119511000D01*
G37*
G36*
X134358213Y-117786249D02*
G01*
X134452652Y-117814897D01*
X134539687Y-117861418D01*
X134615975Y-117924025D01*
X134678582Y-118000313D01*
X134725103Y-118087348D01*
X134753751Y-118181787D01*
X134763424Y-118280000D01*
X134753751Y-118378213D01*
X134725103Y-118472652D01*
X134678582Y-118559687D01*
X134615975Y-118635975D01*
X134539687Y-118698582D01*
X134452652Y-118745103D01*
X134358213Y-118773751D01*
X134284612Y-118781000D01*
X132635388Y-118781000D01*
X132561787Y-118773751D01*
X132467348Y-118745103D01*
X132380313Y-118698582D01*
X132304025Y-118635975D01*
X132241418Y-118559687D01*
X132194897Y-118472652D01*
X132166249Y-118378213D01*
X132156576Y-118280000D01*
X132166249Y-118181787D01*
X132194897Y-118087348D01*
X132241418Y-118000313D01*
X132304025Y-117924025D01*
X132380313Y-117861418D01*
X132467348Y-117814897D01*
X132561787Y-117786249D01*
X132635388Y-117779000D01*
X134284612Y-117779000D01*
X134358213Y-117786249D01*
X134358213Y-117786249D01*
G37*
G36*
X116358213Y-117786249D02*
G01*
X116452652Y-117814897D01*
X116539687Y-117861418D01*
X116615975Y-117924025D01*
X116678582Y-118000313D01*
X116725103Y-118087348D01*
X116753751Y-118181787D01*
X116763424Y-118280000D01*
X116753751Y-118378213D01*
X116725103Y-118472652D01*
X116678582Y-118559687D01*
X116615975Y-118635975D01*
X116539687Y-118698582D01*
X116452652Y-118745103D01*
X116358213Y-118773751D01*
X116284612Y-118781000D01*
X114635388Y-118781000D01*
X114561787Y-118773751D01*
X114467348Y-118745103D01*
X114380313Y-118698582D01*
X114304025Y-118635975D01*
X114241418Y-118559687D01*
X114194897Y-118472652D01*
X114166249Y-118378213D01*
X114156576Y-118280000D01*
X114166249Y-118181787D01*
X114194897Y-118087348D01*
X114241418Y-118000313D01*
X114304025Y-117924025D01*
X114380313Y-117861418D01*
X114467348Y-117814897D01*
X114561787Y-117786249D01*
X114635388Y-117779000D01*
X116284612Y-117779000D01*
X116358213Y-117786249D01*
X116358213Y-117786249D01*
G37*
G36*
X95354000Y-118561000D02*
G01*
X94352000Y-118561000D01*
X94352000Y-117659000D01*
X95354000Y-117659000D01*
X95354000Y-118561000D01*
X95354000Y-118561000D01*
G37*
G36*
X99926000Y-118561000D02*
G01*
X98924000Y-118561000D01*
X98924000Y-117659000D01*
X99926000Y-117659000D01*
X99926000Y-118561000D01*
X99926000Y-118561000D01*
G37*
G36*
X107001000Y-118503000D02*
G01*
X104899000Y-118503000D01*
X104899000Y-116701000D01*
X107001000Y-116701000D01*
X107001000Y-118503000D01*
X107001000Y-118503000D01*
G37*
G36*
X111001000Y-118503000D02*
G01*
X108899000Y-118503000D01*
X108899000Y-116701000D01*
X111001000Y-116701000D01*
X111001000Y-118503000D01*
X111001000Y-118503000D01*
G37*
G36*
X93354000Y-117611000D02*
G01*
X92352000Y-117611000D01*
X92352000Y-116709000D01*
X93354000Y-116709000D01*
X93354000Y-117611000D01*
X93354000Y-117611000D01*
G37*
G36*
X97926000Y-117611000D02*
G01*
X96924000Y-117611000D01*
X96924000Y-116709000D01*
X97926000Y-116709000D01*
X97926000Y-117611000D01*
X97926000Y-117611000D01*
G37*
G36*
X116358213Y-116516249D02*
G01*
X116452652Y-116544897D01*
X116539687Y-116591418D01*
X116615975Y-116654025D01*
X116678582Y-116730313D01*
X116725103Y-116817348D01*
X116753751Y-116911787D01*
X116763424Y-117010000D01*
X116753751Y-117108213D01*
X116725103Y-117202652D01*
X116678582Y-117289687D01*
X116615975Y-117365975D01*
X116539687Y-117428582D01*
X116452652Y-117475103D01*
X116358213Y-117503751D01*
X116284612Y-117511000D01*
X114635388Y-117511000D01*
X114561787Y-117503751D01*
X114467348Y-117475103D01*
X114380313Y-117428582D01*
X114304025Y-117365975D01*
X114241418Y-117289687D01*
X114194897Y-117202652D01*
X114166249Y-117108213D01*
X114156576Y-117010000D01*
X114166249Y-116911787D01*
X114194897Y-116817348D01*
X114241418Y-116730313D01*
X114304025Y-116654025D01*
X114380313Y-116591418D01*
X114467348Y-116544897D01*
X114561787Y-116516249D01*
X114635388Y-116509000D01*
X116284612Y-116509000D01*
X116358213Y-116516249D01*
X116358213Y-116516249D01*
G37*
G36*
X134358213Y-116516249D02*
G01*
X134452652Y-116544897D01*
X134539687Y-116591418D01*
X134615975Y-116654025D01*
X134678582Y-116730313D01*
X134725103Y-116817348D01*
X134753751Y-116911787D01*
X134763424Y-117010000D01*
X134753751Y-117108213D01*
X134725103Y-117202652D01*
X134678582Y-117289687D01*
X134615975Y-117365975D01*
X134539687Y-117428582D01*
X134452652Y-117475103D01*
X134358213Y-117503751D01*
X134284612Y-117511000D01*
X132635388Y-117511000D01*
X132561787Y-117503751D01*
X132467348Y-117475103D01*
X132380313Y-117428582D01*
X132304025Y-117365975D01*
X132241418Y-117289687D01*
X132194897Y-117202652D01*
X132166249Y-117108213D01*
X132156576Y-117010000D01*
X132166249Y-116911787D01*
X132194897Y-116817348D01*
X132241418Y-116730313D01*
X132304025Y-116654025D01*
X132380313Y-116591418D01*
X132467348Y-116544897D01*
X132561787Y-116516249D01*
X132635388Y-116509000D01*
X134284612Y-116509000D01*
X134358213Y-116516249D01*
X134358213Y-116516249D01*
G37*
G36*
X127811000Y-117441000D02*
G01*
X121709000Y-117441000D01*
X121709000Y-111339000D01*
X127811000Y-111339000D01*
X127811000Y-117441000D01*
X127811000Y-117441000D01*
G37*
G36*
X116358213Y-115246249D02*
G01*
X116452652Y-115274897D01*
X116539687Y-115321418D01*
X116615975Y-115384025D01*
X116678582Y-115460313D01*
X116725103Y-115547348D01*
X116753751Y-115641787D01*
X116763424Y-115740000D01*
X116753751Y-115838213D01*
X116725103Y-115932652D01*
X116678582Y-116019687D01*
X116615975Y-116095975D01*
X116539687Y-116158582D01*
X116452652Y-116205103D01*
X116358213Y-116233751D01*
X116284612Y-116241000D01*
X114635388Y-116241000D01*
X114561787Y-116233751D01*
X114467348Y-116205103D01*
X114380313Y-116158582D01*
X114304025Y-116095975D01*
X114241418Y-116019687D01*
X114194897Y-115932652D01*
X114166249Y-115838213D01*
X114156576Y-115740000D01*
X114166249Y-115641787D01*
X114194897Y-115547348D01*
X114241418Y-115460313D01*
X114304025Y-115384025D01*
X114380313Y-115321418D01*
X114467348Y-115274897D01*
X114561787Y-115246249D01*
X114635388Y-115239000D01*
X116284612Y-115239000D01*
X116358213Y-115246249D01*
X116358213Y-115246249D01*
G37*
G36*
X134358213Y-115246249D02*
G01*
X134452652Y-115274897D01*
X134539687Y-115321418D01*
X134615975Y-115384025D01*
X134678582Y-115460313D01*
X134725103Y-115547348D01*
X134753751Y-115641787D01*
X134763424Y-115740000D01*
X134753751Y-115838213D01*
X134725103Y-115932652D01*
X134678582Y-116019687D01*
X134615975Y-116095975D01*
X134539687Y-116158582D01*
X134452652Y-116205103D01*
X134358213Y-116233751D01*
X134284612Y-116241000D01*
X132635388Y-116241000D01*
X132561787Y-116233751D01*
X132467348Y-116205103D01*
X132380313Y-116158582D01*
X132304025Y-116095975D01*
X132241418Y-116019687D01*
X132194897Y-115932652D01*
X132166249Y-115838213D01*
X132156576Y-115740000D01*
X132166249Y-115641787D01*
X132194897Y-115547348D01*
X132241418Y-115460313D01*
X132304025Y-115384025D01*
X132380313Y-115321418D01*
X132467348Y-115274897D01*
X132561787Y-115246249D01*
X132635388Y-115239000D01*
X134284612Y-115239000D01*
X134358213Y-115246249D01*
X134358213Y-115246249D01*
G37*
G36*
X84863000Y-116105000D02*
G01*
X81761000Y-116105000D01*
X81761000Y-113003000D01*
X84863000Y-113003000D01*
X84863000Y-116105000D01*
X84863000Y-116105000D01*
G37*
G36*
X116358213Y-113976249D02*
G01*
X116452652Y-114004897D01*
X116539687Y-114051418D01*
X116615975Y-114114025D01*
X116678582Y-114190313D01*
X116725103Y-114277348D01*
X116753751Y-114371787D01*
X116763424Y-114470000D01*
X116753751Y-114568213D01*
X116725103Y-114662652D01*
X116678582Y-114749687D01*
X116615975Y-114825975D01*
X116539687Y-114888582D01*
X116452652Y-114935103D01*
X116358213Y-114963751D01*
X116284612Y-114971000D01*
X114635388Y-114971000D01*
X114561787Y-114963751D01*
X114467348Y-114935103D01*
X114380313Y-114888582D01*
X114304025Y-114825975D01*
X114241418Y-114749687D01*
X114194897Y-114662652D01*
X114166249Y-114568213D01*
X114156576Y-114470000D01*
X114166249Y-114371787D01*
X114194897Y-114277348D01*
X114241418Y-114190313D01*
X114304025Y-114114025D01*
X114380313Y-114051418D01*
X114467348Y-114004897D01*
X114561787Y-113976249D01*
X114635388Y-113969000D01*
X116284612Y-113969000D01*
X116358213Y-113976249D01*
X116358213Y-113976249D01*
G37*
G36*
X134358213Y-113976249D02*
G01*
X134452652Y-114004897D01*
X134539687Y-114051418D01*
X134615975Y-114114025D01*
X134678582Y-114190313D01*
X134725103Y-114277348D01*
X134753751Y-114371787D01*
X134763424Y-114470000D01*
X134753751Y-114568213D01*
X134725103Y-114662652D01*
X134678582Y-114749687D01*
X134615975Y-114825975D01*
X134539687Y-114888582D01*
X134452652Y-114935103D01*
X134358213Y-114963751D01*
X134284612Y-114971000D01*
X132635388Y-114971000D01*
X132561787Y-114963751D01*
X132467348Y-114935103D01*
X132380313Y-114888582D01*
X132304025Y-114825975D01*
X132241418Y-114749687D01*
X132194897Y-114662652D01*
X132166249Y-114568213D01*
X132156576Y-114470000D01*
X132166249Y-114371787D01*
X132194897Y-114277348D01*
X132241418Y-114190313D01*
X132304025Y-114114025D01*
X132380313Y-114051418D01*
X132467348Y-114004897D01*
X132561787Y-113976249D01*
X132635388Y-113969000D01*
X134284612Y-113969000D01*
X134358213Y-113976249D01*
X134358213Y-113976249D01*
G37*
G36*
X106967000Y-114897000D02*
G01*
X104865000Y-114897000D01*
X104865000Y-113095000D01*
X106967000Y-113095000D01*
X106967000Y-114897000D01*
X106967000Y-114897000D01*
G37*
G36*
X110967000Y-114897000D02*
G01*
X108865000Y-114897000D01*
X108865000Y-113095000D01*
X110967000Y-113095000D01*
X110967000Y-114897000D01*
X110967000Y-114897000D01*
G37*
G36*
X134358213Y-112706249D02*
G01*
X134452652Y-112734897D01*
X134539687Y-112781418D01*
X134615975Y-112844025D01*
X134678582Y-112920313D01*
X134725103Y-113007348D01*
X134753751Y-113101787D01*
X134763424Y-113200000D01*
X134753751Y-113298213D01*
X134725103Y-113392652D01*
X134678582Y-113479687D01*
X134615975Y-113555975D01*
X134539687Y-113618582D01*
X134452652Y-113665103D01*
X134358213Y-113693751D01*
X134284612Y-113701000D01*
X132635388Y-113701000D01*
X132561787Y-113693751D01*
X132467348Y-113665103D01*
X132380313Y-113618582D01*
X132304025Y-113555975D01*
X132241418Y-113479687D01*
X132194897Y-113392652D01*
X132166249Y-113298213D01*
X132156576Y-113200000D01*
X132166249Y-113101787D01*
X132194897Y-113007348D01*
X132241418Y-112920313D01*
X132304025Y-112844025D01*
X132380313Y-112781418D01*
X132467348Y-112734897D01*
X132561787Y-112706249D01*
X132635388Y-112699000D01*
X134284612Y-112699000D01*
X134358213Y-112706249D01*
X134358213Y-112706249D01*
G37*
G36*
X116358213Y-112706249D02*
G01*
X116452652Y-112734897D01*
X116539687Y-112781418D01*
X116615975Y-112844025D01*
X116678582Y-112920313D01*
X116725103Y-113007348D01*
X116753751Y-113101787D01*
X116763424Y-113200000D01*
X116753751Y-113298213D01*
X116725103Y-113392652D01*
X116678582Y-113479687D01*
X116615975Y-113555975D01*
X116539687Y-113618582D01*
X116452652Y-113665103D01*
X116358213Y-113693751D01*
X116284612Y-113701000D01*
X114635388Y-113701000D01*
X114561787Y-113693751D01*
X114467348Y-113665103D01*
X114380313Y-113618582D01*
X114304025Y-113555975D01*
X114241418Y-113479687D01*
X114194897Y-113392652D01*
X114166249Y-113298213D01*
X114156576Y-113200000D01*
X114166249Y-113101787D01*
X114194897Y-113007348D01*
X114241418Y-112920313D01*
X114304025Y-112844025D01*
X114380313Y-112781418D01*
X114467348Y-112734897D01*
X114561787Y-112706249D01*
X114635388Y-112699000D01*
X116284612Y-112699000D01*
X116358213Y-112706249D01*
X116358213Y-112706249D01*
G37*
G36*
X134358213Y-111436249D02*
G01*
X134452652Y-111464897D01*
X134539687Y-111511418D01*
X134615975Y-111574025D01*
X134678582Y-111650313D01*
X134725103Y-111737348D01*
X134753751Y-111831787D01*
X134763424Y-111930000D01*
X134753751Y-112028213D01*
X134725103Y-112122652D01*
X134678582Y-112209687D01*
X134615975Y-112285975D01*
X134539687Y-112348582D01*
X134452652Y-112395103D01*
X134358213Y-112423751D01*
X134284612Y-112431000D01*
X132635388Y-112431000D01*
X132561787Y-112423751D01*
X132467348Y-112395103D01*
X132380313Y-112348582D01*
X132304025Y-112285975D01*
X132241418Y-112209687D01*
X132194897Y-112122652D01*
X132166249Y-112028213D01*
X132156576Y-111930000D01*
X132166249Y-111831787D01*
X132194897Y-111737348D01*
X132241418Y-111650313D01*
X132304025Y-111574025D01*
X132380313Y-111511418D01*
X132467348Y-111464897D01*
X132561787Y-111436249D01*
X132635388Y-111429000D01*
X134284612Y-111429000D01*
X134358213Y-111436249D01*
X134358213Y-111436249D01*
G37*
G36*
X116358213Y-111436249D02*
G01*
X116452652Y-111464897D01*
X116539687Y-111511418D01*
X116615975Y-111574025D01*
X116678582Y-111650313D01*
X116725103Y-111737348D01*
X116753751Y-111831787D01*
X116763424Y-111930000D01*
X116753751Y-112028213D01*
X116725103Y-112122652D01*
X116678582Y-112209687D01*
X116615975Y-112285975D01*
X116539687Y-112348582D01*
X116452652Y-112395103D01*
X116358213Y-112423751D01*
X116284612Y-112431000D01*
X114635388Y-112431000D01*
X114561787Y-112423751D01*
X114467348Y-112395103D01*
X114380313Y-112348582D01*
X114304025Y-112285975D01*
X114241418Y-112209687D01*
X114194897Y-112122652D01*
X114166249Y-112028213D01*
X114156576Y-111930000D01*
X114166249Y-111831787D01*
X114194897Y-111737348D01*
X114241418Y-111650313D01*
X114304025Y-111574025D01*
X114380313Y-111511418D01*
X114467348Y-111464897D01*
X114561787Y-111436249D01*
X114635388Y-111429000D01*
X116284612Y-111429000D01*
X116358213Y-111436249D01*
X116358213Y-111436249D01*
G37*
G36*
X103635000Y-111645000D02*
G01*
X101533000Y-111645000D01*
X101533000Y-109843000D01*
X103635000Y-109843000D01*
X103635000Y-111645000D01*
X103635000Y-111645000D01*
G37*
G36*
X99635000Y-111645000D02*
G01*
X97533000Y-111645000D01*
X97533000Y-109843000D01*
X99635000Y-109843000D01*
X99635000Y-111645000D01*
X99635000Y-111645000D01*
G37*
G36*
X110967000Y-111637000D02*
G01*
X108865000Y-111637000D01*
X108865000Y-109835000D01*
X110967000Y-109835000D01*
X110967000Y-111637000D01*
X110967000Y-111637000D01*
G37*
G36*
X106967000Y-111637000D02*
G01*
X104865000Y-111637000D01*
X104865000Y-109835000D01*
X106967000Y-109835000D01*
X106967000Y-111637000D01*
X106967000Y-111637000D01*
G37*
G36*
X92523000Y-111595000D02*
G01*
X90421000Y-111595000D01*
X90421000Y-109893000D01*
X92523000Y-109893000D01*
X92523000Y-111595000D01*
X92523000Y-111595000D01*
G37*
G36*
X96523000Y-111595000D02*
G01*
X94421000Y-111595000D01*
X94421000Y-109893000D01*
X96523000Y-109893000D01*
X96523000Y-111595000D01*
X96523000Y-111595000D01*
G37*
G36*
X134358213Y-110166249D02*
G01*
X134452652Y-110194897D01*
X134539687Y-110241418D01*
X134615975Y-110304025D01*
X134678582Y-110380313D01*
X134725103Y-110467348D01*
X134753751Y-110561787D01*
X134763424Y-110660000D01*
X134753751Y-110758213D01*
X134725103Y-110852652D01*
X134678582Y-110939687D01*
X134615975Y-111015975D01*
X134539687Y-111078582D01*
X134452652Y-111125103D01*
X134358213Y-111153751D01*
X134284612Y-111161000D01*
X132635388Y-111161000D01*
X132561787Y-111153751D01*
X132467348Y-111125103D01*
X132380313Y-111078582D01*
X132304025Y-111015975D01*
X132241418Y-110939687D01*
X132194897Y-110852652D01*
X132166249Y-110758213D01*
X132156576Y-110660000D01*
X132166249Y-110561787D01*
X132194897Y-110467348D01*
X132241418Y-110380313D01*
X132304025Y-110304025D01*
X132380313Y-110241418D01*
X132467348Y-110194897D01*
X132561787Y-110166249D01*
X132635388Y-110159000D01*
X134284612Y-110159000D01*
X134358213Y-110166249D01*
X134358213Y-110166249D01*
G37*
G36*
X116358213Y-110166249D02*
G01*
X116452652Y-110194897D01*
X116539687Y-110241418D01*
X116615975Y-110304025D01*
X116678582Y-110380313D01*
X116725103Y-110467348D01*
X116753751Y-110561787D01*
X116763424Y-110660000D01*
X116753751Y-110758213D01*
X116725103Y-110852652D01*
X116678582Y-110939687D01*
X116615975Y-111015975D01*
X116539687Y-111078582D01*
X116452652Y-111125103D01*
X116358213Y-111153751D01*
X116284612Y-111161000D01*
X114635388Y-111161000D01*
X114561787Y-111153751D01*
X114467348Y-111125103D01*
X114380313Y-111078582D01*
X114304025Y-111015975D01*
X114241418Y-110939687D01*
X114194897Y-110852652D01*
X114166249Y-110758213D01*
X114156576Y-110660000D01*
X114166249Y-110561787D01*
X114194897Y-110467348D01*
X114241418Y-110380313D01*
X114304025Y-110304025D01*
X114380313Y-110241418D01*
X114467348Y-110194897D01*
X114561787Y-110166249D01*
X114635388Y-110159000D01*
X116284612Y-110159000D01*
X116358213Y-110166249D01*
X116358213Y-110166249D01*
G37*
G36*
X85386000Y-110121000D02*
G01*
X84384000Y-110121000D01*
X84384000Y-108319000D01*
X85386000Y-108319000D01*
X85386000Y-110121000D01*
X85386000Y-110121000D01*
G37*
G36*
X81986000Y-110121000D02*
G01*
X80984000Y-110121000D01*
X80984000Y-108319000D01*
X81986000Y-108319000D01*
X81986000Y-110121000D01*
X81986000Y-110121000D01*
G37*
G36*
X134358213Y-108896249D02*
G01*
X134452652Y-108924897D01*
X134539687Y-108971418D01*
X134615975Y-109034025D01*
X134678582Y-109110313D01*
X134725103Y-109197348D01*
X134753751Y-109291787D01*
X134763424Y-109390000D01*
X134753751Y-109488213D01*
X134725103Y-109582652D01*
X134678582Y-109669687D01*
X134615975Y-109745975D01*
X134539687Y-109808582D01*
X134452652Y-109855103D01*
X134358213Y-109883751D01*
X134284612Y-109891000D01*
X132635388Y-109891000D01*
X132561787Y-109883751D01*
X132467348Y-109855103D01*
X132380313Y-109808582D01*
X132304025Y-109745975D01*
X132241418Y-109669687D01*
X132194897Y-109582652D01*
X132166249Y-109488213D01*
X132156576Y-109390000D01*
X132166249Y-109291787D01*
X132194897Y-109197348D01*
X132241418Y-109110313D01*
X132304025Y-109034025D01*
X132380313Y-108971418D01*
X132467348Y-108924897D01*
X132561787Y-108896249D01*
X132635388Y-108889000D01*
X134284612Y-108889000D01*
X134358213Y-108896249D01*
X134358213Y-108896249D01*
G37*
G36*
X116358213Y-108896249D02*
G01*
X116452652Y-108924897D01*
X116539687Y-108971418D01*
X116615975Y-109034025D01*
X116678582Y-109110313D01*
X116725103Y-109197348D01*
X116753751Y-109291787D01*
X116763424Y-109390000D01*
X116753751Y-109488213D01*
X116725103Y-109582652D01*
X116678582Y-109669687D01*
X116615975Y-109745975D01*
X116539687Y-109808582D01*
X116452652Y-109855103D01*
X116358213Y-109883751D01*
X116284612Y-109891000D01*
X114635388Y-109891000D01*
X114561787Y-109883751D01*
X114467348Y-109855103D01*
X114380313Y-109808582D01*
X114304025Y-109745975D01*
X114241418Y-109669687D01*
X114194897Y-109582652D01*
X114166249Y-109488213D01*
X114156576Y-109390000D01*
X114166249Y-109291787D01*
X114194897Y-109197348D01*
X114241418Y-109110313D01*
X114304025Y-109034025D01*
X114380313Y-108971418D01*
X114467348Y-108924897D01*
X114561787Y-108896249D01*
X114635388Y-108889000D01*
X116284612Y-108889000D01*
X116358213Y-108896249D01*
X116358213Y-108896249D01*
G37*
G36*
X134358213Y-107626249D02*
G01*
X134452652Y-107654897D01*
X134539687Y-107701418D01*
X134615975Y-107764025D01*
X134678582Y-107840313D01*
X134725103Y-107927348D01*
X134753751Y-108021787D01*
X134763424Y-108120000D01*
X134753751Y-108218213D01*
X134725103Y-108312652D01*
X134678582Y-108399687D01*
X134615975Y-108475975D01*
X134539687Y-108538582D01*
X134452652Y-108585103D01*
X134358213Y-108613751D01*
X134284612Y-108621000D01*
X132635388Y-108621000D01*
X132561787Y-108613751D01*
X132467348Y-108585103D01*
X132380313Y-108538582D01*
X132304025Y-108475975D01*
X132241418Y-108399687D01*
X132194897Y-108312652D01*
X132166249Y-108218213D01*
X132156576Y-108120000D01*
X132166249Y-108021787D01*
X132194897Y-107927348D01*
X132241418Y-107840313D01*
X132304025Y-107764025D01*
X132380313Y-107701418D01*
X132467348Y-107654897D01*
X132561787Y-107626249D01*
X132635388Y-107619000D01*
X134284612Y-107619000D01*
X134358213Y-107626249D01*
X134358213Y-107626249D01*
G37*
G36*
X116358213Y-107626249D02*
G01*
X116452652Y-107654897D01*
X116539687Y-107701418D01*
X116615975Y-107764025D01*
X116678582Y-107840313D01*
X116725103Y-107927348D01*
X116753751Y-108021787D01*
X116763424Y-108120000D01*
X116753751Y-108218213D01*
X116725103Y-108312652D01*
X116678582Y-108399687D01*
X116615975Y-108475975D01*
X116539687Y-108538582D01*
X116452652Y-108585103D01*
X116358213Y-108613751D01*
X116284612Y-108621000D01*
X114635388Y-108621000D01*
X114561787Y-108613751D01*
X114467348Y-108585103D01*
X114380313Y-108538582D01*
X114304025Y-108475975D01*
X114241418Y-108399687D01*
X114194897Y-108312652D01*
X114166249Y-108218213D01*
X114156576Y-108120000D01*
X114166249Y-108021787D01*
X114194897Y-107927348D01*
X114241418Y-107840313D01*
X114304025Y-107764025D01*
X114380313Y-107701418D01*
X114467348Y-107654897D01*
X114561787Y-107626249D01*
X114635388Y-107619000D01*
X116284612Y-107619000D01*
X116358213Y-107626249D01*
X116358213Y-107626249D01*
G37*
G36*
X116358213Y-106356249D02*
G01*
X116452652Y-106384897D01*
X116539687Y-106431418D01*
X116615975Y-106494025D01*
X116678582Y-106570313D01*
X116725103Y-106657348D01*
X116753751Y-106751787D01*
X116763424Y-106850000D01*
X116753751Y-106948213D01*
X116725103Y-107042652D01*
X116678582Y-107129687D01*
X116615975Y-107205975D01*
X116539687Y-107268582D01*
X116452652Y-107315103D01*
X116358213Y-107343751D01*
X116284612Y-107351000D01*
X114635388Y-107351000D01*
X114561787Y-107343751D01*
X114467348Y-107315103D01*
X114380313Y-107268582D01*
X114304025Y-107205975D01*
X114241418Y-107129687D01*
X114194897Y-107042652D01*
X114166249Y-106948213D01*
X114156576Y-106850000D01*
X114166249Y-106751787D01*
X114194897Y-106657348D01*
X114241418Y-106570313D01*
X114304025Y-106494025D01*
X114380313Y-106431418D01*
X114467348Y-106384897D01*
X114561787Y-106356249D01*
X114635388Y-106349000D01*
X116284612Y-106349000D01*
X116358213Y-106356249D01*
X116358213Y-106356249D01*
G37*
G36*
X134358213Y-106356249D02*
G01*
X134452652Y-106384897D01*
X134539687Y-106431418D01*
X134615975Y-106494025D01*
X134678582Y-106570313D01*
X134725103Y-106657348D01*
X134753751Y-106751787D01*
X134763424Y-106850000D01*
X134753751Y-106948213D01*
X134725103Y-107042652D01*
X134678582Y-107129687D01*
X134615975Y-107205975D01*
X134539687Y-107268582D01*
X134452652Y-107315103D01*
X134358213Y-107343751D01*
X134284612Y-107351000D01*
X132635388Y-107351000D01*
X132561787Y-107343751D01*
X132467348Y-107315103D01*
X132380313Y-107268582D01*
X132304025Y-107205975D01*
X132241418Y-107129687D01*
X132194897Y-107042652D01*
X132166249Y-106948213D01*
X132156576Y-106850000D01*
X132166249Y-106751787D01*
X132194897Y-106657348D01*
X132241418Y-106570313D01*
X132304025Y-106494025D01*
X132380313Y-106431418D01*
X132467348Y-106384897D01*
X132561787Y-106356249D01*
X132635388Y-106349000D01*
X134284612Y-106349000D01*
X134358213Y-106356249D01*
X134358213Y-106356249D01*
G37*
G36*
X83701000Y-106561000D02*
G01*
X81399000Y-106561000D01*
X81399000Y-104259000D01*
X83701000Y-104259000D01*
X83701000Y-106561000D01*
X83701000Y-106561000D01*
G37*
G36*
X100880000Y-106438000D02*
G01*
X99878000Y-106438000D01*
X99878000Y-104636000D01*
X100880000Y-104636000D01*
X100880000Y-106438000D01*
X100880000Y-106438000D01*
G37*
G36*
X97480000Y-106438000D02*
G01*
X96478000Y-106438000D01*
X96478000Y-104636000D01*
X97480000Y-104636000D01*
X97480000Y-106438000D01*
X97480000Y-106438000D01*
G37*
G36*
X116358213Y-105086249D02*
G01*
X116452652Y-105114897D01*
X116539687Y-105161418D01*
X116615975Y-105224025D01*
X116678582Y-105300313D01*
X116725103Y-105387348D01*
X116753751Y-105481787D01*
X116763424Y-105580000D01*
X116753751Y-105678213D01*
X116725103Y-105772652D01*
X116678582Y-105859687D01*
X116615975Y-105935975D01*
X116539687Y-105998582D01*
X116452652Y-106045103D01*
X116358213Y-106073751D01*
X116284612Y-106081000D01*
X114635388Y-106081000D01*
X114561787Y-106073751D01*
X114467348Y-106045103D01*
X114380313Y-105998582D01*
X114304025Y-105935975D01*
X114241418Y-105859687D01*
X114194897Y-105772652D01*
X114166249Y-105678213D01*
X114156576Y-105580000D01*
X114166249Y-105481787D01*
X114194897Y-105387348D01*
X114241418Y-105300313D01*
X114304025Y-105224025D01*
X114380313Y-105161418D01*
X114467348Y-105114897D01*
X114561787Y-105086249D01*
X114635388Y-105079000D01*
X116284612Y-105079000D01*
X116358213Y-105086249D01*
X116358213Y-105086249D01*
G37*
G36*
X134358213Y-105086249D02*
G01*
X134452652Y-105114897D01*
X134539687Y-105161418D01*
X134615975Y-105224025D01*
X134678582Y-105300313D01*
X134725103Y-105387348D01*
X134753751Y-105481787D01*
X134763424Y-105580000D01*
X134753751Y-105678213D01*
X134725103Y-105772652D01*
X134678582Y-105859687D01*
X134615975Y-105935975D01*
X134539687Y-105998582D01*
X134452652Y-106045103D01*
X134358213Y-106073751D01*
X134284612Y-106081000D01*
X132635388Y-106081000D01*
X132561787Y-106073751D01*
X132467348Y-106045103D01*
X132380313Y-105998582D01*
X132304025Y-105935975D01*
X132241418Y-105859687D01*
X132194897Y-105772652D01*
X132166249Y-105678213D01*
X132156576Y-105580000D01*
X132166249Y-105481787D01*
X132194897Y-105387348D01*
X132241418Y-105300313D01*
X132304025Y-105224025D01*
X132380313Y-105161418D01*
X132467348Y-105114897D01*
X132561787Y-105086249D01*
X132635388Y-105079000D01*
X134284612Y-105079000D01*
X134358213Y-105086249D01*
X134358213Y-105086249D01*
G37*
G36*
X92002000Y-101548001D02*
G01*
X92004402Y-101572387D01*
X92011515Y-101595836D01*
X92023066Y-101617447D01*
X92038611Y-101636389D01*
X92057553Y-101651934D01*
X92079164Y-101663485D01*
X92102613Y-101670598D01*
X92126999Y-101673000D01*
X92977000Y-101673000D01*
X92977000Y-104575000D01*
X92126999Y-104575000D01*
X92102613Y-104577402D01*
X92079164Y-104584515D01*
X92057553Y-104596066D01*
X92038611Y-104611611D01*
X92023066Y-104630553D01*
X92011515Y-104652164D01*
X92004402Y-104675613D01*
X92002000Y-104699999D01*
X92002000Y-105550000D01*
X89100000Y-105550000D01*
X89100000Y-104699999D01*
X89097598Y-104675613D01*
X89090485Y-104652164D01*
X89078934Y-104630553D01*
X89063389Y-104611611D01*
X89044447Y-104596066D01*
X89022836Y-104584515D01*
X88999387Y-104577402D01*
X88975001Y-104575000D01*
X88125000Y-104575000D01*
X88125000Y-101673000D01*
X88975001Y-101673000D01*
X88999387Y-101670598D01*
X89022836Y-101663485D01*
X89044447Y-101651934D01*
X89063389Y-101636389D01*
X89078934Y-101617447D01*
X89090485Y-101595836D01*
X89097598Y-101572387D01*
X89100000Y-101548001D01*
X89100000Y-100698000D01*
X92002000Y-100698000D01*
X92002000Y-101548001D01*
X92002000Y-101548001D01*
G37*
G36*
X122653212Y-102796249D02*
G01*
X122747651Y-102824897D01*
X122834687Y-102871418D01*
X122910975Y-102934025D01*
X122973582Y-103010313D01*
X123020103Y-103097348D01*
X123048751Y-103191787D01*
X123056000Y-103265388D01*
X123056000Y-104914612D01*
X123048751Y-104988213D01*
X123020103Y-105082652D01*
X122973582Y-105169687D01*
X122910975Y-105245975D01*
X122834687Y-105308582D01*
X122747652Y-105355103D01*
X122653213Y-105383751D01*
X122555000Y-105393424D01*
X122456788Y-105383751D01*
X122362349Y-105355103D01*
X122275314Y-105308582D01*
X122199026Y-105245975D01*
X122136419Y-105169687D01*
X122089898Y-105082652D01*
X122061250Y-104988213D01*
X122054001Y-104914612D01*
X122054000Y-103265389D01*
X122061249Y-103191788D01*
X122089897Y-103097349D01*
X122136418Y-103010313D01*
X122199025Y-102934025D01*
X122275313Y-102871418D01*
X122362348Y-102824897D01*
X122456787Y-102796249D01*
X122555000Y-102786576D01*
X122653212Y-102796249D01*
X122653212Y-102796249D01*
G37*
G36*
X130273212Y-102796249D02*
G01*
X130367651Y-102824897D01*
X130454687Y-102871418D01*
X130530975Y-102934025D01*
X130593582Y-103010313D01*
X130640103Y-103097348D01*
X130668751Y-103191787D01*
X130676000Y-103265388D01*
X130676000Y-104914612D01*
X130668751Y-104988213D01*
X130640103Y-105082652D01*
X130593582Y-105169687D01*
X130530975Y-105245975D01*
X130454687Y-105308582D01*
X130367652Y-105355103D01*
X130273213Y-105383751D01*
X130175000Y-105393424D01*
X130076788Y-105383751D01*
X129982349Y-105355103D01*
X129895314Y-105308582D01*
X129819026Y-105245975D01*
X129756419Y-105169687D01*
X129709898Y-105082652D01*
X129681250Y-104988213D01*
X129674001Y-104914612D01*
X129674000Y-103265389D01*
X129681249Y-103191788D01*
X129709897Y-103097349D01*
X129756418Y-103010313D01*
X129819025Y-102934025D01*
X129895313Y-102871418D01*
X129982348Y-102824897D01*
X130076787Y-102796249D01*
X130175000Y-102786576D01*
X130273212Y-102796249D01*
X130273212Y-102796249D01*
G37*
G36*
X129003212Y-102796249D02*
G01*
X129097651Y-102824897D01*
X129184687Y-102871418D01*
X129260975Y-102934025D01*
X129323582Y-103010313D01*
X129370103Y-103097348D01*
X129398751Y-103191787D01*
X129406000Y-103265388D01*
X129406000Y-104914612D01*
X129398751Y-104988213D01*
X129370103Y-105082652D01*
X129323582Y-105169687D01*
X129260975Y-105245975D01*
X129184687Y-105308582D01*
X129097652Y-105355103D01*
X129003213Y-105383751D01*
X128905000Y-105393424D01*
X128806788Y-105383751D01*
X128712349Y-105355103D01*
X128625314Y-105308582D01*
X128549026Y-105245975D01*
X128486419Y-105169687D01*
X128439898Y-105082652D01*
X128411250Y-104988213D01*
X128404001Y-104914612D01*
X128404000Y-103265389D01*
X128411249Y-103191788D01*
X128439897Y-103097349D01*
X128486418Y-103010313D01*
X128549025Y-102934025D01*
X128625313Y-102871418D01*
X128712348Y-102824897D01*
X128806787Y-102796249D01*
X128905000Y-102786576D01*
X129003212Y-102796249D01*
X129003212Y-102796249D01*
G37*
G36*
X127733212Y-102796249D02*
G01*
X127827651Y-102824897D01*
X127914687Y-102871418D01*
X127990975Y-102934025D01*
X128053582Y-103010313D01*
X128100103Y-103097348D01*
X128128751Y-103191787D01*
X128136000Y-103265388D01*
X128136000Y-104914612D01*
X128128751Y-104988213D01*
X128100103Y-105082652D01*
X128053582Y-105169687D01*
X127990975Y-105245975D01*
X127914687Y-105308582D01*
X127827652Y-105355103D01*
X127733213Y-105383751D01*
X127635000Y-105393424D01*
X127536788Y-105383751D01*
X127442349Y-105355103D01*
X127355314Y-105308582D01*
X127279026Y-105245975D01*
X127216419Y-105169687D01*
X127169898Y-105082652D01*
X127141250Y-104988213D01*
X127134001Y-104914612D01*
X127134000Y-103265389D01*
X127141249Y-103191788D01*
X127169897Y-103097349D01*
X127216418Y-103010313D01*
X127279025Y-102934025D01*
X127355313Y-102871418D01*
X127442348Y-102824897D01*
X127536787Y-102796249D01*
X127635000Y-102786576D01*
X127733212Y-102796249D01*
X127733212Y-102796249D01*
G37*
G36*
X126463212Y-102796249D02*
G01*
X126557651Y-102824897D01*
X126644687Y-102871418D01*
X126720975Y-102934025D01*
X126783582Y-103010313D01*
X126830103Y-103097348D01*
X126858751Y-103191787D01*
X126866000Y-103265388D01*
X126866000Y-104914612D01*
X126858751Y-104988213D01*
X126830103Y-105082652D01*
X126783582Y-105169687D01*
X126720975Y-105245975D01*
X126644687Y-105308582D01*
X126557652Y-105355103D01*
X126463213Y-105383751D01*
X126365000Y-105393424D01*
X126266788Y-105383751D01*
X126172349Y-105355103D01*
X126085314Y-105308582D01*
X126009026Y-105245975D01*
X125946419Y-105169687D01*
X125899898Y-105082652D01*
X125871250Y-104988213D01*
X125864001Y-104914612D01*
X125864000Y-103265389D01*
X125871249Y-103191788D01*
X125899897Y-103097349D01*
X125946418Y-103010313D01*
X126009025Y-102934025D01*
X126085313Y-102871418D01*
X126172348Y-102824897D01*
X126266787Y-102796249D01*
X126365000Y-102786576D01*
X126463212Y-102796249D01*
X126463212Y-102796249D01*
G37*
G36*
X125193212Y-102796249D02*
G01*
X125287651Y-102824897D01*
X125374687Y-102871418D01*
X125450975Y-102934025D01*
X125513582Y-103010313D01*
X125560103Y-103097348D01*
X125588751Y-103191787D01*
X125596000Y-103265388D01*
X125596000Y-104914612D01*
X125588751Y-104988213D01*
X125560103Y-105082652D01*
X125513582Y-105169687D01*
X125450975Y-105245975D01*
X125374687Y-105308582D01*
X125287652Y-105355103D01*
X125193213Y-105383751D01*
X125095000Y-105393424D01*
X124996788Y-105383751D01*
X124902349Y-105355103D01*
X124815314Y-105308582D01*
X124739026Y-105245975D01*
X124676419Y-105169687D01*
X124629898Y-105082652D01*
X124601250Y-104988213D01*
X124594001Y-104914612D01*
X124594000Y-103265389D01*
X124601249Y-103191788D01*
X124629897Y-103097349D01*
X124676418Y-103010313D01*
X124739025Y-102934025D01*
X124815313Y-102871418D01*
X124902348Y-102824897D01*
X124996787Y-102796249D01*
X125095000Y-102786576D01*
X125193212Y-102796249D01*
X125193212Y-102796249D01*
G37*
G36*
X118843212Y-102796249D02*
G01*
X118937651Y-102824897D01*
X119024687Y-102871418D01*
X119100975Y-102934025D01*
X119163582Y-103010313D01*
X119210103Y-103097348D01*
X119238751Y-103191787D01*
X119246000Y-103265388D01*
X119246000Y-104914612D01*
X119238751Y-104988213D01*
X119210103Y-105082652D01*
X119163582Y-105169687D01*
X119100975Y-105245975D01*
X119024687Y-105308582D01*
X118937652Y-105355103D01*
X118843213Y-105383751D01*
X118745000Y-105393424D01*
X118646788Y-105383751D01*
X118552349Y-105355103D01*
X118465314Y-105308582D01*
X118389026Y-105245975D01*
X118326419Y-105169687D01*
X118279898Y-105082652D01*
X118251250Y-104988213D01*
X118244001Y-104914612D01*
X118244000Y-103265389D01*
X118251249Y-103191788D01*
X118279897Y-103097349D01*
X118326418Y-103010313D01*
X118389025Y-102934025D01*
X118465313Y-102871418D01*
X118552348Y-102824897D01*
X118646787Y-102796249D01*
X118745000Y-102786576D01*
X118843212Y-102796249D01*
X118843212Y-102796249D01*
G37*
G36*
X120113212Y-102796249D02*
G01*
X120207651Y-102824897D01*
X120294687Y-102871418D01*
X120370975Y-102934025D01*
X120433582Y-103010313D01*
X120480103Y-103097348D01*
X120508751Y-103191787D01*
X120516000Y-103265388D01*
X120516000Y-104914612D01*
X120508751Y-104988213D01*
X120480103Y-105082652D01*
X120433582Y-105169687D01*
X120370975Y-105245975D01*
X120294687Y-105308582D01*
X120207652Y-105355103D01*
X120113213Y-105383751D01*
X120015000Y-105393424D01*
X119916788Y-105383751D01*
X119822349Y-105355103D01*
X119735314Y-105308582D01*
X119659026Y-105245975D01*
X119596419Y-105169687D01*
X119549898Y-105082652D01*
X119521250Y-104988213D01*
X119514001Y-104914612D01*
X119514000Y-103265389D01*
X119521249Y-103191788D01*
X119549897Y-103097349D01*
X119596418Y-103010313D01*
X119659025Y-102934025D01*
X119735313Y-102871418D01*
X119822348Y-102824897D01*
X119916787Y-102796249D01*
X120015000Y-102786576D01*
X120113212Y-102796249D01*
X120113212Y-102796249D01*
G37*
G36*
X121383212Y-102796249D02*
G01*
X121477651Y-102824897D01*
X121564687Y-102871418D01*
X121640975Y-102934025D01*
X121703582Y-103010313D01*
X121750103Y-103097348D01*
X121778751Y-103191787D01*
X121786000Y-103265388D01*
X121786000Y-104914612D01*
X121778751Y-104988213D01*
X121750103Y-105082652D01*
X121703582Y-105169687D01*
X121640975Y-105245975D01*
X121564687Y-105308582D01*
X121477652Y-105355103D01*
X121383213Y-105383751D01*
X121285000Y-105393424D01*
X121186788Y-105383751D01*
X121092349Y-105355103D01*
X121005314Y-105308582D01*
X120929026Y-105245975D01*
X120866419Y-105169687D01*
X120819898Y-105082652D01*
X120791250Y-104988213D01*
X120784001Y-104914612D01*
X120784000Y-103265389D01*
X120791249Y-103191788D01*
X120819897Y-103097349D01*
X120866418Y-103010313D01*
X120929025Y-102934025D01*
X121005313Y-102871418D01*
X121092348Y-102824897D01*
X121186787Y-102796249D01*
X121285000Y-102786576D01*
X121383212Y-102796249D01*
X121383212Y-102796249D01*
G37*
G36*
X123923212Y-102796249D02*
G01*
X124017651Y-102824897D01*
X124104687Y-102871418D01*
X124180975Y-102934025D01*
X124243582Y-103010313D01*
X124290103Y-103097348D01*
X124318751Y-103191787D01*
X124326000Y-103265388D01*
X124326000Y-104914612D01*
X124318751Y-104988213D01*
X124290103Y-105082652D01*
X124243582Y-105169687D01*
X124180975Y-105245975D01*
X124104687Y-105308582D01*
X124017652Y-105355103D01*
X123923213Y-105383751D01*
X123825000Y-105393424D01*
X123726788Y-105383751D01*
X123632349Y-105355103D01*
X123545314Y-105308582D01*
X123469026Y-105245975D01*
X123406419Y-105169687D01*
X123359898Y-105082652D01*
X123331250Y-104988213D01*
X123324001Y-104914612D01*
X123324000Y-103265389D01*
X123331249Y-103191788D01*
X123359897Y-103097349D01*
X123406418Y-103010313D01*
X123469025Y-102934025D01*
X123545313Y-102871418D01*
X123632348Y-102824897D01*
X123726787Y-102796249D01*
X123825000Y-102786576D01*
X123923212Y-102796249D01*
X123923212Y-102796249D01*
G37*
G36*
X111001000Y-104356000D02*
G01*
X108899000Y-104356000D01*
X108899000Y-102654000D01*
X111001000Y-102654000D01*
X111001000Y-104356000D01*
X111001000Y-104356000D01*
G37*
G36*
X107001000Y-104356000D02*
G01*
X104899000Y-104356000D01*
X104899000Y-102654000D01*
X107001000Y-102654000D01*
X107001000Y-104356000D01*
X107001000Y-104356000D01*
G37*
G36*
X98651000Y-101231000D02*
G01*
X96549000Y-101231000D01*
X96549000Y-99429000D01*
X98651000Y-99429000D01*
X98651000Y-101231000D01*
X98651000Y-101231000D01*
G37*
G36*
X102651000Y-101231000D02*
G01*
X100549000Y-101231000D01*
X100549000Y-99429000D01*
X102651000Y-99429000D01*
X102651000Y-101231000D01*
X102651000Y-101231000D01*
G37*
G36*
X107001000Y-101181000D02*
G01*
X104899000Y-101181000D01*
X104899000Y-99479000D01*
X107001000Y-99479000D01*
X107001000Y-101181000D01*
X107001000Y-101181000D01*
G37*
G36*
X111001000Y-101181000D02*
G01*
X108899000Y-101181000D01*
X108899000Y-99479000D01*
X111001000Y-99479000D01*
X111001000Y-101181000D01*
X111001000Y-101181000D01*
G37*
G36*
X118663647Y-98979004D02*
G01*
X118853097Y-99057477D01*
X118853098Y-99057478D01*
X119023599Y-99171402D01*
X119168598Y-99316401D01*
X119244719Y-99430326D01*
X119282523Y-99486903D01*
X119360996Y-99676353D01*
X119401000Y-99877469D01*
X119401000Y-100082531D01*
X119360996Y-100283647D01*
X119282523Y-100473097D01*
X119282522Y-100473098D01*
X119168598Y-100643599D01*
X119023599Y-100788598D01*
X118909674Y-100864719D01*
X118853097Y-100902523D01*
X118663647Y-100980996D01*
X118462531Y-101021000D01*
X118257469Y-101021000D01*
X118056353Y-100980996D01*
X117866903Y-100902523D01*
X117810326Y-100864719D01*
X117696401Y-100788598D01*
X117551402Y-100643599D01*
X117437478Y-100473098D01*
X117437477Y-100473097D01*
X117359004Y-100283647D01*
X117319000Y-100082531D01*
X117319000Y-99877469D01*
X117359004Y-99676353D01*
X117437477Y-99486903D01*
X117475281Y-99430326D01*
X117551402Y-99316401D01*
X117696401Y-99171402D01*
X117866902Y-99057478D01*
X117866903Y-99057477D01*
X118056353Y-98979004D01*
X118257469Y-98939000D01*
X118462531Y-98939000D01*
X118663647Y-98979004D01*
X118663647Y-98979004D01*
G37*
G36*
X130863647Y-98979004D02*
G01*
X131053097Y-99057477D01*
X131053098Y-99057478D01*
X131223599Y-99171402D01*
X131368598Y-99316401D01*
X131444719Y-99430326D01*
X131482523Y-99486903D01*
X131560996Y-99676353D01*
X131601000Y-99877469D01*
X131601000Y-100082531D01*
X131560996Y-100283647D01*
X131482523Y-100473097D01*
X131482522Y-100473098D01*
X131368598Y-100643599D01*
X131223599Y-100788598D01*
X131109674Y-100864719D01*
X131053097Y-100902523D01*
X130863647Y-100980996D01*
X130662531Y-101021000D01*
X130457469Y-101021000D01*
X130256353Y-100980996D01*
X130066903Y-100902523D01*
X130010326Y-100864719D01*
X129896401Y-100788598D01*
X129751402Y-100643599D01*
X129637478Y-100473098D01*
X129637477Y-100473097D01*
X129559004Y-100283647D01*
X129519000Y-100082531D01*
X129519000Y-99877469D01*
X129559004Y-99676353D01*
X129637477Y-99486903D01*
X129675281Y-99430326D01*
X129751402Y-99316401D01*
X129896401Y-99171402D01*
X130066902Y-99057478D01*
X130066903Y-99057477D01*
X130256353Y-98979004D01*
X130457469Y-98939000D01*
X130662531Y-98939000D01*
X130863647Y-98979004D01*
X130863647Y-98979004D01*
G37*
G36*
X94808000Y-98798000D02*
G01*
X93406000Y-98798000D01*
X93406000Y-97196000D01*
X94808000Y-97196000D01*
X94808000Y-98798000D01*
X94808000Y-98798000D01*
G37*
G36*
X88204000Y-96766000D02*
G01*
X86802000Y-96766000D01*
X86802000Y-95164000D01*
X88204000Y-95164000D01*
X88204000Y-96766000D01*
X88204000Y-96766000D01*
G37*
G36*
X82719271Y-94110103D02*
G01*
X82775635Y-94115654D01*
X82992600Y-94181470D01*
X82992602Y-94181471D01*
X83192555Y-94288347D01*
X83367818Y-94432182D01*
X83511653Y-94607445D01*
X83599139Y-94771121D01*
X83618530Y-94807400D01*
X83641337Y-94882584D01*
X83684346Y-95024366D01*
X83706569Y-95250000D01*
X83684346Y-95475634D01*
X83618529Y-95692602D01*
X83511653Y-95892555D01*
X83367818Y-96067818D01*
X83192555Y-96211653D01*
X82992602Y-96318529D01*
X82992600Y-96318530D01*
X82775635Y-96384346D01*
X82719271Y-96389897D01*
X82606545Y-96401000D01*
X82493455Y-96401000D01*
X82380729Y-96389897D01*
X82324365Y-96384346D01*
X82107400Y-96318530D01*
X82107398Y-96318529D01*
X81907445Y-96211653D01*
X81732182Y-96067818D01*
X81588347Y-95892555D01*
X81481471Y-95692602D01*
X81415654Y-95475634D01*
X81393431Y-95250000D01*
X81415654Y-95024366D01*
X81458663Y-94882584D01*
X81481470Y-94807400D01*
X81500861Y-94771121D01*
X81588347Y-94607445D01*
X81732182Y-94432182D01*
X81907445Y-94288347D01*
X82107398Y-94181471D01*
X82107400Y-94181470D01*
X82324365Y-94115654D01*
X82380729Y-94110103D01*
X82493455Y-94099000D01*
X82606545Y-94099000D01*
X82719271Y-94110103D01*
X82719271Y-94110103D01*
G37*
G36*
X94808000Y-96098000D02*
G01*
X93406000Y-96098000D01*
X93406000Y-94496000D01*
X94808000Y-94496000D01*
X94808000Y-96098000D01*
X94808000Y-96098000D01*
G37*
G36*
X102112000Y-95862000D02*
G01*
X101210000Y-95862000D01*
X101210000Y-94860000D01*
X102112000Y-94860000D01*
X102112000Y-95862000D01*
X102112000Y-95862000D01*
G37*
G36*
X108716000Y-95862000D02*
G01*
X107814000Y-95862000D01*
X107814000Y-94860000D01*
X108716000Y-94860000D01*
X108716000Y-95862000D01*
X108716000Y-95862000D01*
G37*
G36*
X106816000Y-95862000D02*
G01*
X105914000Y-95862000D01*
X105914000Y-94860000D01*
X106816000Y-94860000D01*
X106816000Y-95862000D01*
X106816000Y-95862000D01*
G37*
G36*
X100212000Y-95862000D02*
G01*
X99310000Y-95862000D01*
X99310000Y-94860000D01*
X100212000Y-94860000D01*
X100212000Y-95862000D01*
X100212000Y-95862000D01*
G37*
G36*
X116591494Y-92987593D02*
G01*
X116657085Y-93000640D01*
X116842441Y-93077417D01*
X117009256Y-93188879D01*
X117151121Y-93330744D01*
X117262583Y-93497559D01*
X117262584Y-93497561D01*
X117339360Y-93682916D01*
X117378500Y-93879685D01*
X117378500Y-94080315D01*
X117358379Y-94181470D01*
X117339360Y-94277085D01*
X117262583Y-94462441D01*
X117151121Y-94629256D01*
X117009256Y-94771121D01*
X116842441Y-94882583D01*
X116657085Y-94959360D01*
X116591494Y-94972407D01*
X116460315Y-94998500D01*
X116259685Y-94998500D01*
X116128506Y-94972407D01*
X116062915Y-94959360D01*
X115877559Y-94882583D01*
X115710744Y-94771121D01*
X115568879Y-94629256D01*
X115457417Y-94462441D01*
X115380640Y-94277085D01*
X115361621Y-94181470D01*
X115341500Y-94080315D01*
X115341500Y-93879685D01*
X115380640Y-93682916D01*
X115457416Y-93497561D01*
X115457417Y-93497559D01*
X115568879Y-93330744D01*
X115710744Y-93188879D01*
X115877559Y-93077417D01*
X116062915Y-93000640D01*
X116128506Y-92987593D01*
X116259685Y-92961500D01*
X116460315Y-92961500D01*
X116591494Y-92987593D01*
X116591494Y-92987593D01*
G37*
G36*
X88204000Y-94066000D02*
G01*
X86802000Y-94066000D01*
X86802000Y-92464000D01*
X88204000Y-92464000D01*
X88204000Y-94066000D01*
X88204000Y-94066000D01*
G37*
G36*
X101162000Y-93862000D02*
G01*
X100260000Y-93862000D01*
X100260000Y-92860000D01*
X101162000Y-92860000D01*
X101162000Y-93862000D01*
X101162000Y-93862000D01*
G37*
G36*
X107766000Y-93862000D02*
G01*
X106864000Y-93862000D01*
X106864000Y-92860000D01*
X107766000Y-92860000D01*
X107766000Y-93862000D01*
X107766000Y-93862000D01*
G37*
G36*
X82566000Y-92107886D02*
G01*
X82566602Y-92120138D01*
X82569149Y-92146000D01*
X82566602Y-92171862D01*
X82566000Y-92184114D01*
X82566000Y-92257406D01*
X82557043Y-92274164D01*
X82552915Y-92285701D01*
X82527132Y-92370693D01*
X82519354Y-92396336D01*
X82458906Y-92509425D01*
X82377554Y-92608554D01*
X82278425Y-92689906D01*
X82165336Y-92750354D01*
X82133404Y-92760040D01*
X82042618Y-92787580D01*
X81978855Y-92793860D01*
X81946974Y-92797000D01*
X81183026Y-92797000D01*
X81151145Y-92793860D01*
X81087382Y-92787580D01*
X80996596Y-92760040D01*
X80964664Y-92750354D01*
X80851575Y-92689906D01*
X80752446Y-92608554D01*
X80671094Y-92509425D01*
X80610646Y-92396336D01*
X80602868Y-92370693D01*
X80577087Y-92285708D01*
X80567713Y-92263075D01*
X80564000Y-92257518D01*
X80564000Y-92184114D01*
X80563398Y-92171862D01*
X80560851Y-92146000D01*
X80563398Y-92120138D01*
X80564000Y-92107886D01*
X80564000Y-90895000D01*
X82566000Y-90895000D01*
X82566000Y-92107886D01*
X82566000Y-92107886D01*
G37*
G36*
X84491348Y-85399820D02*
G01*
X84491350Y-85399821D01*
X84491351Y-85399821D01*
X84632574Y-85458317D01*
X84632577Y-85458319D01*
X84759669Y-85543239D01*
X84867761Y-85651331D01*
X84947053Y-85770000D01*
X84952683Y-85778426D01*
X84990545Y-85869834D01*
X85011180Y-85919652D01*
X85041000Y-86069569D01*
X85041000Y-86222429D01*
X85011179Y-86372351D01*
X84952683Y-86513574D01*
X84952681Y-86513577D01*
X84867761Y-86640669D01*
X84759669Y-86748761D01*
X84674940Y-86805375D01*
X84632574Y-86833683D01*
X84582272Y-86854519D01*
X84560664Y-86866068D01*
X84541722Y-86881614D01*
X84526177Y-86900556D01*
X84514626Y-86922166D01*
X84507513Y-86945615D01*
X84505111Y-86970001D01*
X84507513Y-86994387D01*
X84514626Y-87017836D01*
X84526177Y-87039447D01*
X84541723Y-87058389D01*
X84560665Y-87073934D01*
X84582275Y-87085485D01*
X84605724Y-87092598D01*
X84630110Y-87095000D01*
X84991000Y-87095000D01*
X84991000Y-90197000D01*
X84630110Y-90197000D01*
X84605724Y-90199402D01*
X84582275Y-90206515D01*
X84560664Y-90218066D01*
X84541722Y-90233611D01*
X84526177Y-90252553D01*
X84514626Y-90274164D01*
X84507513Y-90297613D01*
X84505111Y-90321999D01*
X84507513Y-90346385D01*
X84514626Y-90369834D01*
X84526177Y-90391445D01*
X84541722Y-90410387D01*
X84560664Y-90425932D01*
X84582272Y-90437481D01*
X84632574Y-90458317D01*
X84632575Y-90458318D01*
X84759669Y-90543239D01*
X84867761Y-90651331D01*
X84952681Y-90778423D01*
X84952683Y-90778426D01*
X85000969Y-90895000D01*
X85011180Y-90919652D01*
X85028077Y-91004600D01*
X85041000Y-91069571D01*
X85041000Y-91222429D01*
X85011179Y-91372351D01*
X84952683Y-91513574D01*
X84952681Y-91513577D01*
X84867761Y-91640669D01*
X84759669Y-91748761D01*
X84709064Y-91782574D01*
X84632574Y-91833683D01*
X84491351Y-91892179D01*
X84491350Y-91892179D01*
X84491348Y-91892180D01*
X84341431Y-91922000D01*
X84188569Y-91922000D01*
X84038652Y-91892180D01*
X84038650Y-91892179D01*
X84038649Y-91892179D01*
X83897426Y-91833683D01*
X83820936Y-91782574D01*
X83770331Y-91748761D01*
X83662239Y-91640669D01*
X83577319Y-91513577D01*
X83577317Y-91513574D01*
X83518821Y-91372351D01*
X83489000Y-91222429D01*
X83489000Y-91069571D01*
X83501923Y-91004600D01*
X83518820Y-90919652D01*
X83529031Y-90895000D01*
X83577317Y-90778426D01*
X83577319Y-90778423D01*
X83662239Y-90651331D01*
X83770331Y-90543239D01*
X83897425Y-90458318D01*
X83897426Y-90458317D01*
X83947728Y-90437481D01*
X83969336Y-90425932D01*
X83988278Y-90410386D01*
X84003823Y-90391444D01*
X84015374Y-90369834D01*
X84022487Y-90346385D01*
X84024889Y-90321999D01*
X84022487Y-90297613D01*
X84015374Y-90274164D01*
X84003823Y-90252553D01*
X83988277Y-90233611D01*
X83969335Y-90218066D01*
X83947725Y-90206515D01*
X83924276Y-90199402D01*
X83899890Y-90197000D01*
X83539000Y-90197000D01*
X83539000Y-87095000D01*
X83899890Y-87095000D01*
X83924276Y-87092598D01*
X83947725Y-87085485D01*
X83969336Y-87073934D01*
X83988278Y-87058389D01*
X84003823Y-87039447D01*
X84015374Y-87017836D01*
X84022487Y-86994387D01*
X84024889Y-86970001D01*
X84022487Y-86945615D01*
X84015374Y-86922166D01*
X84003823Y-86900555D01*
X83988278Y-86881613D01*
X83969336Y-86866068D01*
X83947728Y-86854519D01*
X83897426Y-86833683D01*
X83855060Y-86805375D01*
X83770331Y-86748761D01*
X83662239Y-86640669D01*
X83577319Y-86513577D01*
X83577317Y-86513574D01*
X83518821Y-86372351D01*
X83489000Y-86222429D01*
X83489000Y-86069569D01*
X83518820Y-85919652D01*
X83539455Y-85869834D01*
X83577317Y-85778426D01*
X83582947Y-85770000D01*
X83662239Y-85651331D01*
X83770331Y-85543239D01*
X83897423Y-85458319D01*
X83897426Y-85458317D01*
X84038649Y-85399821D01*
X84038650Y-85399821D01*
X84038652Y-85399820D01*
X84188569Y-85370000D01*
X84341431Y-85370000D01*
X84491348Y-85399820D01*
X84491348Y-85399820D01*
G37*
G36*
X93966600Y-91004600D02*
G01*
X92164600Y-91004600D01*
X92164600Y-88902600D01*
X93966600Y-88902600D01*
X93966600Y-91004600D01*
X93966600Y-91004600D01*
G37*
G36*
X91375800Y-90985800D02*
G01*
X89573800Y-90985800D01*
X89573800Y-88883800D01*
X91375800Y-88883800D01*
X91375800Y-90985800D01*
X91375800Y-90985800D01*
G37*
G36*
X99871000Y-90981000D02*
G01*
X98249000Y-90981000D01*
X98249000Y-89359000D01*
X99871000Y-89359000D01*
X99871000Y-90981000D01*
X99871000Y-90981000D01*
G37*
G36*
X82566000Y-90447000D02*
G01*
X80564000Y-90447000D01*
X80564000Y-88845000D01*
X82566000Y-88845000D01*
X82566000Y-90447000D01*
X82566000Y-90447000D01*
G37*
G36*
X119401000Y-89021000D02*
G01*
X117319000Y-89021000D01*
X117319000Y-86939000D01*
X119401000Y-86939000D01*
X119401000Y-89021000D01*
X119401000Y-89021000D01*
G37*
G36*
X130863647Y-86979004D02*
G01*
X131053097Y-87057477D01*
X131095014Y-87085485D01*
X131223599Y-87171402D01*
X131368598Y-87316401D01*
X131420073Y-87393440D01*
X131482523Y-87486903D01*
X131560996Y-87676353D01*
X131601000Y-87877469D01*
X131601000Y-88082531D01*
X131560996Y-88283647D01*
X131482523Y-88473097D01*
X131482522Y-88473098D01*
X131368598Y-88643599D01*
X131223599Y-88788598D01*
X131109674Y-88864719D01*
X131053097Y-88902523D01*
X130863647Y-88980996D01*
X130662531Y-89021000D01*
X130457469Y-89021000D01*
X130256353Y-88980996D01*
X130066903Y-88902523D01*
X130010326Y-88864719D01*
X129896401Y-88788598D01*
X129751402Y-88643599D01*
X129637478Y-88473098D01*
X129637477Y-88473097D01*
X129559004Y-88283647D01*
X129519000Y-88082531D01*
X129519000Y-87877469D01*
X129559004Y-87676353D01*
X129637477Y-87486903D01*
X129699927Y-87393440D01*
X129751402Y-87316401D01*
X129896401Y-87171402D01*
X130024986Y-87085485D01*
X130066903Y-87057477D01*
X130256353Y-86979004D01*
X130457469Y-86939000D01*
X130662531Y-86939000D01*
X130863647Y-86979004D01*
X130863647Y-86979004D01*
G37*
G36*
X82566000Y-88447000D02*
G01*
X80564000Y-88447000D01*
X80564000Y-86845000D01*
X82566000Y-86845000D01*
X82566000Y-88447000D01*
X82566000Y-88447000D01*
G37*
G36*
X99296560Y-86850166D02*
G01*
X99418213Y-86900556D01*
X99444153Y-86911301D01*
X99485607Y-86939000D01*
X99576982Y-87000055D01*
X99689945Y-87113018D01*
X99778700Y-87245849D01*
X99807924Y-87316402D01*
X99839834Y-87393440D01*
X99871000Y-87550123D01*
X99871000Y-87709877D01*
X99839834Y-87866560D01*
X99778699Y-88014153D01*
X99689945Y-88146982D01*
X99576982Y-88259945D01*
X99444153Y-88348699D01*
X99444152Y-88348700D01*
X99444151Y-88348700D01*
X99296560Y-88409834D01*
X99139878Y-88441000D01*
X98980122Y-88441000D01*
X98823440Y-88409834D01*
X98675849Y-88348700D01*
X98675848Y-88348700D01*
X98675847Y-88348699D01*
X98543018Y-88259945D01*
X98430055Y-88146982D01*
X98341301Y-88014153D01*
X98280166Y-87866560D01*
X98249000Y-87709877D01*
X98249000Y-87550123D01*
X98280166Y-87393440D01*
X98312076Y-87316402D01*
X98341300Y-87245849D01*
X98430055Y-87113018D01*
X98543018Y-87000055D01*
X98634393Y-86939000D01*
X98675847Y-86911301D01*
X98701788Y-86900556D01*
X98823440Y-86850166D01*
X98980122Y-86819000D01*
X99139878Y-86819000D01*
X99296560Y-86850166D01*
X99296560Y-86850166D01*
G37*
G36*
X108497000Y-88148000D02*
G01*
X106895000Y-88148000D01*
X106895000Y-86046000D01*
X108497000Y-86046000D01*
X108497000Y-88148000D01*
X108497000Y-88148000D01*
G37*
G36*
X110797000Y-88148000D02*
G01*
X109195000Y-88148000D01*
X109195000Y-86046000D01*
X110797000Y-86046000D01*
X110797000Y-88148000D01*
X110797000Y-88148000D01*
G37*
G36*
X106197000Y-88148000D02*
G01*
X104595000Y-88148000D01*
X104595000Y-86046000D01*
X106197000Y-86046000D01*
X106197000Y-88148000D01*
X106197000Y-88148000D01*
G37*
G36*
X87675000Y-87072000D02*
G01*
X86823000Y-87072000D01*
X86823000Y-85770000D01*
X87675000Y-85770000D01*
X87675000Y-87072000D01*
X87675000Y-87072000D01*
G37*
G36*
X93966600Y-87004600D02*
G01*
X92164600Y-87004600D01*
X92164600Y-84902600D01*
X93966600Y-84902600D01*
X93966600Y-87004600D01*
X93966600Y-87004600D01*
G37*
G36*
X91375800Y-86985800D02*
G01*
X89573800Y-86985800D01*
X89573800Y-84883800D01*
X91375800Y-84883800D01*
X91375800Y-86985800D01*
X91375800Y-86985800D01*
G37*
G36*
X81978855Y-84498140D02*
G01*
X82042618Y-84504420D01*
X82133404Y-84531960D01*
X82165336Y-84541646D01*
X82278425Y-84602094D01*
X82377554Y-84683446D01*
X82458906Y-84782575D01*
X82519354Y-84895664D01*
X82519355Y-84895668D01*
X82552913Y-85006292D01*
X82562287Y-85028925D01*
X82566000Y-85034482D01*
X82566000Y-85107886D01*
X82566602Y-85120138D01*
X82569149Y-85146000D01*
X82566602Y-85171862D01*
X82566000Y-85184114D01*
X82566000Y-86397000D01*
X80564000Y-86397000D01*
X80564000Y-85184114D01*
X80563398Y-85171862D01*
X80560851Y-85146000D01*
X80563398Y-85120138D01*
X80564000Y-85107886D01*
X80564000Y-85034594D01*
X80572957Y-85017836D01*
X80577085Y-85006299D01*
X80610645Y-84895668D01*
X80610646Y-84895664D01*
X80671094Y-84782575D01*
X80752446Y-84683446D01*
X80851575Y-84602094D01*
X80964664Y-84541646D01*
X80996596Y-84531960D01*
X81087382Y-84504420D01*
X81151145Y-84498140D01*
X81183026Y-84495000D01*
X81946974Y-84495000D01*
X81978855Y-84498140D01*
X81978855Y-84498140D01*
G37*
G36*
X99296560Y-84310166D02*
G01*
X99401637Y-84353690D01*
X99444153Y-84371301D01*
X99576982Y-84460055D01*
X99689945Y-84573018D01*
X99763732Y-84683447D01*
X99778700Y-84705849D01*
X99839834Y-84853440D01*
X99871000Y-85010122D01*
X99871000Y-85169878D01*
X99839834Y-85326560D01*
X99785259Y-85458317D01*
X99778699Y-85474153D01*
X99689945Y-85606982D01*
X99576982Y-85719945D01*
X99444153Y-85808699D01*
X99444152Y-85808700D01*
X99444151Y-85808700D01*
X99296560Y-85869834D01*
X99139878Y-85901000D01*
X98980122Y-85901000D01*
X98823440Y-85869834D01*
X98675849Y-85808700D01*
X98675848Y-85808700D01*
X98675847Y-85808699D01*
X98543018Y-85719945D01*
X98430055Y-85606982D01*
X98341301Y-85474153D01*
X98334742Y-85458317D01*
X98280166Y-85326560D01*
X98249000Y-85169878D01*
X98249000Y-85010122D01*
X98280166Y-84853440D01*
X98341300Y-84705849D01*
X98356269Y-84683447D01*
X98430055Y-84573018D01*
X98543018Y-84460055D01*
X98675847Y-84371301D01*
X98718364Y-84353690D01*
X98823440Y-84310166D01*
X98980122Y-84279000D01*
X99139878Y-84279000D01*
X99296560Y-84310166D01*
X99296560Y-84310166D01*
G37*
G36*
X87675000Y-85172000D02*
G01*
X86823000Y-85172000D01*
X86823000Y-83870000D01*
X87675000Y-83870000D01*
X87675000Y-85172000D01*
X87675000Y-85172000D01*
G37*
G36*
X115714213Y-83580249D02*
G01*
X115808652Y-83608897D01*
X115895687Y-83655418D01*
X115971975Y-83718025D01*
X116034582Y-83794313D01*
X116081103Y-83881348D01*
X116109751Y-83975787D01*
X116119424Y-84074000D01*
X116109751Y-84172213D01*
X116081103Y-84266652D01*
X116034582Y-84353687D01*
X115971975Y-84429975D01*
X115895687Y-84492582D01*
X115808652Y-84539103D01*
X115714213Y-84567751D01*
X115640612Y-84575000D01*
X114991388Y-84575000D01*
X114917787Y-84567751D01*
X114823348Y-84539103D01*
X114736313Y-84492582D01*
X114660025Y-84429975D01*
X114597418Y-84353687D01*
X114550897Y-84266652D01*
X114522249Y-84172213D01*
X114512576Y-84074000D01*
X114522249Y-83975787D01*
X114550897Y-83881348D01*
X114597418Y-83794313D01*
X114660025Y-83718025D01*
X114736313Y-83655418D01*
X114823348Y-83608897D01*
X114917787Y-83580249D01*
X114991388Y-83573000D01*
X115640612Y-83573000D01*
X115714213Y-83580249D01*
X115714213Y-83580249D01*
G37*
G36*
X115714213Y-82310249D02*
G01*
X115808652Y-82338897D01*
X115895687Y-82385418D01*
X115971975Y-82448025D01*
X116034582Y-82524313D01*
X116081103Y-82611348D01*
X116109751Y-82705787D01*
X116119424Y-82804000D01*
X116109751Y-82902213D01*
X116081103Y-82996652D01*
X116034582Y-83083687D01*
X115971975Y-83159975D01*
X115895687Y-83222582D01*
X115808652Y-83269103D01*
X115714213Y-83297751D01*
X115640612Y-83305000D01*
X114991388Y-83305000D01*
X114917787Y-83297751D01*
X114823348Y-83269103D01*
X114736313Y-83222582D01*
X114660025Y-83159975D01*
X114597418Y-83083687D01*
X114550897Y-82996652D01*
X114522249Y-82902213D01*
X114512576Y-82804000D01*
X114522249Y-82705787D01*
X114550897Y-82611348D01*
X114597418Y-82524313D01*
X114660025Y-82448025D01*
X114736313Y-82385418D01*
X114823348Y-82338897D01*
X114917787Y-82310249D01*
X114991388Y-82303000D01*
X115640612Y-82303000D01*
X115714213Y-82310249D01*
X115714213Y-82310249D01*
G37*
G36*
X134901000Y-82831000D02*
G01*
X131799000Y-82831000D01*
X131799000Y-79729000D01*
X134901000Y-79729000D01*
X134901000Y-82831000D01*
X134901000Y-82831000D01*
G37*
G36*
X128508225Y-79746000D02*
G01*
X128722410Y-79788604D01*
X129004674Y-79905521D01*
X129258705Y-80075259D01*
X129474741Y-80291295D01*
X129644479Y-80545326D01*
X129761396Y-80827590D01*
X129821000Y-81127240D01*
X129821000Y-81432760D01*
X129761396Y-81732410D01*
X129644479Y-82014674D01*
X129474741Y-82268705D01*
X129258705Y-82484741D01*
X129004674Y-82654479D01*
X128722410Y-82771396D01*
X128572585Y-82801198D01*
X128422761Y-82831000D01*
X128117239Y-82831000D01*
X127967415Y-82801198D01*
X127817590Y-82771396D01*
X127535326Y-82654479D01*
X127281295Y-82484741D01*
X127065259Y-82268705D01*
X126895521Y-82014674D01*
X126778604Y-81732410D01*
X126719000Y-81432760D01*
X126719000Y-81127240D01*
X126778604Y-80827590D01*
X126895521Y-80545326D01*
X127065259Y-80291295D01*
X127281295Y-80075259D01*
X127535326Y-79905521D01*
X127817590Y-79788604D01*
X128031775Y-79746000D01*
X128117239Y-79729000D01*
X128422761Y-79729000D01*
X128508225Y-79746000D01*
X128508225Y-79746000D01*
G37*
G36*
X123428225Y-79746000D02*
G01*
X123642410Y-79788604D01*
X123924674Y-79905521D01*
X124178705Y-80075259D01*
X124394741Y-80291295D01*
X124564479Y-80545326D01*
X124681396Y-80827590D01*
X124741000Y-81127240D01*
X124741000Y-81432760D01*
X124681396Y-81732410D01*
X124564479Y-82014674D01*
X124394741Y-82268705D01*
X124178705Y-82484741D01*
X123924674Y-82654479D01*
X123642410Y-82771396D01*
X123492585Y-82801198D01*
X123342761Y-82831000D01*
X123037239Y-82831000D01*
X122887415Y-82801198D01*
X122737590Y-82771396D01*
X122455326Y-82654479D01*
X122201295Y-82484741D01*
X121985259Y-82268705D01*
X121815521Y-82014674D01*
X121698604Y-81732410D01*
X121639000Y-81432760D01*
X121639000Y-81127240D01*
X121698604Y-80827590D01*
X121815521Y-80545326D01*
X121985259Y-80291295D01*
X122201295Y-80075259D01*
X122455326Y-79905521D01*
X122737590Y-79788604D01*
X122951775Y-79746000D01*
X123037239Y-79729000D01*
X123342761Y-79729000D01*
X123428225Y-79746000D01*
X123428225Y-79746000D01*
G37*
G36*
X102651000Y-82131000D02*
G01*
X100549000Y-82131000D01*
X100549000Y-80429000D01*
X102651000Y-80429000D01*
X102651000Y-82131000D01*
X102651000Y-82131000D01*
G37*
G36*
X83411000Y-82131000D02*
G01*
X81309000Y-82131000D01*
X81309000Y-80429000D01*
X83411000Y-80429000D01*
X83411000Y-82131000D01*
X83411000Y-82131000D01*
G37*
G36*
X87411000Y-82131000D02*
G01*
X85309000Y-82131000D01*
X85309000Y-80429000D01*
X87411000Y-80429000D01*
X87411000Y-82131000D01*
X87411000Y-82131000D01*
G37*
G36*
X91031000Y-82131000D02*
G01*
X88929000Y-82131000D01*
X88929000Y-80429000D01*
X91031000Y-80429000D01*
X91031000Y-82131000D01*
X91031000Y-82131000D01*
G37*
G36*
X95031000Y-82131000D02*
G01*
X92929000Y-82131000D01*
X92929000Y-80429000D01*
X95031000Y-80429000D01*
X95031000Y-82131000D01*
X95031000Y-82131000D01*
G37*
G36*
X98651000Y-82131000D02*
G01*
X96549000Y-82131000D01*
X96549000Y-80429000D01*
X98651000Y-80429000D01*
X98651000Y-82131000D01*
X98651000Y-82131000D01*
G37*
G36*
X116117000Y-82035000D02*
G01*
X114515000Y-82035000D01*
X114515000Y-81033000D01*
X116117000Y-81033000D01*
X116117000Y-82035000D01*
X116117000Y-82035000D01*
G37*
G36*
X109647000Y-81848000D02*
G01*
X105745000Y-81848000D01*
X105745000Y-79746000D01*
X109647000Y-79746000D01*
X109647000Y-81848000D01*
X109647000Y-81848000D01*
G37*
G36*
X82871000Y-79006000D02*
G01*
X80769000Y-79006000D01*
X80769000Y-77204000D01*
X82871000Y-77204000D01*
X82871000Y-79006000D01*
X82871000Y-79006000D01*
G37*
G36*
X86871000Y-79006000D02*
G01*
X84769000Y-79006000D01*
X84769000Y-77204000D01*
X86871000Y-77204000D01*
X86871000Y-79006000D01*
X86871000Y-79006000D01*
G37*
G36*
X115251000Y-77913000D02*
G01*
X113349000Y-77913000D01*
X113349000Y-76011000D01*
X115251000Y-76011000D01*
X115251000Y-77913000D01*
X115251000Y-77913000D01*
G37*
G36*
X117117395Y-76047546D02*
G01*
X117290466Y-76119234D01*
X117290467Y-76119235D01*
X117446227Y-76223310D01*
X117578690Y-76355773D01*
X117578691Y-76355775D01*
X117682766Y-76511534D01*
X117754454Y-76684605D01*
X117791000Y-76868333D01*
X117791000Y-77055667D01*
X117754454Y-77239395D01*
X117682766Y-77412466D01*
X117682765Y-77412467D01*
X117578690Y-77568227D01*
X117446227Y-77700690D01*
X117367818Y-77753081D01*
X117290466Y-77804766D01*
X117117395Y-77876454D01*
X116933667Y-77913000D01*
X116746333Y-77913000D01*
X116562605Y-77876454D01*
X116389534Y-77804766D01*
X116312182Y-77753081D01*
X116233773Y-77700690D01*
X116101310Y-77568227D01*
X115997235Y-77412467D01*
X115997234Y-77412466D01*
X115925546Y-77239395D01*
X115889000Y-77055667D01*
X115889000Y-76868333D01*
X115925546Y-76684605D01*
X115997234Y-76511534D01*
X116101309Y-76355775D01*
X116101310Y-76355773D01*
X116233773Y-76223310D01*
X116389533Y-76119235D01*
X116389534Y-76119234D01*
X116562605Y-76047546D01*
X116746333Y-76011000D01*
X116933667Y-76011000D01*
X117117395Y-76047546D01*
X117117395Y-76047546D01*
G37*
G36*
X94167294Y-73249233D02*
G01*
X94339695Y-73301531D01*
X94498583Y-73386458D01*
X94637849Y-73500751D01*
X94752142Y-73640017D01*
X94837069Y-73798906D01*
X94889367Y-73971307D01*
X94902600Y-74105670D01*
X94902600Y-74500331D01*
X94889367Y-74634694D01*
X94837069Y-74807095D01*
X94752142Y-74965983D01*
X94637849Y-75105249D01*
X94498583Y-75219542D01*
X94339694Y-75304469D01*
X94167293Y-75356767D01*
X93988000Y-75374425D01*
X93808706Y-75356767D01*
X93636305Y-75304469D01*
X93477417Y-75219542D01*
X93338151Y-75105249D01*
X93223858Y-74965983D01*
X93138931Y-74807094D01*
X93086633Y-74634693D01*
X93073400Y-74500330D01*
X93073400Y-74105669D01*
X93086633Y-73971306D01*
X93138931Y-73798905D01*
X93223858Y-73640018D01*
X93338152Y-73500751D01*
X93477418Y-73386458D01*
X93636306Y-73301531D01*
X93808707Y-73249233D01*
X93988000Y-73231575D01*
X94167294Y-73249233D01*
X94167294Y-73249233D01*
G37*
G36*
X91627294Y-73249233D02*
G01*
X91799695Y-73301531D01*
X91958583Y-73386458D01*
X92097849Y-73500751D01*
X92212142Y-73640017D01*
X92297069Y-73798906D01*
X92349367Y-73971307D01*
X92362600Y-74105670D01*
X92362600Y-74500331D01*
X92349367Y-74634694D01*
X92297069Y-74807095D01*
X92212142Y-74965983D01*
X92097849Y-75105249D01*
X91958583Y-75219542D01*
X91799694Y-75304469D01*
X91627293Y-75356767D01*
X91448000Y-75374425D01*
X91268706Y-75356767D01*
X91096305Y-75304469D01*
X90937417Y-75219542D01*
X90798151Y-75105249D01*
X90683858Y-74965983D01*
X90598931Y-74807094D01*
X90546633Y-74634693D01*
X90533400Y-74500330D01*
X90533400Y-74105669D01*
X90546633Y-73971306D01*
X90598931Y-73798905D01*
X90683858Y-73640018D01*
X90798152Y-73500751D01*
X90937418Y-73386458D01*
X91096306Y-73301531D01*
X91268707Y-73249233D01*
X91448000Y-73231575D01*
X91627294Y-73249233D01*
X91627294Y-73249233D01*
G37*
G36*
X89087294Y-73249233D02*
G01*
X89259695Y-73301531D01*
X89418583Y-73386458D01*
X89557849Y-73500751D01*
X89672142Y-73640017D01*
X89757069Y-73798906D01*
X89809367Y-73971307D01*
X89822600Y-74105670D01*
X89822600Y-74500331D01*
X89809367Y-74634694D01*
X89757069Y-74807095D01*
X89672142Y-74965983D01*
X89557849Y-75105249D01*
X89418583Y-75219542D01*
X89259694Y-75304469D01*
X89087293Y-75356767D01*
X88908000Y-75374425D01*
X88728706Y-75356767D01*
X88556305Y-75304469D01*
X88397417Y-75219542D01*
X88258151Y-75105249D01*
X88143858Y-74965983D01*
X88058931Y-74807094D01*
X88006633Y-74634693D01*
X87993400Y-74500330D01*
X87993400Y-74105669D01*
X88006633Y-73971306D01*
X88058931Y-73798905D01*
X88143858Y-73640018D01*
X88258152Y-73500751D01*
X88397418Y-73386458D01*
X88556306Y-73301531D01*
X88728707Y-73249233D01*
X88908000Y-73231575D01*
X89087294Y-73249233D01*
X89087294Y-73249233D01*
G37*
G36*
X97442600Y-75370000D02*
G01*
X95613400Y-75370000D01*
X95613400Y-73236000D01*
X97442600Y-73236000D01*
X97442600Y-75370000D01*
X97442600Y-75370000D01*
G37*
G36*
X134844549Y-72531116D02*
G01*
X134955734Y-72553232D01*
X135165203Y-72639997D01*
X135353720Y-72765960D01*
X135514040Y-72926280D01*
X135640003Y-73114797D01*
X135717351Y-73301531D01*
X135726768Y-73324267D01*
X135771000Y-73546635D01*
X135771000Y-73773365D01*
X135761286Y-73822198D01*
X135731627Y-73971308D01*
X135726768Y-73995733D01*
X135643348Y-74197129D01*
X135640003Y-74205203D01*
X135514040Y-74393720D01*
X135353720Y-74554040D01*
X135165203Y-74680003D01*
X134955734Y-74766768D01*
X134844549Y-74788884D01*
X134733365Y-74811000D01*
X134506635Y-74811000D01*
X134395451Y-74788884D01*
X134284266Y-74766768D01*
X134074797Y-74680003D01*
X133886280Y-74554040D01*
X133725960Y-74393720D01*
X133599997Y-74205203D01*
X133596653Y-74197129D01*
X133513232Y-73995733D01*
X133508374Y-73971308D01*
X133478714Y-73822198D01*
X133469000Y-73773365D01*
X133469000Y-73546635D01*
X133513232Y-73324267D01*
X133522650Y-73301531D01*
X133599997Y-73114797D01*
X133725960Y-72926280D01*
X133886280Y-72765960D01*
X134074797Y-72639997D01*
X134284266Y-72553232D01*
X134395451Y-72531116D01*
X134506635Y-72509000D01*
X134733365Y-72509000D01*
X134844549Y-72531116D01*
X134844549Y-72531116D01*
G37*
G36*
X82774549Y-72531116D02*
G01*
X82885734Y-72553232D01*
X83095203Y-72639997D01*
X83283720Y-72765960D01*
X83444040Y-72926280D01*
X83570003Y-73114797D01*
X83647351Y-73301531D01*
X83656768Y-73324267D01*
X83701000Y-73546635D01*
X83701000Y-73773365D01*
X83691286Y-73822198D01*
X83661627Y-73971308D01*
X83656768Y-73995733D01*
X83573348Y-74197129D01*
X83570003Y-74205203D01*
X83444040Y-74393720D01*
X83283720Y-74554040D01*
X83095203Y-74680003D01*
X82885734Y-74766768D01*
X82774549Y-74788884D01*
X82663365Y-74811000D01*
X82436635Y-74811000D01*
X82325451Y-74788884D01*
X82214266Y-74766768D01*
X82004797Y-74680003D01*
X81816280Y-74554040D01*
X81655960Y-74393720D01*
X81529997Y-74205203D01*
X81526653Y-74197129D01*
X81443232Y-73995733D01*
X81438374Y-73971308D01*
X81408714Y-73822198D01*
X81399000Y-73773365D01*
X81399000Y-73546635D01*
X81443232Y-73324267D01*
X81452650Y-73301531D01*
X81529997Y-73114797D01*
X81655960Y-72926280D01*
X81816280Y-72765960D01*
X82004797Y-72639997D01*
X82214266Y-72553232D01*
X82325451Y-72531116D01*
X82436635Y-72509000D01*
X82663365Y-72509000D01*
X82774549Y-72531116D01*
X82774549Y-72531116D01*
G37*
G36*
X104437000Y-73718265D02*
G01*
X104439402Y-73742651D01*
X104446515Y-73766100D01*
X104458066Y-73787711D01*
X104473611Y-73806653D01*
X104492553Y-73822198D01*
X104514164Y-73833749D01*
X104537613Y-73840862D01*
X104561999Y-73843264D01*
X104586385Y-73840862D01*
X104609834Y-73833749D01*
X104631445Y-73822198D01*
X104650387Y-73806653D01*
X104665932Y-73787711D01*
X104672233Y-73777198D01*
X104695644Y-73733400D01*
X104764499Y-73649499D01*
X104776053Y-73640017D01*
X104848400Y-73580643D01*
X104916945Y-73544005D01*
X104944121Y-73529479D01*
X105047985Y-73497973D01*
X105128933Y-73490000D01*
X105183067Y-73490000D01*
X105264015Y-73497973D01*
X105367879Y-73529479D01*
X105395055Y-73544005D01*
X105463600Y-73580643D01*
X105547501Y-73649499D01*
X105616357Y-73733400D01*
X105651369Y-73798904D01*
X105667521Y-73829121D01*
X105671388Y-73841869D01*
X105680760Y-73864496D01*
X105694374Y-73884870D01*
X105711701Y-73902197D01*
X105732075Y-73915811D01*
X105754714Y-73925188D01*
X105778747Y-73929969D01*
X105803251Y-73929969D01*
X105827285Y-73925189D01*
X105849924Y-73915812D01*
X105870298Y-73902198D01*
X105887625Y-73884871D01*
X105901239Y-73864497D01*
X105910612Y-73841869D01*
X105914479Y-73829121D01*
X105930631Y-73798904D01*
X105965643Y-73733400D01*
X106034499Y-73649499D01*
X106118400Y-73580643D01*
X106186945Y-73544005D01*
X106214121Y-73529479D01*
X106317985Y-73497973D01*
X106398933Y-73490000D01*
X106453067Y-73490000D01*
X106534015Y-73497973D01*
X106637879Y-73529479D01*
X106665055Y-73544005D01*
X106733600Y-73580643D01*
X106817501Y-73649499D01*
X106886357Y-73733400D01*
X106921369Y-73798904D01*
X106937521Y-73829121D01*
X106941388Y-73841869D01*
X106950760Y-73864496D01*
X106964374Y-73884870D01*
X106981701Y-73902197D01*
X107002075Y-73915811D01*
X107024714Y-73925188D01*
X107048747Y-73929969D01*
X107073251Y-73929969D01*
X107097285Y-73925189D01*
X107119924Y-73915812D01*
X107140298Y-73902198D01*
X107157625Y-73884871D01*
X107171239Y-73864497D01*
X107180612Y-73841869D01*
X107184479Y-73829121D01*
X107200631Y-73798904D01*
X107235643Y-73733400D01*
X107304499Y-73649499D01*
X107388400Y-73580643D01*
X107456945Y-73544005D01*
X107484121Y-73529479D01*
X107587985Y-73497973D01*
X107668933Y-73490000D01*
X107723067Y-73490000D01*
X107804015Y-73497973D01*
X107907879Y-73529479D01*
X107935055Y-73544005D01*
X108003600Y-73580643D01*
X108087501Y-73649499D01*
X108156357Y-73733400D01*
X108191369Y-73798904D01*
X108207521Y-73829121D01*
X108211388Y-73841869D01*
X108220760Y-73864496D01*
X108234374Y-73884870D01*
X108251701Y-73902197D01*
X108272075Y-73915811D01*
X108294714Y-73925188D01*
X108318747Y-73929969D01*
X108343251Y-73929969D01*
X108367285Y-73925189D01*
X108389924Y-73915812D01*
X108410298Y-73902198D01*
X108427625Y-73884871D01*
X108441239Y-73864497D01*
X108450612Y-73841869D01*
X108454479Y-73829121D01*
X108470631Y-73798904D01*
X108505643Y-73733400D01*
X108574499Y-73649499D01*
X108658400Y-73580643D01*
X108726945Y-73544005D01*
X108754121Y-73529479D01*
X108857985Y-73497973D01*
X108938933Y-73490000D01*
X108993067Y-73490000D01*
X109074015Y-73497973D01*
X109177879Y-73529479D01*
X109205055Y-73544005D01*
X109273600Y-73580643D01*
X109357501Y-73649499D01*
X109426357Y-73733400D01*
X109461369Y-73798904D01*
X109477521Y-73829121D01*
X109509027Y-73932985D01*
X109519666Y-74041000D01*
X109509027Y-74149015D01*
X109477521Y-74252879D01*
X109477191Y-74253496D01*
X109426357Y-74348600D01*
X109357501Y-74432501D01*
X109273600Y-74501357D01*
X109205055Y-74537995D01*
X109177879Y-74552521D01*
X109074015Y-74584027D01*
X108993067Y-74592000D01*
X108938933Y-74592000D01*
X108857985Y-74584027D01*
X108754121Y-74552521D01*
X108726945Y-74537995D01*
X108658400Y-74501357D01*
X108574499Y-74432501D01*
X108505643Y-74348600D01*
X108454809Y-74253496D01*
X108454479Y-74252879D01*
X108450612Y-74240131D01*
X108441240Y-74217504D01*
X108427626Y-74197130D01*
X108410299Y-74179803D01*
X108389925Y-74166189D01*
X108367286Y-74156812D01*
X108343253Y-74152031D01*
X108318749Y-74152031D01*
X108294715Y-74156811D01*
X108272076Y-74166188D01*
X108251702Y-74179802D01*
X108234375Y-74197129D01*
X108220761Y-74217503D01*
X108211388Y-74240131D01*
X108207521Y-74252879D01*
X108207191Y-74253496D01*
X108156357Y-74348600D01*
X108087501Y-74432501D01*
X108003600Y-74501357D01*
X107935055Y-74537995D01*
X107907879Y-74552521D01*
X107804015Y-74584027D01*
X107723067Y-74592000D01*
X107668933Y-74592000D01*
X107587985Y-74584027D01*
X107484121Y-74552521D01*
X107456945Y-74537995D01*
X107388400Y-74501357D01*
X107304499Y-74432501D01*
X107235643Y-74348600D01*
X107184809Y-74253496D01*
X107184479Y-74252879D01*
X107180612Y-74240131D01*
X107171240Y-74217504D01*
X107157626Y-74197130D01*
X107140299Y-74179803D01*
X107119925Y-74166189D01*
X107097286Y-74156812D01*
X107073253Y-74152031D01*
X107048749Y-74152031D01*
X107024715Y-74156811D01*
X107002076Y-74166188D01*
X106981702Y-74179802D01*
X106964375Y-74197129D01*
X106950761Y-74217503D01*
X106941388Y-74240131D01*
X106937521Y-74252879D01*
X106937191Y-74253496D01*
X106886357Y-74348600D01*
X106817501Y-74432501D01*
X106733600Y-74501357D01*
X106665055Y-74537995D01*
X106637879Y-74552521D01*
X106534015Y-74584027D01*
X106453067Y-74592000D01*
X106398933Y-74592000D01*
X106317985Y-74584027D01*
X106214121Y-74552521D01*
X106186945Y-74537995D01*
X106118400Y-74501357D01*
X106034499Y-74432501D01*
X105965643Y-74348600D01*
X105914809Y-74253496D01*
X105914479Y-74252879D01*
X105910612Y-74240131D01*
X105901240Y-74217504D01*
X105887626Y-74197130D01*
X105870299Y-74179803D01*
X105849925Y-74166189D01*
X105827286Y-74156812D01*
X105803253Y-74152031D01*
X105778749Y-74152031D01*
X105754715Y-74156811D01*
X105732076Y-74166188D01*
X105711702Y-74179802D01*
X105694375Y-74197129D01*
X105680761Y-74217503D01*
X105671388Y-74240131D01*
X105667521Y-74252879D01*
X105667191Y-74253496D01*
X105616357Y-74348600D01*
X105547501Y-74432501D01*
X105463600Y-74501357D01*
X105395055Y-74537995D01*
X105367879Y-74552521D01*
X105264015Y-74584027D01*
X105183067Y-74592000D01*
X105128933Y-74592000D01*
X105047985Y-74584027D01*
X104944121Y-74552521D01*
X104916945Y-74537995D01*
X104848400Y-74501357D01*
X104764499Y-74432501D01*
X104695645Y-74348601D01*
X104695644Y-74348600D01*
X104672236Y-74304807D01*
X104658625Y-74284437D01*
X104641298Y-74267110D01*
X104620924Y-74253496D01*
X104598285Y-74244119D01*
X104574252Y-74239338D01*
X104549748Y-74239338D01*
X104525714Y-74244118D01*
X104503076Y-74253495D01*
X104482701Y-74267109D01*
X104465374Y-74284436D01*
X104451760Y-74304810D01*
X104442383Y-74327449D01*
X104437602Y-74351482D01*
X104437000Y-74363735D01*
X104437000Y-74592000D01*
X103335000Y-74592000D01*
X103335000Y-73490000D01*
X104437000Y-73490000D01*
X104437000Y-73718265D01*
X104437000Y-73718265D01*
G37*
M02*
