M48
; DRILL file {KiCad (5.1.2)-1} date 14/08/2019 03:08:01
; FORMAT={3:3/ absolute / metric / suppress leading zeros}
; #@! TF.CreationDate,2019-08-14T03:08:01+02:00
; #@! TF.GenerationSoftware,Kicad,Pcbnew,(5.1.2)-1
; #@! TF.FileFunction,Plated,1,2,PTH
FMAT,2
METRIC,TZ
T1C0.400
T2C0.600
T3C0.700
T4C0.800
T5C0.850
T6C0.900
T7C1.016
T8C1.100
T9C1.290
T10C1.320
T11C1.520
%
G90
G05
T1
X82042Y-103505
X87243Y-103302
X88816Y-96195
X88843Y-92571
X89901Y-102474
X93121Y-77563
X93472Y-106807
X93980Y-81280
X94283Y-99869
X95064Y-106612
X95431Y-98123
X95472Y-110744
X96979Y-105537
X97600Y-81280
X97779Y-98377
X99297Y-104948
X100291Y-110490
X100330Y-83439
X101246Y-96787
X101600Y-104394
X101915Y-106427
X101981Y-90805
X102997Y-87697
X104394Y-106426
X104508Y-95521
X105950Y-100330
X108222Y-120983
X110094Y-102166
X110490Y-93599
X110539Y-116005
X110617Y-106080
X110744Y-75946
X110998Y-90805
X111261Y-108764
X111449Y-102152
X111506Y-74168
X111610Y-111204
X111991Y-101023
X112776Y-88773
X113243Y-115847
X113501Y-87980
X115460Y-122090
X116248Y-103441
X120034Y-107906
X120787Y-105933
X122428Y-118491
X122809Y-121666
X122965Y-106680
X125857Y-110617
X130175Y-104090
X131022Y-118597
T2
X115316Y-81534
X115316Y-82804
X115316Y-84074
T3
X103886Y-74041
X105156Y-74041
X106426Y-74041
X107696Y-74041
X108966Y-74041
T4
X99060Y-85090
X99060Y-87630
X99060Y-90170
T5
X84265Y-86146
X84265Y-91146
T6
X114300Y-76962
X116840Y-76962
T7
X88908Y-74303
X91448Y-74303
X93988Y-74303
X96528Y-74303
T8
X82550Y-95250
X82550Y-105410
T9
X116360Y-93980
T10
X118360Y-87980
X118360Y-99980
X130560Y-87980
X130560Y-99980
T11
X102108Y-127889
X107188Y-127889
X83312Y-114554
X83312Y-119634
X123190Y-81280
X128270Y-81280
X133350Y-81280
X89535Y-127889
X94615Y-127889
T2
G00X81215Y-85146
M15
G01X81915Y-85146
M16
G05
G00X81915Y-92146
M15
G01X81215Y-92146
M16
G05
T0
M30
